<svg id="solicitud-de-cotizacion" xmlns="http://www.w3.org/2000/svg" width="51.51" height="63.857" viewBox="0 0 51.51 63.857">
  <path id="Trazado_1093499" data-name="Trazado 1093499" d="M233.773,434.106a3.167,3.167,0,1,0,3.167,3.167A3.171,3.171,0,0,0,233.773,434.106Zm0,4.464a1.3,1.3,0,1,1,1.3-1.3A1.3,1.3,0,0,1,233.773,438.57Z" transform="translate(-208.018 -379.964)" fill="#20849e"/>
  <path id="Trazado_1093500" data-name="Trazado 1093500" d="M345.648,272.263a.935.935,0,0,0,.935-.935v-.761a3.986,3.986,0,0,0,2.95-3.189,3.464,3.464,0,0,0-2.383-3.965,10.977,10.977,0,0,1-2.808-1.309,1.09,1.09,0,0,1-.279-1.058,1.442,1.442,0,0,1,.96-1.138,2.407,2.407,0,0,1,2.223.361l.219.2a.935.935,0,0,0,1.265-1.378l-.223-.2a4.134,4.134,0,0,0-1.925-.9v-.6a.935.935,0,1,0-1.871,0v.667q-.113.028-.229.063a3.294,3.294,0,0,0-2.259,2.583,2.92,2.92,0,0,0,.963,2.876,11.659,11.659,0,0,0,3.339,1.6,1.633,1.633,0,0,1,1.162,1.891,2.063,2.063,0,0,1-2.047,1.74,3.3,3.3,0,0,1-2.348-.619.935.935,0,1,0-1.024,1.566,4.761,4.761,0,0,0,2.443.9v.674A.935.935,0,0,0,345.648,272.263Z" transform="translate(-305.385 -224.466)" fill="#20849e"/>
  <path id="Trazado_1093501" data-name="Trazado 1093501" d="M92.3,48.167h4.21A2.809,2.809,0,0,0,99.32,45.36V41.15a2.809,2.809,0,0,0-2.806-2.806H92.3A2.809,2.809,0,0,0,89.5,41.15v4.21A2.809,2.809,0,0,0,92.3,48.167Zm-.935-7.016a.936.936,0,0,1,.935-.935h4.21a.936.936,0,0,1,.935.935v4.21a.936.936,0,0,1-.935.935H92.3a.936.936,0,0,1-.935-.935Z" transform="translate(-84.509 -33.562)" fill="#20849e"/>
  <path id="Trazado_1093502" data-name="Trazado 1093502" d="M89.5,154.415a2.809,2.809,0,0,0,2.806,2.806h4.21a2.809,2.809,0,0,0,2.806-2.806v-4.21a2.809,2.809,0,0,0-2.806-2.806H92.3a2.809,2.809,0,0,0-2.806,2.806Zm1.871-4.21a.936.936,0,0,1,.935-.935h4.21a.936.936,0,0,1,.935.935v4.21a.936.936,0,0,1-.935.935H92.3a.936.936,0,0,1-.935-.935Z" transform="translate(-84.509 -129.015)" fill="#20849e"/>
  <path id="Trazado_1093503" data-name="Trazado 1093503" d="M190.533,103.971h24.858a.935.935,0,1,0,0-1.871H190.533a.935.935,0,1,0,0,1.871Z" transform="translate(-172.125 -89.366)" fill="#20849e"/>
  <path id="Trazado_1093504" data-name="Trazado 1093504" d="M190.533,181.147h24.858a.935.935,0,1,0,0-1.871H190.533a.935.935,0,0,0,0,1.871Z" transform="translate(-172.125 -156.917)" fill="#20849e"/>
  <path id="Trazado_1093505" data-name="Trazado 1093505" d="M190.533,290.2h12.429a.935.935,0,1,0,0-1.871H190.533a.935.935,0,1,0,0,1.871Z" transform="translate(-172.125 -252.369)" fill="#20849e"/>
  <path id="Trazado_1093506" data-name="Trazado 1093506" d="M190.533,322.078h12.429a.935.935,0,1,0,0-1.871H190.533a.935.935,0,1,0,0,1.871Z" transform="translate(-172.125 -280.27)" fill="#20849e"/>
  <path id="Trazado_1093507" data-name="Trazado 1093507" d="M90.433,370.527h24.914a.935.935,0,1,0,0-1.871H90.433a.935.935,0,1,0,0,1.871Z" transform="translate(-84.509 -322.677)" fill="#20849e"/>
  <path id="Trazado_1093508" data-name="Trazado 1093508" d="M95.709,0H54.8a5.307,5.307,0,0,0-5.3,5.3V25.525a.935.935,0,0,0,1.871,0V5.3a3.434,3.434,0,0,1,3.43-3.43H95.709a3.434,3.434,0,0,1,3.43,3.43V50.761H51.371V29.6a.935.935,0,0,0-1.871,0V58.557a5.307,5.307,0,0,0,5.3,5.3H95.709a5.307,5.307,0,0,0,5.3-5.3V5.3A5.307,5.307,0,0,0,95.709,0Zm0,61.986H54.8a3.434,3.434,0,0,1-3.43-3.43V52.632H99.139v5.924A3.434,3.434,0,0,1,95.709,61.986Z" transform="translate(-49.5)" fill="#20849e"/>
  <path id="Trazado_1093509" data-name="Trazado 1093509" d="M190.533,213.025h24.858a.935.935,0,1,0,0-1.871H190.533a.935.935,0,1,0,0,1.871Z" transform="translate(-172.125 -184.819)" fill="#20849e"/>
  <path id="Trazado_1093510" data-name="Trazado 1093510" d="M353.841,72.093a.935.935,0,0,0,0-1.871h-5.13a.935.935,0,0,0,0,1.871Z" transform="translate(-310.575 -61.464)" fill="#20849e"/>
  <path id="Trazado_1093511" data-name="Trazado 1093511" d="M190.533,72.093h15.651a.935.935,0,1,0,0-1.871H190.533a.935.935,0,0,0,0,1.871Z" transform="translate(-172.125 -61.464)" fill="#20849e"/>
  <path id="Trazado_1093512" data-name="Trazado 1093512" d="M89.5,263.468a2.809,2.809,0,0,0,2.806,2.806.935.935,0,0,0,0-1.871.936.936,0,0,1-.935-.935v-4.21a.936.936,0,0,1,.935-.935h4.21a.936.936,0,0,1,.935.935v4.21a.936.936,0,0,1-.935.935.935.935,0,1,0,0,1.871,2.809,2.809,0,0,0,2.806-2.806v-4.21a2.809,2.809,0,0,0-2.806-2.806H92.3a2.809,2.809,0,0,0-2.806,2.806Z" transform="translate(-84.509 -224.467)" fill="#20849e"/>
</svg>
