<svg xmlns="http://www.w3.org/2000/svg" width="105.006" height="105.006" viewBox="0 0 105.006 105.006">
  <g id="Grupo_1191475" data-name="Grupo 1191475" transform="translate(-747.497 -2444.327)">
    <circle id="Elipse_13739" data-name="Elipse 13739" cx="52.503" cy="52.503" r="52.503" transform="translate(747.497 2444.327)" fill="#e9f8fc"/>
    <g id="Ladder-up" transform="translate(772.321 2464.555)">
      <path id="Trazado_1093724" data-name="Trazado 1093724" d="M58.431,6.016H47.26a.929.929,0,0,0-.929.929V18.587h-10.6a.929.929,0,0,0-.929.929v9.59H23.973a.929.929,0,0,0-.929.929V41.129H12.67a.929.929,0,0,0-.929.929V52.39H.927a.929.929,0,0,0,0,1.859H12.67a.929.929,0,0,0,.929-.929V42.988H23.973a.929.929,0,0,0,.929-.929V30.965H35.731a.929.929,0,0,0,.929-.929v-9.59h10.6a.929.929,0,0,0,.929-.929V7.874H58.431a.929.929,0,1,0,0-1.859Z" transform="translate(0 -0.003)" fill="#20849e"/>
      <path id="Trazado_1093725" data-name="Trazado 1093725" d="M7.93,22.677a.892.892,0,0,0,.632-.262L21.808,9.17v8.9a.962.962,0,1,0,1.924,0V6.942a.961.961,0,0,0-.962-.962H11.64a.962.962,0,1,0,0,1.924h8.9L7.3,21.149a.895.895,0,0,0,.632,1.528Z" transform="translate(-14.51 19)" fill="#20849e"/>
    </g>
  </g>
</svg>
