<svg xmlns="http://www.w3.org/2000/svg" width="74.693" height="68.077" viewBox="0 0 74.693 68.077">
  <g id="cotizacion_1_" data-name="cotizacion (1)" transform="translate(0 -22.677)">
    <path id="Trazado_1093513" data-name="Trazado 1093513" d="M69.11,22.677H28.09a5.594,5.594,0,0,0-5.583,5.592V42.75H5.583A5.594,5.594,0,0,0,0,48.342V80.528A5.594,5.594,0,0,0,5.583,86.12h.88a4.071,4.071,0,0,1,3.8,2.658l.376,1.021a1.459,1.459,0,0,0,2.212.687l5.115-3.621a4.027,4.027,0,0,1,2.339-.745H46.6a5.594,5.594,0,0,0,5.583-5.592V64.589h2.2a4.026,4.026,0,0,1,2.339.745l5.115,3.621a1.459,1.459,0,0,0,2.212-.687l.376-1.021a4.071,4.071,0,0,1,3.8-2.658h.88A5.594,5.594,0,0,0,74.693,59V28.269a5.594,5.594,0,0,0-5.583-5.592ZM49.27,80.528A2.673,2.673,0,0,1,46.6,83.2H20.309a6.928,6.928,0,0,0-4.025,1.281l-3.6,2.549A7,7,0,0,0,6.464,83.2h-.88a2.673,2.673,0,0,1-2.666-2.674V48.342a2.673,2.673,0,0,1,2.666-2.674H46.6a2.673,2.673,0,0,1,2.666,2.674ZM71.776,59a2.673,2.673,0,0,1-2.666,2.674h-.88a7,7,0,0,0-6.221,3.83l-3.6-2.549a6.929,6.929,0,0,0-4.025-1.281h-2.2V48.342a5.565,5.565,0,0,0-.681-2.674H61.785a1.459,1.459,0,1,0,0-2.918H25.424V28.269a2.673,2.673,0,0,1,2.666-2.674H69.11a2.673,2.673,0,0,1,2.666,2.674Z" fill="#7d8c48"/>
    <path id="Trazado_1093514" data-name="Trazado 1093514" d="M80.352,230.007H67.845a1.459,1.459,0,0,0-1.459,1.459v6.959a1.459,1.459,0,0,0,1.459,1.459h5.4c.064,1.591-.125,3.944-1.31,5.244a3.654,3.654,0,0,1-3.147,1.013,1.459,1.459,0,0,0-1.558,1.456v5.145a1.458,1.458,0,0,0,.034.315,2.124,2.124,0,0,0,2.074,1.69c.039,0,.077,0,.118,0a17.769,17.769,0,0,0,2.135-.279A12.432,12.432,0,0,0,81.755,243.6c.045-.446.057-4.465.057-4.5v-7.633a1.459,1.459,0,0,0-1.459-1.459ZM78.894,239.1c0,.551-.019,3.817-.043,4.225a9.5,9.5,0,0,1-7.784,8.268q-.5.091-.922.149v-2.713a6.024,6.024,0,0,0,3.943-1.934c2.82-3.091,1.96-8.665,1.922-8.9a1.459,1.459,0,0,0-1.44-1.227H69.3v-4.041h9.59Z" transform="translate(-56.701 -177.083)" fill="#7d8c48"/>
    <path id="Trazado_1093515" data-name="Trazado 1093515" d="M199.571,230.007H187.064a1.459,1.459,0,0,0-1.459,1.459v6.959a1.459,1.459,0,0,0,1.459,1.459h5.4c.064,1.591-.125,3.944-1.31,5.244A3.654,3.654,0,0,1,188,246.14a1.459,1.459,0,0,0-1.558,1.456v5.145a1.462,1.462,0,0,0,.034.315,2.123,2.123,0,0,0,2.074,1.69c.039,0,.077,0,.118,0a17.769,17.769,0,0,0,2.135-.279A12.432,12.432,0,0,0,200.974,243.6c.044-.439.057-4.465.057-4.5v-7.633a1.459,1.459,0,0,0-1.459-1.459Zm-1.459,9.092c0,.551-.019,3.816-.043,4.225a9.5,9.5,0,0,1-7.784,8.268q-.5.091-.921.149v-2.713a6.025,6.025,0,0,0,3.943-1.934c2.82-3.091,1.96-8.665,1.921-8.9a1.459,1.459,0,0,0-1.44-1.227h-5.266v-4.041h9.59Z" transform="translate(-158.528 -177.083)" fill="#7d8c48"/>
    <path id="Trazado_1093516" data-name="Trazado 1093516" d="M260.584,97.255H234.213a1.459,1.459,0,1,0,0,2.918h26.371a1.459,1.459,0,0,0,0-2.918Z" transform="translate(-198.798 -63.698)" fill="#7d8c48"/>
  </g>
</svg>
