<svg id="comunicaciones" xmlns="http://www.w3.org/2000/svg" width="92.001" height="92.001" viewBox="0 0 92.001 92.001">
  <path id="Trazado_1093307" data-name="Trazado 1093307" d="M79.53,38.277h-17.3V26A12.488,12.488,0,0,0,49.761,13.531H48.753a1.348,1.348,0,1,0,0,2.7h1.008A9.79,9.79,0,0,1,59.539,26V44.345a9.79,9.79,0,0,1-9.779,9.779h-4.1a1.348,1.348,0,0,0-1.3,1.72,25.492,25.492,0,0,0,2.59,6.085,1.714,1.714,0,0,1-1.731,2.6c-4.758-.848-10.946-3.193-13.4-9.547a1.347,1.347,0,0,0-1.257-.862H12.477A9.79,9.79,0,0,1,2.7,44.345V26a9.79,9.79,0,0,1,9.779-9.779H24.352l1,10.945h0l0,.019v0h0a5.793,5.793,0,0,0,11.539,0c0-.046.307-3.377,1-10.97h4.578a1.348,1.348,0,1,0,0-2.7H38.131l.553-6.082A6.835,6.835,0,0,0,31.88,0H30.358a6.834,6.834,0,0,0-6.8,7.449l.553,6.082H12.477A12.488,12.488,0,0,0,0,26V44.345A12.488,12.488,0,0,0,12.477,56.819h17.19c.034.075.07.148.105.223v12.05A12.488,12.488,0,0,0,42.246,81.566H44.5a21.5,21.5,0,0,1-1.753,3.723,4.409,4.409,0,0,0,4.514,6.64C52.479,91,59.232,88.444,62.34,81.566h5.8a1.348,1.348,0,1,0,0-2.7h-6.7a1.347,1.347,0,0,0-1.257.861c-2.464,6.359-8.648,8.7-13.4,9.544a1.712,1.712,0,0,1-1.731-2.6,25.524,25.524,0,0,0,2.591-6.086,1.348,1.348,0,0,0-1.3-1.72h-4.1a9.79,9.79,0,0,1-9.779-9.779v-8.03c2.847,3.1,7,5.183,12.283,6.125a4.411,4.411,0,0,0,4.513-6.645,21.435,21.435,0,0,1-1.753-3.722h2.249A12.488,12.488,0,0,0,62.235,44.345V40.973h17.3a9.789,9.789,0,0,1,9.779,9.777V69.092a9.79,9.79,0,0,1-9.779,9.779h-5.1a1.348,1.348,0,0,0,0,2.7h5.1A12.488,12.488,0,0,0,92,69.092V50.749A12.487,12.487,0,0,0,79.53,38.277ZM30.358,2.7h1.523A4.131,4.131,0,0,1,36,7.2L34.2,26.951a3.1,3.1,0,0,1-6.171-.005L26.239,7.2A4.131,4.131,0,0,1,30.358,2.7Z" transform="translate(-0.003 0)" fill="#fec190"/>
  <path id="Trazado_1093308" data-name="Trazado 1093308" d="M142.309,195.789a6.76,6.76,0,1,0,6.76,6.759A6.768,6.768,0,0,0,142.309,195.789Zm0,10.825a4.065,4.065,0,1,1,4.066-4.068A4.069,4.069,0,0,1,142.309,206.614Z" transform="translate(-111.193 -160.608)" fill="#fec190"/>
  <path id="Trazado_1093309" data-name="Trazado 1093309" d="M316.275,362.8a1.347,1.347,0,0,0,1.348,1.348h23a1.348,1.348,0,0,0,0-2.7h-23A1.348,1.348,0,0,0,316.275,362.8Z" transform="translate(-259.444 -296.507)" fill="#fec190"/>
  <path id="Trazado_1093310" data-name="Trazado 1093310" d="M371.512,311.439a1.348,1.348,0,0,0,0-2.7H355.275a1.348,1.348,0,0,0,0,2.7Z" transform="translate(-290.331 -253.266)" fill="#fec190"/>
</svg>
