<svg xmlns="http://www.w3.org/2000/svg" width="82.696" height="83.848" viewBox="0 0 82.696 83.848">
  <g id="interactivo" transform="translate(-3.515)">
    <path id="Trazado_1093289" data-name="Trazado 1093289" d="M128.435,37.43H115.611a1.228,1.228,0,0,0,0,2.456h12.823a1.228,1.228,0,0,0,0-2.456Z" transform="translate(-92.712 -31.3)" fill="#b3c867"/>
    <path id="Trazado_1093290" data-name="Trazado 1093290" d="M54.149,39.886h3.737a1.228,1.228,0,1,0,0-2.456H54.149a1.228,1.228,0,0,0,0,2.456Z" transform="translate(-41.315 -31.3)" fill="#b3c867"/>
    <path id="Trazado_1093291" data-name="Trazado 1093291" d="M54.149,75.84H66.972a1.228,1.228,0,1,0,0-2.456H54.149a1.228,1.228,0,1,0,0,2.456Z" transform="translate(-41.315 -61.366)" fill="#b3c867"/>
    <path id="Trazado_1093292" data-name="Trazado 1093292" d="M174.83,73.384h-3.737a1.228,1.228,0,1,0,0,2.456h3.737a1.228,1.228,0,1,0,0-2.456Z" transform="translate(-139.107 -61.366)" fill="#b3c867"/>
    <path id="Trazado_1093293" data-name="Trazado 1093293" d="M78.97,26.67a5.84,5.84,0,0,0-5.7,4.605H66.562a12.7,12.7,0,0,0-2.807-6.792l8.436-8.444A8.25,8.25,0,0,0,83.794,4.31a8.253,8.253,0,0,0-13.1,9.751l-.024.022-8.657,8.665a12.758,12.758,0,0,0-1.706-1.183A12.608,12.608,0,0,0,46,22.748l-3.89-3.894a4.119,4.119,0,0,0,.672-2.258V4.142A4.145,4.145,0,0,0,38.643,0H10.768A4.145,4.145,0,0,0,6.629,4.142V16.6a4.145,4.145,0,0,0,4.139,4.142h9.68a1.228,1.228,0,0,0,0-2.456h-9.68A1.686,1.686,0,0,1,9.086,16.6V4.142a1.686,1.686,0,0,1,1.683-1.685H38.643a1.686,1.686,0,0,1,1.683,1.685V16.6a1.686,1.686,0,0,1-1.683,1.685H26.122a1.228,1.228,0,0,0,0,2.456H38.643a4.113,4.113,0,0,0,1.568-.31l4.057,4.061a12.637,12.637,0,0,0-2.655,10.347L26.9,43.347l0,0a13.215,13.215,0,0,0-16.766-2.981,13.235,13.235,0,1,0,18.159,5.013l14.039-8.117A12.526,12.526,0,0,0,49.514,44.3V56.261a10.607,10.607,0,0,1-.078,1.4c-2.5-3.619-4.8-6.293-9.223-5.524A3.785,3.785,0,0,0,37.2,54.432a3.974,3.974,0,0,0,.744,3.869L48.269,73.458A11.364,11.364,0,0,1,50.577,81a2.85,2.85,0,0,0,2.849,2.845H72.777A2.85,2.85,0,0,0,75.625,81v-5.01a6.5,6.5,0,0,1,.906-3.587,13.082,13.082,0,0,0,1.557-5.223,1.258,1.258,0,0,0,.007-.131V62.846a1.228,1.228,0,1,0-2.456,0v4.139a10.631,10.631,0,0,1-1.292,4.3,8.9,8.9,0,0,0-1.177,4.709V81a.4.4,0,0,1-.392.389H53.426A.4.4,0,0,1,53.034,81,13.759,13.759,0,0,0,50.3,72.076L39.956,56.889c-.014-.021-.029-.042-.045-.062a1.627,1.627,0,0,1-.417-1.512,1.407,1.407,0,0,1,1.143-.759c2.836-.494,4.354.972,6.893,4.667.017.025.036.05.055.074.927,1.154,1.854,1.578,2.756,1.26,1.128-.4,1.631-1.722,1.631-4.3V32.792a2.046,2.046,0,1,1,4.076,0V53.974a1.228,1.228,0,1,0,2.456,0V44.145a2,2,0,0,1,2.038-2.229,2.222,2.222,0,0,1,.689.109q.055.024.112.042a2.032,2.032,0,0,1,1.237,2.078V55.615a1.228,1.228,0,0,0,2.456,0V46.929a2.046,2.046,0,1,1,4.076,0V57.255a1.228,1.228,0,1,0,2.456,0V49.713A2,2,0,0,1,73.6,47.482a2.056,2.056,0,0,1,1.4.531,2.232,2.232,0,0,1,.634,1.7v7.459a1.228,1.228,0,1,0,2.456,0V49.712A4.442,4.442,0,0,0,73.6,45.025a4.617,4.617,0,0,0-2.2.553,4.385,4.385,0,0,0-4.333-3.335,4.625,4.625,0,0,0-2.2.554,4.35,4.35,0,0,0-1.238-2.137,12.6,12.6,0,0,0,2.929-6.927h6.707a5.827,5.827,0,1,0,5.7-7.062Zm-5.1-20.623h0a5.794,5.794,0,0,1,8.187,8.2,5.794,5.794,0,0,1-8.188-8.2ZM22.123,61.169h0a10.757,10.757,0,0,1-14.71-3.947,10.772,10.772,0,1,1,14.711,3.947ZM64.167,32.523a10.154,10.154,0,0,1-2.817,7.008,4.648,4.648,0,0,0-2.848.4V32.792a4.5,4.5,0,1,0-8.989,0v8.831a10.159,10.159,0,1,1,14.654-9.149c0,.01,0,.02,0,.03s0,.013,0,.019Zm14.8,3.353A3.375,3.375,0,1,1,82.338,32.5,3.376,3.376,0,0,1,78.97,35.876Z" transform="translate(0)" fill="#b3c867"/>
    <path id="Trazado_1093294" data-name="Trazado 1093294" d="M54.116,278.691a6.225,6.225,0,0,0-3.22,12.025,6.185,6.185,0,0,0,4.722-.623h0a6.228,6.228,0,0,0-1.5-11.4Zm.273,9.276a3.771,3.771,0,1,1,1.376-5.145A3.74,3.74,0,0,1,54.389,287.966Z" transform="translate(-35.767 -232.871)" fill="#b3c867"/>
  </g>
</svg>
