<svg xmlns="http://www.w3.org/2000/svg" width="124" height="124" viewBox="0 0 124 124">
  <g id="Grupo_1191334" data-name="Grupo 1191334" transform="translate(-738.223 -2728.245)">
    <g id="Grupo_1190813" data-name="Grupo 1190813" transform="translate(-363.999 -458.207)">
      <circle id="Elipse_11474" data-name="Elipse 11474" cx="62" cy="62" r="62" transform="translate(1102.223 3186.452)" fill="#fff"/>
    </g>
    <g id="chat" transform="translate(755.859 2749.245)">
      <path id="Trazado_1093321" data-name="Trazado 1093321" d="M436.978,142.889a1.2,1.2,0,0,0,1.2-1.2V139.67a1.2,1.2,0,1,0-2.4,0v2.017A1.2,1.2,0,0,0,436.978,142.889Zm0,0" transform="translate(-365.985 -116.292)" fill="#20849e"/>
      <path id="Trazado_1093322" data-name="Trazado 1093322" d="M431.148,169.578H428.4a1.2,1.2,0,1,0,0,2.4h2.748a1.2,1.2,0,1,0,0-2.4Zm0,0" transform="translate(-358.78 -142.419)" fill="#20849e"/>
      <path id="Trazado_1093323" data-name="Trazado 1093323" d="M307.408,142.889a1.2,1.2,0,0,0,1.2-1.2V139.67a1.2,1.2,0,1,0-2.4,0v2.017A1.2,1.2,0,0,0,307.408,142.889Zm0,0" transform="translate(-257.166 -116.292)" fill="#20849e"/>
      <path id="Trazado_1093324" data-name="Trazado 1093324" d="M301.578,169.578H298.83a1.2,1.2,0,0,0,0,2.4h2.748a1.2,1.2,0,0,0,0-2.4Zm0,0" transform="translate(-249.962 -142.419)" fill="#20849e"/>
      <path id="Trazado_1093325" data-name="Trazado 1093325" d="M365.11,164.038a1.2,1.2,0,0,0-1.695.114,1.308,1.308,0,0,1-1.9,0,1.2,1.2,0,1,0-1.809,1.582,3.71,3.71,0,0,0,5.52,0,1.2,1.2,0,0,0-.114-1.7Zm0,0" transform="translate(-301.846 -137.517)" fill="#20849e"/>
      <path id="Trazado_1093326" data-name="Trazado 1093326" d="M57.951,383.369a1.2,1.2,0,0,0,1.2-1.2v-2.018a1.2,1.2,0,1,0-2.4,0v2.018A1.2,1.2,0,0,0,57.951,383.369Zm0,0" transform="translate(-47.661 -318.258)" fill="#20849e"/>
      <path id="Trazado_1093327" data-name="Trazado 1093327" d="M52.12,410.063H49.373a1.2,1.2,0,0,0,0,2.4h2.748a1.2,1.2,0,1,0,0-2.4Zm0,0" transform="translate(-40.457 -344.389)" fill="#20849e"/>
      <path id="Trazado_1093328" data-name="Trazado 1093328" d="M187.517,383.369a1.2,1.2,0,0,0,1.2-1.2v-2.018a1.2,1.2,0,0,0-2.4,0v2.018A1.2,1.2,0,0,0,187.517,383.369Zm0,0" transform="translate(-156.476 -318.258)" fill="#20849e"/>
      <path id="Trazado_1093329" data-name="Trazado 1093329" d="M178.939,412.465h2.748a1.2,1.2,0,0,0,0-2.4h-2.748a1.2,1.2,0,1,0,0,2.4Zm0,0" transform="translate(-149.272 -344.389)" fill="#20849e"/>
      <path id="Trazado_1093330" data-name="Trazado 1093330" d="M112.052,404.635a1.2,1.2,0,0,0-1.809,1.581,3.708,3.708,0,0,0,5.52,0,1.2,1.2,0,1,0-1.809-1.581,1.308,1.308,0,0,1-1.9,0Zm0,0" transform="translate(-92.337 -339.485)" fill="#20849e"/>
      <path id="Trazado_1093331" data-name="Trazado 1093331" d="M8.962,74.462H36.436a1.214,1.214,0,0,0,1.052-1.782l-3.567-6.455V54.536a8.972,8.972,0,0,0-8.962-8.962h-16A8.972,8.972,0,0,0,0,54.536V65.5a8.973,8.973,0,0,0,8.962,8.962ZM2.4,54.536a6.567,6.567,0,0,1,6.559-6.56h16a6.567,6.567,0,0,1,6.559,6.56v12a1.2,1.2,0,0,0,.15.581L34.4,72.06H8.962A6.567,6.567,0,0,1,2.4,65.5Zm0,0" transform="translate(0 -38.275)" fill="#20849e"/>
      <path id="Trazado_1093332" data-name="Trazado 1093332" d="M47.291,96.433H64.046a1.2,1.2,0,0,0,0-2.4H47.291a1.2,1.2,0,0,0,0,2.4Zm0,0" transform="translate(-38.708 -78.971)" fill="#20849e"/>
      <path id="Trazado_1093333" data-name="Trazado 1093333" d="M47.291,130.664H64.046a1.2,1.2,0,0,0,0-2.4H47.291a1.2,1.2,0,0,0,0,2.4Zm0,0" transform="translate(-38.708 -107.72)" fill="#20849e"/>
      <path id="Trazado_1093334" data-name="Trazado 1093334" d="M47.291,164.894H57.74a1.2,1.2,0,0,0,0-2.4H47.291a1.2,1.2,0,0,0,0,2.4Zm0,0" transform="translate(-38.708 -136.468)" fill="#20849e"/>
      <path id="Trazado_1093335" data-name="Trazado 1093335" d="M273.744,319.263h27.474a8.972,8.972,0,0,0,8.962-8.962V299.337a8.972,8.972,0,0,0-8.962-8.962h-16a8.973,8.973,0,0,0-8.962,8.962v11.689l-3.567,6.456a1.213,1.213,0,0,0,1.051,1.782Zm4.768-7.347a1.2,1.2,0,0,0,.15-.581v-12a6.567,6.567,0,0,1,6.56-6.56h16a6.567,6.567,0,0,1,6.559,6.56V310.3a6.567,6.567,0,0,1-6.559,6.56H275.78Zm0,0" transform="translate(-228.897 -243.87)" fill="#20849e"/>
      <path id="Trazado_1093336" data-name="Trazado 1093336" d="M343.017,341.238h16.755a1.2,1.2,0,0,0,0-2.4H343.017a1.2,1.2,0,0,0,0,2.4Zm0,0" transform="translate(-287.072 -284.569)" fill="#20849e"/>
      <path id="Trazado_1093337" data-name="Trazado 1093337" d="M360.974,374.264a1.2,1.2,0,0,0-1.2-1.2H343.018a1.2,1.2,0,1,0,0,2.4h16.755A1.2,1.2,0,0,0,360.974,374.264Zm0,0" transform="translate(-287.073 -313.315)" fill="#20849e"/>
      <path id="Trazado_1093338" data-name="Trazado 1093338" d="M394.043,408.494a1.2,1.2,0,0,0-1.2-1.2H382.393a1.2,1.2,0,0,0,0,2.4h10.449A1.2,1.2,0,0,0,394.043,408.494Zm0,0" transform="translate(-320.142 -342.063)" fill="#20849e"/>
      <path id="Trazado_1093339" data-name="Trazado 1093339" d="M270.126,43.485a20.884,20.884,0,0,0,20.664-21.051,21.408,21.408,0,0,0-.946-6.3C289.253,9.1,287.654,5.044,284.669,3c-2.818-1.932-6.526-1.819-10.82-1.687-1.192.036-2.425.074-3.723.074-7.95,0-11.674-.792-13.186-1.264a2.606,2.606,0,0,0-3.107,1.306A36.463,36.463,0,0,0,251.2,8.495a1.2,1.2,0,0,0,2.32.622,34.061,34.061,0,0,1,2.451-6.6.206.206,0,0,1,.25-.1c2.006.626,6.047,1.372,13.9,1.372,1.334,0,2.586-.038,3.8-.075,4.033-.124,7.218-.221,9.388,1.267,2.152,1.476,3.443,4.721,4.027,10.162a49.729,49.729,0,0,1-5.416-.315,38.323,38.323,0,0,1-5.143-1.028,22.362,22.362,0,0,0-6.653-.948,34.1,34.1,0,0,0-8.233.958,24.274,24.274,0,0,0-6.576,2.681A19.552,19.552,0,0,0,252,18.974l-.041.038a52.745,52.745,0,0,1,.586-5.34,1.2,1.2,0,0,0-2.371-.386,57.18,57.18,0,0,0-.718,9.148,20.885,20.885,0,0,0,20.666,21.051Zm0-2.4a18.472,18.472,0,0,1-18.26-18.308c0-.011.026-.039.033-.048a14.634,14.634,0,0,1,4.379-3.991,26.191,26.191,0,0,1,16.3-3.361c2.692.3,5.261,1.288,7.942,1.684a52.285,52.285,0,0,0,7.035.488l.2,0a19.042,19.042,0,0,1,.634,4.886,18.48,18.48,0,0,1-18.263,18.648Zm0,0" transform="translate(-209.508 0)" fill="#20849e"/>
      <path id="Trazado_1093340" data-name="Trazado 1093340" d="M.019,282.2a7.451,7.451,0,0,0,6.634,7.412l9.135,1.016a20.326,20.326,0,0,0,9.764,0l9.135-1.016a7.451,7.451,0,0,0,6.634-7.412V270.915c0-.518.018-1.034,0-1.553a21.113,21.113,0,0,0-6.294-14.329,20.418,20.418,0,0,0-30.754,2.332,1.2,1.2,0,0,0,1.918,1.446,18.016,18.016,0,0,1,27.151-2.066,18.691,18.691,0,0,1,5.469,11.249q-.442-.085-.879-.192a29.165,29.165,0,0,1-9.7-4.673l-.009-.006a45.824,45.824,0,0,1-5.263-4.35c-.388-.373-.769-.753-1.14-1.143a1.926,1.926,0,0,0-.77-.608,1.174,1.174,0,0,0-.748,0,2.4,2.4,0,0,0-.878.722c-.735.768-1.506,1.5-2.3,2.205a45.67,45.67,0,0,1-4.031,3.2A27.942,27.942,0,0,1,2.53,267.994a18.769,18.769,0,0,1,1.4-5.291,1.2,1.2,0,1,0-2.208-.947,21.225,21.225,0,0,0-1.706,7.607C0,269.88,0,270.4.019,270.915Zm8.842,5.241-1.943-.216a5.051,5.051,0,0,1-4.5-5.025v-2.133a21.257,21.257,0,0,0,2.263,3.446,20.867,20.867,0,0,0,3.889,3.716c.059.044.251.186.288.211ZM38.918,282.2a5.051,5.051,0,0,1-4.5,5.025l-1.943.216c.036-.026.23-.169.291-.215a20.849,20.849,0,0,0,3.885-3.713,21.245,21.245,0,0,0,2.263-3.446Zm-18-22.045a39.368,39.368,0,0,0,13.38,9.023,23.743,23.743,0,0,0,4.629,1.277c0,.129-.006.257-.011.385a.086.086,0,0,1,0,.013,18.841,18.841,0,0,1-6.632,13.7l-.018.015a17.933,17.933,0,0,1-23.216-.016,18.842,18.842,0,0,1-6.631-13.7.07.07,0,0,1,0-.012c0-.128-.008-.257-.01-.386.11-.018.22-.041.33-.061a25.246,25.246,0,0,0,3.366-.88,32.329,32.329,0,0,0,8.254-4.3l.007,0a45.246,45.246,0,0,0,6.3-5.3l.252.252Zm0,0" transform="translate(-0.004 -209.226)" fill="#20849e"/>
    </g>
  </g>
</svg>
