<svg xmlns="http://www.w3.org/2000/svg" width="90.406" height="90.406" viewBox="0 0 90.406 90.406">
  <path id="comunicacion-efectiva" d="M10.41,95.3c3.6-7.328,5.229-14.235,4.578-20.15v0a7.085,7.085,0,0,0-1.72-3.988l0,0a26.472,26.472,0,1,1,46.67-17.11,25.974,25.974,0,0,1-.131,2.673,7.1,7.1,0,0,0,.8,4.172l0,0a22.447,22.447,0,0,0,3.468,4.822q.039.043.075.089a3.874,3.874,0,0,1,.9,3.693,4.993,4.993,0,0,1-2.763,2.731c-.3.159-.384.429-.355.883a7.584,7.584,0,0,0,.306,1.543,2.412,2.412,0,0,1-.416,2.365,4.772,4.772,0,0,1-1.29,1.123,5.394,5.394,0,0,1,.644.743,3.151,3.151,0,0,1,.632,2.09,2.927,2.927,0,0,1-1.242,2.105l-.026.02a1.73,1.73,0,0,0-.538,1.094,12.5,12.5,0,0,0-.223,2.513,3.188,3.188,0,0,1-.662,2.162,3.657,3.657,0,0,1-1.935,1.218,13.279,13.279,0,0,1-5.555-.079L51.559,90c-2.822-.638-5.069-.52-6.725.533-1.635,1.039-2.616,2.958-3.1,5.67a1.458,1.458,0,0,1-1.436,1.2H11.718a1.458,1.458,0,0,1-1.309-2.1ZM58.871,80.7a1.068,1.068,0,0,0-.062-.11,3.15,3.15,0,0,0-.587-.614,8.914,8.914,0,0,0-1.461-.968,1.458,1.458,0,0,1,.581-2.736,3.843,3.843,0,0,0,1.731-.632,2.782,2.782,0,0,0,.334-.283,6.161,6.161,0,0,1-.11-3.988,3.372,3.372,0,0,1,1.665-1.735l.026-.013c.67-.329,1.154-.609,1.291-1.027.1-.3-.109-.585-.388-.942a25.291,25.291,0,0,1-3.87-5.409,9.892,9.892,0,0,1-1.12-5.815.036.036,0,0,1,0,0,23.031,23.031,0,0,0,.116-2.376A23.551,23.551,0,1,0,15.49,69.276a9.881,9.881,0,0,1,2.4,5.561c.639,5.813-.692,12.528-3.874,19.653h25.1a10.074,10.074,0,0,1,4.152-6.417c2.2-1.4,5.157-1.763,8.9-.924a13.207,13.207,0,0,0,3.721.24c.577-.075,1-.137.981-.58,0-.028,0-.055,0-.083.036-3.858.928-5.205,1.93-5.953.025-.02.052-.046.075-.069ZM33.053,65.2A12.993,12.993,0,1,1,46.045,52.2,13.019,13.019,0,0,1,33.053,65.2Zm0-2.916A10.077,10.077,0,1,0,22.976,52.2,10.092,10.092,0,0,0,33.053,62.28ZM26.6,53.56A1.458,1.458,0,0,1,28.665,51.5l2.181,2.181L37.5,47.642a1.458,1.458,0,1,1,1.959,2.16l-7.682,6.969a1.458,1.458,0,0,1-2.011-.049Zm70.8-20.007a5.64,5.64,0,0,1-5.634,5.628H73.528l-7.739,8.056a1.458,1.458,0,0,1-2.51-1.01V39.181H61.206a5.64,5.64,0,0,1-5.634-5.628V12.634A5.646,5.646,0,0,1,61.206,7H91.771a5.646,5.646,0,0,1,5.634,5.634Zm-2.916,0V12.634a2.724,2.724,0,0,0-2.718-2.718H61.206a2.724,2.724,0,0,0-2.718,2.718V33.553a2.719,2.719,0,0,0,2.718,2.712h3.532A1.458,1.458,0,0,1,66.2,37.723V42.6l5.659-5.891a1.458,1.458,0,0,1,1.052-.448H91.771a2.719,2.719,0,0,0,2.718-2.712ZM65.167,18a1.458,1.458,0,0,1,0-2.916H87.444a1.458,1.458,0,0,1,0,2.916Zm0,13.249a1.458,1.458,0,0,1,0-2.916H75.916a1.458,1.458,0,1,1,0,2.916Zm0-6.621a1.458,1.458,0,0,1,0-2.916H87.444a1.458,1.458,0,0,1,0,2.916ZM76.488,75.478a1.458,1.458,0,0,1,0,2.916h-4.23a1.458,1.458,0,0,1,0-2.916ZM71.27,65.8a1.458,1.458,0,0,1,2.062,2.062L70.341,70.85a1.458,1.458,0,0,1-2.062-2.062Zm2.062,20.216a1.458,1.458,0,1,1-2.062,2.062l-2.991-2.991a1.458,1.458,0,0,1,2.062-2.062Z" transform="translate(-7 -7)" fill="#fec190" fill-rule="evenodd"/>
</svg>
