<svg xmlns="http://www.w3.org/2000/svg" width="124" height="124" viewBox="0 0 124 124">
  <g id="Grupo_1191330" data-name="Grupo 1191330" transform="translate(151.546 8956.548)">
    <g id="Grupo_1190818" data-name="Grupo 1190818" transform="translate(-1253.769 -12143)">
      <circle id="Elipse_11474" data-name="Elipse 11474" cx="62" cy="62" r="62" transform="translate(1102.223 3186.452)" fill="#fff"/>
    </g>
    <g id="medios-de-comunicacion-social" transform="translate(-130.546 -8936.829)">
      <path id="Trazado_1093351" data-name="Trazado 1093351" d="M80.381,104.485H61.749a1.2,1.2,0,0,0,0,2.4H80.381a1.2,1.2,0,0,0,0-2.4Z" transform="translate(-50.851 -87.751)" fill="#20849e"/>
      <path id="Trazado_1093352" data-name="Trazado 1093352" d="M80.381,58.989H61.749a1.2,1.2,0,0,0,0,2.4H80.381a1.2,1.2,0,0,0,0-2.4Z" transform="translate(-50.851 -49.542)" fill="#20849e"/>
      <path id="Trazado_1093353" data-name="Trazado 1093353" d="M14.208,28.411h2.239l.03.025,7.434,6.06a1.685,1.685,0,0,0,1.066.484A1.257,1.257,0,0,0,25.4,34.9a1.434,1.434,0,0,0,.882-1.224c.008-.044.017-.093.029-.15l1.013-5.159A14.207,14.207,0,0,0,26.22,0H22.874a1.2,1.2,0,0,0,0,2.4H26.22A11.8,11.8,0,0,1,26.729,26a1.494,1.494,0,0,0-1.642,1.31l-.854,4.349-6.239-5.086-.122-.1a1.682,1.682,0,0,0-1.31-.464H14.208a11.8,11.8,0,1,1,0-23.606H17.29a1.2,1.2,0,0,0,0-2.4H14.208a14.206,14.206,0,1,0,0,28.411Z" transform="translate(0 0)" fill="#20849e"/>
      <path id="Trazado_1093354" data-name="Trazado 1093354" d="M279.661,86.174c.209-.05.376-.094.514-.131.083-.022.174-.046.236-.061.084.03.223.087.358.142l.24.1a19.483,19.483,0,1,0-3.8-34.157,1.2,1.2,0,0,0,1.362,1.979A17.075,17.075,0,1,1,281.9,83.992l-.227-.092a2.536,2.536,0,0,0-2.115-.18c-.125.033-.276.073-.463.118l-7.036,1.691,1.6-6.665.032-.134a2.109,2.109,0,0,0-.223-2.023c-.066-.107-.14-.228-.233-.4a17.1,17.1,0,0,1,1.625-18.822,1.2,1.2,0,1,0-1.879-1.5,19.5,19.5,0,0,0-1.852,21.475c.114.208.208.362.279.477-.016.068-.035.147-.053.225l-1.9,7.9a1.79,1.79,0,0,0,.287,1.779,1.36,1.36,0,0,0,1.006.4,3.24,3.24,0,0,0,.746-.11Z" transform="translate(-225.711 -40.853)" fill="#20849e"/>
      <path id="Trazado_1093355" data-name="Trazado 1093355" d="M320.59,117.743h3.055a2.46,2.46,0,0,0,2.143-1.258h.806a6.622,6.622,0,0,1,.821.025,2.257,2.257,0,0,1,.236.285,5.087,5.087,0,0,0,3.661,1.587h6.519a2.716,2.716,0,0,0,2.713-2.713v-8.757a2.716,2.716,0,0,0-2.713-2.713h-2.3a5.431,5.431,0,0,0-.213-3.689,5.244,5.244,0,0,0-3.228-2.647c-.065-.022-.126-.045-.183-.066a1.772,1.772,0,0,0-1.6.008,2.123,2.123,0,0,0-.869,1.608,12.761,12.761,0,0,1-1.3,3.522c-.856,1.59-1.493,1.931-1.617,1.936h-.737a2.46,2.46,0,0,0-2.142-1.253H320.59a2.459,2.459,0,0,0-2.459,2.454v9.211A2.462,2.462,0,0,0,320.59,117.743Zm11.118-17.455a2.635,2.635,0,0,1,1.432,1.24,3.846,3.846,0,0,1-.22,2.957,1.528,1.528,0,0,0,.1,1.49,1.5,1.5,0,0,0,1.327.627h3.491a.315.315,0,0,1,.311.311v8.757a.311.311,0,0,1-.311.311h-6.519a2.933,2.933,0,0,1-1.737-.623c-.9-1.214-1.6-1.275-2.959-1.275H326.1v-6.809h.42c2.835,0,4.7-4.919,5.184-6.986Zm-11.174,5.785a.059.059,0,0,1,.057-.052h3.055a.059.059,0,0,1,.056.052v9.211a.063.063,0,0,1-.056.056H320.59a.063.063,0,0,1-.057-.056Z" transform="translate(-267.181 -81.972)" fill="#20849e"/>
      <path id="Trazado_1093356" data-name="Trazado 1093356" d="M21.858,239.018A21.853,21.853,0,0,0,8.764,278.37a1.2,1.2,0,0,0,.254.186,21.809,21.809,0,0,0,25.7-.009,1.2,1.2,0,0,0,.225-.164,21.852,21.852,0,0,0-13.08-39.365ZM10.792,276.872v-.838c0-2.948,1.588-3.917,4.261-4.725l4.986,2.924a3.364,3.364,0,0,0,1.821.629,3.364,3.364,0,0,0,1.821-.629l4.986-2.924c2.67.807,4.257,1.775,4.257,4.725v.839a19.412,19.412,0,0,1-22.131,0Zm3.482-19.088a5.5,5.5,0,0,0,2.845-1.722c.546-.557.6-.615,1.133-.479.437.113.81.213,1.134.3a9.586,9.586,0,0,0,2.471.474,9.516,9.516,0,0,0,2.465-.472c.325-.087.7-.188,1.139-.3.534-.137.591-.079,1.136.479a5.493,5.493,0,0,0,2.843,1.722v1.657c0,2.707-2.764,6.2-5.8,7.322a4.521,4.521,0,0,1-3.564,0c-3.038-1.127-5.8-4.617-5.8-7.323v-1.657Zm.1-2.569c.622-4.827,4.167-7.1,7.488-7.167,3.321.064,6.866,2.339,7.488,7.166a3.892,3.892,0,0,1-1.031-.834,3.18,3.18,0,0,0-3.452-1.124c-.448.116-.83.218-1.161.307a8.381,8.381,0,0,1-1.843.39,8.472,8.472,0,0,1-1.85-.393c-.33-.088-.709-.19-1.155-.3A3.178,3.178,0,0,0,15.4,254.38a3.9,3.9,0,0,1-1.034.835Zm4.677,13.723c.065.026.13.053.2.077a6.882,6.882,0,0,0,5.235,0c.065-.024.129-.051.194-.077a3.816,3.816,0,0,0,1.029,1.326l-3.256,1.909-.045.028c-.529.342-.549.342-1.078,0l-.045-.028-3.255-1.909a3.806,3.806,0,0,0,1.026-1.327Zm16.218,6.029c-.528-4.545-4.459-5.594-7.385-6.374l-.563-.151c-.212-.058-.389-.342-.529-.645,2.9-2,5.057-5.394,5.057-8.357v-2.688a11.327,11.327,0,0,0-3.095-8.22,9.868,9.868,0,0,0-6.871-2.887h-.04a9.868,9.868,0,0,0-6.869,2.887,11.325,11.325,0,0,0-3.1,8.221v2.688c0,2.963,2.156,6.356,5.059,8.356-.139.3-.314.587-.523.644l-.559.15c-2.931.78-6.868,1.83-7.4,6.374a19.458,19.458,0,1,1,26.812,0Z" transform="translate(0 -200.738)" fill="#20849e"/>
      <path id="Trazado_1093357" data-name="Trazado 1093357" d="M306.294,321.407a15.268,15.268,0,0,0-14.643,10.964c-.037.124-.064.229-.086.315l-.057.035-5.328,3.262a1.631,1.631,0,0,0-.941,1.368,1.6,1.6,0,0,0,.929,1.337l5.506,3.375c.142.086.257.153.353.209l.082.048c.023.054.052.121.078.183l.08.189a15.264,15.264,0,1,0,14.027-21.286Zm9.1,24.356a12.87,12.87,0,0,1-20.913-4.015l-.074-.175a2.217,2.217,0,0,0-1.169-1.378c-.084-.049-.185-.107-.307-.181l-4.361-2.674,4.2-2.57a1.9,1.9,0,0,0,1.105-1.387c.02-.083.046-.19.089-.335a12.86,12.86,0,1,1,21.433,12.715Z" transform="translate(-239.557 -269.932)" fill="#20849e"/>
      <path id="Trazado_1093358" data-name="Trazado 1093358" d="M373.484,376.306a4.889,4.889,0,0,0-6.668.084,5.578,5.578,0,0,0,0,7.684l.03.03,5.8,5.6a1.2,1.2,0,0,0,1.668,0l5.806-5.6.03-.031a5.577,5.577,0,0,0,0-7.683A4.888,4.888,0,0,0,373.484,376.306Zm4.953,6.086-4.955,4.781-4.951-4.781a3.156,3.156,0,0,1,.013-4.333,2.516,2.516,0,0,1,3.474.158l.057.053c1.053.984,1.764.984,2.817,0l.058-.054a2.515,2.515,0,0,1,3.474-.156A3.155,3.155,0,0,1,378.438,382.392Z" transform="translate(-306.78 -314.972)" fill="#20849e"/>
    </g>
  </g>
</svg>
