<svg xmlns="http://www.w3.org/2000/svg" xmlns:xlink="http://www.w3.org/1999/xlink" width="188" height="196.96" viewBox="0 0 188 196.96">
  <defs>
    <clipPath id="clip-path">
      <rect id="Rectángulo_459990" data-name="Rectángulo 459990" width="173.949" height="137.36" fill="none"/>
    </clipPath>
    <clipPath id="clip-path-3">
      <rect id="Rectángulo_459974" data-name="Rectángulo 459974" width="7.695" height="0.716" fill="none"/>
    </clipPath>
  </defs>
  <g id="Grupo_1191182" data-name="Grupo 1191182" transform="translate(-186.174 -5504.373)">
    <g id="Grupo_1190588" data-name="Grupo 1190588" transform="translate(0.826 4707.373)">
      <rect id="Rectángulo_459619" data-name="Rectángulo 459619" width="188" height="196.96" rx="24" transform="translate(185.348 797)" fill="#f4ece4"/>
    </g>
    <g id="Grupo_1191271" data-name="Grupo 1191271" transform="translate(186.174 5530.667)">
      <g id="Grupo_1191270" data-name="Grupo 1191270" clip-path="url(#clip-path)">
        <rect id="Rectángulo_459968" data-name="Rectángulo 459968" width="0.742" height="2.251" transform="translate(74.186 35.696)" fill="#474246"/>
        <g id="Grupo_1191269" data-name="Grupo 1191269">
          <g id="Grupo_1191268" data-name="Grupo 1191268" clip-path="url(#clip-path)">
            <path id="Trazado_1093105" data-name="Trazado 1093105" d="M100.893,42.493h0a.88.88,0,0,0-.859.935l.161,3.908a.7.7,0,0,0,1.395,0l.161-3.908a.881.881,0,0,0-.859-.935" transform="translate(-26.358 -11.196)" fill="#894357"/>
            <path id="Trazado_1093106" data-name="Trazado 1093106" d="M101.159,43.947a7.541,7.541,0,0,0-.133-1.44.868.868,0,0,0-.133-.014.881.881,0,0,0-.859.935l.148,3.593c.555-.252.977-1.53.977-3.074" transform="translate(-26.358 -11.196)" fill="#a35d6e"/>
            <path id="Trazado_1093107" data-name="Trazado 1093107" d="M104.027,57.951c0-3.775-2.472-6.836-5.522-6.836s-5.522,3.061-5.522,6.836,2.472,6.836,5.522,6.836,5.522-3.061,5.522-6.836" transform="translate(-24.5 -13.468)" fill="#6d676b"/>
            <path id="Trazado_1093108" data-name="Trazado 1093108" d="M102.768,53.973c0-.128,0-.256-.009-.382a5.177,5.177,0,0,0-4.253-2.477c-3.05,0-5.522,3.061-5.522,6.837,0,.128,0,.255.009.382a5.177,5.177,0,0,0,4.253,2.477c3.049,0,5.522-3.061,5.522-6.836" transform="translate(-24.5 -13.468)" fill="#8e868c"/>
            <path id="Trazado_1093109" data-name="Trazado 1093109" d="M102.5,58.346c0-3.166-2.073-5.734-4.631-5.734s-4.631,2.567-4.631,5.734,2.074,5.734,4.631,5.734,4.631-2.567,4.631-5.734" transform="translate(-24.566 -13.863)" fill="#564f54"/>
            <path id="Trazado_1093110" data-name="Trazado 1093110" d="M99.794,59.878a1.2,1.2,0,1,0-1.173,1.452,1.335,1.335,0,0,0,1.173-1.452" transform="translate(-25.676 -15.395)" fill="#a35d6e"/>
            <rect id="Rectángulo_459969" data-name="Rectángulo 459969" width="0.972" height="2.95" transform="translate(59.056 36.926)" fill="#474246"/>
            <path id="Trazado_1093111" data-name="Trazado 1093111" d="M80.4,42.305h0a1.155,1.155,0,0,0-1.126,1.226l.211,5.122a.916.916,0,0,0,1.829,0l.211-5.122A1.155,1.155,0,0,0,80.4,42.305" transform="translate(-20.888 -11.147)" fill="#894357"/>
            <path id="Trazado_1093112" data-name="Trazado 1093112" d="M80.751,44.211a9.861,9.861,0,0,0-.175-1.887,1.038,1.038,0,0,0-.174-.019,1.155,1.155,0,0,0-1.126,1.226l.194,4.71c.727-.331,1.28-2.007,1.28-4.03" transform="translate(-20.888 -11.147)" fill="#a35d6e"/>
            <path id="Trazado_1093113" data-name="Trazado 1093113" d="M84.55,61.635c0-4.759-3.116-8.618-6.961-8.618s-6.961,3.859-6.961,8.618,3.116,8.618,6.961,8.618,6.961-3.859,6.961-8.618" transform="translate(-18.61 -13.969)" fill="#6d676b"/>
            <path id="Trazado_1093114" data-name="Trazado 1093114" d="M70.628,61.635a10.644,10.644,0,0,0,.116,1.562,6.078,6.078,0,0,0,4.06,1.62c3.844,0,6.961-3.858,6.961-8.618a10.658,10.658,0,0,0-.116-1.562,6.082,6.082,0,0,0-4.06-1.62c-3.845,0-6.961,3.859-6.961,8.618" transform="translate(-18.61 -13.969)" fill="#8e868c"/>
            <path id="Trazado_1093115" data-name="Trazado 1093115" d="M79.947,62.691c0-3.129-1.916-5.665-4.28-5.665s-4.279,2.537-4.279,5.665,1.916,5.665,4.279,5.665,4.28-2.537,4.28-5.665" transform="translate(-18.81 -15.026)" fill="#564f54"/>
            <path id="Trazado_1093116" data-name="Trazado 1093116" d="M77.089,64.268a.989.989,0,1,0-.951,1.259,1.138,1.138,0,0,0,.951-1.259" transform="translate(-19.811 -16.602)" fill="#a35d6e"/>
            <path id="Trazado_1093117" data-name="Trazado 1093117" d="M100.839,40.01h0a.3.3,0,0,0-.3.3v2.42a.3.3,0,0,0,.6,0v-2.42a.3.3,0,0,0-.3-.3" transform="translate(-26.491 -10.542)" fill="#474246"/>
            <path id="Trazado_1093118" data-name="Trazado 1093118" d="M80,40.01h0a.3.3,0,0,0-.3.3v2.42a.3.3,0,0,0,.6,0v-2.42a.3.3,0,0,0-.3-.3" transform="translate(-21.001 -10.542)" fill="#474246"/>
            <path id="Trazado_1093119" data-name="Trazado 1093119" d="M187.317,100.918c.031-.1-.531-.382-.827-.614a4.241,4.241,0,0,1,.429-.95c.189-.219-.591-.444-.591-.444a5.926,5.926,0,0,1-.449.953c-.406-.276-.769-.5-.769-.5-.538.614.113,2.031.8,2.348s1.322-.508,1.41-.793" transform="translate(-48.722 -26.062)" fill="#c4a490"/>
            <path id="Trazado_1093120" data-name="Trazado 1093120" d="M179.245,94.385c-.085-.059-.523.393-.833.607a4.3,4.3,0,0,1-.779-.693c-.152-.246-.6.432-.6.432a6.008,6.008,0,0,1,.777.712c-.385.3-.706.586-.706.586.426.7,1.973.5,2.479-.061s-.092-1.413-.337-1.582" transform="translate(-46.646 -24.832)" fill="#ad8e79"/>
            <path id="Trazado_1093121" data-name="Trazado 1093121" d="M180.577,99.763c.135-.711-.035-1.417-.664-1.537a1.657,1.657,0,0,0-1.7,1.171,1.226,1.226,0,0,0,.983,1.435,1.241,1.241,0,0,0,1.384-1.069" transform="translate(-46.951 -25.877)" fill="#e2405b"/>
            <path id="Trazado_1093122" data-name="Trazado 1093122" d="M170.667,97.49a1.714,1.714,0,0,0-1.155,2.123c.088.253.3.421.254.3a1.589,1.589,0,0,1,2.987-1.044c.1.279.289,0,.138-.435a1.711,1.711,0,0,0-2.224-.943" transform="translate(-44.643 -25.658)" fill="#e2405b"/>
            <path id="Trazado_1093123" data-name="Trazado 1093123" d="M183.241,97.865a1.713,1.713,0,0,0-2.059-1.266c-.257.074-.437.274-.311.238a1.589,1.589,0,0,1,.882,3.038c-.284.082-.012.289.426.162a1.713,1.713,0,0,0,1.061-2.172" transform="translate(-47.647 -25.437)" fill="#e2405b"/>
            <path id="Trazado_1093124" data-name="Trazado 1093124" d="M168.317,94.053l-.681-.465s-.6,2.232.143,3.291l.768-.144s-.573-2.1-.231-2.682" transform="translate(-44.11 -24.659)" fill="#bca74b"/>
            <path id="Trazado_1093125" data-name="Trazado 1093125" d="M172.934,95.113l-.775.191s1.506,1.837,2.811,1.973l.32-.639s-2.065-.913-2.355-1.525" transform="translate(-45.362 -25.061)" fill="#bca74b"/>
            <path id="Trazado_1093126" data-name="Trazado 1093126" d="M197.236,101.982l-2.95.4c.432.762.664,1.525,1.194,1.856a1.578,1.578,0,0,0,1.657.066c.3-.3.1-2.32.1-2.32" transform="translate(-51.192 -26.871)" fill="#ed8c62"/>
            <rect id="Rectángulo_459970" data-name="Rectángulo 459970" width="0.609" height="17.237" transform="translate(118.515 12.066)" fill="#564f54"/>
            <rect id="Rectángulo_459971" data-name="Rectángulo 459971" width="0.609" height="17.237" transform="translate(115.068 12.066)" fill="#564f54"/>
            <rect id="Rectángulo_459972" data-name="Rectángulo 459972" width="0.609" height="17.237" transform="translate(60.707 12.066)" fill="#564f54"/>
            <rect id="Rectángulo_459973" data-name="Rectángulo 459973" width="0.609" height="17.237" transform="translate(57.26 12.066)" fill="#564f54"/>
            <path id="Trazado_1093127" data-name="Trazado 1093127" d="M141.368,39.245H68.047l.265,1.458,72.525,1.061Z" transform="translate(-17.93 -10.341)" fill="#748e91"/>
            <path id="Trazado_1093128" data-name="Trazado 1093128" d="M161.591,71.237c-3.624-.486-3.845.309-4.022.354s-2.386-.442-2.386-.442l-1.326-3.89s2.828-.972,3.447-1.282.663-.928,2.343-.707a14.015,14.015,0,0,1,4.331,2.033Z" transform="translate(-40.54 -17.186)" fill="#ed8c62"/>
            <path id="Trazado_1093129" data-name="Trazado 1093129" d="M161.8,73.877c-2.782.336-3.35,1.577-3.35,1.577s-1.723-10.21-4.309-11.336a.571.571,0,0,0-.3.945c2.257,2.4,3.205,9.016,4.032,12.026.653,2.376,5.282,1.48,5.48-.243a7.071,7.071,0,0,0-.024-1.774,1.387,1.387,0,0,0-1.531-1.195" transform="translate(-40.497 -16.894)" fill="#776f6a"/>
            <path id="Trazado_1093130" data-name="Trazado 1093130" d="M162.391,75.72c-1.637.779-3.392.994-3.922.481a.6.6,0,0,1-.02-.777c-.1-.6-1.8-10.215-4.3-11.306a.571.571,0,0,0-.3.945c2.257,2.4,3.205,9.016,4.032,12.026.653,2.375,5.282,1.48,5.48-.243a6.959,6.959,0,0,0-.013-1.667,7.622,7.622,0,0,1-.957.541" transform="translate(-40.497 -16.894)" fill="#afa9a3"/>
            <path id="Trazado_1093131" data-name="Trazado 1093131" d="M157.3,70.3c-.755-2.721-1.842-5.614-3.149-6.184a.571.571,0,0,0-.3.945c1.387,1.474,2.28,4.54,2.953,7.384A11.637,11.637,0,0,1,157.3,70.3" transform="translate(-40.497 -16.894)" fill="#776f6a"/>
            <path id="Trazado_1093132" data-name="Trazado 1093132" d="M196.3,8.455c-3.8-1.7-4.981,1.12-5.077,1.356.038-.113.151-.941-3.276-3.389-3.713-2.652-13.877-.442-13.259,3.049-3.8-1.989-10.253,5.83-6.629,11.933,4.2,7.071,11.093.4,11.933.751s1.679,2.475,2.033,3.757l12.64-2.7-.088-2.784a5.423,5.423,0,0,0,5.392-.8c3.226-2.785.972-9.1-3.669-11.182" transform="translate(-44 -1.383)" fill="#f7eedf"/>
            <path id="Trazado_1093133" data-name="Trazado 1093133" d="M200.99,12.074c.527,2.2.157,4.13-1.116,4.829-1.784.981-4.653-.812-6.408-4a10.969,10.969,0,0,1-1.09-2.823,2.647,2.647,0,0,0-.12.253c.033-.1.124-.754-2.2-2.581,1.881,3.645,1.642,7.7-.726,9.515-2.648,2.029-6.95.492-9.609-3.433a10.937,10.937,0,0,1-1.986-6.608c-1.365.729-2.208,1.687-2.017,2.769a2.743,2.743,0,0,0-.99-.3,7.524,7.524,0,0,1,4.746,6.894,7.731,7.731,0,0,1-7.922,7.524c-.215,0-.427-.01-.638-.027,4.124,3.235,9.38-1.716,10.107-1.41a3.488,3.488,0,0,1,1.277,1.7,10.451,10.451,0,0,1,10.9-.1l2.5-.532-.088-2.785a5.421,5.421,0,0,0,5.392-.8c2.179-1.88,1.855-5.372-.012-8.082" transform="translate(-45.035 -1.903)" fill="#e8ddcd"/>
            <path id="Trazado_1093134" data-name="Trazado 1093134" d="M199.237,26.737l-.04-1.276c-2.408-1.447-10.325-2.061-14.666,1.711a.215.215,0,0,1,.082.013,2,2,0,0,1,.767.764c6.168-5.175,11.1-3.493,13.857-1.211" transform="translate(-48.622 -6.412)" fill="#d3c3ae"/>
            <path id="Trazado_1093135" data-name="Trazado 1093135" d="M194.138,66.422c-2.386,1.723-4.442,10.209-7.822,9.811-1.062-.124-5.454-6.694-4.376-7.624.663-.571,8.021-13.855,10.872-14.783Z" transform="translate(-47.894 -14.183)" fill="#f7eedf"/>
            <path id="Trazado_1093136" data-name="Trazado 1093136" d="M192.913,53.826a1.888,1.888,0,0,0-.37.175c.776,2.4.434,5.825-1.133,9.181-2.252,4.822-6.24,7.8-9.255,7.079.865,2.253,3.476,5.88,4.262,5.972,3.381.4,5.436-8.088,7.822-9.811Z" transform="translate(-47.996 -14.183)" fill="#e8ddcd"/>
            <path id="Trazado_1093137" data-name="Trazado 1093137" d="M180.837,73c.663-.53,1.458-1.326,2.254-1.237s4.994,3.491,5.525,5.569a3.334,3.334,0,0,1-2.563,4.2s-4.155,2.962-5.569-.663.354-7.867.354-7.867" transform="translate(-47.411 -18.908)" fill="#59404a"/>
            <path id="Trazado_1093138" data-name="Trazado 1093138" d="M183.188,71.766c-.8-.088-1.591.707-2.254,1.237a13.094,13.094,0,0,0-.63,2.17c.559,1.552,1.635,2.6,2.872,2.6,1.51,0,2.779-1.568,3.161-3.7a10.494,10.494,0,0,0-3.15-2.31" transform="translate(-47.508 -18.908)" fill="#7f5767"/>
            <path id="Trazado_1093139" data-name="Trazado 1093139" d="M165.586,68.128a8.6,8.6,0,0,1-2.489,1.427c-1.114.432-1.2,1.283-.446,1.961,4.11,3.683,14.62,11.339,16.971,8.933,2.8-2.859.355-8.726-2.194-8.414s-11.546-4.159-11.546-4.159Z" transform="translate(-42.727 -17.885)" fill="#ffa77b"/>
            <path id="Trazado_1093140" data-name="Trazado 1093140" d="M170.52,78.513c-.088-.043-.173-.088-.26-.132,4.217,3.226,9.684,6.509,11.5,4.655a5.329,5.329,0,0,0,.922-5.343c-1.58,2.972-6.978,3.35-12.16.82" transform="translate(-44.862 -20.471)" fill="#ed8c62"/>
            <path id="Trazado_1093141" data-name="Trazado 1093141" d="M225.784,184.714h-4.729c-.221-1.1,1.016-1.282,1.194-1.768a16.7,16.7,0,0,0,.133-2.785l1.5-.442s-.01,2.925.574,3.227a2.077,2.077,0,0,1,1.326,1.768" transform="translate(-58.238 -47.354)" fill="#f7eedf"/>
            <path id="Trazado_1093142" data-name="Trazado 1093142" d="M223.874,123.2c0,.267-.707,42.953-.707,42.953l-3.978-.088-5.745-36.3.265-7.9Z" transform="translate(-56.24 -32.112)" fill="#cec3b2"/>
            <path id="Trazado_1093143" data-name="Trazado 1093143" d="M222.239,142.955c.454,0,.89.427,1.292,1.206.173-10.5.343-20.826.343-20.957l-10.165-1.331-.265,7.9,5.084,32.121c.043-10.5,1.687-18.939,3.711-18.939" transform="translate(-56.24 -32.112)" fill="#bcaf9f"/>
            <path id="Trazado_1093144" data-name="Trazado 1093144" d="M204.6,121.145a47.546,47.546,0,0,0,15.778-.549s-1.061-37.79-1.061-39.026-4.242-29.545-4.905-30.507-5.3-4.122-7.293-4.259-7.69.962-8.883,1.924-5.436,6.675-5.436,7.5,3.315,8.932,3.315,8.932,2.121,17.922,2.519,19.571.53,33.667.53,33.667Z" transform="translate(-50.801 -12.329)" fill="#f7eedf"/>
            <path id="Trazado_1093145" data-name="Trazado 1093145" d="M210.068,55.382a27.555,27.555,0,0,0,5.441-2.014,12.92,12.92,0,0,0-.554-2.305c-.663-.962-5.3-4.122-7.293-4.259s-7.69.962-8.883,1.924a25.561,25.561,0,0,0-2.869,3.4,7.642,7.642,0,0,0-1.05.709c1.436,3.247,8.016,4.4,15.208,2.544" transform="translate(-51.343 -12.329)" fill="#e8ddcd"/>
            <path id="Trazado_1093146" data-name="Trazado 1093146" d="M208.588,46.807l-.043-.005c-1.989-.137-7.69.962-8.884,1.924a11.144,11.144,0,0,0-1.458,1.623c.959,2.495,1.9,4.342,4.044,4.342,3.118,0,4.971-3.912,6.341-7.884" transform="translate(-52.224 -12.329)" fill="#cebfab"/>
            <path id="Trazado_1093147" data-name="Trazado 1093147" d="M221.479,82.077c0-1.237-4.243-29.544-4.906-30.506a16.252,16.252,0,0,0-3.83-2.848c-.81,4.377.245,11.1.781,17.282,1.253,14.444.156,25.446-6.482,26.022-2.088.181-4.152-.808-6.039-2.7.238,9.018.323,29.575.323,29.575l5.436,2.748a47.546,47.546,0,0,0,15.778-.549s-1.061-37.79-1.061-39.026" transform="translate(-52.962 -12.838)" fill="#e8ddcd"/>
            <path id="Trazado_1093148" data-name="Trazado 1093148" d="M207.951,58.784l-3.978-2.917-.641.685a22.537,22.537,0,0,1,4.177,2.585c.177.354,2.254,64.7,2.254,64.7l.895.066Z" transform="translate(-53.576 -14.72)" fill="#cebfab"/>
            <path id="Trazado_1093149" data-name="Trazado 1093149" d="M207.559,61.946a.518.518,0,1,0-.508.619.572.572,0,0,0,.508-.619" transform="translate(-54.422 -16.159)" fill="#59404a"/>
            <path id="Trazado_1093150" data-name="Trazado 1093150" d="M193.21,101.115c-.648-.153-.774-1.147-.431-1.193a7.123,7.123,0,0,0,2.386-1.027c.464-.331,1.392-1.492,2.652-1.459s1.16,2.52,1.16,2.52-4.508,1.458-5.768,1.16" transform="translate(-50.746 -25.673)" fill="#ed8c62"/>
            <path id="Trazado_1093151" data-name="Trazado 1093151" d="M192.053,102.007l-.029-.451a.281.281,0,0,1,.241-.3,41.038,41.038,0,0,1,5.9-.463c2.052.107,3.27.524,3.249.921s-.4,1.351-1.2,1.31a45.256,45.256,0,0,0-7.88-.756.281.281,0,0,1-.284-.264" transform="translate(-50.596 -26.556)" fill="#934163"/>
            <path id="Trazado_1093152" data-name="Trazado 1093152" d="M191.354,101.625l-2.3-.119.41,1.13,1.9-.37Z" transform="translate(-49.815 -26.746)" fill="#3f393e"/>
            <path id="Trazado_1093153" data-name="Trazado 1093153" d="M135.487,84.15a2.377,2.377,0,0,0-3.305,1.64,1.672,1.672,0,0,0-.005.535l1.086.1a1.017,1.017,0,0,1,0-.372,1.473,1.473,0,0,1,2.048-1.016,1.564,1.564,0,0,1,1.253,1.681l.954.085a2.527,2.527,0,0,0-2.027-2.648" transform="translate(-34.822 -22.125)" fill="#759a9b"/>
            <path id="Trazado_1093154" data-name="Trazado 1093154" d="M132.436,88.845c-6.537-.384-10.725-1.439-12.186-2.3-.589-.346-.365-.812-.224-.921.574-.446,9.883.246,13.094.74,3.046.468,7.455,1.1,7.741,1.621.064.118-.094.284-.193.308a29.66,29.66,0,0,1-8.232.55" transform="translate(-31.583 -22.524)" fill="#99c1c4"/>
            <path id="Trazado_1093155" data-name="Trazado 1093155" d="M132.351,89.4c-9.173-.539-12.753-2.578-12.41-3.219s9.883.246,13.094.74c3.046.468,8.16,1.2,7.741,1.621s-3.8,1.13-8.425.858" transform="translate(-31.597 -22.649)" fill="#5c7777"/>
            <path id="Trazado_1093156" data-name="Trazado 1093156" d="M100.4,105.531a4.082,4.082,0,0,0-4.066-3.58,3.314,3.314,0,0,0-3.447,3.58,4.082,4.082,0,0,0,4.066,3.58,3.315,3.315,0,0,0,3.448-3.58" transform="translate(-24.471 -26.863)" fill="#aaaa46"/>
            <path id="Trazado_1093157" data-name="Trazado 1093157" d="M96.775,102.492a3.634,3.634,0,0,0-1.888.514,5.382,5.382,0,0,0,.558,1.509c1.057,1.926,3.023,2.878,4.393,2.127a2.2,2.2,0,0,0,.93-1.028,4.119,4.119,0,0,0-3.993-3.122" transform="translate(-25.002 -27.005)" fill="#d6d378"/>
            <path id="Trazado_1093158" data-name="Trazado 1093158" d="M97.187,103.077a2.923,2.923,0,0,0-1.519.414,4.308,4.308,0,0,0,.449,1.214c.85,1.549,2.432,2.315,3.533,1.71a1.764,1.764,0,0,0,.748-.827,3.312,3.312,0,0,0-3.211-2.511" transform="translate(-25.207 -27.16)" fill="#ede9a6"/>
            <path id="Trazado_1093159" data-name="Trazado 1093159" d="M77.954,100.625l-6.11-.2a.73.73,0,0,0-.774.633l-.593,7.836a.78.78,0,0,0,.782.865l7.118-.072a.77.77,0,0,0,.739-.846l-.444-7.559a.735.735,0,0,0-.717-.659" transform="translate(-18.569 -26.461)" fill="#ba2f4d"/>
            <path id="Trazado_1093160" data-name="Trazado 1093160" d="M73.042,106.278c1.736,0,3.151-2.535,3.223-5.712l-4.309-.14a.729.729,0,0,0-.774.633l-.281,3.714a2.658,2.658,0,0,0,2.141,1.5" transform="translate(-18.682 -26.461)" fill="#e04b64"/>
            <g id="Grupo_1191267" data-name="Grupo 1191267" transform="translate(52.447 74.777)" opacity="0.57" style="mix-blend-mode: overlay;isolation: isolate">
              <g id="Grupo_1191266" data-name="Grupo 1191266">
                <g id="Grupo_1191265" data-name="Grupo 1191265" clip-path="url(#clip-path-3)">
                  <path id="Trazado_1093161" data-name="Trazado 1093161" d="M71.21,102.059l7.694.187-.031-.531-7.624-.186Z" transform="translate(-71.21 -101.529)" fill="#e0d4b1"/>
                </g>
              </g>
            </g>
            <path id="Trazado_1093162" data-name="Trazado 1093162" d="M91.55,107.282,89.168,95.458s.349-3.467.084-3.467-10.8.267-10.8.267l.417,1.511s-.447,11.824-.622,12.98Z" transform="translate(-20.616 -24.239)" fill="#e0d4b1"/>
            <path id="Trazado_1093163" data-name="Trazado 1093163" d="M89.266,95.179a29.986,29.986,0,0,1-4.7,1.058,28.958,28.958,0,0,1-5.776.281c-.135,3.395-.417,10.207-.548,11.07l13.307.534L89.168,96.3s.05-.5.1-1.119" transform="translate(-20.616 -25.079)" fill="#ceba89"/>
            <path id="Trazado_1093164" data-name="Trazado 1093164" d="M78.641,100.824c-.138,3.242-.306,6.811-.4,7.42l13.307.533-2.23-11.07c-.4-.029-.806-.045-1.217-.045a14.852,14.852,0,0,0-9.462,3.163" transform="translate(-20.616 -25.733)" fill="#ddc99e"/>
            <path id="Trazado_1093165" data-name="Trazado 1093165" d="M89.516,101.977c-.444-2-2.352-2.822-4.354-2.377s-3.339,1.985-2.9,3.986a3.713,3.713,0,0,0,7.249-1.609" transform="translate(-21.654 -26.213)" fill="#dd9e7a"/>
            <path id="Trazado_1093166" data-name="Trazado 1093166" d="M82.749,91.877s-.331,1.326-.066,1.326h2.453L85,91.811Z" transform="translate(-21.759 -24.191)" fill="#564f54"/>
            <path id="Trazado_1093167" data-name="Trazado 1093167" d="M135.614,71.99c-.606-1.983-.915-1.983-.915-1.983a2.738,2.738,0,0,0,.025-2.468c-.625-1.452-1.537-1.209-1.537-1.209a7.4,7.4,0,0,0-4.356-.532c-2.311.484-2.077,3-2.077,3a1.516,1.516,0,0,0-1.568-.194,3.221,3.221,0,0,0-1.614,1.694,3.8,3.8,0,0,0-2.561,5.612s-.4-.339-1.1.29-.255,1.79-.255,1.79-2.47,1.452-1.833,2.806,2.794.29,2.794.29A.972.972,0,0,0,121.64,82.2c1.182.1,1.349-.194,1.374,2.226l1.28.387s-2.109-3.484-.1-3.242.846-1.548,2.371-1.742.68-1.645,1.527-2.081.622.726,3.555.581,2.5-3.581,2.5-3.581a2.287,2.287,0,0,0,1.474-2.757" transform="translate(-31.019 -17.302)" fill="#e2ded3"/>
            <path id="Trazado_1093168" data-name="Trazado 1093168" d="M135.825,74.628a7.675,7.675,0,0,1-4.812,1.63c-3.548,0-6.478-2.243-6.931-5.147a4.043,4.043,0,0,0-.342.62l-.015,0a4.037,4.037,0,0,1,.427,1.839c0,1.813-1.113,3.282-2.486,3.282a1.942,1.942,0,0,1-.778-.167,2.949,2.949,0,0,0,.291.656.613.613,0,0,0-.62-.025,2.839,2.839,0,0,1,1.8,2.486c0,1.593-1.633,2.884-3.646,2.884-.119,0-.238-.006-.354-.015.856.619,2.428-.153,2.428-.153a.972.972,0,0,0,1.018,1.113c1.182.1,1.349-.194,1.374,2.226l1.28.387s-2.109-3.484-.1-3.241.846-1.549,2.371-1.742.68-1.645,1.527-2.081.622.725,3.555.58,2.5-3.58,2.5-3.58a2.635,2.635,0,0,0,1.516-1.554" transform="translate(-31.187 -18.737)" fill="#cec7bc"/>
            <path id="Trazado_1093169" data-name="Trazado 1093169" d="M129.993,80.263c0-1.245-.683-2.254-1.525-2.254s-1.525,1.009-1.525,2.254.682,2.254,1.525,2.254,1.525-1.009,1.525-2.254" transform="translate(-33.448 -20.554)" fill="#e2ded3"/>
            <path id="Trazado_1093170" data-name="Trazado 1093170" d="M125.141,80.131a.712.712,0,1,0-.7.862.792.792,0,0,0,.7-.862" transform="translate(-32.606 -20.886)" fill="#e2ded3"/>
            <path id="Trazado_1093171" data-name="Trazado 1093171" d="M124.483,86.34a1.32,1.32,0,0,0,.491-1.528c-.278-.509-1.024-.49-1.591.063a1.161,1.161,0,0,0-.264,1.575,1.034,1.034,0,0,0,1.364-.11" transform="translate(-32.386 -22.25)" fill="#e2ded3"/>
            <path id="Trazado_1093172" data-name="Trazado 1093172" d="M139.353,72.036c-.3-.671-.447-.673-.447-.673a2.005,2.005,0,0,0,.21-.526,8.726,8.726,0,0,0-5.422,1.432s3.36-1.224,5.659-.233" transform="translate(-35.227 -18.659)" fill="#cec7bc"/>
            <path id="Trazado_1093173" data-name="Trazado 1093173" d="M138.873,66.526a.88.88,0,0,0-.4-.019s-.143-.07-.39-.164a2.685,2.685,0,0,0-.294,1.532,1.533,1.533,0,0,1,1.089-1.349" transform="translate(-36.301 -17.481)" fill="#cec7bc"/>
            <path id="Trazado_1093174" data-name="Trazado 1093174" d="M115.2,88.118c-.961,1.209-2.14.429-1.623-.2,0,0-.927-.221-.228-.943s1.159-.046,1.159-.046-1.087-1.081.33-.913c1.567.185,1.03,1.24,1.03,1.24s1.086-.054.452.669-1.12.19-1.12.19" transform="translate(-29.798 -22.66)" fill="#cec7bc"/>
            <path id="Trazado_1093175" data-name="Trazado 1093175" d="M114.849,86.088c-.021-.029-.046-.053-.069-.08-1.027-.091-.578.535-.342.807-.175-.157-.549-.359-1.052.162a1.3,1.3,0,0,0-.171.216,1.088,1.088,0,0,0,1.426.38,1.012,1.012,0,0,0,.209-1.486" transform="translate(-29.831 -22.66)" fill="#e2ded3"/>
            <path id="Trazado_1093176" data-name="Trazado 1093176" d="M140.965,89.11l-20.772.089.756,11.7a1.11,1.11,0,0,0,1.1,1.075h17.63a1.111,1.111,0,0,0,1.1-1.117Z" transform="translate(-31.67 -23.479)" fill="#99c1c4"/>
            <path id="Trazado_1093177" data-name="Trazado 1093177" d="M135.092,89.137c-1.315,7.191-6.411,12.341-11.746,11.66a7.544,7.544,0,0,1-2.19-.631l.047.73a1.111,1.111,0,0,0,1.1,1.075h17.631a1.111,1.111,0,0,0,1.1-1.117l.177-11.744Z" transform="translate(-31.923 -23.479)" fill="#7ca4a5"/>
            <path id="Trazado_1093178" data-name="Trazado 1093178" d="M146.988,100.748l.175-11.638-3.445.015c.043,5.944,1.45,10.822,3.27,11.623" transform="translate(-37.868 -23.479)" fill="#93baba"/>
            <path id="Trazado_1093179" data-name="Trazado 1093179" d="M102.782,109.392H75.615a.427.427,0,0,0-.427.426v2.33a.427.427,0,0,0,.427.426h27.167a.425.425,0,0,0,.426-.426v-2.33a.426.426,0,0,0-.426-.426" transform="translate(-19.811 -28.824)" fill="#3f393e"/>
            <path id="Trazado_1093180" data-name="Trazado 1093180" d="M140.287,106.3H120.244a1.491,1.491,0,0,0,0,2.983h20.043a1.491,1.491,0,1,0,0-2.983" transform="translate(-31.29 -28.009)" fill="#ff4060"/>
            <path id="Trazado_1093181" data-name="Trazado 1093181" d="M140.438,106.3H120.4a1.486,1.486,0,0,0-1.069.453,1.486,1.486,0,0,0,1.069.453h20.043a1.486,1.486,0,0,0,1.069-.453,1.486,1.486,0,0,0-1.069-.453" transform="translate(-31.441 -28.009)" fill="#ff9343"/>
            <path id="Trazado_1093182" data-name="Trazado 1093182" d="M120.551,106.3a1.478,1.478,0,0,0-.635.144,1.478,1.478,0,0,0,.635.144h20.043a1.478,1.478,0,0,0,.635-.144,1.478,1.478,0,0,0-.635-.144Z" transform="translate(-31.597 -28.009)" fill="#ffd880"/>
            <path id="Trazado_1093183" data-name="Trazado 1093183" d="M164.626,96.8s-1.679-15.247-.8-16.926l-.928.265c.8,6.054-.044,16.706-.044,16.706Z" transform="translate(-42.911 -21.045)" fill="#f9ae41"/>
            <path id="Trazado_1093184" data-name="Trazado 1093184" d="M158.186,99.259c6.808-.709,23.46,1.614,23.46,1.614l-.013,1.106a7.355,7.355,0,0,1-5.36,1.8l-15.227-.79c-2-.578-3.1-1.735-2.86-3.733" transform="translate(-41.672 -26.118)" fill="#934163"/>
            <path id="Trazado_1093185" data-name="Trazado 1093185" d="M178.812,106.3H158.769a1.491,1.491,0,0,0,0,2.983h20.043a1.491,1.491,0,1,0,0-2.983" transform="translate(-41.441 -28.009)" fill="#ff4060"/>
            <path id="Trazado_1093186" data-name="Trazado 1093186" d="M180.1,108.552H111.57a.736.736,0,0,0-.737.737v2.327a.736.736,0,0,0,.737.737H180.1a.737.737,0,0,0,.737-.737v-2.327a.737.737,0,0,0-.737-.737" transform="translate(-29.203 -28.602)" fill="#564f54"/>
            <rect id="Rectángulo_459975" data-name="Rectángulo 459975" width="72.525" height="51.842" transform="translate(49.057 85.519)" fill="#92a9ad"/>
            <path id="Trazado_1093187" data-name="Trazado 1093187" d="M134.743,116.113h-8.552l-10.528,51.842h8.552Z" transform="translate(-30.476 -30.595)" fill="#a0b9bc"/>
            <path id="Trazado_1093188" data-name="Trazado 1093188" d="M108.886,116.113H92.168L81.639,167.955H98.357Z" transform="translate(-21.511 -30.595)" fill="#a0b9bc"/>
            <rect id="Rectángulo_459976" data-name="Rectángulo 459976" width="72.525" height="4.641" transform="translate(49.057 85.519)" fill="#748e91"/>
            <path id="Trazado_1093189" data-name="Trazado 1093189" d="M203.159,116.113H164.178v51.842h40.571Z" transform="translate(-43.259 -30.595)" fill="#748e91"/>
            <path id="Trazado_1093190" data-name="Trazado 1093190" d="M199.193,116.113H183.015l-8.485,51.842h16.838Z" transform="translate(-45.987 -30.595)" fill="#82a2a3"/>
            <path id="Trazado_1093191" data-name="Trazado 1093191" d="M166.3,120.621l36.973-.792-.113-3.716H164.178v51.842h.928Z" transform="translate(-43.259 -30.594)" fill="#627e7f"/>
            <path id="Trazado_1093192" data-name="Trazado 1093192" d="M56.437,96.88c-2.87-5.466-.068-6.628.273-9.293s-2.05-6.833-2.05-6.833c1.572,4.578,1.024,8.337-1.5,11.616-2.054,2.665,2.665,6.97,1.3,11.138a13.4,13.4,0,0,0-.39,7.176l.049.2c4.373-4.988,5.192-8.541,2.323-14.008" transform="translate(-13.868 -21.278)" fill="#e2ded3"/>
            <path id="Trazado_1093193" data-name="Trazado 1093193" d="M56.438,98.689c-2.87-5.466-.068-6.628.273-9.293a5.851,5.851,0,0,0-.091-1.778,12.151,12.151,0,0,1-.33,2.184,9.6,9.6,0,0,1-3.649,5.769,7,7,0,0,0,.591,2.782,2.31,2.31,0,0,1,.976-.222c2,0,3.613,2.671,3.613,5.966s-1.618,5.966-3.613,5.966a2.252,2.252,0,0,1-.457-.049,11.842,11.842,0,0,0,.314,2.478l.049.2c4.373-4.988,5.192-8.541,2.323-14.008" transform="translate(-13.868 -23.086)" fill="#d8d1c0"/>
            <path id="Trazado_1093194" data-name="Trazado 1093194" d="M39.287,107.97a.908.908,0,0,0,1.37.245,1.21,1.21,0,0,0,.217-1.552.909.909,0,0,0-1.371-.245,1.208,1.208,0,0,0-.216,1.552" transform="translate(-10.302 -27.984)" fill="#95a8ad"/>
            <path id="Trazado_1093195" data-name="Trazado 1093195" d="M37.127,107.6a8.661,8.661,0,0,0-8.317,11.525H46.643c.733-3.052-.27-11.662-9.516-11.525" transform="translate(-7.472 -28.35)" fill="#a9bfc4"/>
            <path id="Trazado_1093196" data-name="Trazado 1093196" d="M37.135,107.6a8.551,8.551,0,0,0-8.747,8.073,11.36,11.36,0,0,0,8.8.488,11.158,11.158,0,0,0,7.023-5.972,9.173,9.173,0,0,0-7.081-2.589" transform="translate(-7.48 -28.35)" fill="#bad2d6"/>
            <path id="Trazado_1093197" data-name="Trazado 1093197" d="M48.6,115.652a3.5,3.5,0,0,0,3.381,3.613c.054,0,.105-.006.158-.009a10.967,10.967,0,0,0-1.772-6.78,3.654,3.654,0,0,0-1.767,3.175" transform="translate(-12.807 -29.636)" fill="#bad2d6"/>
            <path id="Trazado_1093198" data-name="Trazado 1093198" d="M35.06,109.841c-.346-.436-1.6-.3-2.743.8-1.384,1.336-2.115,3.378-1.574,3.938s1.766-.619,2.944-2.082c.98-1.217,1.713-2.229,1.373-2.658" transform="translate(-8.053 -28.881)" fill="#dcedef"/>
            <path id="Trazado_1093199" data-name="Trazado 1093199" d="M38.892,110.076c.261-.369.27-.811.021-.987s-.663-.019-.923.35-.27.81-.021.986.662.02.923-.349" transform="translate(-9.957 -28.725)" fill="#dcedef"/>
            <path id="Trazado_1093200" data-name="Trazado 1093200" d="M47.254,122.754c-.291-.105-19.8-.1-20.028.123s2.99,1.3,2.99,1.3H44.772s3.159-1.181,2.482-1.427" transform="translate(-7.171 -32.327)" fill="#69787c"/>
            <path id="Trazado_1093201" data-name="Trazado 1093201" d="M34.636,178.724v3.553l1.458-1.047v-2.414Z" transform="translate(-9.126 -47.092)" fill="#475254"/>
            <path id="Trazado_1093202" data-name="Trazado 1093202" d="M32.966,182.718a1.868,1.868,0,1,0,1.868-1.891,1.8,1.8,0,0,0-1.868,1.891" transform="translate(-8.686 -47.646)" fill="#475254"/>
            <rect id="Rectángulo_459977" data-name="Rectángulo 459977" width="27.697" height="2.277" transform="translate(15.67 130.494)" fill="#475254"/>
            <path id="Trazado_1093203" data-name="Trazado 1093203" d="M40.883,182.718a1.868,1.868,0,1,0,1.868-1.891,1.8,1.8,0,0,0-1.868,1.891" transform="translate(-10.772 -47.646)" fill="#5a686b"/>
            <path id="Trazado_1093204" data-name="Trazado 1093204" d="M57.83,178.724v3.553l1.458-1.047v-2.414Z" transform="translate(-15.238 -47.092)" fill="#5a686b"/>
            <path id="Trazado_1093205" data-name="Trazado 1093205" d="M43.171,178.724v3.553l1.458-1.047v-2.414Z" transform="translate(-11.375 -47.092)" fill="#5a686b"/>
            <path id="Trazado_1093206" data-name="Trazado 1093206" d="M55.912,182.718a1.868,1.868,0,1,0,1.868-1.891,1.8,1.8,0,0,0-1.868,1.891" transform="translate(-14.732 -47.646)" fill="#5a686b"/>
            <path id="Trazado_1093207" data-name="Trazado 1093207" d="M17.937,182.718a1.868,1.868,0,1,0,1.867-1.891,1.8,1.8,0,0,0-1.867,1.891" transform="translate(-4.726 -47.646)" fill="#475254"/>
            <path id="Trazado_1093208" data-name="Trazado 1093208" d="M20.225,178.724v3.553l1.458-1.047v-2.414Z" transform="translate(-5.329 -47.092)" fill="#475254"/>
            <rect id="Rectángulo_459978" data-name="Rectángulo 459978" width="14.031" height="40.451" transform="translate(12.709 91.591)" fill="#a9bfc4"/>
            <path id="Trazado_1093209" data-name="Trazado 1093209" d="M29.5,124.358H26.657L21.026,164.81h2.846Z" transform="translate(-5.54 -32.767)" fill="#bdd3d6"/>
            <rect id="Rectángulo_459979" data-name="Rectángulo 459979" width="14.031" height="5.86" transform="translate(12.709 91.591)" fill="#95a8ad"/>
            <rect id="Rectángulo_459980" data-name="Rectángulo 459980" width="19.906" height="40.451" transform="translate(25.374 91.591)" fill="#95a8ad"/>
            <path id="Trazado_1093210" data-name="Trazado 1093210" d="M35.158,125.065l6.654-.707H34.451V164.81h.707Z" transform="translate(-9.077 -32.767)" fill="#748e91"/>
            <path id="Trazado_1093211" data-name="Trazado 1093211" d="M49.118,124.358H45.081L39.452,164.81H43.49Z" transform="translate(-10.395 -32.767)" fill="#a1b9bf"/>
            <path id="Trazado_1093212" data-name="Trazado 1093212" d="M54.813,124.358h-1.9L47.283,164.81h1.9Z" transform="translate(-12.459 -32.767)" fill="#a1b9bf"/>
            <rect id="Rectángulo_459981" data-name="Rectángulo 459981" width="19.907" height="5.993" transform="translate(25.373 91.591)" fill="#748e91"/>
            <path id="Trazado_1093213" data-name="Trazado 1093213" d="M42.584,183a1.015,1.015,0,1,0,1.01-1.112A1.023,1.023,0,0,0,42.584,183" transform="translate(-11.22 -47.924)" fill="#95a8ad"/>
            <path id="Trazado_1093214" data-name="Trazado 1093214" d="M57.66,183a1.015,1.015,0,1,0,1.01-1.112A1.023,1.023,0,0,0,57.66,183" transform="translate(-15.193 -47.924)" fill="#95a8ad"/>
            <path id="Trazado_1093215" data-name="Trazado 1093215" d="M30.043,123.8H16.878a.365.365,0,0,0-.365.365v3.576a.365.365,0,0,0,.365.365H30.043Z" transform="translate(-4.351 -32.62)" fill="#cedde0"/>
            <path id="Trazado_1093216" data-name="Trazado 1093216" d="M54.392,123.8H34.258a.365.365,0,0,0-.365.365v3.576a.365.365,0,0,0,.365.365H54.392a.5.5,0,0,0,.5-.5v-3.3a.5.5,0,0,0-.5-.5" transform="translate(-8.93 -32.62)" fill="#a9bfc4"/>
            <path id="Trazado_1093217" data-name="Trazado 1093217" d="M28.719,122.954l-9.04-6.692a.683.683,0,0,0-.813,1.1l9.04,6.692a.683.683,0,1,0,.813-1.1" transform="translate(-4.898 -30.598)" fill="#a9bfc4"/>
            <path id="Trazado_1093218" data-name="Trazado 1093218" d="M14.308,122.954l-9.04-6.692a.683.683,0,0,0-.813,1.1l9.04,6.692a.683.683,0,1,0,.813-1.1" transform="translate(-1.101 -30.598)" fill="#a9bfc4"/>
            <path id="Trazado_1093219" data-name="Trazado 1093219" d="M16.559,115.019H1.117a1.116,1.116,0,1,0,0,2.232H16.559a1.116,1.116,0,0,0,0-2.232" transform="translate(0 -30.306)" fill="#cedde0"/>
            <path id="Trazado_1093220" data-name="Trazado 1093220" d="M23.179,116.135a1.116,1.116,0,0,0-1.116-1.116h-.057a1.116,1.116,0,0,0,0,2.232h.057a1.116,1.116,0,0,0,1.116-1.116" transform="translate(-5.504 -30.306)" fill="#95a8ad"/>
            <path id="Trazado_1093221" data-name="Trazado 1093221" d="M52.735,165.8H38.283a.926.926,0,0,1-.925-.926V135.585a.926.926,0,0,1,.925-.926H52.735a.926.926,0,0,1,.925.926v29.287a.926.926,0,0,1-.925.926M38.283,134.919a.667.667,0,0,0-.666.666v29.287a.667.667,0,0,0,.666.666H52.735a.667.667,0,0,0,.666-.666V135.585a.667.667,0,0,0-.666-.666Z" transform="translate(-9.843 -35.481)" fill="#5a686b"/>
            <rect id="Rectángulo_459982" data-name="Rectángulo 459982" width="1.193" height="7.557" transform="translate(42.428 109.782)" fill="#5a686b"/>
            <rect id="Rectángulo_459983" data-name="Rectángulo 459983" width="74.867" height="4.906" transform="translate(48.129 82.204)" fill="#cedde0"/>
            <rect id="Rectángulo_459984" data-name="Rectángulo 459984" width="38.804" height="4.906" transform="translate(121.759 82.204)" fill="#a9bfc4"/>
            <path id="Trazado_1093222" data-name="Trazado 1093222" d="M221.85,78.8c-.4-3.58-2.386-15.778-2.784-17.568s1.525-9.148,2.386-8.419a37.264,37.264,0,0,1,5.966,10.276c1.127,3.646,2.585,16.175,3.115,18.429s-2.453,5.37-2.453,5.37Z" transform="translate(-57.707 -13.904)" fill="#f7eedf"/>
            <path id="Trazado_1093223" data-name="Trazado 1093223" d="M231.324,87.006c-2.21-2.165-6.828-3.249-8.927-1.458a2.571,2.571,0,0,0-.354,2.872l5.259,7.2c3.58,1.459,4.287-3.933,4.287-3.933a3.548,3.548,0,0,0-.265-4.685" transform="translate(-58.431 -22.304)" fill="#59404a"/>
            <path id="Trazado_1093224" data-name="Trazado 1093224" d="M224.6,88.2a3.973,3.973,0,0,0,4.088-2.857c-2.221-.9-4.847-1.023-6.287.205a2.442,2.442,0,0,0-.637,1.731,4.659,4.659,0,0,0,2.836.921" transform="translate(-58.431 -22.304)" fill="#7f5767"/>
            <path id="Trazado_1093225" data-name="Trazado 1093225" d="M205.133,94.782c.063.985.376,3.461.879,3.92s17.346-2.113,18.413-2.926,1.525-8.949-3.538-9.043c-1.746-.032-15.753,8.049-15.753,8.049" transform="translate(-54.05 -22.853)" fill="#ffa77b"/>
            <path id="Trazado_1093226" data-name="Trazado 1093226" d="M223.84,86.733a6.692,6.692,0,0,0-1.952.664c1.784.717,2.973,1.748,3.277,3.006.667,2.744-3.026,5.866-8.82,7.558,4.862-.718,10.434-1.729,11.033-2.185,1.067-.813,1.525-8.95-3.537-9.044" transform="translate(-57.004 -22.853)" fill="#ed8c62"/>
            <path id="Trazado_1093227" data-name="Trazado 1093227" d="M204.16,101.5c-1.193.53-1.922,1.723-2.519,1.922s-5.436-.066-5.9-.8S196.8,100.3,197,98.845s1.856-1.989,3.248-1.592a6.433,6.433,0,0,0,3.116-.133Z" transform="translate(-51.552 -25.59)" fill="#ffa77b"/>
            <path id="Trazado_1093228" data-name="Trazado 1093228" d="M201.966,33.484c1.524,3.381,4.574,9.016,4.906,9.944s-1.723,7.426-5.436,7.227-5.3-10.806-5.3-10.806Z" transform="translate(-51.679 -8.823)" fill="#dd704a"/>
            <path id="Trazado_1093229" data-name="Trazado 1093229" d="M207.782,46.525a3.526,3.526,0,0,0-.844-1.287c-.676,2.057-3.184,6.092-6.542,5.646a2.975,2.975,0,0,1-1.731-.942c.631,2.064,1.95,3.974,3.415,4.052,3.713.2,6.033-6.541,5.7-7.469" transform="translate(-52.346 -11.92)" fill="#e8ddcd"/>
            <path id="Trazado_1093230" data-name="Trazado 1093230" d="M201.844,36.261l-2.187-.994-9.878.663s-2.85-1.79-2.651-3.713,3.248-5.3,3.248-5.3l9.547,1.061a22.381,22.381,0,0,1,1.922,8.286" transform="translate(-49.303 -7.092)" fill="#683e2c"/>
            <path id="Trazado_1093231" data-name="Trazado 1093231" d="M201.21,27.988,192,26.965c2.514.6,4.432,3.736,4.432,7.52a10.826,10.826,0,0,1-.056,1.1l4.564-.306,2.187.994a22.37,22.37,0,0,0-1.922-8.286" transform="translate(-50.591 -7.105)" fill="#512c20"/>
            <path id="Trazado_1093232" data-name="Trazado 1093232" d="M204.091,32.038c-.928-.2-1.173,1.4-.574,2.894a2.294,2.294,0,0,0,1.5,1.547c.928-1.592,0-4.243-.928-4.442" transform="translate(-53.538 -8.437)" fill="#ed8c62"/>
            <path id="Trazado_1093233" data-name="Trazado 1093233" d="M188.517,32.853a1.317,1.317,0,0,0,.176,1.312c2,2.531,3.677,10.721,3.616,12.083-.066,1.458,7.822-.6,8.021-1.127s1.79-4.11,1.79-4.972-4.905-8.419-4.905-8.419a7.472,7.472,0,0,1-5.966-1.127,3.751,3.751,0,0,0-2.731,2.249" transform="translate(-49.646 -8.064)" fill="#ffa77b"/>
            <path id="Trazado_1093234" data-name="Trazado 1093234" d="M145.062,0H66.143l-.8,12.728h81.143Z" transform="translate(-17.218 0)" fill="#cedde0"/>
            <path id="Trazado_1093235" data-name="Trazado 1093235" d="M157.413,0l-.8,12.728h13.922L169.11,0Z" transform="translate(-41.267 0)" fill="#92a9ad"/>
            <path id="Trazado_1093236" data-name="Trazado 1093236" d="M153.017,41.614l10.21.15.53-2.52h-10.74Z" transform="translate(-40.318 -10.34)" fill="#597172"/>
            <path id="Trazado_1093237" data-name="Trazado 1093237" d="M204.128,34.811a.787.787,0,0,1,.817.733,1.106,1.106,0,0,1,.015.161c.389-.92-.112-2.276-.613-2.383s-.658.72-.372,1.542a.549.549,0,0,1,.153-.054" transform="translate(-53.707 -8.778)" fill="#bf5134"/>
            <path id="Trazado_1093238" data-name="Trazado 1093238" d="M191.186,45.62c1.832-.445,2.4-1.509,3.126-1.554s4.077-.119,4.438-.739.469-1.9.14-2.034-.041,1.5-.834,1.545-3.621.271-3.933.309c-1.087.133-2.512,1.815-3.012,1.78s-1.094-.5-1.348-.316.767,1.168,1.424,1.008" transform="translate(-49.99 -10.878)" fill="#683e2c"/>
            <path id="Trazado_1093239" data-name="Trazado 1093239" d="M196.785,46.7c-1.355.451-2.055-.331-.762-.6s2.154.133.762.6" transform="translate(-51.469 -12.125)" fill="#dd704a"/>
            <path id="Trazado_1093240" data-name="Trazado 1093240" d="M195.761,38.579c.188.522.488.258.83.125s.6-.084.409-.605-.616-.838-.959-.7-.468.663-.28,1.185" transform="translate(-51.558 -9.845)" fill="#443239"/>
            <path id="Trazado_1093241" data-name="Trazado 1093241" d="M191.963,40.184c.256.507.486.286.774.135s.524-.177.268-.684-.7-.8-.983-.644-.314.686-.059,1.193" transform="translate(-50.534 -10.263)" fill="#443239"/>
            <path id="Trazado_1093242" data-name="Trazado 1093242" d="M192.981,36.769c.63,2.552.762,5.867,1.094,5.933a3.98,3.98,0,0,0,1.69-.961c.033-.133-.5-.862-.663-.862a44.518,44.518,0,0,1-1.823-4.11Z" transform="translate(-50.848 -9.688)" fill="#ed8c62"/>
            <path id="Trazado_1093243" data-name="Trazado 1093243" d="M194.08,36.372c-.672-.362-.792-1.491-.111-1.56a8.175,8.175,0,0,1,2.848-.131.659.659,0,0,1,.237,1.147,10.359,10.359,0,0,1-2.974.544" transform="translate(-50.989 -9.111)" fill="#683e2c"/>
            <path id="Trazado_1093244" data-name="Trazado 1093244" d="M189.15,37.547c.189-.6,1.371-1.385,1.838-1.788s1.261.42,1.13,1.1a8.562,8.562,0,0,1-2.232,1.6.7.7,0,0,1-.736-.912" transform="translate(-49.83 -9.394)" fill="#683e2c"/>
            <path id="Trazado_1093245" data-name="Trazado 1093245" d="M155.532,71.146c1.1-.625,1.723-1.127,2.221-.8s.6.928.166,1.16-2.022,1.127-2.32.994-.829-.928-.066-1.359" transform="translate(-40.877 -18.509)" fill="#ffa77b"/>
            <path id="Trazado_1093246" data-name="Trazado 1093246" d="M154.676,69.256c1.1-.625,1.723-1.127,2.221-.8s.6.928.166,1.16-2.022,1.127-2.32.994-.829-.928-.066-1.359" transform="translate(-40.652 -18.011)" fill="#ffa77b"/>
            <path id="Trazado_1093247" data-name="Trazado 1093247" d="M153.822,67.141c1.1-.625,1.723-1.127,2.221-.8s.6.928.166,1.16-2.022,1.127-2.32.994-.829-.928-.066-1.359" transform="translate(-40.427 -17.454)" fill="#ffa77b"/>
            <path id="Trazado_1093248" data-name="Trazado 1093248" d="M161.244,67.121c-1.792.144-3.056-1.536-3.685-1.545-.74-.011-2.659.1-3.023.005s-.733-1.025-.336-1.192,2.067.049,2.8-.061c.342-.052,1.752-.082,2.349-.084a6.164,6.164,0,0,1,2.855,1.581c.466.6-.1,1.227-.957,1.3" transform="translate(-40.585 -16.927)" fill="#ffa77b"/>
            <path id="Trazado_1093249" data-name="Trazado 1093249" d="M164.6,78.334c-.287-.707-1.215-.569-2.274-.3s-2.023.987-1.9,1.427,1.279.435,2.338.167,2.011-.871,1.839-1.294" transform="translate(-42.267 -20.503)" fill="#514c49"/>
            <path id="Trazado_1093250" data-name="Trazado 1093250" d="M164.46,79.113a8.513,8.513,0,0,1-1.439.3,10.915,10.915,0,0,1-2.443-.057.529.529,0,0,0-.153.443c.12.44,1.29.545,2.348.276a3.712,3.712,0,0,0,1.687-.966" transform="translate(-42.267 -20.845)" fill="#f9ae41"/>
            <path id="Trazado_1093251" data-name="Trazado 1093251" d="M179.03,100.533c-4.962-.617-15.706-1.809-20.844-1.273a3.739,3.739,0,0,0,.049,1.26c1.9.931,5.849,1.571,10.411,1.571,4.541,0,8.471-.634,10.384-1.558" transform="translate(-41.672 -26.118)" fill="#af4877"/>
            <path id="Trazado_1093252" data-name="Trazado 1093252" d="M158.159,100.091c0,.1.007.189.017.28,6.928-.264,18.974.9,23.619,1.449l.044-.174c-3.488-.423-16.893-1.964-23.68-1.555" transform="translate(-41.673 -26.355)" fill="#3f393e"/>
            <path id="Trazado_1093253" data-name="Trazado 1093253" d="M158.928,106.3a1.485,1.485,0,0,0-1.048.431,1.488,1.488,0,0,0,1.048.431h20.043a1.488,1.488,0,0,0,1.048-.431,1.485,1.485,0,0,0-1.048-.431Z" transform="translate(-41.6 -28.009)" fill="#ff9343"/>
            <path id="Trazado_1093254" data-name="Trazado 1093254" d="M159.076,106.3a1.478,1.478,0,0,0-.635.144,1.478,1.478,0,0,0,.635.144h20.043a1.478,1.478,0,0,0,.635-.144,1.478,1.478,0,0,0-.635-.144Z" transform="translate(-41.747 -28.009)" fill="#ffd880"/>
            <path id="Trazado_1093255" data-name="Trazado 1093255" d="M122.984,96.88c.535,0,.972-2.767,1-6.239l-.377-.378-1.242.005-.374.378c.024,3.47.461,6.234,1,6.234" transform="translate(-32.142 -23.783)" fill="#bfe1e2"/>
            <path id="Trazado_1093256" data-name="Trazado 1093256" d="M126.227,93.248c.395,0,.715-1.173.715-2.619v-.007a.373.373,0,0,0-.376-.37l-.681,0a.373.373,0,0,0-.373.37v0c0,1.447.32,2.619.715,2.619" transform="translate(-33.071 -23.781)" fill="#bfe1e2"/>
            <path id="Trazado_1093257" data-name="Trazado 1093257" d="M104.219,41.18c.964-.638,1.857-1.286,2.671-1.935H82.384q-.917.8-1.652,1.592Z" transform="translate(-21.272 -10.341)" fill="#92a9ad"/>
            <path id="Trazado_1093258" data-name="Trazado 1093258" d="M123.019,41.292l13.715.2c.46-.758.868-1.51,1.224-2.247H124.252c-.451.686-.864,1.371-1.233,2.047" transform="translate(-32.414 -10.341)" fill="#92a9ad"/>
            <path id="Trazado_1093259" data-name="Trazado 1093259" d="M88.972,12.729H102.5L106.983,0H93.459Z" transform="translate(-23.443 0)" fill="#e4eeef"/>
            <path id="Trazado_1093260" data-name="Trazado 1093260" d="M121.847,12.729h7.841L133.5,0h-7.841Z" transform="translate(-32.105 0)" fill="#e4eeef"/>
            <rect id="Rectángulo_459985" data-name="Rectángulo 459985" width="20.242" height="0.972" transform="translate(132.277 130.333)" fill="#5a686b"/>
            <rect id="Rectángulo_459986" data-name="Rectángulo 459986" width="20.242" height="0.972" transform="translate(132.277 128.3)" fill="#5a686b"/>
            <rect id="Rectángulo_459987" data-name="Rectángulo 459987" width="20.242" height="0.972" transform="translate(132.277 126.267)" fill="#5a686b"/>
            <rect id="Rectángulo_459988" data-name="Rectángulo 459988" width="20.242" height="0.972" transform="translate(132.277 124.234)" fill="#5a686b"/>
            <path id="Trazado_1093261" data-name="Trazado 1093261" d="M140.51,128.722H116.379a1.521,1.521,0,0,0-1.519,1.519v41.035h.519V130.241a1,1,0,0,1,1-1H140.51a1,1,0,0,1,1,1v41.035h.519V130.241a1.521,1.521,0,0,0-1.519-1.519" transform="translate(-30.264 -33.917)" fill="#627e7f"/>
          </g>
        </g>
      </g>
    </g>
  </g>
</svg>
