<svg xmlns="http://www.w3.org/2000/svg" width="194.604" height="184.653" viewBox="0 0 194.604 184.653">
  <g id="_344575426_14281286-dded-40ed-b93b-0f5dc01b82bd" data-name="344575426_14281286-dded-40ed-b93b-0f5dc01b82bd" transform="translate(-73.929 -93.119)">
    <path id="Trazado_1091529" data-name="Trazado 1091529" d="M130.917,729.224c1.217,1.469,2.273,3.109,3.365,4.672l-.564.465a50.592,50.592,0,0,0-3.3-4.572A4.715,4.715,0,0,0,130.917,729.224Z" transform="translate(-44.035 -495.888)" fill="#091a62"/>
    <path id="Trazado_1091530" data-name="Trazado 1091530" d="M110.315,828.371a3.464,3.464,0,0,1,1.341.066c-.389.431-.162,6.433-.11,7.453a7.975,7.975,0,0,0,2.848,5.893c.3.263.628.5.948.739l-.121.32-.507.145c-4.482-3.569-3.958-6.619-3.96-11.884a9.482,9.482,0,0,0-.034-2.466C110.656,828.441,110.492,828.444,110.315,828.371Z" transform="translate(-28.365 -573.155)" fill="#091a62"/>
    <path id="Trazado_1091531" data-name="Trazado 1091531" d="M107.533,269.639a3.188,3.188,0,0,1,1.33.346,2.641,2.641,0,0,1,1.411,2.285,2.682,2.682,0,0,1-.047.559,2.694,2.694,0,0,1-.067.273,2.666,2.666,0,0,1-.1.264,2.7,2.7,0,0,1-.122.253,2.661,2.661,0,0,1-.148.239,2.9,2.9,0,0,1-2.1,1.194,3.738,3.738,0,0,1-1.555-.444,2.66,2.66,0,0,1-1.283-1.762,2.594,2.594,0,0,1-.031-.813,2.628,2.628,0,0,1,.047-.268,2.589,2.589,0,0,1,.175-.514,2.589,2.589,0,0,1,.278-.467A3.1,3.1,0,0,1,107.533,269.639Z" transform="translate(-24.073 -137.61)" fill="#a1b5e0"/>
    <path id="Trazado_1091532" data-name="Trazado 1091532" d="M921.89,599.037a4.281,4.281,0,0,1,1.26.064,2.982,2.982,0,0,1,1.937,1.437,2.591,2.591,0,0,1,.179,2.1,3.313,3.313,0,0,1-2,1.864,3.871,3.871,0,0,1-1.769-.159,2.73,2.73,0,0,1-1.579-1.528q-.051-.13-.089-.265t-.062-.272a2.776,2.776,0,0,1-.035-.277q-.01-.139-.007-.279a2.686,2.686,0,0,1,.022-.278q.018-.139.049-.275a2.776,2.776,0,0,1,.077-.268,2.737,2.737,0,0,1,.1-.259A3.169,3.169,0,0,1,921.89,599.037Z" transform="translate(-659.355 -394.385)" fill="#6f85ba"/>
    <path id="Trazado_1091533" data-name="Trazado 1091533" d="M864.679,878.664c.3.3,1.018.195,1.44.19.928-.011,3.025-.295,3.748.167a10.177,10.177,0,0,1,.095,3.126l-.3.021q-3.968-.154-7.939-.116a16.159,16.159,0,0,1-.968-3.135c-1.336.007-2.674.034-4.008-.038q2.845-.022,5.69-.007l1.5-.024h.13C864.356,878.846,864.472,878.873,864.679,878.664Z" transform="translate(-610.261 -612.387)" fill="#6f85ba"/>
    <path id="Trazado_1091534" data-name="Trazado 1091534" d="M896.09,310.458a3.1,3.1,0,0,1,1.759.275,2.938,2.938,0,0,1,1.463,1.748,3.407,3.407,0,0,1-.173,2.56,3.015,3.015,0,0,1-2.095,1.589,3.7,3.7,0,0,1-1.668-.177,3.047,3.047,0,0,1-.288-.136,3,3,0,0,1-.272-.166,3.02,3.02,0,0,1-.484-.412,3.014,3.014,0,0,1-.388-.5,3.063,3.063,0,0,1-.275-.573,3.127,3.127,0,0,1,.112-2.456A3.552,3.552,0,0,1,896.09,310.458Z" transform="translate(-638.889 -169.416)" fill="#a1b5e0"/>
    <path id="Trazado_1091535" data-name="Trazado 1091535" d="M238.745,93.119a3.641,3.641,0,0,1,1.85.393,3.518,3.518,0,0,1,.315.186,3.625,3.625,0,0,1,.294.217,3.583,3.583,0,0,1,.913,1.13,3.575,3.575,0,0,1,.266.68,3.439,3.439,0,0,1,.084.347,3.456,3.456,0,0,1,.059.711,3.433,3.433,0,0,1-.026.356,3.508,3.508,0,0,1-.062.352,3.44,3.44,0,0,1-.1.344,3.459,3.459,0,0,1-.3.648,4.132,4.132,0,0,1-2.573,1.811,3.936,3.936,0,0,1-2.347-.576,3.668,3.668,0,0,1-.3-.215q-.144-.115-.276-.243a3.672,3.672,0,0,1-.663-.877q-.088-.162-.159-.331t-.125-.346a3.616,3.616,0,0,1-.09-.356,3.467,3.467,0,0,1-.054-.353q-.017-.178-.017-.356a3.5,3.5,0,0,1,.289-1.388,3.5,3.5,0,0,1,.349-.621A3.817,3.817,0,0,1,238.745,93.119Z" transform="translate(-125.906 0)" fill="#a1b5e0"/>
    <path id="Trazado_1091536" data-name="Trazado 1091536" d="M129.729,750.421c1.27,1.6,3.089,2.734,2.834,5.038a2.27,2.27,0,0,1-.382.992c-.074.124-.145.249-.221.372l.02.115a5.765,5.765,0,0,0-.442.552l-.189-.078a3.561,3.561,0,0,1-1.977.566,4.419,4.419,0,0,1-3.042-1.466,6.2,6.2,0,0,1-1.747-3.928,1.6,1.6,0,0,1,.6-1.159c1.072-.868,2.714-.69,3.981-.54Z" transform="translate(-39.482 -512.412)" fill="#1a357a"/>
    <path id="Trazado_1091537" data-name="Trazado 1091537" d="M801.7,141.071a4.209,4.209,0,0,1,2.792.641,4.573,4.573,0,0,1,1.154,6.167A4.3,4.3,0,0,1,802.7,149.6a4.362,4.362,0,0,1-2.917-.717q-.089-.06-.175-.125t-.168-.134q-.082-.069-.161-.142t-.154-.151q-.075-.077-.146-.158t-.137-.166c-.044-.056-.087-.114-.129-.172s-.081-.118-.119-.179-.075-.122-.11-.185-.068-.126-.1-.19-.062-.129-.09-.2-.055-.132-.08-.2-.048-.135-.07-.2-.042-.137-.059-.207-.034-.139-.049-.209-.027-.141-.037-.212a4.515,4.515,0,0,1,.763-3.3A4.36,4.36,0,0,1,801.7,141.071Z" transform="translate(-564.421 -37.364)" fill="#a1b5e0"/>
    <path id="Trazado_1091538" data-name="Trazado 1091538" d="M892.434,740c1.435-.008,4.518-.379,5.625.392a3.447,3.447,0,0,1,.512,1.555,67.2,67.2,0,0,1-.07,8.668,2.18,2.18,0,0,1-1.069,1.3c-.039.025-.08.047-.12.07-1.137.036-3.744.389-4.683-.209l-.2-.385a14.628,14.628,0,0,0,.081-1.947c-.4-1.391-.139-5.286-.14-6.894A20.665,20.665,0,0,1,892.434,740Z" transform="translate(-637.97 -504.216)" fill="#1a357a"/>
    <path id="Trazado_1091539" data-name="Trazado 1091539" d="M892.374,751.733a18.128,18.128,0,0,1,4.094.126c.419.766.166,5.563.16,6.709q-2.056.068-4.113.06C892.117,757.237,892.375,753.341,892.374,751.733Z" transform="translate(-637.97 -513.394)" fill="#fefefe"/>
    <path id="Trazado_1091540" data-name="Trazado 1091540" d="M74.171,661.638A23.176,23.176,0,0,1,83.41,664.9a10.188,10.188,0,0,1,4.642,6.245,6.984,6.984,0,0,1-1.17,5.395,4.716,4.716,0,0,1-.5.566,5.383,5.383,0,0,1-3.439.907,9.505,9.505,0,0,1-6.214-3.468C73.728,670.807,73.66,666.19,74.171,661.638Z" transform="translate(0 -443.2)" fill="#3762ac"/>
    <path id="Trazado_1091541" data-name="Trazado 1091541" d="M94.013,682.88c1.495.589,6.074,5.417,6.968,6.8.023,1.067.151,2.117.124,3.188l-.216-.066C98.523,689.594,95.856,686.424,94.013,682.88Z" transform="translate(-15.657 -459.759)" fill="#189fcc"/>
    <path id="Trazado_1091542" data-name="Trazado 1091542" d="M145.794,582.9c3.59,3.786,8.366,10.249,9,15.429a.861.861,0,0,1,0-.1,21.52,21.52,0,0,1,2.177-3.591l-.023,4.331c-.009,2.434-.142,4.471,1.342,6.544a6.446,6.446,0,0,0-4.278,2.7,5.637,5.637,0,0,0-.977,3.762,1.293,1.293,0,0,0-.822-.426.842.842,0,0,0-.639.262,5.866,5.866,0,0,1-.76-1.089,16.262,16.262,0,0,1-5.076,3.252,5.858,5.858,0,0,1-.916-.023,1.516,1.516,0,0,0-.658.054c-.11-.051-.22-.1-.327-.156a15.164,15.164,0,0,1-7.05-8.838c-1.513-4.683-.153-9.239,2.012-13.447a37.456,37.456,0,0,1,6.211-7.919Z" transform="translate(-48.503 -381.814)" fill="#0876bf"/>
    <path id="Trazado_1091543" data-name="Trazado 1091543" d="M178.511,612.226c.3.192.322.175.4.535a29.147,29.147,0,0,1,.56,4.841c.175,3.932-.02,7.96-.2,11.889a24.94,24.94,0,0,1-.375,4.785l-.157.066C178.45,626.985,178.516,619.589,178.511,612.226Z" transform="translate(-81.526 -404.68)" fill="#189fcc"/>
    <path id="Trazado_1091544" data-name="Trazado 1091544" d="M208.854,636.152l-.023,4.331c-.009,2.434-.142,4.471,1.342,6.544a6.446,6.446,0,0,0-4.278,2.7,5.637,5.637,0,0,0-.977,3.762,1.293,1.293,0,0,0-.822-.426.842.842,0,0,0-.639.262,5.866,5.866,0,0,1-.76-1.089q.408-.4.776-.841c2.808-3.385,3.578-7.291,3.2-11.553a.861.861,0,0,1,0-.1A21.522,21.522,0,0,1,208.854,636.152Z" transform="translate(-100.382 -423.332)" fill="#f9ce82"/>
    <path id="Trazado_1091545" data-name="Trazado 1091545" d="M138.8,594.2a37.455,37.455,0,0,1,6.211-7.919c.906,1.5.1,4,.476,5.72,0,7.363-.061,14.759.23,22.116-.05.835.133,1.669.023,2.494a5.858,5.858,0,0,1-.916-.023,1.516,1.516,0,0,0-.658.054c-.11-.051-.22-.1-.327-.156a15.164,15.164,0,0,1-7.05-8.838C135.276,602.96,136.636,598.4,138.8,594.2Z" transform="translate(-48.503 -384.45)" fill="#3762ac"/>
    <path id="Trazado_1091546" data-name="Trazado 1091546" d="M843.44,462.657q.319-.046.638-.076t.641-.044q.321-.014.643-.012t.643.02q.321.017.641.051t.637.083q.318.05.632.115t.626.146q.311.081.618.177t.609.207q.3.111.6.237t.585.267q.289.141.571.3t.556.323q.274.168.539.35t.521.377q.287.21.563.434t.54.462q.264.238.516.489t.491.515q.239.263.464.538t.436.561q.211.286.407.582t.378.6q.181.306.347.621t.315.637q.149.323.282.652t.249.666q.116.336.215.677t.181.688q.082.346.146.7t.11.7a14.176,14.176,0,0,1-11.912,16.011,16.242,16.242,0,0,1-5.213-.294,13.089,13.089,0,0,1-7.514-4.875,15.329,15.329,0,0,1-2.84-7.66,14.864,14.864,0,0,1,4.081-11.422A15.081,15.081,0,0,1,843.44,462.657Z" transform="translate(-590.39 -287.977)" fill="#f5a03e"/>
    <path id="Trazado_1091547" data-name="Trazado 1091547" d="M911.989,516.055a4.985,4.985,0,0,1,.668.007,2.125,2.125,0,0,1,1.42.867,1.684,1.684,0,0,1,.239,1.383,2.293,2.293,0,0,1-1.3,1.418,2.688,2.688,0,0,1-.684.044,1.841,1.841,0,0,1-1.27-.683,1.934,1.934,0,0,1-.284-1.573A2.28,2.28,0,0,1,911.989,516.055Z" transform="translate(-652.338 -329.702)" fill="#fefefe"/>
    <path id="Trazado_1091548" data-name="Trazado 1091548" d="M859.808,516.388a3.1,3.1,0,0,1,1-.016,2.041,2.041,0,0,1,1.293.986,1.732,1.732,0,0,1,.136,1.382,2.074,2.074,0,0,1-1.186,1.206,2.769,2.769,0,0,1-.789.017,2.01,2.01,0,0,1-1.355-.772,1.746,1.746,0,0,1-.26-1.414A2.3,2.3,0,0,1,859.808,516.388Z" transform="translate(-611.704 -329.928)" fill="#fefefe"/>
    <path id="Trazado_1091549" data-name="Trazado 1091549" d="M885.929,516.054a3.933,3.933,0,0,1,.732.037,2.137,2.137,0,0,1,1.4.952,1.746,1.746,0,0,1,.223,1.413,2.263,2.263,0,0,1-1.2,1.33,3.139,3.139,0,0,1-.918-.01,2.037,2.037,0,0,1-1.259-1.032,1.841,1.841,0,0,1-.08-.173,1.92,1.92,0,0,1-.107-.365q-.017-.094-.026-.188a1.9,1.9,0,0,1,.005-.38,1.865,1.865,0,0,1,.031-.188q.02-.093.049-.184A2.041,2.041,0,0,1,885.929,516.054Z" transform="translate(-632.038 -329.706)" fill="#fefefe"/>
    <path id="Trazado_1091550" data-name="Trazado 1091550" d="M121.67,709.117a5.867,5.867,0,0,0,.76,1.089.843.843,0,0,1,.639-.262,1.293,1.293,0,0,1,.822.426c.083.5.143,1.025.263,1.521a3.264,3.264,0,0,0,.479.565,7.919,7.919,0,0,1,.642.553,10.215,10.215,0,0,0,2.834.912c2.439,3.132,5.716,7.3,9.24,9.217l-3.6,11.086-3.612-.035a14.133,14.133,0,0,0-.114-2.786c-.031,1.344,0,2.68.039,4.023-.962.049-1.922.105-2.885.1l-.01,4.926c-.013,3.551-.121,5.992-2.786,8.642-.365.363-.746.711-1.125,1.059-.2-.041-.4-.082-.608-.112l-.135-.018.224-.443-1,.6-2.469.009q-2.486.026-4.972-.009c-1.792.016-5.324.28-6.943-.107a4.119,4.119,0,0,1-1.025-.493c-.32-.24-.646-.476-.948-.739a7.975,7.975,0,0,1-2.848-5.893c-.052-1.02-.278-7.022.11-7.453a3.466,3.466,0,0,0-1.341-.066,19.66,19.66,0,0,1-2.385.05,64.919,64.919,0,0,1-.07-8.143c1.625-.092,3.284-.012,4.913,0q4.359.064,8.718.043c-.328-.71-.708-1.4-1.071-2.092a5.771,5.771,0,0,1,.442-.552,26.694,26.694,0,0,1,1.428,2.636l1.716,0,.022-14.973a1.516,1.516,0,0,1,.658-.054,5.858,5.858,0,0,0,.916.023A16.262,16.262,0,0,0,121.67,709.117Z" transform="translate(-19.356 -480.213)" fill="#091a62"/>
    <path id="Trazado_1091551" data-name="Trazado 1091551" d="M209.46,828.963l3.241-.011-.013,1.6a12.488,12.488,0,0,0-3.211.139l-.027-.042C209.474,830.09,209.459,829.524,209.46,828.963Z" transform="translate(-105.648 -573.633)" fill="#fac098"/>
    <path id="Trazado_1091552" data-name="Trazado 1091552" d="M221.778,795.484l3.386,0,.037,6.568q-1.68.042-3.36.031l-.107-.108A53.069,53.069,0,0,0,221.778,795.484Z" transform="translate(-115.225 -547.541)" fill="#fce5be"/>
    <path id="Trazado_1091553" data-name="Trazado 1091553" d="M102.445,795.273l5.429.03q-.041,3.264-.019,6.529l20.881-.022.107.108c-3,.091-6.032.016-9.039.016l-17.364,0Z" transform="translate(-22.227 -547.378)" fill="#f18853"/>
    <path id="Trazado_1091554" data-name="Trazado 1091554" d="M195.733,836.236a12.5,12.5,0,0,1,3.211-.139c-.019,4.243.61,8.266-2.661,11.544q-.478.474-1,.9l-1,.6-2.469.009q.176-.171.349-.344C195.55,845.415,195.747,840.75,195.733,836.236Z" transform="translate(-91.903 -579.176)" fill="#fce5be"/>
    <path id="Trazado_1091555" data-name="Trazado 1091555" d="M181.422,709.117a5.866,5.866,0,0,0,.76,1.089.843.843,0,0,1,.639-.262,1.293,1.293,0,0,1,.822.426c.083.5.143,1.025.263,1.521a3.263,3.263,0,0,0,.479.565,7.927,7.927,0,0,1,.642.553c-1.683,1.653-2.816,3.817-4.279,5.653a6.823,6.823,0,0,0-.831.68c-.334.333-.676.795-1.168.853-.015.059-.029.119-.044.178-.4,1.534-1.122,2.19-.252,3.824a25.221,25.221,0,0,0-1.331,2.677,2.98,2.98,0,0,1-.263.4,3.358,3.358,0,0,1-1.414.089c-.094-5,0-10.016-.018-15.017a5.858,5.858,0,0,0,.916.023A16.261,16.261,0,0,0,181.422,709.117Z" transform="translate(-79.109 -480.213)" fill="#fefefe"/>
    <path id="Trazado_1091556" data-name="Trazado 1091556" d="M206.146,713.132a.842.842,0,0,1,.639-.262,1.293,1.293,0,0,1,.822.426c.083.5.143,1.025.263,1.521A6.793,6.793,0,0,1,206.146,713.132Z" transform="translate(-103.072 -483.139)" fill="#f9ce82"/>
    <path id="Trazado_1091557" data-name="Trazado 1091557" d="M196.126,724.266a7.939,7.939,0,0,1,.642.553c-1.683,1.653-2.816,3.817-4.279,5.653a6.823,6.823,0,0,0-.831.68c-.334.333-.676.795-1.168.853a1.769,1.769,0,0,1,.144-1.137,1.879,1.879,0,0,1,1-.334A70.618,70.618,0,0,1,196.126,724.266Z" transform="translate(-90.847 -492.023)" fill="#091a62"/>
    <path id="Trazado_1091558" data-name="Trazado 1091558" d="M127,795.411l20.906.018a53.062,53.062,0,0,1-.043,6.489l-20.881.022Q126.957,798.675,127,795.411Z" transform="translate(-41.35 -547.485)" fill="#f5a03e"/>
    <path id="Trazado_1091559" data-name="Trazado 1091559" d="M192.787,726.773a10.217,10.217,0,0,0,2.834.912c2.439,3.132,5.716,7.3,9.24,9.217l-3.6,11.086-3.612-.035a14.133,14.133,0,0,0-.114-2.786l-.018-4.042c-1.444.018-11.683.211-12.161-.1.588-.782.919-1.748,1.468-2.568a1.039,1.039,0,0,0-.613-.5c-.87-1.634-.15-2.29.252-3.824.015-.059.029-.119.044-.178.491-.058.834-.521,1.168-.853a6.823,6.823,0,0,1,.831-.68C189.971,730.59,191.1,728.426,192.787,726.773Z" transform="translate(-86.867 -493.977)" fill="#fefefe"/>
    <path id="Trazado_1091560" data-name="Trazado 1091560" d="M190.077,752.068c1.627-.169,3.47-.248,4.828.847a2.125,2.125,0,0,1,.835,1.511,2.948,2.948,0,0,1-.9,2.115,7.156,7.156,0,0,1-5.17,2.155c-.1,0-.191,0-.286,0-.331-.194-.67-.381-.991-.592a1.039,1.039,0,0,0-.613-.5c-.87-1.634-.15-2.29.252-3.824.015-.059.029-.119.044-.178.491-.058.834-.521,1.168-.853A6.816,6.816,0,0,1,190.077,752.068Z" transform="translate(-88.436 -513.619)" fill="#1a357a"/>
    <path id="Trazado_1091561" data-name="Trazado 1091561" d="M115.61,828.783c1.588.105,3.2.057,4.793.057,3.97,0,7.973-.116,11.938.012q1.895-.039,3.79-.021c0,.561.013,1.127-.009,1.688l.027.042c.014,4.514-.183,9.179-3.565,12.573q-.173.173-.349.345-2.486.026-4.972-.01c-1.792.016-5.324.28-6.943-.107a4.119,4.119,0,0,1-1.025-.493c-.32-.24-.646-.476-.948-.739a7.975,7.975,0,0,1-2.848-5.893C115.448,835.216,115.221,829.214,115.61,828.783Z" transform="translate(-32.319 -573.501)" fill="#f5a03e"/>
    <path id="Trazado_1091562" data-name="Trazado 1091562" d="M115.61,828.783c1.588.105,3.2.057,4.793.057,3.97,0,7.973-.116,11.938.012q1.895-.039,3.79-.021c0,.561.013,1.127-.009,1.688a28.891,28.891,0,0,1-4.716.089l-9.384-.007c-.056,3.408-.717,8.366,1.872,11a6.162,6.162,0,0,0,3.115,1.826c.053.007.106.017.158.025l.1.013c-1.792.016-5.324.28-6.943-.107a4.119,4.119,0,0,1-1.025-.493c-.32-.24-.646-.476-.948-.739a7.975,7.975,0,0,1-2.848-5.893C115.448,835.216,115.221,829.214,115.61,828.783Z" transform="translate(-32.319 -573.501)" fill="#f18853"/>
    <path id="Trazado_1091563" data-name="Trazado 1091563" d="M747.838,705.931l7.628-.03a24.277,24.277,0,0,1,4.951.14,3.648,3.648,0,0,1,1.892.984,4.768,4.768,0,0,1,1.476,3.635,26.52,26.52,0,0,0,0,2.789,20.677,20.677,0,0,0-.06,2.552c0,1.608-.257,5.5.14,6.894a14.629,14.629,0,0,1-.081,1.947c-.219,3.228-.088,6.537-.091,9.775,0,3.085-.137,6.245.046,9.321-.207.209-.323.182-.608.185l-.13,0-1.5.024q-2.845-.016-5.69.007-3.143-.047-6.288-.053c-.613.038-1.25,0-1.866,0-.8-.013-1.6,0-2.406.006l-.085-.029c-1.206.067-2.441.025-3.651.033l-.86.009c-2.24.01-4.543.126-6.776-.016-1.907-.306-4.943.318-6.609-.295,2.807-1.072,6.123-2.36,7.569-5.213,1.908-3.767.168-7.581-1.043-11.227-.676-2.035-1.3-4.089-1.984-6.121,1.458-1.349,2.962-2.651,4.4-4.021,1.4-1.335,2.775-3.042,4.44-4.035-.02-1.8-.466-4.952.9-6.28S746.023,705.945,747.838,705.931Z" transform="translate(-509.325 -477.662)" fill="#f9ce82"/>
    <path id="Trazado_1091564" data-name="Trazado 1091564" d="M791.632,769.189c.4,1.35-.074,3.032.153,4.449l.135.092c1.467-.465,14.1-15.784,15.566-17.6,1.264-1.56,2.754-4.056,4.188-5.331l-.022,5.445c-2.105,3.075-16.157,21.488-16.32,22.88-1.206.067-2.441.025-3.651.033C791.592,775.841,791.623,772.511,791.632,769.189Z" transform="translate(-559.489 -512.71)" fill="#f5a03e"/>
    <path id="Trazado_1091565" data-name="Trazado 1091565" d="M824.779,775.506l.08,5.17a22.076,22.076,0,0,1-.064,3.785l0,13.992q-2.845-.016-5.69.007-3.143-.047-6.288-.053c-.613.038-1.25,0-1.866,0-.8-.013-1.6,0-2.406.006l-.085-.029C808.622,796.994,822.674,778.581,824.779,775.506Z" transform="translate(-572.616 -531.968)" fill="#f9ce82"/>
    <path id="Trazado_1091566" data-name="Trazado 1091566" d="M833.571,798.2q.028,1.511-.013,3.023a27.925,27.925,0,0,0-2.935,3.661q-3.265,4.291-6.408,8.671a13.328,13.328,0,0,1-1.754,2.4,4.024,4.024,0,0,1-.835.147c-.613.038-1.25,0-1.866,0,.429-.974,2.516-3.188,3.285-4.184Z" transform="translate(-581.426 -549.658)" fill="#f5a03e"/>
    <path id="Trazado_1091567" data-name="Trazado 1091567" d="M840.156,811.91l.047.93,0,13.992q-2.845-.016-5.69.007-3.144-.047-6.288-.053a4.032,4.032,0,0,0,.835-.147,13.33,13.33,0,0,0,1.754-2.4q3.143-4.381,6.408-8.671A27.935,27.935,0,0,1,840.156,811.91Z" transform="translate(-588.025 -560.347)" fill="#f9ce82"/>
    <path id="Trazado_1091568" data-name="Trazado 1091568" d="M747.838,705.931l7.628-.03a24.277,24.277,0,0,1,4.951.14,3.648,3.648,0,0,1,1.892.984,4.768,4.768,0,0,1,1.476,3.635,26.52,26.52,0,0,0,0,2.789,20.677,20.677,0,0,0-.06,2.552c0,1.608-.257,5.5.14,6.894a14.629,14.629,0,0,1-.081,1.947c-.219,3.228-.088,6.537-.091,9.775,0,3.085-.137,6.245.046,9.321-.207.209-.323.182-.608.185l-.13,0-1.5.024,0-13.992a22.075,22.075,0,0,0,.064-3.785l-.08-5.17.022-5.445q-.018-2.466.035-4.932-4.086-.108-8.173-.04c-3.922.227-7.924.037-11.855.057-.072,7.75-.24,15.554-.047,23.3-.009,3.322-.04,6.652.048,9.973l-.86.009c-2.24.01-4.543.126-6.776-.016-1.907-.306-4.943.318-6.609-.295,2.807-1.072,6.123-2.359,7.569-5.213,1.908-3.767.168-7.581-1.043-11.227-.676-2.035-1.3-4.089-1.984-6.121,1.458-1.349,2.962-2.651,4.4-4.02,1.4-1.335,2.775-3.042,4.44-4.035-.02-1.8-.466-4.952.9-6.28S746.023,705.945,747.838,705.931Z" transform="translate(-509.325 -477.662)" fill="#1a357a"/>
    <path id="Trazado_1091569" data-name="Trazado 1091569" d="M829.133,713.8c-.821.214-3.366.31-4.081-.237a.587.587,0,0,1-.252-.4.952.952,0,0,1,.286-.76c.765-.839,2.586-.6,3.642-.636.249.137.373.2.479.485A3.058,3.058,0,0,1,829.133,713.8Z" transform="translate(-585.351 -482.278)" fill="#6f85ba"/>
    <path id="Trazado_1091570" data-name="Trazado 1091570" d="M842.642,710.516c1.9-.58,4.771-.288,6.769-.282a3.926,3.926,0,0,1,2.025,2.343,4.87,4.87,0,0,1,.048,1.606q-4.086-.108-8.173-.04a4.008,4.008,0,0,0-.264-1.6,3.058,3.058,0,0,0,.075-1.546C843.015,710.713,842.891,710.652,842.642,710.516Z" transform="translate(-599.264 -481.022)" fill="#3762ac"/>
    <path id="Trazado_1091571" data-name="Trazado 1091571" d="M873.35,710.513a3.912,3.912,0,0,1,2.739,1.351,3.01,3.01,0,0,1,.714,1.387,23.986,23.986,0,0,1,.05,3.443q-.024,2.931.006,5.862l.025,25.206-1.5.024,0-13.992a22.069,22.069,0,0,0,.064-3.785l-.08-5.17.022-5.445q-.018-2.466.035-4.932a4.87,4.87,0,0,0-.048-1.606A3.926,3.926,0,0,0,873.35,710.513Z" transform="translate(-623.203 -481.301)" fill="#fefefe"/>
    <path id="Trazado_1091572" data-name="Trazado 1091572" d="M740.655,739.2q-.083,15.464,0,30.927c-2.24.01-4.543.126-6.776-.016-1.907-.306-4.943.318-6.609-.295,2.807-1.072,6.123-2.359,7.568-5.213,1.908-3.767.168-7.581-1.043-11.227-.676-2.035-1.3-4.089-1.984-6.121,1.458-1.349,2.962-2.651,4.4-4.02C737.619,741.895,738.99,740.188,740.655,739.2Z" transform="translate(-509.326 -503.661)" fill="#fefefe"/>
    <path id="Trazado_1091573" data-name="Trazado 1091573" d="M122.282,810.221a14.132,14.132,0,0,1,.114,2.786l3.612.035c-.7,2.3-1.567,4.864-.356,7.157,1.493,2.826,5.484,4.087,8.353,4.907a41.787,41.787,0,0,0,9.1,1.694l2.583.317a7.049,7.049,0,0,0,1.847,1.935,7.773,7.773,0,0,0,2.257.384c4.851.132,9.725-.024,14.579-.033l29.816-.035,13.969-.015a44.6,44.6,0,0,0,6.937-.1,7.736,7.736,0,0,0,2.8-1.78,51.859,51.859,0,0,0,11.668-2.291c1.665.613,4.7-.011,6.609.295,2.234.142,4.536.026,6.776.016l.86-.01c1.21-.008,2.445.034,3.651-.033l.085.029c.8,0,1.6-.018,2.406-.006.615,0,1.253.035,1.866,0q3.144.006,6.288.053c1.334.072,2.672.045,4.008.038a16.151,16.151,0,0,0,.968,3.135q3.971-.037,7.939.116l.3-.021a4.075,4.075,0,0,1,2.288.372,3.059,3.059,0,0,1,1.475,1.952,4.819,4.819,0,0,1-.566,3.635,3.924,3.924,0,0,1-2.425,1.858c-1.692.359-6.763.111-8.733.106l-19.957-.028-83.688-.008-44.31-.041-15.462.024c-2.436,0-4.955.152-7.382.019a3.849,3.849,0,0,1-.99-.187,3.806,3.806,0,0,1-.468-.189,3.866,3.866,0,0,1-.439-.249,4.184,4.184,0,0,1-1.769-2.838,3.879,3.879,0,0,1,.643-3.012c1.6-2.059,5.93-1.071,8.315-1.327l.115-.013.507-.145.121-.32a4.119,4.119,0,0,0,1.025.493c1.619.387,5.151.123,6.943.107q2.486.036,4.972.01L114,829l1-.6-.224.443.135.018c.205.03.406.071.608.112.379-.348.76-.7,1.125-1.059,2.665-2.65,2.773-5.091,2.786-8.642l.01-4.926c.964.005,1.924-.051,2.885-.1C122.281,812.9,122.251,811.565,122.282,810.221Z" transform="translate(-11.611 -559.031)" fill="#1a357a"/>
    <path id="Trazado_1091574" data-name="Trazado 1091574" d="M789.112,893.87c1.944-.158,3.938-.084,5.888-.079l9.6.036q3.971-.037,7.939.116c-.086.264-.1.377-.387.485-.711.269-26.613.085-28.681-.13C785.239,894.231,787.353,894.077,789.112,893.87Z" transform="translate(-553.136 -624.162)" fill="#091a62"/>
    <path id="Trazado_1091575" data-name="Trazado 1091575" d="M811.056,879.39c.615,0,1.253.035,1.866,0q3.144.006,6.288.053c1.334.072,2.672.045,4.008.038a16.151,16.151,0,0,0,.968,3.135l-9.6-.037c-1.951-.005-3.945-.079-5.888.079a20.268,20.268,0,0,1-.049-3.261C809.452,879.392,810.255,879.378,811.056,879.39Z" transform="translate(-572.723 -612.949)" fill="#3762ac"/>
    <path id="Trazado_1091576" data-name="Trazado 1091576" d="M664.44,880.379a51.852,51.852,0,0,0,11.668-2.291c1.665.613,4.7-.011,6.609.3a3.263,3.263,0,0,0-.016,2.709c.117.349.263.689.407,1.027-4.811.077-9.627-.052-14.438-.025l-4.786.057a13.288,13.288,0,0,1-2.242.009A7.736,7.736,0,0,0,664.44,880.379Z" transform="translate(-458.162 -611.938)" fill="#f9ce82"/>
    <path id="Trazado_1091577" data-name="Trazado 1091577" d="M216.675,810.221a14.132,14.132,0,0,1,.114,2.786l3.612.035c-.7,2.3-1.567,4.864-.356,7.157,1.493,2.826,5.484,4.087,8.353,4.907a41.787,41.787,0,0,0,9.1,1.694l2.583.317a7.049,7.049,0,0,0,1.847,1.935c-1.748.135-3.593,0-5.353-.013l-10.533-.008-10.686.031a37.838,37.838,0,0,1-5.448-.09c.379-.348.76-.7,1.125-1.059,2.665-2.65,2.773-5.091,2.786-8.642l.01-4.926c.964.005,1.924-.051,2.885-.1C216.674,812.9,216.644,811.565,216.675,810.221Z" transform="translate(-106.004 -559.031)" fill="#cfdbeb"/>
    <path id="Trazado_1091578" data-name="Trazado 1091578" d="M131.7,225.9q-.723-2.176-1.334-4.387t-1.106-4.45q-.5-2.239-.876-4.5t-.644-4.54q-.111-.85-.205-1.7t-.17-1.705q-.076-.853-.134-1.709t-.1-1.711q-.041-.856-.064-1.713t-.028-1.714q-.005-.857.007-1.714t.043-1.713q.03-.856.078-1.712t.114-1.71q.066-.854.149-1.707t.184-1.7q.1-.851.219-1.7t.255-1.695q.136-.846.29-1.689t.324-1.683q.171-.84.359-1.676t.394-1.668q.205-.832.428-1.659t.462-1.65q.24-.823.5-1.64t.531-1.63q.274-.812.564-1.618t.6-1.606q.307-.8.63-1.594t.663-1.58q.34-.787.7-1.566t.728-1.551q.372-.772.76-1.536t.792-1.52q.4-.756.823-1.5t.854-1.486a73.644,73.644,0,0,1,5.231-7.868q.644-.84,1.308-1.663t1.349-1.631q.685-.807,1.389-1.6t1.428-1.562q.723-.772,1.466-1.526t1.5-1.489q.761-.735,1.54-1.452t1.575-1.413q.8-.7,1.609-1.374t1.643-1.334q.83-.657,1.675-1.293t1.707-1.251q.861-.615,1.737-1.209t1.766-1.165q.89-.572,1.795-1.122t1.822-1.077q.918-.527,1.848-1.031t1.873-.986q.942-.481,1.9-.939t1.919-.892q.965-.434,1.94-.844t1.961-.8q.985-.386,1.98-.747t2-.7q1-.337,2.014-.649t2.03-.6q1.019-.287,2.044-.549t2.057-.5q1.031-.236,2.069-.447t2.079-.4q1.042-.185,2.088-.345t2.1-.293q1.043-.134,2.088-.241t2.093-.189q1.048-.082,2.1-.137t2.1-.084q1.05-.029,2.1-.031t2.1.021q1.05.024,2.1.074t2.1.126q1.048.076,2.094.179t2.089.231q1.043.129,2.083.283t2.075.335q1.035.181,2.066.387t2.055.439q1.025.232,2.044.49t2.031.541q1.012.283,2.017.592t2,.642q1,.334,1.985.692t1.966.741q.979.383,1.948.79t1.927.839q.959.431,1.906.887t1.883.934q.935.479,1.859.981t1.834,1.027q.91.525,1.807,1.073t1.78,1.117q.883.57,1.751,1.162t1.722,1.205q.853.613,1.691,1.248t1.659,1.29a82.309,82.309,0,0,1,28.255,44.049,123.794,123.794,0,0,1,2.234,14.62,15.081,15.081,0,0,0-8.06,3.8c-.258-1.767-.3-3.54-.482-5.313a80.2,80.2,0,0,0-1.5-9.359,69.3,69.3,0,0,0-3.179-10q-.234-.618-.48-1.231t-.5-1.222q-.256-.609-.524-1.213t-.546-1.2q-.278-.6-.567-1.194t-.589-1.183q-.3-.589-.61-1.173t-.63-1.161q-.32-.578-.651-1.15t-.672-1.138q-.341-.566-.692-1.126t-.712-1.113q-.361-.553-.732-1.1t-.752-1.087q-.381-.54-.771-1.073t-.79-1.059q-.4-.526-.809-1.045t-.828-1.03q-.418-.512-.846-1.015t-.864-1q-.437-.5-.882-.984t-.9-.968q-.454-.48-.917-.952t-.934-.935q-.471-.464-.95-.918t-.967-.9q-.487-.446-.983-.884t-1-.866q-.5-.429-1.014-.848t-1.029-.829q-.518-.41-1.043-.811t-1.058-.792q-.742-.547-1.5-1.075t-1.523-1.037q-.767-.509-1.548-1t-1.572-.961q-.792-.471-1.6-.922t-1.617-.883q-.814-.431-1.638-.842t-1.659-.8q-.834-.39-1.678-.761t-1.7-.719q-.853-.349-1.714-.677t-1.73-.635q-.869-.306-1.745-.592t-1.759-.549q-.883-.264-1.772-.505t-1.784-.461q-.895-.22-1.795-.417t-1.8-.373q-.9-.175-1.813-.328t-1.821-.283q-.912-.131-1.827-.239t-1.832-.193q-.918-.085-1.836-.148t-1.84-.1q-.92-.04-1.841-.057t-1.842-.012q-.921.006-1.842.034t-1.841.079q-.92.051-1.838.124t-1.835.17q-.916.1-1.83.215t-1.824.26q-.939.148-1.874.319t-1.866.365q-.931.194-1.856.41t-1.846.456q-.92.239-1.834.5t-1.821.546q-.907.284-1.807.591t-1.792.635q-.892.328-1.776.678t-1.759.722q-.875.372-1.741.765t-1.721.807q-.856.414-1.7.85t-1.68.891q-.834.456-1.657.932t-1.634.972q-.811.5-1.61,1.012t-1.584,1.051q-.786.535-1.558,1.09t-1.531,1.128q-.758.573-1.5,1.165t-1.474,1.2q-.729.61-1.444,1.237t-1.413,1.273q-.7.645-1.381,1.307t-1.349,1.34q-.666.679-1.315,1.373t-1.281,1.4q-.632.711-1.246,1.436t-1.211,1.466q-.6.74-1.174,1.5t-1.137,1.524c-10.805,14.613-16.006,34.96-13.3,52.965a57.439,57.439,0,0,0,2.371,10.262l-.782.745A37.457,37.457,0,0,0,131.7,225.9Z" transform="translate(-41.398 -16.158)" fill="#f9ce82"/>
    <path id="Trazado_1091579" data-name="Trazado 1091579" d="M169.034,246.732a57.441,57.441,0,0,1-2.371-10.262c-2.7-18.006,2.5-38.352,13.3-52.965q.559-.769,1.137-1.524t1.174-1.5q.6-.741,1.211-1.466t1.246-1.436q.632-.71,1.281-1.4t1.315-1.373q.666-.678,1.349-1.34t1.381-1.307q.7-.645,1.413-1.273t1.444-1.237q.729-.61,1.474-1.2t1.5-1.165q.759-.573,1.531-1.128t1.558-1.09q.786-.535,1.584-1.051t1.61-1.012q.811-.5,1.634-.972t1.657-.932q.834-.456,1.68-.891t1.7-.85q.856-.414,1.721-.807t1.741-.765q.875-.372,1.759-.722t1.776-.678q.892-.328,1.792-.635t1.807-.591q.907-.284,1.821-.546t1.834-.5q.92-.239,1.846-.456t1.857-.41q.931-.194,1.866-.365t1.874-.319q.91-.141,1.824-.26t1.83-.215q.916-.1,1.835-.169t1.838-.124q.92-.051,1.841-.079t1.842-.033q.922-.005,1.842.012t1.841.057q.921.04,1.84.1t1.836.148q.917.086,1.832.193t1.827.239q.912.13,1.821.283t1.813.328q.9.175,1.8.373t1.795.417q.895.22,1.784.461t1.772.505q.883.264,1.759.549t1.745.592q.869.307,1.729.635t1.714.677q.853.349,1.7.719t1.678.761q.834.391,1.659.8t1.638.842q.814.432,1.617.883t1.6.922q.792.471,1.572.961t1.548,1q.768.509,1.523,1.037t1.5,1.075q.533.391,1.058.792t1.044.811q.518.41,1.029.829t1.014.848q.5.429,1,.866t.983.884q.487.446.967.9t.95.918q.471.464.934.935t.917.952q.454.48.9.968t.882.984q.436.5.864,1t.846,1.015q.419.511.828,1.03t.809,1.045q.4.526.79,1.059t.771,1.073q.381.54.752,1.087t.732,1.1q.361.554.712,1.113t.692,1.126q.341.566.672,1.138t.651,1.15q.32.578.63,1.161t.61,1.173q.3.589.589,1.184t.567,1.194q.278.6.545,1.2t.524,1.213q.257.609.5,1.223t.48,1.231a69.31,69.31,0,0,1,3.179,10,80.189,80.189,0,0,1,1.5,9.359c.178,1.773.224,3.546.482,5.313a14.863,14.863,0,0,0-4.081,11.422,15.329,15.329,0,0,0,2.84,7.66,13.089,13.089,0,0,0,7.514,4.875,63.291,63.291,0,0,1-7.224,17.451c-1.748,2.854-3.758,5.54-5.525,8.384-1.815.014-4.919-.339-6.282.985s-.921,4.48-.9,6.28c-1.665.993-3.036,2.7-4.44,4.035-1.439,1.369-2.943,2.671-4.4,4.02.685,2.032,1.308,4.085,1.984,6.121,1.211,3.646,2.951,7.46,1.043,11.227-1.445,2.854-4.762,4.142-7.569,5.213a51.854,51.854,0,0,1-11.668,2.291,7.735,7.735,0,0,1-2.8,1.78,44.608,44.608,0,0,1-6.937.1l-13.969.015-29.816.035c-4.854.009-9.728.165-14.579.033a7.774,7.774,0,0,1-2.257-.384,7.052,7.052,0,0,1-1.847-1.935l-2.583-.317a41.8,41.8,0,0,1-9.1-1.694c-2.869-.82-6.86-2.082-8.353-4.907-1.211-2.293-.34-4.857.356-7.157l3.6-11.086c-3.524-1.919-6.8-6.085-9.24-9.217a10.217,10.217,0,0,1-2.834-.912,7.941,7.941,0,0,0-.642-.553,3.266,3.266,0,0,1-.479-.565c-.12-.5-.18-1.017-.263-1.521a5.637,5.637,0,0,1,.977-3.762,6.446,6.446,0,0,1,4.278-2.7c-1.484-2.074-1.351-4.11-1.342-6.544l.023-4.331a21.518,21.518,0,0,0-2.177,3.591.861.861,0,0,0,0,.1C177.4,256.981,172.624,250.518,169.034,246.732Z" transform="translate(-71.743 -45.651)" fill="#cfdbeb"/>
    <path id="Trazado_1091580" data-name="Trazado 1091580" d="M728.535,275.7c.984.427,1.029,2.24,1.5,3.152.982.487,2.039.781,3.011,1.3a25.975,25.975,0,0,1-3,1.354,22.754,22.754,0,0,0-.839,2.839.784.784,0,0,1-.273.244l-.216-.093a8.9,8.9,0,0,1-1.066-2.831,5.806,5.806,0,0,1-2.166-1.353c-.025-.166-.079-.253.016-.406.374-.6,1.532-.767,2.186-.893A16.772,16.772,0,0,1,728.535,275.7Z" transform="translate(-507.898 -142.333)" fill="#a1b5e0"/>
    <path id="Trazado_1091581" data-name="Trazado 1091581" d="M682.934,275.064c.054.022.109.04.161.065.8.383.978,2.316,1.277,3.125l.055.145c.7.442,1.692.63,2.255,1.237-.211.564-1.754,1.075-2.311,1.367l-.088.188c-.421.884-.447,2.5-1.167,3.083a22.338,22.338,0,0,1-1.389-3.479,8.291,8.291,0,0,1-2.244-.82c-.211-.144-.222-.14-.261-.4a9.02,9.02,0,0,1,1.993-1.067C682.447,277.837,682.564,276.313,682.934,275.064Z" transform="translate(-471.867 -141.839)" fill="#a1b5e0"/>
    <path id="Trazado_1091582" data-name="Trazado 1091582" d="M660.2,351.189a5.255,5.255,0,0,1,2.589.173c.783.993.66,5.9.508,7.222a1.845,1.845,0,0,1-.469,1.276,3.953,3.953,0,0,1-2.638.34c.175-2.793.078-5.667.041-8.466Z" transform="translate(-457.03 -201.125)" fill="#091a62"/>
    <path id="Trazado_1091583" data-name="Trazado 1091583" d="M348.046,352.156a24.155,24.155,0,0,1,3.21.06c.056,2.919.152,6.021.019,8.933a6.157,6.157,0,0,1-2.061-.212,1.564,1.564,0,0,1-.937-.772C347.872,359.209,347.669,353.082,348.046,352.156Z" transform="translate(-213.537 -201.919)" fill="#091a62"/>
    <path id="Trazado_1091584" data-name="Trazado 1091584" d="M192.724,493.4c2.4-.109,4.822-.029,7.221-.025.006,1.359.035,2.722.011,4.08-1.851.019-5,.28-6.72-.073a2.538,2.538,0,0,1-1.677-.978,1.991,1.991,0,0,1-.193-1.5A2.627,2.627,0,0,1,192.724,493.4Z" transform="translate(-91.501 -311.998)" fill="#a1b5e0"/>
    <path id="Trazado_1091585" data-name="Trazado 1091585" d="M738.737,419.546a15.636,15.636,0,0,0,2.375-.172c.185-.466.371-1.32.84-1.574.606-.328,12.1-.152,13.691-.09.52.359,1.048.7,1.183,1.361a1.747,1.747,0,0,1-.2,1.435,2.787,2.787,0,0,1-1.978.813c-2.658.211-5.433-.251-8.07.058C743.809,419.528,741.96,419.56,738.737,419.546Z" transform="translate(-518.263 -252.961)" fill="#a1b5e0"/>
    <path id="Trazado_1091586" data-name="Trazado 1091586" d="M701.137,372.609q5.022.113,10.045.1a41.916,41.916,0,0,1,5.624.123l.028.02a1.912,1.912,0,0,1,.953,1.19,1.855,1.855,0,0,1-.145,1.461,1.54,1.54,0,0,1-1.059.715c-2.121.04-14.906.178-15.72-.171a2.148,2.148,0,0,1-1.155-1.246,1.55,1.55,0,0,1,.1-1.285A2.047,2.047,0,0,1,701.137,372.609Z" transform="translate(-487.764 -217.882)" fill="#a1b5e0"/>
    <path id="Trazado_1091587" data-name="Trazado 1091587" d="M683.151,426.4c3.223.014,5.072-.017,7.844,1.831,1.859,1.66,3.354,3.513,3.516,6.1.137,2.184.047,4.422.048,6.61v12.4l-.012,15.591c-.007,3.211.043,6.448-.1,9.656a7.8,7.8,0,0,1-.328,2.274c-.366.252-.517.866-.693,1.281a1.609,1.609,0,0,1-.4-.311c-.622-.737.388-1.09.386-1.793,0-.056-.005-.112-.008-.168a6.517,6.517,0,0,0,.185-.893c.008-.094.014-.189.02-.284.209-3.686.052-7.463.058-11.162l.038-19.435-.011-9.11a31.727,31.727,0,0,0-.164-5.32,8.351,8.351,0,0,0-2.094-3.837,7.825,7.825,0,0,0-3.928-2.336,25.245,25.245,0,0,0-6.26-.294c-3.757.02-7.582.19-11.333.017-.772-.114-1.538.058-2.3-.131-.209-.245-.177-.29-.186-.618C672.663,426.359,677.93,426.6,683.151,426.4Z" transform="translate(-462.678 -259.817)" fill="#091a62"/>
    <path id="Trazado_1091588" data-name="Trazado 1091588" d="M289.536,278.042l0-.183a2.713,2.713,0,0,1,.565-2.184,1.112,1.112,0,0,1,.682-.333,47.432,47.432,0,0,1,6.167-.1l11.919-.006a33.424,33.424,0,0,0-1.111,3.927c-1.445-.1-2.931-.042-4.38-.042l-7.914,0a37.06,37.06,0,0,1-4.862-.131A5.647,5.647,0,0,1,289.536,278.042Z" transform="translate(-168.072 -141.938)" fill="#a1b5e0"/>
    <path id="Trazado_1091589" data-name="Trazado 1091589" d="M231.443,321.659c3.579-.185,7.238-.043,10.825-.044,1.53,0,6.177-.224,7.415.129a2.053,2.053,0,0,1,1.212,1.043,1.837,1.837,0,0,1-1.175,2.608c-2.575.033-17.092.24-18.46-.253a1.906,1.906,0,0,1-1.086-1.046,1.608,1.608,0,0,1-.021-1.293A2.071,2.071,0,0,1,231.443,321.659Z" transform="translate(-121.689 -178.073)" fill="#a1b5e0"/>
    <path id="Trazado_1091590" data-name="Trazado 1091590" d="M356.063,317.952a12.648,12.648,0,0,1,2.949.168c.1.548.194,1.093.324,1.635.412,2.782-.094,5.556.146,8.322-.178,1.885.259,5.742-.407,7.268a7.691,7.691,0,0,1-.9,1.181,8.714,8.714,0,0,1-4.405.394,3.373,3.373,0,0,1-.86-.533,2.561,2.561,0,0,1-.931-1.9c.134-2.911.037-6.014-.019-8.933a24.161,24.161,0,0,0-3.21-.06c1.044-.051,2.108,0,3.154,0-.02-1.69-.346-4.523.341-6.046a4.137,4.137,0,0,1,.852-1.052,6.286,6.286,0,0,1,2.839-.324Z" transform="translate(-214.242 -175.261)" fill="#df4a3e"/>
    <path id="Trazado_1091591" data-name="Trazado 1091591" d="M356.063,317.952a12.648,12.648,0,0,1,2.949.168c.1.548.194,1.093.324,1.635l-.314.579c.1,2.1.371,4.717-1.158,6.407a3.255,3.255,0,0,1-2.3,1.1,3.824,3.824,0,0,1-2.76-1.131,6.33,6.33,0,0,1-.848-1.154,24.161,24.161,0,0,0-3.21-.06c1.044-.051,2.108,0,3.154,0-.02-1.69-.346-4.523.341-6.046a4.136,4.136,0,0,1,.852-1.052,6.286,6.286,0,0,1,2.839-.324Z" transform="translate(-214.242 -175.261)" fill="#f56f74"/>
    <path id="Trazado_1091592" data-name="Trazado 1091592" d="M381.479,317.952a12.648,12.648,0,0,1,2.949.168c.1.548.194,1.093.324,1.635l-.314.579c-.97-2.216-2.191-1.277-3.085-2.259Z" transform="translate(-239.659 -175.261)" fill="#df4a3e"/>
    <path id="Trazado_1091593" data-name="Trazado 1091593" d="M670.3,429.856c3.751.173,7.576,0,11.333-.017a25.246,25.246,0,0,1,6.26.294,7.825,7.825,0,0,1,3.929,2.336,8.352,8.352,0,0,1,2.094,3.837,31.714,31.714,0,0,1,.164,5.32l.011,9.11-.038,19.435c-.007,3.7.151,7.477-.058,11.162-.005.095-.012.189-.02.284l-.141.059c-.652-.033-1.315-.013-1.969-.016q.162-13.655.092-27.31l-.076-9.19a51.205,51.205,0,0,0-.239-6.7,6.5,6.5,0,0,0-1.254-3.187,6.118,6.118,0,0,0-4.218-2.384c-1.585.141-3.333-.063-4.944-.052l-12.922.084-.377-2.984Q669.111,429.912,670.3,429.856Z" transform="translate(-463.06 -262.459)" fill="#fefefe"/>
    <path id="Trazado_1091594" data-name="Trazado 1091594" d="M615.574,318.443a6.622,6.622,0,0,1,2.244.919,3.833,3.833,0,0,0,.508.182c.02.037.037.075.06.11.294.451.8.73,1.1,1.206.815,1.275.2,3.419.472,4.859l.031.546c.036,2.8.133,5.673-.042,8.466a5.094,5.094,0,0,0-.842,1.135,3.933,3.933,0,0,1-2.773,1.566,4.483,4.483,0,0,1-3.387-.624,3.831,3.831,0,0,1-.715-.774c-.408.578-.747,1.75-1.32,2.128-.815.063-1.282.89-2.178.85a27.985,27.985,0,0,1-.138-4.59c0-2.91.077-5.826,0-8.734l.007-1.33c.374-.19.759-.366,1.125-.571a4.841,4.841,0,0,0,2.321-3.182,4.008,4.008,0,0,1,.2-1.927Q613.915,318.572,615.574,318.443Z" transform="translate(-416.791 -175.656)" fill="#df4a3e"/>
    <path id="Trazado_1091595" data-name="Trazado 1091595" d="M608.606,332.006c.374-.19.759-.366,1.125-.571a4.842,4.842,0,0,0,2.321-3.182l.032.116c-.017,2.516-.445,13.338.095,15.126l.055.187c-.408.578-.747,1.75-1.32,2.128-.815.063-1.282.89-2.178.85a27.985,27.985,0,0,1-.138-4.59c0-2.91.077-5.826,0-8.734Z" transform="translate(-416.791 -183.303)" fill="#091a62"/>
    <path id="Trazado_1091596" data-name="Trazado 1091596" d="M627.821,318.443a6.621,6.621,0,0,1,2.243.919,3.838,3.838,0,0,0,.508.182c.02.037.037.075.06.11.294.451.8.73,1.1,1.206.815,1.275.2,3.419.472,4.859l.031.546a2.241,2.241,0,0,1-.6,1.6,3.216,3.216,0,0,1-2.3,1.061,3.272,3.272,0,0,1-.349,0,3.337,3.337,0,0,1-1.017-.225,3.343,3.343,0,0,1-.618-.321,3.364,3.364,0,0,1-.538-.442c-1.339-1.35-.98-3.662-.945-5.4l-.058-.081a18.331,18.331,0,0,0-1.484-1.738l-.032-.116a4.007,4.007,0,0,1,.2-1.927Q626.162,318.572,627.821,318.443Z" transform="translate(-429.038 -175.656)" fill="#f67b8a"/>
    <path id="Trazado_1091597" data-name="Trazado 1091597" d="M627.82,318.443a6.621,6.621,0,0,1,2.244.919,7.616,7.616,0,0,0-3.221.717,6.338,6.338,0,0,0-.97,2.462l-.058-.081a18.327,18.327,0,0,0-1.484-1.738l-.031-.116a4.007,4.007,0,0,1,.2-1.927Q626.162,318.572,627.82,318.443Z" transform="translate(-429.038 -175.656)" fill="#f56f74"/>
    <path id="Trazado_1091598" data-name="Trazado 1091598" d="M669.46,443.682l12.922-.084c1.611-.011,3.359.193,4.944.052a6.118,6.118,0,0,1,4.218,2.384,6.5,6.5,0,0,1,1.254,3.187,51.217,51.217,0,0,1,.239,6.7l.076,9.19q.07,13.655-.092,27.31c.654,0,1.317-.016,1.969.017l.141-.059a6.5,6.5,0,0,1-.185.893c-.715,1.076-1.4,2.15-2.771,2.413a11.166,11.166,0,0,1-2.548.03,2.546,2.546,0,0,0-.848-.563,6.711,6.711,0,0,1-2.58-2.654,6.365,6.365,0,0,1-1.087-2.6,33.26,33.26,0,0,1-.147-4.607l.005-6.077-.007-22.25c0-2.077.282-5.67-.1-7.611a3.7,3.7,0,0,0-1.083-1.883,3.258,3.258,0,0,0-1.724-.85,26.09,26.09,0,0,0-4.851-.146l-7.793-.037C669.475,445.529,669.449,444.6,669.46,443.682Z" transform="translate(-464.218 -273.223)" fill="#a1b5e0"/>
    <path id="Trazado_1091599" data-name="Trazado 1091599" d="M754.5,664.908a6.509,6.509,0,0,1-.185.893c-.715,1.076-1.4,2.15-2.771,2.413a11.165,11.165,0,0,1-2.548.03,2.548,2.548,0,0,0-.848-.563,6.711,6.711,0,0,1-2.58-2.654c1.512.046,7.72.221,8.792-.059Z" transform="translate(-523.591 -445.749)" fill="#6f85ba"/>
    <path id="Trazado_1091600" data-name="Trazado 1091600" d="M750.106,443.837a6.118,6.118,0,0,1,4.218,2.384,6.5,6.5,0,0,1,1.254,3.187,51.206,51.206,0,0,1,.239,6.7l.076,9.19q.07,13.655-.092,27.31l-1.736-.023a5.422,5.422,0,0,1-1.688-1.661c-.221-2.967-.111-5.972-.157-8.947q-.155-11.725-.049-23.45l.009-6.6a21.057,21.057,0,0,0-.182-4.6c-.361-1.533-1.315-2.037-2.056-3.275Z" transform="translate(-526.998 -273.409)" fill="#cfdbeb"/>
    <path id="Trazado_1091601" data-name="Trazado 1091601" d="M749.183,566.923A13.088,13.088,0,0,0,756.7,571.8a63.29,63.29,0,0,1-7.224,17.451c-1.748,2.854-3.758,5.54-5.525,8.384-1.815.014-4.919-.339-6.282.985s-.921,4.48-.9,6.28c-1.665.993-3.036,2.7-4.44,4.035-1.439,1.369-2.943,2.671-4.4,4.021l-3.4-10.416c.155-.341.839-.615,1.158-.87-.8-1.916-1.453-3.893-2.133-5.854a23.411,23.411,0,0,0-1.264-3.9c2.822-.181,5.732-.05,8.562-.051a11.163,11.163,0,0,0,2.548-.03c1.368-.263,2.056-1.337,2.771-2.413,0,.056.008.112.008.168,0,.7-1.008,1.056-.386,1.793a1.606,1.606,0,0,0,.4.311c.175-.415.327-1.029.693-1.281a6.267,6.267,0,0,1-2.068,3.278l.235.068.221-.224-.014.31,0-.067-.077.286a59.038,59.038,0,0,0,11.849-19.872C747.857,571.8,748.393,569.32,749.183,566.923Z" transform="translate(-505.436 -369.363)" fill="#f9ce82"/>
    <path id="Trazado_1091602" data-name="Trazado 1091602" d="M739.274,687.771l.235.068.221-.224-.014.31,0-.067-.076.287a26.629,26.629,0,0,1-6.734,6,16.137,16.137,0,0,0-2.762,1.612c-.8-1.916-1.454-3.894-2.133-5.854C732.379,689.624,735.515,690.592,739.274,687.771Z" transform="translate(-509.904 -463.451)" fill="#fce5be"/>
    <path id="Trazado_1091603" data-name="Trazado 1091603" d="M730.844,671.4a11.163,11.163,0,0,0,2.548-.03c1.368-.263,2.056-1.337,2.771-2.413,0,.056.008.112.008.168,0,.7-1.008,1.056-.386,1.793a1.61,1.61,0,0,0,.4.311c.175-.415.327-1.029.693-1.281a6.268,6.268,0,0,1-2.069,3.278c-3.759,2.821-6.9,1.853-11.26,2.128a23.411,23.411,0,0,0-1.264-3.9C725.1,671.27,728.014,671.4,730.844,671.4Z" transform="translate(-505.436 -448.906)" fill="#1a357a"/>
    <path id="Trazado_1091604" data-name="Trazado 1091604" d="M370.405,201.108a32.45,32.45,0,0,1,16.14-17.961q.35-.166.7-.323t.712-.305q.358-.148.719-.288t.726-.27q.365-.131.733-.253t.739-.235q.371-.113.744-.216t.749-.2q.376-.095.754-.18t.758-.161q.38-.076.762-.143t.765-.124q.383-.057.768-.105t.77-.087q.386-.039.772-.068t.773-.049q.387-.02.774-.03t.775-.011q.387,0,.775.008t.775.027q.387.018.774.046t.772.065q.386.037.771.083t.768.1q.384.056.766.121t.763.14q.38.074.759.158t.755.177q.376.093.75.195t.745.213q.371.111.74.231t.734.249q.354.129.7.266t.7.283q.348.146.691.3t.684.316q.34.162.676.333t.667.349q.332.179.659.365t.65.381q.322.194.64.4t.631.412q.313.21.621.427t.61.442q.3.225.6.457t.588.471q.291.239.576.485t.565.5q.279.253.552.512t.54.525q.267.266.527.538t.514.551q.254.279.5.563t.487.575q.24.291.473.587t.458.6q.225.3.444.609t.429.619q.211.312.413.63t.4.639q.2.322.383.649t.367.658q.18.331.351.667t.335.675q.387.817.726,1.655t.63,1.694q.291.856.532,1.727t.432,1.755q.191.883.331,1.776t.229,1.793q.089.9.126,1.8t.022,1.807a3.844,3.844,0,0,1-.508-.182,6.621,6.621,0,0,0-2.244-.919q-1.658.129-3.319.235a12.869,12.869,0,0,0,.119-2.692,21.589,21.589,0,0,0-3.13-10.9c-3.361-5.517-9.676-9.418-15.872-10.907-5.568-1.338-11.363-.911-16.3,2.124l-.962.689c-.64.563-1.814,2.357-2.28,2.609a2.683,2.683,0,0,1-.6.1c-2.706.213-5,1.952-6.714,3.959a17.438,17.438,0,0,0-3.22,5.528,21.316,21.316,0,0,0-1.074,3.747,28.632,28.632,0,0,0-.66,5.587,12.646,12.646,0,0,0-2.949-.168l-.125.123a6.285,6.285,0,0,0-2.839.324,24.727,24.727,0,0,1,.825-5.91A33.414,33.414,0,0,1,370.405,201.108Z" transform="translate(-229.613 -67.807)" fill="#091a62"/>
    <path id="Trazado_1091605" data-name="Trazado 1091605" d="M387.349,275.353a17.585,17.585,0,0,1,2.539.236,21.316,21.316,0,0,0-1.074,3.747,22.876,22.876,0,0,0-2.68-.132C386.464,277.9,386.909,276.627,387.349,275.353Z" transform="translate(-243.384 -142.064)" fill="#a1b5e0"/>
    <path id="Trazado_1091606" data-name="Trazado 1091606" d="M382.85,292.82a22.87,22.87,0,0,1,2.68.132,28.636,28.636,0,0,0-.66,5.587,12.646,12.646,0,0,0-2.949-.168c.183-.786.192-1.644.3-2.446A28.024,28.024,0,0,1,382.85,292.82Z" transform="translate(-240.101 -155.681)" fill="#cfdbeb"/>
    <path id="Trazado_1091607" data-name="Trazado 1091607" d="M391.648,211.47q.14-.336.288-.669t.3-.662q.156-.329.321-.654t.337-.646q.172-.321.352-.638t.368-.629q.188-.312.384-.62t.4-.61q.2-.3.414-.6t.428-.59q.218-.292.443-.579t.457-.568q.232-.281.471-.556t.484-.544q.246-.269.5-.532t.511-.52q.259-.257.524-.507t.536-.494q.271-.244.548-.481t.559-.467q.283-.23.571-.453t.582-.439q.294-.216.592-.424t.6-.41q.3-.2.613-.395t.622-.379q.313-.186.631-.364t.64-.348q.322-.17.649-.332t.656-.316q.33-.154.664-.3t.671-.283a28.082,28.082,0,0,1,20.993-.037q.326.136.648.279t.641.3q.319.152.634.311t.626.327q.311.168.617.343t.608.358q.3.183.6.373t.59.388q.292.2.58.4t.57.417q.282.212.559.431t.548.445q.271.226.537.458t.525.472q.26.239.513.485t.5.5q.247.252.488.51t.476.522q.234.264.462.533t.449.545q.221.275.435.556t.421.566q.207.286.407.577t.392.587q.192.3.378.6t.362.606q.178.305.347.615t.332.623q.162.314.316.631t.3.639q.146.321.284.646t.268.653a29.848,29.848,0,0,1,1.788,6.367c.182,1.156.264,2.35.5,3.492q-1.659.129-3.319.235a12.869,12.869,0,0,0,.119-2.692,21.588,21.588,0,0,0-3.13-10.9c-3.361-5.517-9.676-9.418-15.872-10.907-5.568-1.338-11.363-.911-16.3,2.124l-.962.689c-.64.563-1.814,2.357-2.28,2.609a2.684,2.684,0,0,1-.6.1c-2.706.213-5,1.952-6.714,3.959a17.439,17.439,0,0,0-3.22,5.528A17.586,17.586,0,0,0,391.648,211.47Z" transform="translate(-247.684 -78.181)" fill="#cfdbeb"/>
    <path id="Trazado_1091608" data-name="Trazado 1091608" d="M576.194,397.485a16.348,16.348,0,0,1,1.794,4.4,8.463,8.463,0,0,0,.645,2.034c.009.328-.023.373.186.618.758.188,1.524.017,2.3.131q-1.186.055-2.374.078l.377,2.984c-.011.915.015,1.847-.05,2.759l7.793.037a26.089,26.089,0,0,1,4.851.145,3.26,3.26,0,0,1,1.724.85,3.7,3.7,0,0,1,1.083,1.883c.384,1.941.105,5.534.1,7.611l.007,22.25-.005,6.077a33.26,33.26,0,0,0,.147,4.607,6.367,6.367,0,0,0,1.087,2.6,6.711,6.711,0,0,0,2.58,2.654,2.548,2.548,0,0,1,.848.563c-2.831,0-5.741-.13-8.562.051-1.245-3.2-2.341-6.483-3.471-9.73-.758-2.178-1.2-4.474-2.539-6.385-4.113-5.859-10.874-7.659-17.48-9.019-1.731-.356-3.451-.761-5.191-1.072-1.491-2.854-4.325-4.733-6.926-6.495l-1.263-1.5c-.194-1.614-.076-3.261-.19-4.885q-.139-2.234-.139-4.472l.123-.075c5.01-3.075,10.764-9.753,12.175-15.559.9.039,1.363-.788,2.178-.85.573-.378.912-1.55,1.32-2.128a3.833,3.833,0,0,0,.715.774,4.483,4.483,0,0,0,3.387.624A3.933,3.933,0,0,0,576.194,397.485Z" transform="translate(-373.876 -237.274)" fill="#6f85ba"/>
    <path id="Trazado_1091609" data-name="Trazado 1091609" d="M576.194,397.485a16.348,16.348,0,0,1,1.794,4.4,8.463,8.463,0,0,0,.645,2.034c.009.328-.023.373.186.618.758.188,1.524.017,2.3.131q-1.186.055-2.374.078l.377,2.984c-.011.915.015,1.847-.05,2.759-.659,4.87-2.5,9.2-6.473,12.26a14.8,14.8,0,0,1-1.828,1.164c3.828-3.814,5.223-8.466,5.242-13.8q0-.873-.029-1.745c-.01.042-.019.084-.028.127-.293,1.386-.309,2.812-.609,4.206q-.087.389-.192.774t-.229.763q-.124.379-.265.752t-.3.738q-.159.366-.335.723t-.369.707q-.193.349-.4.688t-.434.668q-.225.329-.465.647t-.5.624q-.255.306-.525.6t-.553.574q-.283.281-.579.548t-.6.519q-.309.252-.629.49t-.651.46c-3.459,2.294-7.33,2.786-11.387,2.728l-3.076-.085c-.194-1.614-.076-3.261-.19-4.885q-.139-2.234-.139-4.472l.123-.075c5.01-3.075,10.764-9.753,12.175-15.559.9.039,1.363-.788,2.178-.85.573-.378.912-1.55,1.32-2.128a3.831,3.831,0,0,0,.715.774,4.483,4.483,0,0,0,3.387.624A3.933,3.933,0,0,0,576.194,397.485Z" transform="translate(-373.876 -237.274)" fill="#1a357a"/>
    <path id="Trazado_1091610" data-name="Trazado 1091610" d="M565.821,408.75c.9.039,1.363-.788,2.178-.85-.459,8.744,1.939,15.29-5.552,22.056a22.154,22.154,0,0,1-3.177,2.4,16.451,16.451,0,0,0-2.343,1.472l-3.075-.085c-.194-1.614-.077-3.261-.19-4.885q-.139-2.234-.139-4.472l.123-.075C558.656,421.235,564.41,414.556,565.821,408.75Z" transform="translate(-373.876 -245.394)" fill="#091a62"/>
    <path id="Trazado_1091611" data-name="Trazado 1091611" d="M407.4,207.93c4.937-3.035,10.732-3.462,16.3-2.124,6.2,1.489,12.511,5.39,15.872,10.907a21.589,21.589,0,0,1,3.13,10.9,12.865,12.865,0,0,1-.119,2.692,4.007,4.007,0,0,0-.2,1.927,4.841,4.841,0,0,1-2.321,3.182c-.366.2-.751.38-1.125.571l-.007,1.33c.076,2.909,0,5.825,0,8.734a27.979,27.979,0,0,0,.138,4.59c-1.411,5.805-7.165,12.484-12.175,15.559l-.123.075c-4.489,2.4-8.855,3.625-13.867,2.1a21.906,21.906,0,0,1-4.426-2l-.1,1.37q-.213,2.511-.386,5.024c-.049.775-.027,1.582-.121,2.351a.762.762,0,0,1-.228.479l-.808.019a21.34,21.34,0,0,1-10.681-1.5c.064-.147.046-.059,0-.271a12.059,12.059,0,0,1-2.317-2.091c-3.412-4.2-2.886-11.514-2.874-16.644.006-2.157-.122-4.421.092-6.562a7.686,7.686,0,0,0,.9-1.181c.665-1.526.229-5.383.407-7.268-.24-2.766.265-5.54-.146-8.322-.13-.542-.228-1.086-.324-1.634a28.637,28.637,0,0,1,.66-5.587,21.316,21.316,0,0,1,1.074-3.747,17.436,17.436,0,0,1,3.22-5.528c1.716-2.006,4.008-3.746,6.714-3.958a2.686,2.686,0,0,0,.6-.1c.466-.253,1.64-2.047,2.28-2.609Z" transform="translate(-247.119 -87.285)" fill="#1a357a"/>
    <path id="Trazado_1091612" data-name="Trazado 1091612" d="M461.3,218.678l.962-.689c.021.041.042.081.064.121a26.855,26.855,0,0,0,3.2,4.157c5.664,6.738,13.062,12.727,21.65,15.188q1.484.421,3,.731c1.087.215,3.021.133,3.914.733l.1.195-.1.212a7.286,7.286,0,0,1-2.61-.113q-.893-.126-1.778-.3t-1.762-.381q-.876-.212-1.741-.466t-1.717-.55q-.851-.3-1.688-.633t-1.655-.714q-.819-.377-1.618-.794t-1.578-.871a50.662,50.662,0,0,1-12.721-10.959A61.034,61.034,0,0,0,461.3,218.678Z" transform="translate(-301.984 -97.345)" fill="#091a62"/>
    <path id="Trazado_1091613" data-name="Trazado 1091613" d="M397.035,242.875a17.439,17.439,0,0,1,3.22-5.528c1.716-2.006,4.008-3.746,6.714-3.958a1.375,1.375,0,0,1,1.009.295.463.463,0,0,1,.147.4,1.7,1.7,0,0,1-.84,1.039c-.863.609-1.835,1.052-2.665,1.713-3.732,2.97-5.8,7.523-6.723,12.124-.324,1.617-.559,3.263-.926,4.87a23.326,23.326,0,0,0-.777,3.177c-.14,1.777-.258,3.587-.3,5.368a13.961,13.961,0,0,1,0,2.268l-.056-.031c-.078-.817.071-1.633-.066-2.443-.24-2.766.265-5.54-.146-8.322-.13-.542-.228-1.086-.324-1.634a28.637,28.637,0,0,1,.66-5.587A21.32,21.32,0,0,1,397.035,242.875Z" transform="translate(-250.531 -109.35)" fill="#091a62"/>
    <path id="Trazado_1091614" data-name="Trazado 1091614" d="M414.113,298.308a36.318,36.318,0,0,0,.064-4.144c.006-5.3-.463-10.962,1.161-16.068a18.452,18.452,0,0,1,9.261-11.149,26.364,26.364,0,0,0,1.738,2.31c5.061,5.8,12.063,9.507,19.175,12.166a41.147,41.147,0,0,0,11.5,2.791l-.007,1.33a50.534,50.534,0,0,1-5.229-1.433c-1.631-1.083-5.328-1.155-7.26-1.007-1.059-1.124-4.189-1.994-5.721-2.723a44.508,44.508,0,0,1-4.768-2.574,39.83,39.83,0,0,1-7.036-5.618c-.9-.917-1.717-1.932-2.63-2.836a28.538,28.538,0,0,0-9.388,20.465c-.063,2.152.328,7.442-.684,9.14Z" transform="translate(-265.197 -135.511)" fill="#f5a03e"/>
    <path id="Trazado_1091615" data-name="Trazado 1091615" d="M422.652,432.845a3.8,3.8,0,0,1-.671-.036c-1.424-.313-6.093-4.81-6.985-6.01-3.662-4.931-4.085-9.749-3.627-15.649.113-1.454.2-2.938.407-4.381l.081.54.175.649a31.811,31.811,0,0,0,9.805,13.794,24.874,24.874,0,0,0,2.456,1.849l-.1,1.37q-.213,2.511-.386,5.024c-.049.775-.027,1.582-.121,2.351a.763.763,0,0,1-.228.479Z" transform="translate(-262.94 -244.512)" fill="#091a62"/>
    <path id="Trazado_1091616" data-name="Trazado 1091616" d="M424.98,277.863c.913.9,1.725,1.919,2.63,2.836a39.829,39.829,0,0,0,7.036,5.618,44.486,44.486,0,0,0,4.768,2.574c1.532.73,4.662,1.6,5.721,2.723,1.932-.148,5.63-.076,7.26,1.007a50.544,50.544,0,0,0,5.229,1.433c.076,2.909,0,5.825,0,8.734a27.972,27.972,0,0,0,.138,4.59c-1.411,5.805-7.165,12.484-12.175,15.559l-.123.075c-4.489,2.4-8.855,3.625-13.867,2.1a21.9,21.9,0,0,1-4.426-2,24.874,24.874,0,0,1-2.456-1.849,31.811,31.811,0,0,1-9.805-13.794c1.012-1.7.621-6.988.684-9.139A28.538,28.538,0,0,1,424.98,277.863Z" transform="translate(-265.816 -144.021)" fill="#fac098"/>
    <path id="Trazado_1091617" data-name="Trazado 1091617" d="M500.571,406.777c.944.041,1.367,1.1,2.294,1.166.666.05,1.535-.639,2.081-.449l-.024.324a3.064,3.064,0,0,1-1.391.7,2.866,2.866,0,0,1-2.219-.423A1.808,1.808,0,0,1,500.571,406.777Z" transform="translate(-332.596 -244.518)" fill="#df4a3e"/>
    <path id="Trazado_1091618" data-name="Trazado 1091618" d="M493.223,427.422a19.058,19.058,0,0,1,6.34.343l.2.056-.391.322c-1.783-.46-3.786-.159-5.616-.317-1.632.059-3.25.139-4.875.3l-.017-.269A10.512,10.512,0,0,1,493.223,427.422Z" transform="translate(-323.471 -260.534)" fill="#f18853"/>
    <path id="Trazado_1091619" data-name="Trazado 1091619" d="M547.078,340.042c1.932-.148,5.63-.076,7.26,1.007a2.4,2.4,0,0,1-.393.641c-.065.067-2.968-.5-3.483-.538-1.369-.092-2.76.243-4.111.141-.309-.023-.441-.2-.634-.412-.023-.14-.085-.24.011-.361C546.021,340.155,546.651,340.11,547.078,340.042Z" transform="translate(-367.759 -192.449)" fill="#091a62"/>
    <path id="Trazado_1091620" data-name="Trazado 1091620" d="M439.613,339.459a13.794,13.794,0,0,1,4.41.3,1.522,1.522,0,0,1,1.124.635,1.049,1.049,0,0,1-.353.624,31.936,31.936,0,0,1-3.767-.4,9.885,9.885,0,0,0-1.826.144c-.834.152-2.36.839-3.149.663-.151-.034-.183-.153-.265-.272a.867.867,0,0,1,.186-.6A9.2,9.2,0,0,1,439.613,339.459Z" transform="translate(-282.092 -191.988)" fill="#091a62"/>
    <path id="Trazado_1091621" data-name="Trazado 1091621" d="M496.907,429.59c.211.187.3.222.314.524.04,1.092-1.28,2.82-2.091,3.492a6.2,6.2,0,0,1-4.584,1.48q-.148-.016-.3-.039t-.293-.053q-.146-.03-.29-.068t-.287-.082q-.142-.045-.282-.1t-.277-.11q-.137-.058-.272-.123t-.265-.136q-.131-.071-.258-.149t-.251-.162q-.123-.084-.242-.173t-.234-.185q-.114-.1-.224-.2t-.214-.207q-.1-.106-.2-.218t-.193-.227a4.379,4.379,0,0,1-1.253-2.948,1.491,1.491,0,0,1,.8-.284l.017.269a2.924,2.924,0,0,0,.535,1.767,5.279,5.279,0,0,0,7.346,1.893,6.3,6.3,0,0,0,2.609-3.645Z" transform="translate(-320.615 -262.302)" fill="#df4a3e"/>
    <path id="Trazado_1091622" data-name="Trazado 1091622" d="M553.4,358.975a7.173,7.173,0,0,1,.929-.014c1.283.1,2,1,2.8,1.884-.239.446-.6.8-.831,1.254.047.064.094.128.138.195a.879.879,0,0,1,.147.834c-.2.729-1.1,1.281-1.72,1.6a2.779,2.779,0,0,1-2.268-.1,2.96,2.96,0,0,1-1.424-1.74,3.158,3.158,0,0,1,.2-2.429A3.036,3.036,0,0,1,553.4,358.975Z" transform="translate(-371.92 -207.234)" fill="#091a62"/>
    <path id="Trazado_1091623" data-name="Trazado 1091623" d="M555.75,361.918a2.56,2.56,0,0,1,.816.053,1.364,1.364,0,0,1,.792.664,1.21,1.21,0,0,1,.038,1.044,1.652,1.652,0,0,1-1,.893,5.033,5.033,0,0,1-.546-.033,1.423,1.423,0,0,1-.964-.552,1.12,1.12,0,0,1-.174-.872A1.9,1.9,0,0,1,555.75,361.918Z" transform="translate(-374.78 -209.54)" fill="#fefefe"/>
    <path id="Trazado_1091624" data-name="Trazado 1091624" d="M441.906,360.585a2.814,2.814,0,0,1,1.818-1.453,3.386,3.386,0,0,1,2.562.5,3.194,3.194,0,0,1,.258.19q.124.1.238.214t.215.237q.1.124.19.257t.164.275q.075.142.136.29a3.185,3.185,0,0,1,.106.3q.045.154.075.311a2.848,2.848,0,0,1-.425,2.16,3.269,3.269,0,0,1-2.151,1.194,2.572,2.572,0,0,1-1.953-.579,2.949,2.949,0,0,1-1.093-1.708,4.049,4.049,0,0,0-.28-1.193,3.944,3.944,0,0,1-.787-.123l-.136-.317c.056-.254.073-.366.311-.519C441.451,360.431,441.586,360.508,441.906,360.585Z" transform="translate(-286.034 -207.315)" fill="#091a62"/>
    <path id="Trazado_1091625" data-name="Trazado 1091625" d="M447.667,363.208a2.077,2.077,0,0,1,1.235-.707.871.871,0,0,1,.723.294,1.759,1.759,0,0,1,.349,1.373,1.481,1.481,0,0,1-.488.987.875.875,0,0,1-.761.162,2.08,2.08,0,0,1-1.106-.689l-.021-.224A2.936,2.936,0,0,1,447.667,363.208Z" transform="translate(-291.277 -210)" fill="#fefefe"/>
    <path id="Trazado_1091626" data-name="Trazado 1091626" d="M493.711,429.617c1.83.157,3.833-.144,5.616.317a6.3,6.3,0,0,1-2.609,3.645,5.279,5.279,0,0,1-7.346-1.893,2.924,2.924,0,0,1-.535-1.767C490.461,429.756,492.079,429.676,493.711,429.617Z" transform="translate(-323.425 -262.324)" fill="#fefefe"/>
    <path id="Trazado_1091627" data-name="Trazado 1091627" d="M252.046,402.263c-.213,2.141-.086,4.4-.092,6.562-.013,5.13-.538,12.444,2.874,16.644a12.059,12.059,0,0,0,2.317,2.091c.043.213.061.124,0,.271a21.339,21.339,0,0,0,10.681,1.5l.808-.019a9.937,9.937,0,0,1-1.6,1.685l0,.217c-.034,1.1-.341,2.213-.419,3.321a12.819,12.819,0,0,0,3.394,9.658,10.889,10.889,0,0,0,6.577,3.793,5.719,5.719,0,0,1,2.028.409,28.1,28.1,0,0,1-4.574,4.217,93.371,93.371,0,0,1,.281,10.021l-18.3,0c-2.288,0-6.447-.24-8.534.094a3.19,3.19,0,0,0-.907.3,3.2,3.2,0,0,0-.779.553,6.669,6.669,0,0,0-1.363,2.2l-.006.17a11.075,11.075,0,0,0-.056,2.519c.043,2.128.254,4.361.136,6.479-.212,3.168.089,6.438.149,9.615l.22,16.272a2.869,2.869,0,0,0-.266.793l.113.447c-.147.207-.049.146-.286.2a3.4,3.4,0,0,0-2.2,1.676,7.264,7.264,0,0,0-.142,4.894q.043.128.091.254l-2.583-.317a41.794,41.794,0,0,1-9.1-1.694c-2.869-.82-6.86-2.082-8.353-4.907-1.211-2.292-.34-4.857.356-7.157l3.6-11.086c-3.524-1.919-6.8-6.085-9.24-9.217a10.215,10.215,0,0,1-2.834-.912,7.934,7.934,0,0,0-.642-.553,3.263,3.263,0,0,1-.479-.565c-.12-.5-.18-1.017-.263-1.521a5.637,5.637,0,0,1,.977-3.762,6.446,6.446,0,0,1,4.278-2.7c-1.484-2.074-1.351-4.11-1.342-6.544l.023-4.331c.136-9.113,0-18.254-.015-27.368.024-1.358-.005-2.721-.011-4.08-.022-1.792-.015-3.586-.008-5.378a9.3,9.3,0,0,1,2.668-6.872q.189-.184.392-.354t.416-.326q.214-.156.438-.3t.458-.263q.234-.124.475-.23t.491-.2q.249-.089.5-.16t.514-.125c2.3-.484,5.214-.192,7.583-.193q7.705-.056,15.41.074c.555-2.183,1.819-2.915,1.742-5.394A8.713,8.713,0,0,0,252.046,402.263Z" transform="translate(-108.114 -240.999)" fill="#091a62"/>
    <path id="Trazado_1091628" data-name="Trazado 1091628" d="M366,440.7a18.157,18.157,0,0,1,.342-4.077c.169,1.425.12,2.846.38,4.27C366.382,440.881,366.271,440.914,366,440.7Z" transform="translate(-227.687 -267.788)" fill="#cfdbeb"/>
    <path id="Trazado_1091629" data-name="Trazado 1091629" d="M261.355,431.459c2.792-.1,5.609-.008,8.4,0l13.963.048a22.5,22.5,0,0,0-.434,2.619c-5.069-.135-10.158-.049-15.229-.055-2.225,0-4.479.069-6.7-.066C261.33,433.158,261.333,432.313,261.355,431.459Z" transform="translate(-146.098 -263.725)" fill="#cfdbeb"/>
    <path id="Trazado_1091630" data-name="Trazado 1091630" d="M273.92,832.6c-.2-.127-6.654-1.663-7.539-1.923-3.079-.906-7.677-2.157-9.27-5.226-1.23-2.368.209-5.455.948-7.789a15.625,15.625,0,0,0,2.635,2.022,28.855,28.855,0,0,0,4.154,1.652c3.115,1.141,6.212,2.2,9.38,3.189a21.623,21.623,0,0,1,4.529,1.568,3.4,3.4,0,0,0-2.2,1.676,7.264,7.264,0,0,0-.142,4.894q.043.128.091.254Z" transform="translate(-142.428 -564.833)" fill="#f18853"/>
    <path id="Trazado_1091631" data-name="Trazado 1091631" d="M217.9,685.489c1.417,1.374,2.85,2.459,4.916,2.434q3.917-.051,7.835-.036c-.531,1.839-2.181,5.375-2.124,7.015a4.358,4.358,0,0,0,.338,1.277c-.49,2.052-1.238,4.035-1.93,6.026a20.211,20.211,0,0,0-.83,2.513c-3.524-1.919-6.8-6.085-9.24-9.217a10.215,10.215,0,0,1-2.834-.912,7.949,7.949,0,0,0-.642-.553,3.262,3.262,0,0,1-.479-.565c-.12-.5-.18-1.017-.263-1.521a5.638,5.638,0,0,1,.977-3.762A6.446,6.446,0,0,1,217.9,685.489Z" transform="translate(-108.114 -461.793)" fill="#f9ce82"/>
    <path id="Trazado_1091632" data-name="Trazado 1091632" d="M217.9,685.489c1.417,1.374,2.85,2.459,4.916,2.434a4.1,4.1,0,0,1,.1,3.3,7.029,7.029,0,0,1-3.782,3.835,6,6,0,0,1-2.271.44,10.215,10.215,0,0,1-2.834-.912,7.947,7.947,0,0,0-.642-.553,3.263,3.263,0,0,1-.479-.565c-.12-.5-.18-1.017-.263-1.521a5.637,5.637,0,0,1,.977-3.762A6.446,6.446,0,0,1,217.9,685.489Z" transform="translate(-108.114 -461.793)" fill="#1a357a"/>
    <path id="Trazado_1091633" data-name="Trazado 1091633" d="M247.251,489.241c-2.939.023-8.269.511-10.755-.782a5.1,5.1,0,0,1-2.634-2.929c-.376-1.334-.142-4.033-.141-5.492l0-10.241.019-19.876c0-3.634-.169-7.363.07-10.987a7.513,7.513,0,0,1,.931-3.507,7.7,7.7,0,0,1,4.924-3.624l-.082,32.9-.009,9.539a48.838,48.838,0,0,0,.159,6.006,4.041,4.041,0,0,0,1.089,2.315,5.289,5.289,0,0,0,4.154,1.32c1.362-.005,2.767,0,4.123-.1C248.706,485.61,247.767,487.414,247.251,489.241Z" transform="translate(-124.512 -264.028)" fill="#3762ac"/>
    <path id="Trazado_1091634" data-name="Trazado 1091634" d="M260.676,431.616c-.023.853-.025,1.7,0,2.551,2.22.134,4.473.063,6.7.066,5.071.005,10.16-.08,15.229.055-.058.941-.1,1.874-.091,2.817a17.509,17.509,0,0,0,2.242,8.634,12.069,12.069,0,0,0,7.4,5.489,46.963,46.963,0,0,1-4.156-3.3c-3.169-3-4.132-6.9-4.272-11.132.274.21.385.177.723.193.775,4.44,2.645,9.484,6.492,12.18a10.766,10.766,0,0,0,3.505,1.544,21.339,21.339,0,0,0,10.681,1.5l.808-.019a9.933,9.933,0,0,1-1.6,1.685c-2.2,1.311-5.93,3.585-6.644,6.2a1.724,1.724,0,0,0-.076.494c-.917-.432-12.1,2.149-13.618,2.7-4.744,1.716-7.831,5.027-9.934,9.543-1.622,3.483-2.7,7.223-4.063,10.812-1.356.1-2.762.1-4.123.1a5.289,5.289,0,0,1-4.154-1.32,4.042,4.042,0,0,1-1.089-2.315,48.845,48.845,0,0,1-.159-6.006l.009-9.539.082-32.9Z" transform="translate(-145.419 -263.882)" fill="#6f85ba"/>
    <path id="Trazado_1091635" data-name="Trazado 1091635" d="M261.327,443.191c2.219.134,4.473.063,6.7.066,5.071.005,10.16-.08,15.229.055-.058.941-.1,1.874-.091,2.817l-21.867.141Z" transform="translate(-146.065 -272.905)" fill="#a1b5e0"/>
    <path id="Trazado_1091636" data-name="Trazado 1091636" d="M306.4,532.622l0,.217c-.034,1.1-.341,2.213-.419,3.321a12.819,12.819,0,0,0,3.394,9.658,10.889,10.889,0,0,0,6.577,3.793,5.719,5.719,0,0,1,2.028.409,28.1,28.1,0,0,1-4.574,4.217,93.363,93.363,0,0,1,.281,10.021l-18.3,0c-2.288,0-6.447-.24-8.534.094a3.192,3.192,0,0,0-.907.3,3.2,3.2,0,0,0-.779.553,6.668,6.668,0,0,0-1.363,2.2l-.006.17a11.075,11.075,0,0,0-.056,2.519c.043,2.128.254,4.361.136,6.479-.212,3.168.089,6.438.149,9.615l.22,16.272a2.869,2.869,0,0,0-.266.793l.113.447c-.147.207-.049.146-.286.2a21.626,21.626,0,0,0-4.529-1.568c-3.168-.985-6.265-2.048-9.38-3.189a28.86,28.86,0,0,1-4.154-1.652,15.632,15.632,0,0,1-2.635-2.022l3.875-11.622a51.144,51.144,0,0,1,2.226-6.349l.5-.124a6.874,6.874,0,0,0,.8-.116c.379-1.635,1.512-4.284,2.1-5.986l2.38-6.82c1.681-4.938,3.316-10.4,6.45-14.64,4.149-5.608,11.3-9.059,18.083-10.081l.166-.4a1.724,1.724,0,0,1,.076-.494C300.47,536.207,304.2,533.933,306.4,532.622Z" transform="translate(-147.476 -342.623)" fill="#074892"/>
    <path id="Trazado_1091637" data-name="Trazado 1091637" d="M434.587,532.622l0,.217c-.034,1.1-.341,2.213-.419,3.321a12.819,12.819,0,0,0,3.394,9.658,10.889,10.889,0,0,0,6.577,3.793,5.718,5.718,0,0,1,2.028.409,28.1,28.1,0,0,1-4.574,4.217,6.984,6.984,0,0,1-5.092,1.448c-2.324-.383-4.171-2.181-5.5-4.016a16.384,16.384,0,0,1-3.3-11.952l.166-.4a1.726,1.726,0,0,1,.076-.494C428.657,536.207,432.384,533.933,434.587,532.622Z" transform="translate(-275.664 -342.623)" fill="#fce5be"/>
    <path id="Trazado_1091638" data-name="Trazado 1091638" d="M285.5,641.144c-.569,3.1-2.434,7.786-1.7,10.851l-.006.17a11.078,11.078,0,0,0-.056,2.52c.043,2.128.254,4.361.136,6.479-.212,3.168.089,6.438.149,9.615l.22,16.272a2.869,2.869,0,0,0-.266.793l.113.447c-.147.207-.049.146-.286.2a21.63,21.63,0,0,0-4.529-1.568c-3.168-.985-6.265-2.048-9.38-3.189a28.855,28.855,0,0,1-4.154-1.652,15.628,15.628,0,0,1-2.635-2.022l3.875-11.622a51.139,51.139,0,0,1,2.226-6.349l.5-.124c2.2.136,5.407,1.925,7.526,2.813.738-3.2,1.928-6.4,2.944-9.528C281.558,650.99,283.157,644.816,285.5,641.144Z" transform="translate(-147.476 -427.223)" fill="#f9ce82"/>
    <path id="Trazado_1091639" data-name="Trazado 1091639" d="M308.108,641.144c-.569,3.1-2.434,7.786-1.7,10.851l-.006.17a11.078,11.078,0,0,0-.056,2.52c.043,2.128.254,4.361.136,6.479-.212,3.168.089,6.438.149,9.615l.22,16.272a2.869,2.869,0,0,0-.266.793,12.52,12.52,0,0,1-.3-2.007q-.293-.373-.612-.723c-3.485-3.764-8.62-5.088-13.562-5.267a14.571,14.571,0,0,1,8.039.716c.524-1.93,1.255-3.819,1.932-5.7q1.4-3.828,2.719-7.683c-1.61-.875-3.3-1.625-4.957-2.406.738-3.2,1.928-6.4,2.944-9.528C304.163,650.99,305.761,644.816,308.108,641.144Z" transform="translate(-170.081 -427.223)" fill="#091a62"/>
    <path id="Trazado_1091640" data-name="Trazado 1091640" d="M333.28,803.1a22.635,22.635,0,0,0,3.753,1.828c.218-.1.136-.027.261-.2l-.054,5.831a29.864,29.864,0,0,0-5.365-3.5C332.286,805.716,332.779,804.413,333.28,803.1Z" transform="translate(-201.086 -553.48)" fill="#fce5be"/>
    <path id="Trazado_1091641" data-name="Trazado 1091641" d="M338.25,770.609q.993-2.793,1.938-5.6a25.652,25.652,0,0,1,.943-2.752,1.635,1.635,0,0,1,.623-.8.786.786,0,0,1,.1-.033.763.763,0,0,1,.386.569c.293,1.068.03,8.651.022,10.244-.125.175-.042.1-.261.2A22.634,22.634,0,0,1,338.25,770.609Z" transform="translate(-206.056 -520.988)" fill="#fefefe"/>
    <path id="Trazado_1091642" data-name="Trazado 1091642" d="M372.489,482.779a21.909,21.909,0,0,0,4.426,2c5.012,1.523,9.378.3,13.867-2.1q0,2.238.139,4.472c.113,1.624,0,3.271.19,4.885l1.263,1.5c2.6,1.762,5.435,3.641,6.926,6.495,1.74.311,3.46.716,5.191,1.072,6.606,1.36,13.368,3.16,17.48,9.019,1.342,1.911,1.781,4.208,2.539,6.385,1.131,3.247,2.227,6.525,3.471,9.73a23.41,23.41,0,0,1,1.263,3.9c.68,1.961,1.333,3.939,2.133,5.854-.319.256-1,.529-1.158.87l3.4,10.416c.685,2.032,1.308,4.085,1.984,6.121,1.211,3.646,2.951,7.46,1.043,11.227-1.445,2.854-4.762,4.142-7.569,5.213a51.859,51.859,0,0,1-11.668,2.291,7.736,7.736,0,0,1-2.8,1.78,44.612,44.612,0,0,1-6.937.1l-13.969.015-29.816.035c-4.854.008-9.728.165-14.579.033a7.773,7.773,0,0,1-2.257-.384,7.052,7.052,0,0,1-1.847-1.935q-.049-.126-.091-.254a7.264,7.264,0,0,1,.142-4.894,3.4,3.4,0,0,1,2.2-1.676c.237-.049.139.012.286-.2l-.113-.447a2.866,2.866,0,0,1,.266-.793l-.22-16.272c-.06-3.177-.361-6.446-.149-9.615.118-2.119-.093-4.351-.136-6.479a11.078,11.078,0,0,1,.056-2.52l.006-.17a6.668,6.668,0,0,1,1.363-2.2,3.2,3.2,0,0,1,.369-.305,3.169,3.169,0,0,1,.41-.247,3.183,3.183,0,0,1,.907-.3c2.087-.334,6.245-.093,8.534-.094l18.3,0a93.362,93.362,0,0,0-.281-10.021,28.1,28.1,0,0,0,4.574-4.217,5.718,5.718,0,0,0-2.028-.409,10.889,10.889,0,0,1-6.577-3.793,12.819,12.819,0,0,1-3.394-9.658c.077-1.108.385-2.218.419-3.321l0-.217a9.936,9.936,0,0,0,1.6-1.685.762.762,0,0,0,.228-.479c.094-.769.072-1.576.121-2.351q.173-2.514.386-5.024Z" transform="translate(-211.136 -303.69)" fill="#a1b5e0"/>
    <path id="Trazado_1091643" data-name="Trazado 1091643" d="M493.384,750.475a5.285,5.285,0,0,1,2.851.444,5.152,5.152,0,0,1,2.664,3.043q.035.115.063.23t.052.233q.023.117.04.236t.028.237q.011.119.017.239c0,.08.005.159,0,.239s0,.159-.007.239-.011.159-.019.238-.019.158-.031.237-.026.157-.043.235-.034.156-.054.233-.042.154-.066.23-.05.151-.077.226-.057.149-.088.222-.065.146-.1.217-.072.142-.11.212a4.908,4.908,0,0,1-3.18,2.389,5.233,5.233,0,0,1-3.4-.592q-.112-.064-.22-.134t-.213-.145q-.1-.075-.206-.156t-.2-.166q-.1-.085-.189-.175t-.18-.185q-.088-.095-.171-.194t-.161-.2q-.078-.1-.15-.21t-.14-.217q-.067-.111-.129-.224t-.117-.23q-.056-.116-.106-.235t-.093-.241q-.044-.121-.082-.245t-.069-.249a4.727,4.727,0,0,1,.582-3.666A5.047,5.047,0,0,1,493.384,750.475Z" transform="translate(-323.861 -512.433)" fill="#fefefe"/>
    <path id="Trazado_1091644" data-name="Trazado 1091644" d="M386.849,675.793l8.615.01c5.907.165,11.861-.006,17.771-.023a47.09,47.09,0,0,1,7.182.111,3.737,3.737,0,0,1,2.05,1.158,5.043,5.043,0,0,1,.874,1.362,29.226,29.226,0,0,1-4.017.08l-7.7.014-38.45.057q-4.284.05-8.568.033c-1.958-.02-3.971-.156-5.923-.037a3.591,3.591,0,0,0-1.519.443l-.2.1.006-.17a6.669,6.669,0,0,1,1.363-2.2,3.192,3.192,0,0,1,.369-.305,3.158,3.158,0,0,1,.41-.247,3.185,3.185,0,0,1,.907-.3c2.087-.334,6.245-.093,8.534-.094Z" transform="translate(-220.642 -454.158)" fill="#fefefe"/>
    <path id="Trazado_1091645" data-name="Trazado 1091645" d="M357.427,757.852l-.22-16.272c-.06-3.177-.361-6.446-.149-9.615a3.642,3.642,0,0,0,.194.716c.507,1.277.444,4.093.574,5.573.383,4.351,1.59,11.292,4.441,14.659a6.433,6.433,0,0,0,2.281,1.694,15.843,15.843,0,0,0,5.4,1.11c2.61.179,5.286.066,7.9.066l13.95,0h14.19c2.932,0,5.894.092,8.82-.113a8.638,8.638,0,0,0,2.535-.6,9.48,9.48,0,0,0,5.324-5.379,16.8,16.8,0,0,0,.738-2.081c.048,1.143-.043,2.322.056,3.457l-.021,4.812a5.03,5.03,0,0,0,.107,1.961c.007.031.015.062.022.093.1.439-.022,1.055.241,1.4a2.038,2.038,0,0,0,.75.175l-43.064.008-15.327-.013c-2.334,0-4.7.109-7.032.01a1.952,1.952,0,0,1-.964-.218A2.025,2.025,0,0,1,357.427,757.852Z" transform="translate(-220.661 -498.025)" fill="#6f85ba"/>
    <path id="Trazado_1091646" data-name="Trazado 1091646" d="M413.327,624.493a29.927,29.927,0,0,1,1.942,4c1.406,3.044,2.738,6.1,4.1,9.161,1.246,2.79,2.6,5.535,3.817,8.337a29.021,29.021,0,0,1,1.575,4.064c1.544-.61,3-1.786,4.586-2.23l.174.177a1.14,1.14,0,0,0,.7-.588l3.4,10.416c.685,2.032,1.308,4.085,1.984,6.121,1.211,3.646,2.951,7.46,1.043,11.227-1.445,2.854-4.762,4.142-7.569,5.213a51.859,51.859,0,0,1-11.668,2.291,7.735,7.735,0,0,1-2.8,1.78,44.612,44.612,0,0,1-6.937.1l-13.969.015-29.816.035c-4.854.009-9.728.165-14.579.033a7.773,7.773,0,0,1-2.257-.384,7.051,7.051,0,0,1-1.847-1.935c-.032-.084-.063-.169-.091-.254a7.264,7.264,0,0,1,.142-4.894,3.4,3.4,0,0,1,2.2-1.676c.237-.049.139.012.286-.2l-.113-.447a2.865,2.865,0,0,1,.266-.793,2.025,2.025,0,0,0,.751,1.44,1.952,1.952,0,0,0,.964.218c2.328.1,4.7-.013,7.032-.01l15.327.013,43.064-.008a2.036,2.036,0,0,1-.75-.175c-.263-.348-.144-.964-.241-1.4-.007-.031-.015-.062-.022-.094a5.029,5.029,0,0,1-.107-1.96l.021-4.812c.236-1.616-.26-8.6.2-9.322-.311-.751-.043-3.046-.025-3.958.057-2.97.006-5.946,0-8.917,0-1.746.294-5.032-.182-6.588C414.45,636,413.573,627.426,413.327,624.493Z" transform="translate(-211.136 -414.243)" fill="#091a62"/>
    <path id="Trazado_1091647" data-name="Trazado 1091647" d="M706.214,732.58c1.544-.61,3-1.786,4.586-2.23l.174.177c1.308,4.92,3.064,9.818,4.711,14.636.8,2.328,2.036,5.233,2.376,7.638a8.433,8.433,0,0,1-.366,3.649c-.724-.69-1.79-.873-2.488-1.66a20.033,20.033,0,0,1-2.775-3.953,70.968,70.968,0,0,1-2.936-7.8c-1.229-3.392-2.6-6.753-3.7-10.189Z" transform="translate(-492.585 -496.766)" fill="#fce5be"/>
    <path id="Trazado_1091648" data-name="Trazado 1091648" d="M351,861.22c3.36-.207,6.82-.062,10.189-.062l19.931.035,25.307-.017c3.819,0,7.706-.135,11.517,0a4.137,4.137,0,0,1,1.7.357,2.2,2.2,0,0,1,1.135,1.306,1.612,1.612,0,0,1,.08,1.085,1.871,1.871,0,0,1-1.075.084l-52.3-.066-12.618,0a30.324,30.324,0,0,1-4.414-.012.945.945,0,0,1-.805-1.275A2.3,2.3,0,0,1,351,861.22Z" transform="translate(-214.892 -598.701)" fill="#a1b5e0"/>
    <path id="Trazado_1091649" data-name="Trazado 1091649" d="M390.2,879.116c5.06-.1,10.135.019,15.2.032,5.009.013,10.047-.083,15.052.1a4.844,4.844,0,0,1-1.02,1.56,3.619,3.619,0,0,1-2.232,1.061,31.169,31.169,0,0,1-4.389.112l-7.629.009-25.527.025-18.736-.024-5.785-.032a25.5,25.5,0,0,1-2.818-.056,4.033,4.033,0,0,1-1.709-.64,3.073,3.073,0,0,1-1.23-1.681c-.019-.189.058-.2.176-.326a20.173,20.173,0,0,1,3.958-.1l7.64,0Z" transform="translate(-214.729 -612.708)" fill="#3762ac"/>
    <path id="Trazado_1091650" data-name="Trazado 1091650" d="M655.8,624.493a29.923,29.923,0,0,1,1.942,4c1.406,3.044,2.738,6.1,4.1,9.161,1.246,2.79,2.6,5.535,3.817,8.337a29.022,29.022,0,0,1,1.575,4.064l-.416.264c1.1,3.436,2.469,6.8,3.7,10.189a70.94,70.94,0,0,0,2.936,7.8,20.034,20.034,0,0,0,2.775,3.953c.7.787,1.765.97,2.488,1.66-1.223,2.738-3.528,4.049-6.235,5.092a48.74,48.74,0,0,1-12.318,2.839c.413-1.532.672-3.052-.183-4.5a3.408,3.408,0,0,0-2.177-1.574c-.1-.023-.193-.038-.291-.055a2.036,2.036,0,0,1-.75-.175c-.263-.348-.144-.964-.241-1.4-.007-.031-.015-.062-.022-.094a5.028,5.028,0,0,1-.107-1.96l.021-4.812c.236-1.616-.26-8.6.2-9.322-.311-.751-.043-3.046-.025-3.958.057-2.97.006-5.946,0-8.917,0-1.746.294-5.032-.182-6.588C656.919,636,656.042,627.426,655.8,624.493Z" transform="translate(-453.604 -414.243)" fill="#f9ce82"/>
    <path id="Trazado_1091651" data-name="Trazado 1091651" d="M655.8,624.493a29.923,29.923,0,0,1,1.942,4c1.406,3.044,2.738,6.1,4.1,9.161,1.246,2.79,2.6,5.535,3.817,8.337a29.022,29.022,0,0,1,1.575,4.064l-.416.264c-2.661,1.319-5.537,2.606-8.066,4.149l3.334,8.152c.67,1.632,1.3,3.354,2.117,4.916a11.648,11.648,0,0,1,8.63.927,27.45,27.45,0,0,0-3.294-.731c-3.27-.352-6.708,1.209-9.42,2.886-.9.559-3.4,1.949-3.615,2.975a2.079,2.079,0,0,0-.005.457,5.027,5.027,0,0,1-.107-1.96l.021-4.812c.236-1.616-.26-8.6.2-9.322-.311-.751-.042-3.046-.025-3.958.057-2.97.006-5.946,0-8.917,0-1.746.294-5.032-.182-6.588C656.919,636,656.042,627.426,655.8,624.493Z" transform="translate(-453.604 -414.243)" fill="#1a357a"/>
    <path id="Trazado_1091652" data-name="Trazado 1091652" d="M658.713,772.879a8.7,8.7,0,0,0,2.337-.97q2.167,5.427,4.412,10.822a30.513,30.513,0,0,0-6.968,4.281l.021-4.812C658.752,780.584,658.256,773.6,658.713,772.879Z" transform="translate(-455.709 -529.164)" fill="#fefefe"/>
    <path id="Trazado_1091653" data-name="Trazado 1091653" d="M460.328,482.779a21.908,21.908,0,0,0,4.426,2c5.012,1.523,9.378.3,13.867-2.1q0,2.238.139,4.472c.113,1.624,0,3.271.19,4.885l1.263,1.5c2.6,1.762,5.435,3.641,6.926,6.495,1.74.311,3.46.716,5.191,1.072,6.606,1.36,13.368,3.16,17.48,9.019,1.342,1.911,1.781,4.208,2.539,6.385,1.131,3.247,2.227,6.525,3.471,9.73a23.416,23.416,0,0,1,1.263,3.9c.68,1.961,1.333,3.939,2.133,5.854-.319.256-1,.529-1.158.87a1.14,1.14,0,0,1-.7.588l-.174-.177c-1.589.445-3.042,1.62-4.586,2.23a29.021,29.021,0,0,0-1.575-4.064c-1.216-2.8-2.571-5.547-3.817-8.337-1.367-3.06-2.7-6.117-4.1-9.161a29.938,29.938,0,0,0-1.942-4c.247,2.933,1.124,11.511.609,14h-.1a5.043,5.043,0,0,0-.874-1.362,3.737,3.737,0,0,0-2.05-1.158,47.1,47.1,0,0,0-7.182-.111c-5.91.017-11.864.188-17.771.023l-8.615-.01A93.379,93.379,0,0,0,464.9,515.3a28.1,28.1,0,0,0,4.574-4.217,5.719,5.719,0,0,0-2.028-.409,10.889,10.889,0,0,1-6.577-3.793,12.819,12.819,0,0,1-3.394-9.658c.077-1.108.385-2.218.419-3.321l0-.217a9.938,9.938,0,0,0,1.6-1.685.763.763,0,0,0,.228-.479c.094-.769.072-1.576.121-2.351q.173-2.514.386-5.024Z" transform="translate(-298.974 -303.69)" fill="#074892"/>
    <path id="Trazado_1091654" data-name="Trazado 1091654" d="M495.851,611.361l.116-.053a30.135,30.135,0,0,0,4.611,4.282c-.493,1.776-.213,5.615-.171,7.577a10.246,10.246,0,0,1-.032,2.339l-.2.1-8.615-.01a93.363,93.363,0,0,0-.281-10.021A28.1,28.1,0,0,0,495.851,611.361Z" transform="translate(-325.351 -403.964)" fill="#1a357a"/>
    <path id="Trazado_1091655" data-name="Trazado 1091655" d="M506.565,651.988a2.271,2.271,0,0,1,.756.154,1.73,1.73,0,0,1,.864,1.12,1.487,1.487,0,0,1-.226,1.193,1.557,1.557,0,0,1-1.117.578,3.14,3.14,0,0,1-.609-.115,1.464,1.464,0,0,1-.982-.783,1.261,1.261,0,0,1-.009-1.016A2.1,2.1,0,0,1,506.565,651.988Z" transform="translate(-336.158 -435.677)" fill="#fefefe"/>
    <path id="Trazado_1091656" data-name="Trazado 1091656" d="M506.124,627.444a3.43,3.43,0,0,1,.594.08,1.818,1.818,0,0,1,1.115.968q.033.072.06.147a1.585,1.585,0,0,1,.044.153,1.562,1.562,0,0,1,.028.156,1.481,1.481,0,0,1,.012.158,1.535,1.535,0,0,1,0,.159,1.581,1.581,0,0,1-.021.157,1.551,1.551,0,0,1-.036.154,1.506,1.506,0,0,1-.052.15,1.738,1.738,0,0,1-1.08.959,3.862,3.862,0,0,1-.8-.038,1.482,1.482,0,0,1-.939-.736,1.615,1.615,0,0,1-.108-1.283A1.931,1.931,0,0,1,506.124,627.444Z" transform="translate(-335.937 -416.543)" fill="#fefefe"/>
    <path id="Trazado_1091657" data-name="Trazado 1091657" d="M523.177,531.917c2.6,1.762,5.435,3.641,6.926,6.5,1.223,3.722.54,7.142-1.2,10.579-1.263,2.492-3.352,5.1-6.1,6.01a5.378,5.378,0,0,1-4.391-.536c-.43-.229-.839-.5-1.246-.766a30.135,30.135,0,0,1-4.611-4.282,5.3,5.3,0,0,1,1.744-.458,10.9,10.9,0,0,0,5.927-2.885,12.791,12.791,0,0,0,3.886-8.82A23.951,23.951,0,0,0,523.177,531.917Z" transform="translate(-341.938 -342.073)" fill="#fce5be"/>
    <path id="Trazado_1091658" data-name="Trazado 1091658" d="M460.328,482.779a21.91,21.91,0,0,0,4.426,2c5.012,1.523,9.378.3,13.867-2.1q0,2.238.139,4.472c.113,1.624,0,3.271.19,4.885l1.263,1.5a23.95,23.95,0,0,1,.934,5.338,12.791,12.791,0,0,1-3.886,8.82,10.9,10.9,0,0,1-5.927,2.885,5.292,5.292,0,0,0-1.744.458l-.116.053a5.718,5.718,0,0,0-2.028-.409,10.889,10.889,0,0,1-6.577-3.793,12.819,12.819,0,0,1-3.394-9.658c.077-1.108.385-2.218.419-3.321l0-.217a9.938,9.938,0,0,0,1.6-1.685.763.763,0,0,0,.228-.479c.094-.769.072-1.576.121-2.351q.173-2.514.386-5.024Z" transform="translate(-298.974 -303.69)" fill="#fac098"/>
    <path id="Trazado_1091659" data-name="Trazado 1091659" d="M499.157,505.159a21.954,21.954,0,0,0,4.428.459c2.816-.019,5.653-.576,7.694-2.651.113,1.624,0,3.271.19,4.885l1.263,1.5a23.95,23.95,0,0,1,.934,5.337c-2.757-1.735-5.456-3.557-8.207-5.3A44.214,44.214,0,0,1,499.157,505.159Z" transform="translate(-331.494 -319.505)" fill="#f18853"/>
    <path id="Trazado_1091660" data-name="Trazado 1091660" d="M470.185,482.779a21.91,21.91,0,0,0,4.426,2c5.012,1.523,9.378.3,13.867-2.1q0,2.238.139,4.472c-2.041,2.074-4.879,2.632-7.694,2.651a21.954,21.954,0,0,1-4.428-.459,37.16,37.16,0,0,1-6.408-5.194Z" transform="translate(-308.831 -303.69)" fill="#df4a3e"/>
  </g>
</svg>
