<svg id="escucha-activa_1_" data-name="escucha-activa (1)" xmlns="http://www.w3.org/2000/svg" width="99.103" height="84.932" viewBox="0 0 99.103 84.932">
  <path id="Trazado_1093360" data-name="Trazado 1093360" d="M184.966,279.105a5.279,5.279,0,0,0,5.273-5.273v-6.867a1.451,1.451,0,1,0-2.9,0v6.867a2.373,2.373,0,0,1-2.371,2.37h-1.854a1.451,1.451,0,1,0,0,2.9Z" transform="translate(-146.509 -221.222)" fill="#20849e"/>
  <path id="Trazado_1093361" data-name="Trazado 1093361" d="M155.464,360.779a10.54,10.54,0,0,0,.564,3.435,1.451,1.451,0,1,0,2.745-.944,7.642,7.642,0,0,1-.407-2.492c0-3.343,2.045-6.062,4.559-6.062s4.559,2.719,4.559,6.062-2.045,6.062-4.559,6.062a3.433,3.433,0,0,1-.566-.047,1.451,1.451,0,0,0-.48,2.863,6.352,6.352,0,0,0,1.046.087c4.115,0,7.462-4.022,7.462-8.965s-3.347-8.965-7.462-8.965S155.464,355.835,155.464,360.779Z" transform="translate(-125.381 -290.822)" fill="#20849e"/>
  <path id="Trazado_1093362" data-name="Trazado 1093362" d="M317.8,61.324l2.125-2.125a1.451,1.451,0,0,0-2.052-2.052l-2.125,2.125a1.451,1.451,0,0,0,2.052,2.052Z" transform="translate(-254.308 -52.831)" fill="#20849e"/>
  <path id="Trazado_1093363" data-name="Trazado 1093363" d="M288.55,42.375a1.451,1.451,0,0,0,1.778-1.026l.778-2.9a1.451,1.451,0,1,0-2.8-.751l-.778,2.9A1.451,1.451,0,0,0,288.55,42.375Z" transform="translate(-231.846 -36.618)" fill="#20849e"/>
  <path id="Trazado_1093364" data-name="Trazado 1093364" d="M331.452,94.135a1.451,1.451,0,0,0,1.778,1.026l2.9-.778a1.451,1.451,0,0,0-.751-2.8l-2.9.778A1.451,1.451,0,0,0,331.452,94.135Z" transform="translate(-267.275 -80.904)" fill="#20849e"/>
  <path id="Trazado_1093365" data-name="Trazado 1093365" d="M97.652,116.272a1.451,1.451,0,0,0,1.451-1.451V100.345a6.056,6.056,0,0,0-5.745-6.062,5.906,5.906,0,0,0-3.247.832V91.48a6.056,6.056,0,0,0-5.745-6.062,5.89,5.89,0,0,0-3.291.858,6.046,6.046,0,0,0-5.7-5.336,5.944,5.944,0,0,0-6.119,5.329,5.892,5.892,0,0,0-3.278-.851,5.807,5.807,0,0,0-2.116.476,28.225,28.225,0,0,0-5.77-9.114A28.233,28.233,0,0,0,22.46,72.242a1.451,1.451,0,0,0,1.553,2.452A25.32,25.32,0,0,1,62.8,97.685l-1.49,23.845a23.822,23.822,0,0,1-47.552,0l-1.49-23.845a25.077,25.077,0,0,1,6.809-18.906,1.451,1.451,0,0,0-2.117-1.986A27.952,27.952,0,0,0,9.367,97.866l.224,3.579a7.462,7.462,0,0,0-9.442,8.617l1.243,6.213a10.655,10.655,0,0,0,9.839,8.524A26.721,26.721,0,0,0,61.4,132.052l4.395,4.395a19.135,19.135,0,0,0,1.868,1.67v6.233a2.421,2.421,0,0,0,2.419,2.419H90.626a2.421,2.421,0,0,0,2.419-2.419v-7.415a19.26,19.26,0,0,0,6.058-14.1v-1.242a1.451,1.451,0,0,0-2.9,0v1.242a16.384,16.384,0,0,1-5.168,12.007,2.868,2.868,0,0,0-.891,2.075v6.949H70.564v-5.749a2.877,2.877,0,0,0-1.1-2.276,16.754,16.754,0,0,1-1.6-1.438l-5.215-5.215a26.52,26.52,0,0,0,1.189-4.389,10.666,10.666,0,0,0,9.225-6.517,7.18,7.18,0,0,1,5.973,7.04,7.089,7.089,0,0,1-2.09,5.046,1.451,1.451,0,1,0,2.052,2.052,10.041,10.041,0,0,0-5.16-16.95l1.082-5.408A7.388,7.388,0,0,0,72.532,103q-.2-.175-.406-.335V86.885a3.043,3.043,0,0,1,3.15-3.043A3.131,3.131,0,0,1,78.216,87v22.345a1.451,1.451,0,0,0,2.9,0V91.362a3.044,3.044,0,0,1,3.15-3.043,3.131,3.131,0,0,1,2.939,3.161v17.867a1.451,1.451,0,1,0,2.9,0v-9.119a3.044,3.044,0,0,1,3.15-3.043,3.131,3.131,0,0,1,2.939,3.161V114.82A1.452,1.452,0,0,0,97.652,116.272Zm-93.414-.566L3,109.493a4.559,4.559,0,0,1,5.913-5.22l.878.293,1.072,17.146c0,.048.006.1.009.143a7.747,7.747,0,0,1-6.629-6.149Zm67.827-6.213-1.243,6.213a7.746,7.746,0,0,1-6.629,6.149q0-.072.009-.143l1.072-17.146.878-.293a4.559,4.559,0,0,1,5.913,5.22Zm-6.6-8.048.224-3.579a28.312,28.312,0,0,0-.918-9.191,2.917,2.917,0,0,1,1.3-.356,3.043,3.043,0,0,1,3.15,3.043V101.3a7.421,7.421,0,0,0-3.754.14Z" transform="translate(0 -61.837)" fill="#20849e"/>
</svg>
