<svg xmlns="http://www.w3.org/2000/svg" width="81.509" height="72" viewBox="0 0 81.509 72">
  <g id="chat-en-vivo" transform="translate(0 -29.866)">
    <g id="Page-1_29_" transform="translate(0 29.866)">
      <g id="_x30_30---Laptop-Life-Chat" transform="translate(0 0)">
        <path id="Shape_150_" d="M78.793,85.564V36.659A6.8,6.8,0,0,0,72,29.866H9.509a6.8,6.8,0,0,0-6.793,6.793V85.564A2.717,2.717,0,0,0,0,88.281v4.075a9.52,9.52,0,0,0,9.509,9.509H72a9.52,9.52,0,0,0,9.509-9.509V88.281A2.717,2.717,0,0,0,78.793,85.564ZM9.509,32.583H72a4.076,4.076,0,0,1,4.075,4.075V85.564H45.89l-1.766-7.041A12.2,12.2,0,0,0,32.9,69.285a10.843,10.843,0,0,0,2.06-4.1h.357A5.407,5.407,0,0,0,39.4,56.2V54.319a14.943,14.943,0,1,0-29.887,0V56.2a5.407,5.407,0,0,0,4.075,8.991h.357A10.839,10.839,0,0,0,16,69.29,12.2,12.2,0,0,0,5.434,76.608V36.659a4.076,4.076,0,0,1,4.075-4.075Zm4.075,46.189a1.358,1.358,0,0,0-1.358,1.358v5.434H5.817l1.6-6.385A9.478,9.478,0,0,1,16.3,72.008V74.1a4.075,4.075,0,0,0,4.876,3.993l1.917-.38v7.852H14.944V80.13a1.359,1.359,0,0,0-1.359-1.358Zm0-21.736V62.47a2.717,2.717,0,1,1,0-5.434Zm0-2.717a5.345,5.345,0,0,0-1.358.193v-.193a12.226,12.226,0,1,1,24.453,0v.193a5.354,5.354,0,0,0-1.358-.193h-.094a10.858,10.858,0,0,0-21.548,0ZM35.321,78.772a1.358,1.358,0,0,0-1.358,1.358v5.434H25.812V77.712l1.917.383a4.076,4.076,0,0,0,4.876-4V72.008a9.478,9.478,0,0,1,8.885,7.171l1.6,6.385H36.679V80.13a1.358,1.358,0,0,0-1.358-1.358Zm-16.3-6.793H19.2a10.767,10.767,0,0,0,3.891,1.265v1.7l-2.445.49a1.359,1.359,0,0,1-1.63-1.331Zm10.683,0h.185V74.1a1.359,1.359,0,0,1-1.63,1.331l-2.445-.49v-1.7A10.767,10.767,0,0,0,29.7,71.979Zm-5.249-1.358A8.159,8.159,0,0,1,16.3,62.47V58.5c3.33.183,8.488-.016,10.887-2.357A8.065,8.065,0,0,0,32.6,59.639V62.47c0,.151-.015.3-.023.448l-5.672,2.269H24.453a1.358,1.358,0,1,0,0,2.717H27.17a1.36,1.36,0,0,0,.5-.1L31.692,66.2a8.152,8.152,0,0,1-7.24,4.421ZM32.6,56.874a6.127,6.127,0,0,1-4.116-4.244,1.359,1.359,0,0,0-2.676.33,1.65,1.65,0,0,1-.6,1.318c-1.6,1.431-5.891,1.683-8.908,1.506v-.107a8.151,8.151,0,1,1,16.3,0Zm2.717,5.6V57.036a2.717,2.717,0,1,1,0,5.434ZM28.528,88.281H52.981V89.64a2.717,2.717,0,0,1-2.717,2.717H31.245a2.717,2.717,0,0,1-2.717-2.717Zm50.264,4.075A6.8,6.8,0,0,1,72,99.149H9.509a6.8,6.8,0,0,1-6.793-6.793V88.281H25.811V89.64a5.434,5.434,0,0,0,5.434,5.434H50.264A5.434,5.434,0,0,0,55.7,89.64V88.281H78.793Z" transform="translate(0 -29.866)" fill="#c5a07a"/>
        <path id="Shape_149_" d="M99.3,413.867H95.225a1.358,1.358,0,1,0,0,2.717H99.3a1.358,1.358,0,0,0,0-2.717Z" transform="translate(-78.924 -352.735)" fill="#c5a07a"/>
        <circle id="Oval_10_" cx="1.358" cy="1.358" r="1.358" transform="translate(6.793 61.132)" fill="#c5a07a"/>
        <circle id="Oval_9_" cx="1.358" cy="1.358" r="1.358" transform="translate(10.868 61.132)" fill="#c5a07a"/>
        <path id="Shape_148_" d="M269.968,85.736h1.223c.064.023.136.06.136,0v2.717a2.688,2.688,0,0,0,1.581,2.468,2.74,2.74,0,0,0,1.144.253,2.692,2.692,0,0,0,1.7-.607l6.837-4.755a1.307,1.307,0,0,0,.11-.076h7.648a5.434,5.434,0,0,0,5.434-5.434V69.434A5.434,5.434,0,0,0,290.345,64H269.968a5.434,5.434,0,0,0-5.434,5.434V80.3a5.434,5.434,0,0,0,5.434,5.434Zm-2.717-16.3a2.717,2.717,0,0,1,2.717-2.717h20.377a2.717,2.717,0,0,1,2.717,2.717V80.3a2.717,2.717,0,0,1-2.717,2.717H282.7a2.725,2.725,0,0,0-1.706.6l-6.839,4.755q-.056.036-.109.077V85.736a2.926,2.926,0,0,0-2.524-2.7,1.3,1.3,0,0,0-.193-.014h-1.358a2.717,2.717,0,0,1-2.717-2.717V69.434Z" transform="translate(-222.421 -58.566)" fill="#c5a07a"/>
        <path id="Shape_147_" d="M300.025,109.384h17.66a1.358,1.358,0,1,0,0-2.717h-17.66a1.358,1.358,0,1,0,0,2.717Z" transform="translate(-251.12 -94.44)" fill="#c5a07a"/>
        <path id="Shape_146_" d="M300.025,143.518h9.509a1.358,1.358,0,0,0,0-2.717h-9.509a1.358,1.358,0,1,0,0,2.717Z" transform="translate(-251.12 -123.14)" fill="#c5a07a"/>
      </g>
    </g>
  </g>
</svg>
