<svg xmlns="http://www.w3.org/2000/svg" width="124" height="124" viewBox="0 0 124 124">
  <g id="Grupo_1190768" data-name="Grupo 1190768" transform="translate(6664.125 8509.221)">
    <circle id="Elipse_11479" data-name="Elipse 11479" cx="62" cy="62" r="62" transform="translate(-6664.125 -8509.221)" fill="#fff"/>
    <g id="turista" transform="translate(-6636.905 -8501.916)">
      <path id="Trazado_1092242" data-name="Trazado 1092242" d="M77.632,67.67V59.994a7.684,7.684,0,0,0-7.676-7.676,1.49,1.49,0,1,0,0,2.981,4.694,4.694,0,0,1,4.695,4.695v5.2c-4.991-3.382-12.451-4.818-18.288-5.589V57.4A19.9,19.9,0,0,0,59,55.3h5.828a1.49,1.49,0,1,0,0-2.981H61.535a18.6,18.6,0,0,0,3.175-9.777,6.608,6.608,0,0,0,4.814-6.349,6.541,6.541,0,0,0-1.446-4.069A7.753,7.753,0,0,0,73.309,24.8a1.5,1.5,0,0,0-1.49-1.49h-4.71v-.373a20.876,20.876,0,0,0-3.145-11.029,1.489,1.489,0,0,0-2.534,1.565,17.982,17.982,0,0,1,2.7,9.464v.373H28.208v-.373A17.959,17.959,0,0,1,58.956,10.332a1.486,1.486,0,1,0,2.116-2.087,20.931,20.931,0,0,0-35.846,14.7v.373h-4.71a1.5,1.5,0,0,0-1.49,1.49,7.773,7.773,0,0,0,5.232,7.318,6.541,6.541,0,0,0-1.446,4.069,6.622,6.622,0,0,0,4.814,6.349A18.6,18.6,0,0,0,30.8,52.318H20.934a7.684,7.684,0,0,0-7.676,7.676V67.7a9.072,9.072,0,0,0-2.593,6.2v4.263a1.49,1.49,0,0,0,2.981,0V73.9c0-2.027,1.118-3.905,3.309-5.559v9.9A2.62,2.62,0,0,0,15,80.756v4.427a2.625,2.625,0,0,0,1.953,2.534v6.662a3.627,3.627,0,0,1-3.309-3.592V86.018a1.49,1.49,0,1,0-2.981,0v4.769a6.619,6.619,0,0,0,6.618,6.6h56.34a6.615,6.615,0,0,0,6.6-6.6V73.9a9.16,9.16,0,0,0-2.593-6.23ZM63.457,63.884a35.291,35.291,0,0,1,7.482,2.608V78.133H63.457Zm1.282-24.563v-6.26a3.618,3.618,0,0,1,0,6.26Zm-37.142,0a3.618,3.618,0,0,1,0-6.26Zm-.79-9.718a4.808,4.808,0,0,1-4.561-3.309H70.09A4.794,4.794,0,0,1,65.529,29.6Zm3.771,12.3V32.584H61.758V41.9a15.59,15.59,0,0,1-31.181,0ZM16.239,65.211V59.994A4.7,4.7,0,0,1,20.934,55.3H33.35a17.442,17.442,0,0,0,2.519,2.027v2.116c-6.561.772-14.089,2.193-19.629,5.768Zm11.179,29.2H19.936v-6.6h7.482Zm1.118-9.584H17.983V81.114H28.536Zm31.941-6.439a2.624,2.624,0,0,0-1.535,2.37v4.427a2.646,2.646,0,0,0,1.535,2.385v6.841H30.4V87.315a2.619,2.619,0,0,0,1.118-2.132V80.756A2.619,2.619,0,0,0,30.4,78.625V73.572a1.49,1.49,0,1,0-2.981,0v4.561H19.936V66.522a37.167,37.167,0,0,1,7.482-2.638v4.71a1.49,1.49,0,1,0,2.981,0V63.407L44.186,84.632a1.5,1.5,0,0,0,1.237.686h.015a1.512,1.512,0,0,0,1.237-.641l6.633-9.658a1.49,1.49,0,0,0-2.459-1.684l-5.366,7.81L33.544,62.751c1.371-.209,2.668-.358,3.935-.462A1.5,1.5,0,0,0,38.85,60.8V58.951a18.458,18.458,0,0,0,14.532.06v1.923a1.49,1.49,0,0,0,1.341,1.49c.656.057,2.634.337,3.324.447l-3.756,5.455A1.49,1.49,0,1,0,56.75,70.01l3.726-5.41V78.386ZM70.94,94.409H63.457v-6.6H70.94Zm1.535-9.584H61.922V81.114H72.475Zm4.77,5.962a3.617,3.617,0,0,1-3.324,3.592V87.568a2.621,2.621,0,0,0,1.535-2.385V80.756a2.6,2.6,0,0,0-1.535-2.37V68.341C76.112,70,77.244,71.858,77.244,73.9Z" transform="translate(-10.665 -2)" fill="#20849e"/>
      <path id="Trazado_1092243" data-name="Trazado 1092243" d="M30.119,26.555A2.385,2.385,0,1,0,32.5,28.94,2.386,2.386,0,0,0,30.119,26.555Z" transform="translate(-2.293 10.043)" fill="#20849e"/>
      <path id="Trazado_1092244" data-name="Trazado 1092244" d="M40.424,26.555a2.385,2.385,0,1,0,2.385,2.385A2.386,2.386,0,0,0,40.424,26.555Z" transform="translate(2.761 10.043)" fill="#20849e"/>
      <path id="Trazado_1092245" data-name="Trazado 1092245" d="M34.977,33.6a1.49,1.49,0,0,0,1.49-1.49V29.773a1.49,1.49,0,1,0-2.981,0v2.339A1.49,1.49,0,0,0,34.977,33.6Z" transform="translate(0.528 10.891)" fill="#20849e"/>
      <path id="Trazado_1092246" data-name="Trazado 1092246" d="M31.067,34.18a1.487,1.487,0,0,0,.285,2.087,8.168,8.168,0,0,0,4.96,1.848,8.167,8.167,0,0,0,4.959-1.848,1.49,1.49,0,1,0-1.8-2.373,4.634,4.634,0,0,1-6.316,0,1.486,1.486,0,0,0-2.087.285Z" transform="translate(-0.807 13.494)" fill="#20849e"/>
      <path id="Trazado_1092247" data-name="Trazado 1092247" d="M33.487,26.542a1.49,1.49,0,1,0,0-2.981H27.976a1.49,1.49,0,1,0,0,2.981Z" transform="translate(-2.905 8.575)" fill="#20849e"/>
      <path id="Trazado_1092248" data-name="Trazado 1092248" d="M38.281,26.542h5.511a1.49,1.49,0,1,0,0-2.981H38.281a1.49,1.49,0,1,0,0,2.981Z" transform="translate(2.149 8.575)" fill="#20849e"/>
    </g>
  </g>
</svg>
