<svg xmlns="http://www.w3.org/2000/svg" width="124" height="124" viewBox="0 0 124 124">
  <g id="Grupo_1190766" data-name="Grupo 1190766" transform="translate(7283.125 8516.221)">
    <circle id="Elipse_11477" data-name="Elipse 11477" cx="62" cy="62" r="62" transform="translate(-7283.125 -8516.221)" fill="#fff"/>
    <g id="italia" transform="translate(-7265.448 -8493.771)">
      <path id="Trazado_1092197" data-name="Trazado 1092197" d="M.989,79.4H78.114a.988.988,0,0,0,.989-.989V71.493a.988.988,0,0,0-.989-.988H75.6V49.328h2.513a.989.989,0,1,0,0-1.977H75.6V23.62h2.513a.989.989,0,0,0,0-1.978H75.6V1.29A.988.988,0,0,0,74.613.3H41.677a.989.989,0,0,0-.84.465L27.818,21.642H1.017a.989.989,0,0,0,0,1.978H3.781V47.351H1.017a.989.989,0,1,0,0,1.977H3.781V70.5H1.017a.989.989,0,0,0-.989.984L0,78.411a.986.986,0,0,0,.989.993ZM42.225,2.279h31.4V21.642H30.149ZM5.759,23.62H73.624V47.351H5.759Zm0,25.708H73.624V70.5H5.759ZM2,72.482H77.125v4.944H1.981Zm0,0" transform="translate(0 -0.301)" fill="#20849e"/>
      <path id="Trazado_1092198" data-name="Trazado 1092198" d="M305.944,139.777a5.312,5.312,0,0,0-5.307,5.306v10.3a.988.988,0,0,0,.989.989h8.635a.988.988,0,0,0,.989-.989v-10.3A5.312,5.312,0,0,0,305.944,139.777Zm3.328,14.612h-6.657v-9.306a3.329,3.329,0,0,1,6.657,0Zm0,0" transform="translate(-242.577 -112.841)" fill="#20849e"/>
      <path id="Trazado_1092199" data-name="Trazado 1092199" d="M223.858,139.777a5.312,5.312,0,0,0-5.307,5.306v10.3a.988.988,0,0,0,.989.989h8.635a.988.988,0,0,0,.988-.989v-10.3a5.312,5.312,0,0,0-5.306-5.306Zm3.328,14.612h-6.657v-9.306a3.329,3.329,0,0,1,6.657,0Zm0,0" transform="translate(-176.343 -112.841)" fill="#20849e"/>
      <path id="Trazado_1092200" data-name="Trazado 1092200" d="M141.776,139.777a5.312,5.312,0,0,0-5.307,5.306v10.3a.988.988,0,0,0,.989.989h8.635a.988.988,0,0,0,.989-.989v-10.3a5.312,5.312,0,0,0-5.306-5.306Zm3.328,14.612h-6.657v-9.306a3.329,3.329,0,0,1,6.657,0Zm0,0" transform="translate(-110.113 -112.841)" fill="#20849e"/>
      <path id="Trazado_1092201" data-name="Trazado 1092201" d="M59.686,139.777a5.312,5.312,0,0,0-5.307,5.306v10.3a.988.988,0,0,0,.989.989H64a.988.988,0,0,0,.989-.989v-10.3a5.311,5.311,0,0,0-5.306-5.306Zm3.329,14.612H56.357v-9.306a3.329,3.329,0,0,1,6.657,0v9.306Zm0,0" transform="translate(-43.877 -112.841)" fill="#20849e"/>
      <path id="Trazado_1092202" data-name="Trazado 1092202" d="M305.763,266.043a5.312,5.312,0,0,0-5.306,5.306v10.3a.988.988,0,0,0,.989.988h8.634a.988.988,0,0,0,.989-.988v-10.3a5.312,5.312,0,0,0-5.306-5.306Zm3.328,14.613h-6.657v-9.307a3.328,3.328,0,0,1,6.657,0Zm0,0" transform="translate(-242.432 -214.722)" fill="#20849e"/>
      <path id="Trazado_1092203" data-name="Trazado 1092203" d="M223.681,266.043a5.311,5.311,0,0,0-5.306,5.306v10.3a.987.987,0,0,0,.988.988H228a.988.988,0,0,0,.989-.988v-10.3a5.312,5.312,0,0,0-5.306-5.306Zm3.328,14.613h-6.657v-9.307a3.328,3.328,0,0,1,6.657,0Zm0,0" transform="translate(-176.202 -214.722)" fill="#20849e"/>
      <path id="Trazado_1092204" data-name="Trazado 1092204" d="M305.763,25.4a5.312,5.312,0,0,0-5.306,5.306v7.329a.988.988,0,0,0,.989.988h8.634a.988.988,0,0,0,.989-.988V30.709a5.312,5.312,0,0,0-5.306-5.306Zm3.328,11.646h-6.657v-6.34a3.328,3.328,0,1,1,6.657,0Zm0,0" transform="translate(-242.432 -20.555)" fill="#20849e"/>
      <path id="Trazado_1092205" data-name="Trazado 1092205" d="M223.681,25.4a5.311,5.311,0,0,0-5.306,5.306v7.329a.987.987,0,0,0,.988.988H228a.988.988,0,0,0,.989-.988V30.709a5.312,5.312,0,0,0-5.306-5.306Zm3.328,11.646h-6.657v-6.34a3.328,3.328,0,1,1,6.657,0Zm0,0" transform="translate(-176.202 -20.555)" fill="#20849e"/>
      <path id="Trazado_1092206" data-name="Trazado 1092206" d="M141.591,266.043a5.312,5.312,0,0,0-5.306,5.306v10.3a.988.988,0,0,0,.988.988h8.635a.987.987,0,0,0,.988-.988v-10.3a5.311,5.311,0,0,0-5.306-5.306Zm3.329,14.613h-6.656v-9.307a3.328,3.328,0,0,1,6.656,0Zm0,0" transform="translate(-109.966 -214.722)" fill="#20849e"/>
      <path id="Trazado_1092207" data-name="Trazado 1092207" d="M59.506,266.043a5.312,5.312,0,0,0-5.306,5.306v10.3a.988.988,0,0,0,.989.988h8.634a.988.988,0,0,0,.989-.988v-10.3a5.312,5.312,0,0,0-5.306-5.306Zm3.328,14.613H56.177v-9.307a3.328,3.328,0,0,1,6.656,0Zm0,0" transform="translate(-43.732 -214.722)" fill="#20849e"/>
    </g>
  </g>
</svg>
