<svg xmlns="http://www.w3.org/2000/svg" width="124" height="124" viewBox="0 0 124 124">
  <g id="Grupo_1190769" data-name="Grupo 1190769" transform="translate(6352.125 8509.221)">
    <circle id="Elipse_11478" data-name="Elipse 11478" cx="62" cy="62" r="62" transform="translate(-6352.125 -8509.221)" fill="#fff"/>
    <g id="agencia-de-viajes" transform="translate(-6322.327 -8486.424)">
      <path id="_x35_" d="M93.386,18.18A27.251,27.251,0,0,1,88.7,21.223,45.312,45.312,0,0,1,90.821,34.1h9.82a23.82,23.82,0,0,0-6.971-15.642C93.581,18.374,93.475,18.268,93.386,18.18ZM100.641,36.6h-9.82a44.775,44.775,0,0,1-2,12.456,4.139,4.139,0,0,1-.142.425,26.719,26.719,0,0,1,4.706,3.044A23.925,23.925,0,0,0,100.641,36.6ZM91.476,54.185a24.994,24.994,0,0,0-3.662-2.371,20.963,20.963,0,0,1-4.6,7.06,1.234,1.234,0,0,1-1.752-.036A1.255,1.255,0,0,1,81.5,57.07a18.363,18.363,0,0,0,4.052-6.281,2.389,2.389,0,0,1-.318-.124,23.63,23.63,0,0,0-7.2-1.486v.336a1.247,1.247,0,0,1-1.238,1.256,1.262,1.262,0,0,1-1.257-1.256V36.6H69.677a1.246,1.246,0,0,1-1.238-1.256A1.231,1.231,0,0,1,69.677,34.1h5.857V24.037a26.7,26.7,0,0,1-5.733-.921,25.074,25.074,0,0,1-2.618-.867,42.453,42.453,0,0,0-1.946,13.094,1.248,1.248,0,1,1-2.5,0,45.521,45.521,0,0,1,2.14-14.119c-.531-.283-1.044-.566-1.557-.868a1.241,1.241,0,0,1,1.257-2.141c.389.23.778.46,1.185.655.266-.637.549-1.256.867-1.858a19.682,19.682,0,0,1,3.007-4.459,24.193,24.193,0,0,0-5.8,2.725,1.249,1.249,0,0,1-1.345-2.106,26.165,26.165,0,0,1,14.3-4.193,26.373,26.373,0,0,1,12.3,49.7,1.23,1.23,0,0,1-1.681-.513,1.249,1.249,0,0,1,.513-1.68,34.419,34.419,0,0,0,3.557-2.3ZM83.938,12.553a20.192,20.192,0,0,1,3.007,4.459c.3.6.584,1.221.868,1.858a24.79,24.79,0,0,0,3.662-2.354A24.037,24.037,0,0,0,83.938,12.553Zm2.461,35.9.052-.142A42.1,42.1,0,0,0,88.327,36.6h-10.3V46.666a26.665,26.665,0,0,1,8.085,1.68C86.22,48.382,86.309,48.417,86.4,48.453ZM88.327,34.1A41.622,41.622,0,0,0,86.4,22.249c-.089.036-.2.071-.284.106a26.628,26.628,0,0,1-8.085,1.681V34.1Zm-10.3-22.488v9.908a23.64,23.64,0,0,0,7.2-1.5c.106-.036.212-.071.3-.106-.247-.619-.513-1.2-.8-1.77-1.823-3.557-4.157-5.927-6.705-6.529Zm-2.5,9.908V11.615c-2.548.6-4.882,2.972-6.688,6.529-.283.566-.549,1.15-.813,1.77a22.919,22.919,0,0,0,2.424.8A22.844,22.844,0,0,0,75.534,21.524Z" transform="translate(-23.273 -3.376)" fill="#20849e"/>
      <path id="_x34_" d="M15.405,54.643l2.512,7.908,4.812-3.5-5.4-6.069Zm3.007-4.211,6.157,6.936,6.14-6.936.017-.017a1.22,1.22,0,0,1,1.751-.124l3.344,2.884,8.015,3.5a8.646,8.646,0,0,1,3.874,3.291,9.188,9.188,0,0,1,1.416,4.954V69.47a1.247,1.247,0,1,1-2.494,0V64.923a6.663,6.663,0,0,0-1.008-3.609,6.376,6.376,0,0,0-2.778-2.354l-6.935-3.025-2.866,9.023a1.235,1.235,0,0,1-1.911.619L25.809,61.7v8.7a1.246,1.246,0,0,1-1.238,1.256,1.261,1.261,0,0,1-1.256-1.256V61.7l-5.308,3.875a3.746,3.746,0,0,1-.371.177,1.23,1.23,0,0,1-1.557-.8l-2.866-9.023L6.275,58.961a6.229,6.229,0,0,0-2.76,2.354,6.53,6.53,0,0,0-1.026,3.609v20.6A1.247,1.247,0,0,1,1.25,86.775,1.262,1.262,0,0,1-.006,85.518v-20.6A9.2,9.2,0,0,1,1.41,59.969a8.741,8.741,0,0,1,3.875-3.291l8.015-3.5,3.344-2.884a1.222,1.222,0,0,1,1.752.124ZM9.636,74.53a1.247,1.247,0,0,1,2.495,0V85.518a1.247,1.247,0,1,1-2.495,0ZM31.789,52.98l-5.4,6.069,4.812,3.5,2.512-7.908Z" transform="translate(0 -18.785)" fill="#20849e"/>
      <path id="_x33_" d="M61.686,84.552H34.013A2.447,2.447,0,0,0,31.749,86.5l-3.5,19.923a1.454,1.454,0,0,0,1.486,1.822H56.784a2.842,2.842,0,0,0,2.636-2.265l3.487-19.905a1.63,1.63,0,0,0,.036-.3,1.18,1.18,0,0,0-1.257-1.22ZM47.053,95.079a1.262,1.262,0,0,1,1.256,1.257,1.246,1.246,0,0,1-1.256,1.238,1.231,1.231,0,0,1-1.238-1.238A1.246,1.246,0,0,1,47.053,95.079ZM34.013,82.057H61.686a3.046,3.046,0,0,1,.69.071,3.639,3.639,0,0,1,3.061,3.645,5.085,5.085,0,0,1-.071.725L61.88,106.421a5.377,5.377,0,0,1-5.1,4.317H29.732a3.914,3.914,0,0,1-4-3.981,6.132,6.132,0,0,1,.053-.778l3.5-19.905A4.979,4.979,0,0,1,34.013,82.057Z" transform="translate(-9.673 -30.84)" fill="#20849e"/>
      <path id="_x32_" d="M19.964,114.031a1.247,1.247,0,0,1,1.256,1.238,1.335,1.335,0,0,1-.036.265l-.513,2.9a2.163,2.163,0,0,0-.017.336,1.467,1.467,0,0,0,.318.974,1.405,1.405,0,0,0,.867.477c.089.017.195.017.3.036l.017,2.495h-11.7a4.266,4.266,0,0,1-2.318-.672,3.207,3.207,0,0,1-1.4-1.929L5.614,115.57a1.243,1.243,0,0,1,.92-1.5.823.823,0,0,1,.3-.036Zm-1.486,2.495H8.409l.761,3.043a.659.659,0,0,0,.336.425,1.724,1.724,0,0,0,.955.265h7.962a4.094,4.094,0,0,1-.265-1.486,6.132,6.132,0,0,1,.053-.778Z" transform="translate(-2.099 -42.857)" fill="#20849e"/>
      <path id="_x31_" d="M26.918,29.383l-.424,3.22a1.25,1.25,0,1,1-2.477-.336l.655-4.777-.318-.283a10.291,10.291,0,0,1-2.69-3.716,11.476,11.476,0,0,1-.92-4.636V11.3a11.128,11.128,0,0,1,3.22-8.192,11.774,11.774,0,0,1,8.4-3.113,11.761,11.761,0,0,1,8.387,3.113,11.128,11.128,0,0,1,3.22,8.192v7.555a11.6,11.6,0,0,1-.92,4.636,10.286,10.286,0,0,1-2.69,3.716l-.318.283.655,4.777a1.268,1.268,0,0,1-1.062,1.416,1.24,1.24,0,0,1-1.4-1.079l-.442-3.22a8.194,8.194,0,0,1-1.734.92,11.551,11.551,0,0,1-7.413,0,8.155,8.155,0,0,1-1.735-.92Zm-3.645-18.9c1.291.425,4.07.815,5.5-2.707A1.242,1.242,0,0,1,30.4,7.107a1.215,1.215,0,0,1,.69.725c.017.017,2.283,6.512,10.386,4.477V11.3A8.666,8.666,0,0,0,39.02,4.9a9.3,9.3,0,0,0-6.653-2.407A9.317,9.317,0,0,0,25.7,4.894,8.433,8.433,0,0,0,23.273,10.486ZM41.48,14.874c-6.493,1.416-9.961-1.752-11.572-4.052a6.06,6.06,0,0,1-6.671,2.229v5.8a9.3,9.3,0,0,0,.708,3.645,7.77,7.77,0,0,0,2.07,2.848l1.5,1.345a6.756,6.756,0,0,0,2.052,1.291,9.08,9.08,0,0,0,5.573,0,7.06,7.06,0,0,0,2.07-1.291l1.5-1.345a7.425,7.425,0,0,0,2-2.743,9.128,9.128,0,0,0,.761-3.751v-3.98Z" transform="translate(-7.798 0)" fill="#20849e"/>
    </g>
  </g>
</svg>
