<svg xmlns="http://www.w3.org/2000/svg" width="102.859" height="107.146" viewBox="0 0 102.859 107.146">
  <path id="mascara-de-buceo" d="M75.978,43.01a1.872,1.872,0,0,1,1.872,1.872v7.9a9.582,9.582,0,0,1-9.571,9.569H61.063c-3.224,0-7.1-2.947-10.647-8.084-1.436-2.082-3.729-4.306-5.858-4.306s-4.418,2.224-5.856,4.306C35.157,59.4,31.278,62.35,28.056,62.35H20.833a9.58,9.58,0,0,1-9.567-9.569V43.244a8.5,8.5,0,0,1,6.588-8.307c2.378-.5,5.031-1.024,7.335-1.451,2.074-.386,4.757-.856,5.746-.9a19.329,19.329,0,0,1,5.055,1.039,30.891,30.891,0,0,0,8.528,1.552,30.9,30.9,0,0,0,8.612-1.552,19.362,19.362,0,0,1,5.055-1.039c1.567.077,7.775,1.267,11.587,2.048a1.872,1.872,0,0,1-.749,3.668c-5.508-1.123-10.1-1.93-10.932-1.973a18.551,18.551,0,0,0-3.918.891,34,34,0,0,1-9.651,1.7,33.956,33.956,0,0,1-9.572-1.7,18.534,18.534,0,0,0-3.932-.891c-.361.021-1.981.255-5.152.844-2.277.421-4.9.936-7.208,1.425A4.755,4.755,0,0,0,15,43.246v9.535a5.832,5.832,0,0,0,5.824,5.824H28.05c1.5,0,4.493-2.024,7.562-6.468,1.23-1.782,4.564-5.925,8.938-5.925s7.712,4.147,8.94,5.929c3.065,4.441,6.07,6.465,7.564,6.465H68.27A5.832,5.832,0,0,0,74.1,52.781v-7.9a1.872,1.872,0,0,1,1.88-1.872ZM107.39,45.92v5.89a5.055,5.055,0,0,1-5.042,5.042H99.974a46.32,46.32,0,0,1-25.93,40.192L47.978,109.675a8.648,8.648,0,0,1-7.247.129,5.712,5.712,0,0,1-3.269-4.119,6.74,6.74,0,0,1,3.78-7.3l1.872-.91a26.94,26.94,0,0,0-.408-7.418,7.6,7.6,0,0,1-2.75-3.332A1.872,1.872,0,1,1,43.4,85.258a3.932,3.932,0,0,0,7.226-3.08A1.879,1.879,0,0,1,54.085,80.7a7.6,7.6,0,0,1,.5,4.25A24.327,24.327,0,0,0,58.947,89.8l9.387-4.549a33.138,33.138,0,0,0,18.535-28.4H84.06a16.32,16.32,0,0,1-14.6,12.169,10.568,10.568,0,0,1-8.945,5H53.9a2.02,2.02,0,0,0-1.726,1.142,8.271,8.271,0,0,1-14.509,0,2.022,2.022,0,0,0-1.728-1.144H29.307a10.565,10.565,0,0,1-8.921-4.956A16.318,16.318,0,0,1,4.532,52.776V43.244A15.211,15.211,0,0,1,16.327,28.374l.245-.051a17.248,17.248,0,0,1,15.837-10.7H57.417a17.07,17.07,0,0,1,15.913,10.9A15.2,15.2,0,0,1,84.4,40.884H86.91V27.106A4.8,4.8,0,0,1,84.455,23.3l-.85-14.742A4.529,4.529,0,0,1,84.88,5.172a5.946,5.946,0,0,1,4.334-1.78h8.492a5.95,5.95,0,0,1,4.332,1.779,4.536,4.536,0,0,1,1.277,3.389l-.85,14.742a4.8,4.8,0,0,1-2.454,3.806v13.77h2.338a5.055,5.055,0,0,1,5.042,5.042ZM87.35,8.343l.85,14.742c.03.537.807,1.135,1.872,1.135h6.792c1.063,0,1.84-.6,1.872-1.135l.842-14.742c.051-.859-1.223-1.208-1.872-1.208H89.22a2.434,2.434,0,0,0-1.642.577.833.833,0,0,0-.228.631Zm3.31,32.533h5.617V27.958H90.66ZM21.333,27.357a83.544,83.544,0,0,1,9.6-1.518,24.808,24.808,0,0,1,6.938,1.311,24.756,24.756,0,0,0,6.687,1.286,24.756,24.756,0,0,0,6.689-1.286,24.808,24.808,0,0,1,6.938-1.311A92.705,92.705,0,0,1,68.6,27.524a13.263,13.263,0,0,0-11.184-6.148H32.4a13.416,13.416,0,0,0-11.065,5.982ZM60.516,70.281a6.772,6.772,0,0,0,3.814-1.194H61c-7.423,0-13.283-6.858-16.136-11a.341.341,0,0,0-.62,0c-2.906,4.212-9,11.272-16.589,10.99H25.482A6.77,6.77,0,0,0,29.3,70.273h6.626a5.7,5.7,0,0,1,5.008,3.082,4.527,4.527,0,0,0,7.949,0A5.778,5.778,0,0,1,53.9,70.281ZM80.844,43.244a11.484,11.484,0,0,0-8.9-11.233c-4.452-.936-12.169-2.434-13.762-2.434a21.717,21.717,0,0,0-5.892,1.164,27.613,27.613,0,0,1-7.719,1.434h-.034a27.6,27.6,0,0,1-7.713-1.434,21.732,21.732,0,0,0-5.894-1.157c-1.588,0-9.31,1.5-13.805,2.445A11.473,11.473,0,0,0,8.267,43.246v9.531A12.579,12.579,0,0,0,20.831,65.344h6.886c5.925.212,10.975-5.789,13.446-9.372a4.119,4.119,0,0,1,6.787,0c2.469,3.581,7.466,9.522,13.384,9.374h6.944A12.579,12.579,0,0,0,80.842,52.779ZM46.931,95.619l8.382-4.063a30.5,30.5,0,0,1-2.569-2.776,7.573,7.573,0,0,1-5.721,2.6c-.094,0-.187-.024-.283-.026a32.95,32.95,0,0,1,.191,4.263ZM71.73,94,66.4,90.341l-23.53,11.405c-1.724.835-2.7,3.666-.562,4.667a5.289,5.289,0,0,0,3.971-.079Zm23.29-28.36-5.8.017a36.927,36.927,0,0,1-18.948,22.8c1.651,1.135,3.428,2.357,5.188,3.568A42.656,42.656,0,0,0,95.018,65.645Zm1.209-8.8H90.613a36.182,36.182,0,0,1-.535,5.064l5.706-.017a41.727,41.727,0,0,0,.446-5.042Zm7.418-10.932a1.3,1.3,0,0,0-1.3-1.3H84.588s-.015,8.374-.017,8.485h17.786a1.3,1.3,0,0,0,1.3-1.3ZM74.512,41.08a1.895,1.895,0,1,0-1.893-1.895,1.895,1.895,0,0,0,1.893,1.895Z" transform="translate(-4.532 -3.391)" fill="#7d8c48"/>
</svg>
