<svg xmlns="http://www.w3.org/2000/svg" width="83.194" height="98.102" viewBox="0 0 83.194 98.102">
  <path id="puerta-inteligente" d="M83.833,54.164a5.617,5.617,0,0,0,5.532-4.722L92.9,27.6a5.617,5.617,0,0,0-4.647-6.45L64.443,17.31V15.161A9.372,9.372,0,0,0,55.082,5.8H19.16A9.372,9.372,0,0,0,9.8,15.161a1.872,1.872,0,0,0,3.744,0A5.617,5.617,0,0,1,19.16,9.544H55.082A5.617,5.617,0,0,1,60.7,15.161v1.55l-9.634-1.558a5.617,5.617,0,0,0-6.44,4.649L41.087,41.637a5.617,5.617,0,0,0,4.647,6.442L60.693,50.5v9.827h-12.6a14.6,14.6,0,1,0,0,19.224H60.7V94.541a5.617,5.617,0,0,1-5.617,5.617H19.16a5.617,5.617,0,0,1-5.617-5.617V28.6a1.872,1.872,0,0,0-3.744,0v65.94A9.372,9.372,0,0,0,19.16,103.9H55.082a9.372,9.372,0,0,0,9.361-9.361V79.549h17.5a9.612,9.612,0,1,0,0-19.224h-17.5V51.107s19.089,3.057,19.39,3.057ZM37.12,80.79a10.859,10.859,0,1,1,5.006-20.465H38.036a9.612,9.612,0,0,0,0,19.224H42.13a10.821,10.821,0,0,1-5.01,1.241ZM87.807,69.932A5.873,5.873,0,0,1,81.94,75.8h-43.9a5.867,5.867,0,1,1,0-11.735h43.9a5.875,5.875,0,0,1,5.867,5.873ZM44.789,42.223,48.319,20.4a1.9,1.9,0,0,1,2.146-1.55L87.65,24.864A1.887,1.887,0,0,1,89.2,27.012L85.669,48.845a1.9,1.9,0,0,1-2.146,1.55L46.329,44.382a1.872,1.872,0,0,1-1.541-2.147ZM35.145,17.235a1.872,1.872,0,0,1-.227,2.638A14.478,14.478,0,0,0,31.9,38.492a1.872,1.872,0,0,1-.62,2.574,1.893,1.893,0,0,1-2.574-.62,18.222,18.222,0,0,1,3.8-23.44A1.872,1.872,0,0,1,35.145,17.235Zm2.121,12.577a6.993,6.993,0,0,0,.706,4.383,1.872,1.872,0,0,1-.8,2.526,1.9,1.9,0,0,1-2.526-.8,10.8,10.8,0,0,1,2.074-12.75,1.872,1.872,0,1,1,2.6,2.692,7,7,0,0,0-2.061,3.943ZM52.581,96.925a4.91,4.91,0,1,0,0-9.82H21.661a4.91,4.91,0,0,0,0,9.82ZM20.493,92.014a1.166,1.166,0,0,1,1.164-1.165H52.581a1.165,1.165,0,0,1,0,2.331H21.661a1.166,1.166,0,0,1-1.168-1.166ZM85.5,29.577l-2.7,16.672a1.873,1.873,0,0,1-3.7-.6l2.7-16.672a1.873,1.873,0,1,1,3.7.6Zm-7.333,2.409L76.61,41.65a1.873,1.873,0,1,1-3.7-.6l1.561-9.664a1.873,1.873,0,0,1,3.7.6ZM37.951,68.065h5.783a1.872,1.872,0,0,1,0,3.744H37.951a1.872,1.872,0,0,1,0-3.744ZM9.775,22a1.895,1.895,0,1,1,1.895,1.895A1.895,1.895,0,0,1,9.775,22Z" transform="translate(-9.775 -5.8)" fill="#7d8c48"/>
</svg>
