<svg xmlns="http://www.w3.org/2000/svg" width="112.331" height="94.614" viewBox="0 0 112.331 94.614">
  <path id="puesta-de-sol" d="M27.224,57.49a31.329,31.329,0,0,1,61.883,0,1.872,1.872,0,0,1-1.556,2.144,1.9,1.9,0,0,1-2.144-1.554,27.585,27.585,0,0,0-54.48,0,1.873,1.873,0,1,1-3.7-.588Zm78.463,16.582c-1.009.343-1.883.728-2.73,1.1a19.639,19.639,0,0,1-16.593,0,21.3,21.3,0,0,0-9.808-2.157,21.279,21.279,0,0,0-9.8,2.157,17.61,17.61,0,0,1-8.29,1.838,17.6,17.6,0,0,1-8.294-1.838,21.287,21.287,0,0,0-9.806-2.157,21.279,21.279,0,0,0-9.8,2.157,17.582,17.582,0,0,1-8.29,1.838,17.6,17.6,0,0,1-8.288-1.837,27.3,27.3,0,0,0-3.4-1.311,1.872,1.872,0,1,0-1.069,3.578,24.461,24.461,0,0,1,2.96,1.153,21.264,21.264,0,0,0,9.8,2.157,21.279,21.279,0,0,0,9.8-2.157,17.582,17.582,0,0,1,8.29-1.838,17.627,17.627,0,0,1,8.294,1.838,21.285,21.285,0,0,0,9.8,2.157A21.281,21.281,0,0,0,68.275,78.6a17.581,17.581,0,0,1,8.29-1.838,17.636,17.636,0,0,1,8.3,1.838,23.384,23.384,0,0,0,19.617,0c.773-.343,1.545-.683,2.417-.979a1.873,1.873,0,1,0-1.2-3.548ZM58.134,17.157a1.872,1.872,0,0,0,1.872-1.872V8.6a1.872,1.872,0,1,0-3.744,0v6.682a1.872,1.872,0,0,0,1.874,1.872Zm0,8.973a1.872,1.872,0,0,0,1.872-1.872V21.291a1.872,1.872,0,1,0-3.744,0v2.967a1.872,1.872,0,0,0,1.874,1.872Zm-16.38,1.7a1.872,1.872,0,1,0,3.471-1.4l-2.932-7.258a1.872,1.872,0,1,0-3.471,1.4ZM14.235,46.807l7.206,3.059A1.873,1.873,0,1,0,22.9,46.417L15.7,43.358a1.873,1.873,0,1,0-1.462,3.449ZM92.7,49.359a1.872,1.872,0,0,0,2.434,1.033l7.257-2.932a1.872,1.872,0,1,0-1.4-3.471l-7.249,2.936A1.872,1.872,0,0,0,92.7,49.359ZM72.69,29.068a1.872,1.872,0,0,0,2.454-.992L78.2,20.87a1.872,1.872,0,1,0-3.447-1.462l-3.057,7.206A1.872,1.872,0,0,0,72.69,29.068ZM19.475,27.374a1.872,1.872,0,1,0,2.647-2.647l-1.414-1.413a1.872,1.872,0,0,0-2.647,2.644Zm9.657,9.657a1.873,1.873,0,1,0,2.647-2.649l-5.51-5.51a1.872,1.872,0,1,0-2.647,2.647Zm66.3-9.052a1.872,1.872,0,0,0,1.324-.547l1.442-1.44a1.875,1.875,0,1,0-2.647-2.657l-1.442,1.44a1.872,1.872,0,0,0,1.324,3.2Zm-9.63,9.63a1.872,1.872,0,0,0,1.323-.548l5.343-5.343a1.872,1.872,0,1,0-2.647-2.647l-5.343,5.343a1.872,1.872,0,0,0,1.324,3.2Zm26.656,24.582a21.3,21.3,0,0,0-9.808,2.157,19.635,19.635,0,0,1-16.6,0,21.3,21.3,0,0,0-9.808-2.157,21.279,21.279,0,0,0-9.8,2.157,17.61,17.61,0,0,1-8.29,1.838,17.6,17.6,0,0,1-8.294-1.838,21.287,21.287,0,0,0-9.806-2.157,21.279,21.279,0,0,0-9.8,2.157,17.581,17.581,0,0,1-8.29,1.838,17.572,17.572,0,0,1-8.286-1.838,21.27,21.27,0,0,0-9.8-2.157,1.872,1.872,0,0,0,0,3.744,17.574,17.574,0,0,1,8.288,1.838,21.266,21.266,0,0,0,9.8,2.157,21.279,21.279,0,0,0,9.806-2.157,17.581,17.581,0,0,1,8.29-1.838,17.627,17.627,0,0,1,8.294,1.838,21.285,21.285,0,0,0,9.8,2.157,21.281,21.281,0,0,0,9.8-2.157,17.581,17.581,0,0,1,8.29-1.838,17.636,17.636,0,0,1,8.3,1.838,23.38,23.38,0,0,0,19.619,0,17.632,17.632,0,0,1,8.292-1.838,1.872,1.872,0,0,0,0-3.744ZM92.3,86.857A17.462,17.462,0,0,1,86.085,85.1a21.3,21.3,0,0,0-9.808-2.157,22.153,22.153,0,0,0-6.1.749A1.872,1.872,0,1,0,71.188,87.3a18.559,18.559,0,0,1,5.089-.614,17.636,17.636,0,0,1,8.3,1.838,21.129,21.129,0,0,0,7.4,2.059h.163A1.874,1.874,0,1,0,92.3,86.84ZM64.905,89.743a1.872,1.872,0,0,0-1.123-3.568,18.024,18.024,0,0,1-5.59.766A17.627,17.627,0,0,1,49.9,85.1a21.285,21.285,0,0,0-9.8-2.157,25.508,25.508,0,0,0-3.645.24,1.873,1.873,0,0,0,.534,3.707,21.53,21.53,0,0,1,3.112-.2,17.6,17.6,0,0,1,8.294,1.838,21.287,21.287,0,0,0,9.806,2.157A21.67,21.67,0,0,0,64.905,89.743Zm-32.157-3.69a1.872,1.872,0,0,0-2.469-.955,17.464,17.464,0,0,1-6.246,1.756,1.872,1.872,0,0,0-1.706,2.024,1.9,1.9,0,0,0,2.026,1.706,21.12,21.12,0,0,0,7.44-2.059,1.872,1.872,0,0,0,.955-2.471ZM86.92,96.116a39.5,39.5,0,0,0-3.945-1.591A1.872,1.872,0,0,0,81.852,98.1,21.792,21.792,0,0,1,84,98.938a5.991,5.991,0,0,0,2.187.771,1.872,1.872,0,0,0,.749-3.593ZM76.3,93.6a21.281,21.281,0,0,0-9.8,2.157A17.582,17.582,0,0,1,58.2,97.6a18.387,18.387,0,0,1-5.289-.67,1.872,1.872,0,1,0-1.058,3.591,21.927,21.927,0,0,0,6.349.824,21.279,21.279,0,0,0,9.8-2.157,17.61,17.61,0,0,1,8.29-1.838,1.872,1.872,0,1,0,0-3.744Zm-29.522.923A21.751,21.751,0,0,0,40.1,93.6a21.264,21.264,0,0,0-9.8,2.157l-.889.388a1.872,1.872,0,0,0,.736,3.595,4.383,4.383,0,0,0,1.666-.562A17.6,17.6,0,0,1,40.1,97.341a18.132,18.132,0,0,1,5.547.749,1.872,1.872,0,0,0,1.123-3.572Z" transform="translate(-2 -6.731)" fill="#7d8c48"/>
</svg>
