<svg id="folleto" xmlns="http://www.w3.org/2000/svg" width="85.333" height="85.333" viewBox="0 0 85.333 85.333">
  <g id="Grupo_1190590" data-name="Grupo 1190590">
    <g id="Grupo_1190589" data-name="Grupo 1190589">
      <path id="Trazado_1091974" data-name="Trazado 1091974" d="M83.911,0h-51.2a1.422,1.422,0,0,0-1.422,1.422v12.8H1.422A1.422,1.422,0,0,0,0,15.644V83.911a1.422,1.422,0,0,0,1.422,1.422h51.2a1.422,1.422,0,0,0,1.422-1.422v-12.8H83.911a1.422,1.422,0,0,0,1.422-1.422V1.422A1.422,1.422,0,0,0,83.911,0ZM34.133,4.186l14.05,10.037H34.133ZM51.2,82.489H2.844V17.067H51.2ZM82.489,68.267H54.045V15.644a1.4,1.4,0,0,0-.61-1.138l.014-.021L37.15,2.844H82.489Z" fill="#fec190"/>
    </g>
  </g>
  <g id="Grupo_1190592" data-name="Grupo 1190592" transform="translate(58.311 7.111)">
    <g id="Grupo_1190591" data-name="Grupo 1190591">
      <path id="Trazado_1091975" data-name="Trazado 1091975" d="M346.489,40H329.422A1.422,1.422,0,0,0,328,41.422v8.533a1.422,1.422,0,0,0,1.422,1.422h17.067a1.422,1.422,0,0,0,1.422-1.422V41.422A1.422,1.422,0,0,0,346.489,40Zm-1.422,8.533H330.844V42.844h14.222Z" transform="translate(-328 -40)" fill="#fec190"/>
    </g>
  </g>
  <g id="Grupo_1190594" data-name="Grupo 1190594" transform="translate(58.311 21.333)">
    <g id="Grupo_1190593" data-name="Grupo 1190593">
      <rect id="Rectángulo_459623" data-name="Rectángulo 459623" width="3" height="3" transform="translate(-0.311 -0.333)" fill="#fec190"/>
    </g>
  </g>
  <g id="Grupo_1190596" data-name="Grupo 1190596" transform="translate(64 21.333)">
    <g id="Grupo_1190595" data-name="Grupo 1190595">
      <rect id="Rectángulo_459624" data-name="Rectángulo 459624" width="14" height="3" transform="translate(0 -0.333)" fill="#fec190"/>
    </g>
  </g>
  <g id="Grupo_1190598" data-name="Grupo 1190598" transform="translate(58.311 27.022)">
    <g id="Grupo_1190597" data-name="Grupo 1190597">
      <rect id="Rectángulo_459625" data-name="Rectángulo 459625" width="20" height="3" transform="translate(-0.311 -0.022)" fill="#fec190"/>
    </g>
  </g>
  <g id="Grupo_1190600" data-name="Grupo 1190600" transform="translate(58.311 32.711)">
    <g id="Grupo_1190599" data-name="Grupo 1190599">
      <rect id="Rectángulo_459626" data-name="Rectángulo 459626" width="20" height="3" transform="translate(-0.311 0.289)" fill="#fec190"/>
    </g>
  </g>
  <g id="Grupo_1190602" data-name="Grupo 1190602" transform="translate(58.311 41.245)">
    <g id="Grupo_1190601" data-name="Grupo 1190601">
      <path id="Trazado_1091976" data-name="Trazado 1091976" d="M346.489,232H329.422A1.422,1.422,0,0,0,328,233.422v8.533a1.422,1.422,0,0,0,1.422,1.422h17.067a1.422,1.422,0,0,0,1.422-1.422v-8.533A1.422,1.422,0,0,0,346.489,232Zm-1.422,8.533H330.844v-5.689h14.222Z" transform="translate(-328 -232)" fill="#fec190"/>
    </g>
  </g>
  <g id="Grupo_1190604" data-name="Grupo 1190604" transform="translate(58.311 55.467)">
    <g id="Grupo_1190603" data-name="Grupo 1190603">
      <rect id="Rectángulo_459627" data-name="Rectángulo 459627" width="3" height="3" transform="translate(-0.311 -0.467)" fill="#fec190"/>
    </g>
  </g>
  <g id="Grupo_1190606" data-name="Grupo 1190606" transform="translate(64 55.467)">
    <g id="Grupo_1190605" data-name="Grupo 1190605">
      <rect id="Rectángulo_459628" data-name="Rectángulo 459628" width="14" height="3" transform="translate(0 -0.467)" fill="#fec190"/>
    </g>
  </g>
  <g id="Grupo_1190608" data-name="Grupo 1190608" transform="translate(58.311 61.156)">
    <g id="Grupo_1190607" data-name="Grupo 1190607">
      <rect id="Rectángulo_459629" data-name="Rectángulo 459629" width="20" height="3" transform="translate(-0.311 -0.156)" fill="#fec190"/>
    </g>
  </g>
  <g id="Grupo_1190610" data-name="Grupo 1190610" transform="translate(7.111 64)">
    <g id="Grupo_1190609" data-name="Grupo 1190609">
      <path id="Trazado_1091977" data-name="Trazado 1091977" d="M52.8,360H41.422A1.422,1.422,0,0,0,40,361.422V372.8a1.422,1.422,0,0,0,1.422,1.422H52.8a1.422,1.422,0,0,0,1.422-1.422V361.422A1.422,1.422,0,0,0,52.8,360Zm-1.422,11.378H42.844v-8.533h8.533Z" transform="translate(-40 -360)" fill="#fec190"/>
    </g>
  </g>
  <g id="Grupo_1190612" data-name="Grupo 1190612" transform="translate(24.178 64)">
    <g id="Grupo_1190611" data-name="Grupo 1190611">
      <rect id="Rectángulo_459630" data-name="Rectángulo 459630" width="3" height="3" transform="translate(-0.178)" fill="#fec190"/>
    </g>
  </g>
  <g id="Grupo_1190614" data-name="Grupo 1190614" transform="translate(29.867 64)">
    <g id="Grupo_1190613" data-name="Grupo 1190613">
      <rect id="Rectángulo_459631" data-name="Rectángulo 459631" width="17" height="3" transform="translate(0.133)" fill="#fec190"/>
    </g>
  </g>
  <g id="Grupo_1190616" data-name="Grupo 1190616" transform="translate(24.178 69.689)">
    <g id="Grupo_1190615" data-name="Grupo 1190615">
      <rect id="Rectángulo_459632" data-name="Rectángulo 459632" width="23" height="3" transform="translate(-0.178 0.311)" fill="#fec190"/>
    </g>
  </g>
  <g id="Grupo_1190618" data-name="Grupo 1190618" transform="translate(24.178 75.378)">
    <g id="Grupo_1190617" data-name="Grupo 1190617">
      <rect id="Rectángulo_459633" data-name="Rectángulo 459633" width="23" height="3" transform="translate(-0.178 -0.378)" fill="#fec190"/>
    </g>
  </g>
  <g id="Grupo_1190620" data-name="Grupo 1190620" transform="translate(8.533 22.756)">
    <g id="Grupo_1190619" data-name="Grupo 1190619">
      <path id="Trazado_1091978" data-name="Trazado 1091978" d="M83.556,128H49.422A1.422,1.422,0,0,0,48,129.422v28.445a1.422,1.422,0,0,0,1.422,1.422H83.556a1.422,1.422,0,0,0,1.422-1.422V129.422A1.422,1.422,0,0,0,83.556,128Zm-1.422,28.444H50.844V151.41l8.458-7.253L69.75,154.6l2.011-2.011-1.839-1.836,5.1-5.1,7.111,7.111Zm0-7.7-6.106-6.106a1.422,1.422,0,0,0-2.011,0l-6.106,6.106-7.528-7.528a1.422,1.422,0,0,0-1.93-.074l-7.609,6.521V130.844H82.133Z" transform="translate(-48 -128)" fill="#fec190"/>
    </g>
  </g>
  <g id="Grupo_1190622" data-name="Grupo 1190622" transform="translate(24.178 28.444)">
    <g id="Grupo_1190621" data-name="Grupo 1190621">
      <path id="Trazado_1091979" data-name="Trazado 1091979" d="M140.267,160a4.267,4.267,0,1,0,4.267,4.267A4.267,4.267,0,0,0,140.267,160Zm0,5.689a1.422,1.422,0,1,1,1.422-1.422A1.422,1.422,0,0,1,140.267,165.689Z" transform="translate(-136 -160)" fill="#fec190"/>
    </g>
  </g>
  <g id="Grupo_1190624" data-name="Grupo 1190624" transform="translate(15.644 28.444)">
    <g id="Grupo_1190623" data-name="Grupo 1190623">
      <rect id="Rectángulo_459634" data-name="Rectángulo 459634" width="2" height="3" transform="translate(0.355 -0.444)" fill="#fec190"/>
    </g>
  </g>
  <g id="Grupo_1190626" data-name="Grupo 1190626" transform="translate(36.978 31.289)">
    <g id="Grupo_1190625" data-name="Grupo 1190625">
      <rect id="Rectángulo_459635" data-name="Rectángulo 459635" width="3" height="3" transform="translate(0.022 -0.289)" fill="#fec190"/>
    </g>
  </g>
</svg>
