<svg xmlns="http://www.w3.org/2000/svg" width="124" height="124" viewBox="0 0 124 124">
  <g id="Grupo_1190975" data-name="Grupo 1190975" transform="translate(6917.348 3738.548)">
    <g id="Grupo_1190828" data-name="Grupo 1190828" transform="translate(-8019.57 -6925)">
      <circle id="Elipse_11474" data-name="Elipse 11474" cx="62" cy="62" r="62" transform="translate(1102.223 3186.452)" fill="#fff"/>
    </g>
    <g id="viajero" transform="translate(-6891.246 -3722)">
      <path id="Trazado_1092651" data-name="Trazado 1092651" d="M101.926,71.607c-.539-6.673-5.793-13.519-11.893-15.491L81.808,54a1.39,1.39,0,0,1-.944-1.106,17.5,17.5,0,0,0,.176-10.625L81.02,42.2a16.617,16.617,0,0,0,3.436-10.135V28.4a1.6,1.6,0,0,0,1.14-1.532V25.783A17.947,17.947,0,0,0,75.238,9.56a1.6,1.6,0,0,0-1.349,2.905A14.741,14.741,0,0,1,82.34,24.54a13.087,13.087,0,0,1-6.2-5.705,1.615,1.615,0,0,0-2.764-.173c-.032.047-2.911,4.252-7.448,5.106V20.475a1.608,1.608,0,0,0-3.036-.713c-1.28,2.817-6.415,5.421-9.841,5.432a14.739,14.739,0,0,1,8.477-12.721,1.6,1.6,0,0,0-1.352-2.9A17.95,17.95,0,0,0,49.841,25.783v1.081a1.6,1.6,0,0,0,1.21,1.551v3.651A16.619,16.619,0,0,0,54.486,42.2l-.019.063a17.507,17.507,0,0,0,.176,10.625A1.39,1.39,0,0,1,53.7,54l-8.217,2.118a7.349,7.349,0,0,0-1.275.452A16.189,16.189,0,0,0,37,62.786a19.786,19.786,0,0,0-3.417,8.807L31.865,88.136A1.611,1.611,0,0,0,33.458,89.9h68.588a1.611,1.611,0,0,0,1.593-1.767ZM80.9,57.068l.069.019,8.274,2.132a4.2,4.2,0,0,1,3.167,3.8,6.777,6.777,0,0,1-.91,3.714H74.243a1.6,1.6,0,0,0,0,3.2H91.5a6.691,6.691,0,0,1,.066,6.662H74.212a1.6,1.6,0,0,0,0,3.2H91.429a6.7,6.7,0,0,1,.072,6.9H69.355V58.433a18.99,18.99,0,0,0,9.122-3.119A4.588,4.588,0,0,0,80.9,57.068ZM69.355,48.694a16.728,16.728,0,0,0,9.029-3.741,14.3,14.3,0,0,1-.525,6.817,15.147,15.147,0,0,1-8.5,3.448ZM57.647,51.77a14.3,14.3,0,0,1-.525-6.818,16.727,16.727,0,0,0,9.03,3.741v6.525a15.148,15.148,0,0,1-8.5-3.448ZM54.254,28.292a16.261,16.261,0,0,0,8.475-3.508v.735h0a1.6,1.6,0,0,0,1.6,1.6c4.788,0,8.313-2.843,10.188-4.823a16.783,16.783,0,0,0,6.734,5.273v4.494a13.5,13.5,0,1,1-27,0Zm.286,28.795a4.579,4.579,0,0,0,2.49-1.773,18.991,18.991,0,0,0,9.122,3.119V86.7H44.008a6.726,6.726,0,0,1,.07-6.9h17.1a1.6,1.6,0,0,0,0-3.2H43.94a6.738,6.738,0,0,1,.066-6.662H61.211a1.6,1.6,0,0,0,0-3.2h-17.2a6.775,6.775,0,0,1-.91-3.713h0a4.162,4.162,0,0,1,2.228-3.441,4.239,4.239,0,0,1,.946-.364ZM36.769,71.908a17.01,17.01,0,0,1,3.154-7.738,10.069,10.069,0,0,0,1.308,4.165,9.877,9.877,0,0,0,0,9.984,10.193,10.193,0,0,0-.582,1.17,9.865,9.865,0,0,0-.168,7.212H35.234ZM95.03,86.7a9.926,9.926,0,0,0-.752-8.383,9.877,9.877,0,0,0,0-9.984,10.071,10.071,0,0,0,1.309-4.172,14.551,14.551,0,0,1,3.154,7.761L100.27,86.7Z" transform="translate(-31.854 -7.904)" fill="#20849e"/>
      <path id="Trazado_1092652" data-name="Trazado 1092652" d="M238.09,132.307h2.521a1.6,1.6,0,1,0,0-3.2h-1.352l1.052-3.1a1.6,1.6,0,1,0-3.034-1.028l-1.427,4.211a2.382,2.382,0,0,0,2.24,3.123Z" transform="translate(-203.069 -104.044)" fill="#20849e"/>
      <path id="Trazado_1092653" data-name="Trazado 1092653" d="M246.811,3.081A1.6,1.6,0,0,0,248.035.125a1.6,1.6,0,0,0-1.223,2.956Z" transform="translate(-211.558 0)" fill="#20849e"/>
    </g>
  </g>
</svg>
