<svg xmlns="http://www.w3.org/2000/svg" width="124" height="124" viewBox="0 0 124 124">
  <g id="Grupo_1190974" data-name="Grupo 1190974" transform="translate(7261.348 3738.548)">
    <g id="Grupo_1190827" data-name="Grupo 1190827" transform="translate(-8363.57 -6925)">
      <circle id="Elipse_11474" data-name="Elipse 11474" cx="62" cy="62" r="62" transform="translate(1102.223 3186.452)" fill="#fff"/>
    </g>
    <g id="turista_2_" data-name="turista (2)" transform="translate(-7234.201 -3723)">
      <path id="Trazado_1092648" data-name="Trazado 1092648" d="M237.4,166.65h2.5a1.6,1.6,0,0,0,0-3.2h-1.318l1.035-3.055a1.6,1.6,0,1,0-3.034-1.028l-1.413,4.171a2.357,2.357,0,0,0,2.233,3.114Z" transform="translate(-203.544 -132.929)" fill="#20849e"/>
      <path id="Trazado_1092649" data-name="Trazado 1092649" d="M106.483,82a1.611,1.611,0,0,0,1.595-1.747L107.019,68.67a17.541,17.541,0,0,0-1.365-5.316,1.6,1.6,0,1,0-2.94,1.271,14.337,14.337,0,0,1,1.116,4.342l.9,9.832H98.66V68.212a1.6,1.6,0,0,0-3.2,0v3.564H50.872V68.212a1.6,1.6,0,0,0-3.2,0V78.8H41.714l.764-9.84A14.457,14.457,0,0,1,52.771,56.538l.023-.007,10.981-3.36a12.2,12.2,0,0,0,9.7,4.588,11.813,11.813,0,0,0,9.248-4.577l10.7,3.309a1.6,1.6,0,0,0,.946-3.06L83.521,50.074l-.973-6.939a16.636,16.636,0,0,0,6.31-8.371,4.361,4.361,0,0,0,2.043.506h4.331a4.395,4.395,0,0,0,4.39-4.39V22.275a4.395,4.395,0,0,0-4.2-4.385,23.336,23.336,0,0,0-7.462-12.36A22.665,22.665,0,0,0,73.162,0C62.746-.151,53.1,7.741,50.9,17.889a4.394,4.394,0,0,0-4.216,4.384v8.605a4.4,4.4,0,0,0,4.39,4.391h4.331a4.36,4.36,0,0,0,2.043-.506,16.637,16.637,0,0,0,6.469,8.481l-.958,6.826L51.868,53.465A17.685,17.685,0,0,0,39.288,68.67c0,.009,0,.018,0,.027l-.9,11.579A1.611,1.611,0,0,0,39.984,82ZM73.162,9.568A13.51,13.51,0,0,1,86.452,21.7,11.92,11.92,0,0,1,82,17.464a1.61,1.61,0,0,0-2.972.828v3.218a11.6,11.6,0,0,1-8.86-5.129,1.6,1.6,0,0,0-3,.775v2.926a10.264,10.264,0,0,1-5.133-4.467A13.373,13.373,0,0,1,73.162,9.568ZM96.418,22.275V30.88a1.188,1.188,0,0,1-1.187,1.187H90.9a1.188,1.188,0,0,1-1.187-1.187V22.275A1.2,1.2,0,0,1,90.9,21.088h4.331A1.188,1.188,0,0,1,96.418,22.275ZM60.457,7.954a19.372,19.372,0,0,1,25.408,0,20.124,20.124,0,0,1,6.252,9.931H90.9a4.4,4.4,0,0,0-1.841.406,16.564,16.564,0,0,0-31.806,0,4.449,4.449,0,0,0-1.846-.4H54.2a20.124,20.124,0,0,1,6.252-9.931ZM56.594,30.88a1.188,1.188,0,0,1-1.187,1.187H51.076a1.189,1.189,0,0,1-1.187-1.188V22.273a1.187,1.187,0,0,1,1.187-1.186h4.331a1.191,1.191,0,0,1,1.187,1.187Zm3.2-1.374V22.918a12.506,12.506,0,0,1,.639-3.986,13.269,13.269,0,0,0,8.038,4.841,1.612,1.612,0,0,0,1.9-1.574v-.873a15.832,15.832,0,0,0,10.261,3.469,1.6,1.6,0,0,0,1.6-1.6V22.66a10.25,10.25,0,0,0,4.276,2.434v4.412a13.357,13.357,0,1,1-26.714,0Zm8.085,15.7a16.619,16.619,0,0,0,11.663-.419l.862,6.147a8.526,8.526,0,0,1-6.965,3.624,9.011,9.011,0,0,1-7.364-3.647l.85-6.056q.471.191.954.352ZM50.872,74.978H95.457V78.8H50.872Z" transform="translate(-38.38 -0.002)" fill="#20849e"/>
      <path id="Trazado_1092650" data-name="Trazado 1092650" d="M414.207,354.433a1.533,1.533,0,0,0-.243.2,1.6,1.6,0,1,0,.243-.2Z" transform="translate(-353.425 -297.445)" fill="#20849e"/>
    </g>
  </g>
</svg>
