<svg xmlns="http://www.w3.org/2000/svg" width="124" height="124" viewBox="0 0 124 124">
  <g id="Grupo_1190971" data-name="Grupo 1190971" transform="translate(-737 -7961.452)">
    <g id="Grupo_1190813" data-name="Grupo 1190813" transform="translate(-365.223 4775)">
      <circle id="Elipse_11474" data-name="Elipse 11474" cx="62" cy="62" r="62" transform="translate(1102.223 3186.452)" fill="#fff"/>
    </g>
    <g id="mujer" transform="translate(764.451 7982.453)">
      <path id="Trazado_1092642" data-name="Trazado 1092642" d="M34.438,81.466A1.6,1.6,0,0,0,35.631,82h67.892a1.612,1.612,0,0,0,1.592-1.775l-1.7-15.564a17.528,17.528,0,0,0-3.523-8.985,17.729,17.729,0,0,0-9.02-6.2l-10.3-3.186a.965.965,0,0,1-.675-.817l-.135-1.221h2.918c6.775.211,11.408-7.943,7.715-13.626a30.975,30.975,0,0,1-4.171-12.547,1.6,1.6,0,0,0,1.11-1.524A16.568,16.568,0,0,0,70.787,0H68.455A16.568,16.568,0,0,0,51.906,16.549a1.6,1.6,0,0,0,1.02,1.491,31,31,0,0,1-4.171,12.58c-3.694,5.687.941,13.836,7.716,13.626h3.091l-.134,1.215a.964.964,0,0,1-.676.817l-10.446,3.2a17.4,17.4,0,0,0-2.052.742,1.6,1.6,0,0,0,1.274,2.939,14.153,14.153,0,0,1,1.682-.608l.023-.007,10.457-3.2a4.164,4.164,0,0,0,2.923-3.529l.808-7.318A16.583,16.583,0,0,0,75.9,38.428l.817,7.391a4.167,4.167,0,0,0,2.912,3.525L89.94,52.534l.024.007A14.5,14.5,0,0,1,97.35,57.62a14.323,14.323,0,0,1,2.879,7.353c0,.007,0,.015,0,.022l.415,3.811a9.881,9.881,0,0,1-6.216-1.512V63.529a1.6,1.6,0,1,0-3.2,0v3.018H84.617c-5,0-8.9.951-12.042,3A9.02,9.02,0,0,1,77.128,65a1.6,1.6,0,0,0-1.27-2.941,12.3,12.3,0,0,0-6.269,6.3,12.3,12.3,0,0,0-6.269-6.3A1.6,1.6,0,1,0,62.05,65a9.071,9.071,0,0,1,4.622,4.7,18.349,18.349,0,0,0-10.707-3.152H47.924V63.529a1.6,1.6,0,1,0-3.2,0v3.765A9.882,9.882,0,0,1,38.5,68.807l.415-3.812,0-.023a14.136,14.136,0,0,1,.466-2.486A1.6,1.6,0,0,0,36.3,61.62a17.331,17.331,0,0,0-.57,3.039l-1.7,15.564a1.605,1.605,0,0,0,.4,1.243Zm39.714-45.8A13.348,13.348,0,0,1,56.229,23.131V18.152h2.929a13.2,13.2,0,0,0,10.427-5.057,13.222,13.222,0,0,0,10.427,5.057h2.912v4.979A13.442,13.442,0,0,1,74.153,35.669Zm12.954,3.323a5.79,5.79,0,0,1-4.425,2.052H79.41l-.471-4.265a16.671,16.671,0,0,0,6.5-8.909,32.169,32.169,0,0,0,2.225,4.411A5.762,5.762,0,0,1,87.106,38.992ZM68.455,3.2h2.332A13.365,13.365,0,0,1,84.038,14.948H80.011A10.352,10.352,0,0,1,70.92,9.367a1.6,1.6,0,0,0-1.344-.731h-.011a1.6,1.6,0,0,0-1.345.749,10.269,10.269,0,0,1-9.062,5.563H55.2A13.365,13.365,0,0,1,68.455,3.2ZM56.472,41.044c-4.357.138-7.351-5.109-4.978-8.763a32.176,32.176,0,0,0,2.225-4.411,16.663,16.663,0,0,0,6.656,9.018l-.459,4.157Zm44.522,30.941.742,6.81H95.568a11.231,11.231,0,0,0,.54-7.266A12.926,12.926,0,0,0,100.994,71.985ZM68.347,75.57A1.637,1.637,0,0,0,71,75.325c3.089-3.9,7.178-5.575,13.618-5.575h7.324a8.386,8.386,0,0,1,.033,9.044h-44.8a8.386,8.386,0,0,1,.033-9.044h8.755a15.3,15.3,0,0,1,12.381,5.82Zm-25.3-4.042a11.23,11.23,0,0,0,.54,7.266H37.416l.742-6.81A12.934,12.934,0,0,0,43.044,71.529Z" transform="translate(-34.029 0)" fill="#20849e"/>
      <path id="Trazado_1092643" data-name="Trazado 1092643" d="M241.7,127.411h-1.316l1.034-3.051a1.6,1.6,0,0,0-3.034-1.028L236.97,127.5a2.357,2.357,0,0,0,2.233,3.113h2.5a1.6,1.6,0,1,0,0-3.2Z" transform="translate(-204.365 -102.667)" fill="#20849e"/>
      <path id="Trazado_1092644" data-name="Trazado 1092644" d="M71.794,339.464a1.6,1.6,0,1,0-1.019,2.46A1.613,1.613,0,0,0,71.794,339.464Z" transform="translate(-63.279 -284.511)" fill="#20849e"/>
    </g>
  </g>
</svg>
