<svg xmlns="http://www.w3.org/2000/svg" width="124" height="124" viewBox="0 0 124 124">
  <g id="Grupo_1190972" data-name="Grupo 1190972" transform="translate(-393.348 -7961.452)">
    <g id="Grupo_1190808" data-name="Grupo 1190808" transform="translate(-708.875 4775)">
      <circle id="Elipse_11474" data-name="Elipse 11474" cx="62" cy="62" r="62" transform="translate(1102.223 3186.452)" fill="#fff"/>
    </g>
    <g id="hombre" transform="translate(422.044 7981.002)">
      <path id="Trazado_1092639" data-name="Trazado 1092639" d="M238.57,134.814h2.5a1.6,1.6,0,1,0,0-3.2H239.75l1.034-3.051a1.6,1.6,0,1,0-3.034-1.028l-1.412,4.168a2.357,2.357,0,0,0,2.233,3.113Z" transform="translate(-205.404 -106.193)" fill="#20849e"/>
      <path id="Trazado_1092640" data-name="Trazado 1092640" d="M45.548,63.856l-1.7,16.376A1.611,1.611,0,0,0,45.444,82h64.748a1.611,1.611,0,0,0,1.593-1.767l-1.7-16.361A17.846,17.846,0,0,0,100.6,49.925l4.509-5.524a1.61,1.61,0,0,0-.289-2.3c-1.5-1.239-6.7-5.06-15.633-7.048a16.789,16.789,0,0,0,5.147-12.107V20.137a14.213,14.213,0,0,0,.91-7.8,8.048,8.048,0,0,0-4.557-6.285l-.3-.606A9.72,9.72,0,0,0,81.623,0H72.89a13.847,13.847,0,0,0-5.537,1.362,8.766,8.766,0,0,1-8.845-1.1A1.6,1.6,0,0,0,56.025,1.6V7.348a16.262,16.262,0,0,0,5.213,11.931v3.852a16.436,16.436,0,0,0,4.891,11.746q.142.141.287.278-1.143.256-2.257.563a1.6,1.6,0,1,0,.852,3.088c1.12-.309,2.269-.578,3.435-.8l-.806,6.781a.789.789,0,0,1-.558.66l-.005,0-1.105.338A3.351,3.351,0,0,0,63.588,49V62.662L58.942,58.8l1.382-1.881a4.655,4.655,0,0,0-.088-5.61l-1.349-1.722-.04-.052-5.626-7.087a1.6,1.6,0,1,0-2.552,1.937L55.047,49.9a17.627,17.627,0,0,0-9.5,13.957ZM66.79,49.013a.164.164,0,0,1,.116-.158L68.03,48.5a3.99,3.99,0,0,0,2.79-3.341l.792-6.667a16.527,16.527,0,0,0,6.175,1.187,16.321,16.321,0,0,0,6.239-1.24l.79,6.717A3.987,3.987,0,0,0,87.607,48.5l1.121.343a.165.165,0,0,1,.117.158V78.795H66.79V49.013Zm37.17,7.806a14.365,14.365,0,0,1,2.94,7.367l1.515,14.609h-6.466V68.932a1.6,1.6,0,1,0-3.2,0v9.863h-6.7V66.828L99.9,60.3a1.6,1.6,0,0,0,.267-2.179l-2.275-3.1a1.442,1.442,0,0,1,.027-1.737l.629-.8A14.433,14.433,0,0,1,103.96,56.819Zm-7.165-7.294-.02.025L95.4,51.308a4.606,4.606,0,0,0-.726,1.33,4.657,4.657,0,0,0,.639,4.279L96.693,58.8l-4.645,3.864V49a3.35,3.35,0,0,0-2.383-3.221l-1.12-.343A.783.783,0,0,1,88,44.784L87.187,37.9a37.33,37.33,0,0,1,14.4,5.757ZM60.446,12.855a12.971,12.971,0,0,1-1.218-5.507v-3a11.741,11.741,0,0,0,9.429-.057A10.741,10.741,0,0,1,72.89,3.2h8.734a6.538,6.538,0,0,1,5.9,3.663l.554,1.118a1.6,1.6,0,0,0,.816.766,4.862,4.862,0,0,1,3.2,4.133,10.6,10.6,0,0,1-.083,3.975L89.66,14.521A7.708,7.708,0,0,0,80.284,13.3a4.766,4.766,0,0,1-5.276-.365,7.78,7.78,0,0,0-8.461.716L62.931,16.46a12.965,12.965,0,0,1-2.485-3.605Zm3.995,10.276V19.343l4.075-3.162a4.521,4.521,0,0,1,5.265-.243,7.768,7.768,0,0,0,8.145.115,4.514,4.514,0,0,1,5.463.728l3.745,3.724v2.438a13.6,13.6,0,0,1-6.407,11.55A13.312,13.312,0,0,1,64.441,23.131ZM57.078,52.47l.637.813a1.442,1.442,0,0,1,.027,1.737l-2.275,3.1a1.6,1.6,0,0,0,.267,2.18l7.853,6.531V78.795H56.975V68.932a1.6,1.6,0,0,0-3.2,0v9.863H47.22l1.516-14.623A14.417,14.417,0,0,1,57.078,52.47Z" transform="translate(-43.839 0)" fill="#20849e"/>
      <path id="Trazado_1092641" data-name="Trazado 1092641" d="M122.538,240.19a1.6,1.6,0,1,0,1.019-2.46A1.613,1.613,0,0,0,122.538,240.19Z" transform="translate(-109.709 -199.628)" fill="#20849e"/>
    </g>
  </g>
</svg>
