<svg xmlns="http://www.w3.org/2000/svg" width="79.652" height="72.987" viewBox="0 0 79.652 72.987">
  <g id="familia" transform="translate(0 -21.42)">
    <g id="Grupo_1190977" data-name="Grupo 1190977" transform="translate(17.33 46.749)">
      <g id="Grupo_1190976" data-name="Grupo 1190976" transform="translate(0 0)">
        <path id="Trazado_1092654" data-name="Trazado 1092654" d="M118.631,184.491a1.167,1.167,0,0,0-1.641.171,2.169,2.169,0,0,1-3.52,0,1.167,1.167,0,0,0-1.812,1.47,4.5,4.5,0,0,0,7.145,0A1.167,1.167,0,0,0,118.631,184.491Z" transform="translate(-111.397 -184.231)" fill="#20849e"/>
      </g>
    </g>
    <g id="Grupo_1190979" data-name="Grupo 1190979" transform="translate(14.664 40.083)">
      <g id="Grupo_1190978" data-name="Grupo 1190978">
        <path id="Trazado_1092655" data-name="Trazado 1092655" d="M95.426,141.386a1.167,1.167,0,0,0-1.167,1.167v1.333a1.167,1.167,0,1,0,2.334,0v-1.333A1.167,1.167,0,0,0,95.426,141.386Z" transform="translate(-94.259 -141.386)" fill="#20849e"/>
      </g>
    </g>
    <g id="Grupo_1190981" data-name="Grupo 1190981" transform="translate(25.329 40.083)">
      <g id="Grupo_1190980" data-name="Grupo 1190980">
        <path id="Trazado_1092656" data-name="Trazado 1092656" d="M163.978,141.386a1.167,1.167,0,0,0-1.167,1.167v1.333a1.167,1.167,0,1,0,2.334,0v-1.333A1.167,1.167,0,0,0,163.978,141.386Z" transform="translate(-162.811 -141.386)" fill="#20849e"/>
      </g>
    </g>
    <g id="Grupo_1190983" data-name="Grupo 1190983" transform="translate(55.99 53.414)">
      <g id="Grupo_1190982" data-name="Grupo 1190982" transform="translate(0 0)">
        <path id="Trazado_1092657" data-name="Trazado 1092657" d="M367.132,227.335a1.167,1.167,0,0,0-1.641.171,2.169,2.169,0,0,1-3.52,0,1.167,1.167,0,1,0-1.812,1.47,4.5,4.5,0,0,0,7.145,0A1.167,1.167,0,0,0,367.132,227.335Z" transform="translate(-359.898 -227.075)" fill="#20849e"/>
      </g>
    </g>
    <g id="Grupo_1190985" data-name="Grupo 1190985" transform="translate(53.324 46.749)">
      <g id="Grupo_1190984" data-name="Grupo 1190984">
        <path id="Trazado_1092658" data-name="Trazado 1092658" d="M343.926,184.231a1.167,1.167,0,0,0-1.167,1.167v1.333a1.167,1.167,0,1,0,2.333,0V185.4A1.167,1.167,0,0,0,343.926,184.231Z" transform="translate(-342.759 -184.231)" fill="#20849e"/>
      </g>
    </g>
    <g id="Grupo_1190987" data-name="Grupo 1190987" transform="translate(63.988 46.749)">
      <g id="Grupo_1190986" data-name="Grupo 1190986">
        <path id="Trazado_1092659" data-name="Trazado 1092659" d="M412.478,184.231a1.167,1.167,0,0,0-1.167,1.167v1.333a1.167,1.167,0,1,0,2.334,0V185.4A1.167,1.167,0,0,0,412.478,184.231Z" transform="translate(-411.311 -184.231)" fill="#20849e"/>
      </g>
    </g>
    <g id="Grupo_1190989" data-name="Grupo 1190989" transform="translate(0 21.42)">
      <g id="Grupo_1190988" data-name="Grupo 1190988" transform="translate(0 0)">
        <path id="Trazado_1092660" data-name="Trazado 1092660" d="M76.405,69.822l-9.141-3.656a1.531,1.531,0,0,1-.142-.069c6.314-1.437,9.3-3.839,9.436-3.948a1.167,1.167,0,0,0,.416-1.068,151.157,151.157,0,0,1-1.321-18.5,15.831,15.831,0,1,0-31.662,0c0,2.392-.109,5.317-.285,8.086l-2.547,1.274-7.477-3.738c-.021-.011-.044-.019-.066-.028a13.07,13.07,0,0,0,.674-3.264,3.83,3.83,0,0,0,1.37-6.565V30.585A6.493,6.493,0,0,0,32.8,25.229a5.129,5.129,0,0,0-4.972-3.809H17.164a10.51,10.51,0,0,0-10.5,10.5v6.43a3.83,3.83,0,0,0,1.37,6.565,13.159,13.159,0,0,0,5.3,9.574v3.225L3.681,60.607A5.134,5.134,0,0,0,0,65.555V78.577a1.167,1.167,0,0,0,1.167,1.167h.166v13.5a1.167,1.167,0,1,0,2.334,0v-13.5H8v13.5a1.167,1.167,0,1,0,2.334,0V73.122a5.15,5.15,0,0,0-.868-2.866L7.47,67.265a1.167,1.167,0,1,0-1.942,1.294l1.994,2.992A2.823,2.823,0,0,1,8,73.122V77.41H2.334V65.555a2.815,2.815,0,0,1,2.019-2.713l4.006-1.2A13.166,13.166,0,0,0,27.4,70.173a3.829,3.829,0,0,0,3.092,1.572h.166v.166a10.5,10.5,0,0,0,5.332,9.134v1.9a.166.166,0,0,1-.114.158l-4.352,1.451a5.16,5.16,0,0,0-3.532,4.9v3.783a1.167,1.167,0,0,0,2.334,0V89.458a2.829,2.829,0,0,1,1.937-2.687l1.28-.427a9.165,9.165,0,0,0,15.229,0l1.28.427a2.829,2.829,0,0,1,1.937,2.687v3.783a1.167,1.167,0,1,0,2.334,0V89.458a5.159,5.159,0,0,0-3.532-4.9l-4.352-1.451a.166.166,0,0,1-.114-.158v-1.9a10.541,10.541,0,0,0,4.94-6.3,11.83,11.83,0,0,0,19.819-4.54l4.454,1.781a2.819,2.819,0,0,1,1.781,2.63v5.457H72.987v-1.5a1.167,1.167,0,1,0-2.334,0V93.241a1.167,1.167,0,1,0,2.334,0V82.41h3V93.241a1.167,1.167,0,1,0,2.334,0V82.41h.166a1.167,1.167,0,0,0,1.167-1.167V74.619A5.14,5.14,0,0,0,76.405,69.822ZM46.326,42.583a13.5,13.5,0,1,1,26.994,0A153.192,153.192,0,0,0,74.57,60.7a24.978,24.978,0,0,1-8.248,3.181V62.028a13.065,13.065,0,0,0,1.771-1.2,13.135,13.135,0,0,0,4.894-10.243c0-6.595-4.769-7.542-9.382-8.457-2.935-.583-5.97-1.185-8.386-3.118a1.167,1.167,0,0,0-1.9.911c0,.031-.051,3.1-4.449,4.2a1.167,1.167,0,0,0,.566,2.264c3.681-.92,5.182-2.985,5.795-4.536a24.438,24.438,0,0,0,7.915,2.568c4.93.979,7.5,1.7,7.5,6.168a10.8,10.8,0,0,1-4.028,8.428,10.829,10.829,0,0,1-13.107.378,13.184,13.184,0,0,0-3.194-4.924V49.249a1.167,1.167,0,0,0-1.689-1.044l-2.519,1.26C46.255,47.035,46.326,44.725,46.326,42.583Zm1.666,8.553v4.223l-4.223-2.111Zm-13.664,0,4.223,2.111-4.223,2.111ZM27.995,63.913v1.108a3.833,3.833,0,0,0-1.333,2.891A10.831,10.831,0,0,1,10.6,60.968l2.883-.865a7.83,7.83,0,0,0,14.627,2.091A13.12,13.12,0,0,0,27.995,63.913Zm-12.33-5.334v-2.7a13.147,13.147,0,0,0,11,0v2.7a5.5,5.5,0,0,1-11,.015C15.665,58.589,15.665,58.584,15.665,58.578Zm5.5-3.831A10.843,10.843,0,0,1,10.332,43.916,1.167,1.167,0,0,0,9.165,42.75a1.5,1.5,0,0,1,0-3h2.666a1.167,1.167,0,0,0,1.107-.8l1.071-3.213C16.691,35.68,25,35.3,29.683,32.962a1.167,1.167,0,1,0-1.044-2.087c-5.022,2.511-15.372,2.543-15.476,2.543a1.167,1.167,0,0,0-1.107.8l-1.067,3.2H9.165c-.056,0-.111,0-.166,0v-5.5a8.174,8.174,0,0,1,8.165-8.165H27.829a2.811,2.811,0,0,1,2.784,2.388,1.167,1.167,0,0,0,.579.833,4.165,4.165,0,0,1,2.136,3.611v6.836c-.055,0-.11,0-.166,0H31.828a1.167,1.167,0,1,0,0,2.334h1.333a1.5,1.5,0,0,1,0,3,1.167,1.167,0,0,0-1.167,1.167A10.843,10.843,0,0,1,21.163,54.747ZM29,58.58V54.487a13.271,13.271,0,0,0,3-3.1v3.077a13.183,13.183,0,0,0-3.007,4.44C28.992,58.8,29,58.689,29,58.58Zm17.45,26.988a6.826,6.826,0,0,1-10.572,0l.744-.248a2.5,2.5,0,0,0,1.709-2.372v-.93a10.444,10.444,0,0,0,5.665,0v.93A2.5,2.5,0,0,0,45.7,85.32Zm4.046-16.157a1.167,1.167,0,0,0-1.167,1.167v1.16c0,.01,0,.02,0,.03v.143a8.165,8.165,0,0,1-16.33,0V70.578a1.167,1.167,0,0,0-1.167-1.167H30.495a1.5,1.5,0,0,1-1.5-1.5,1.482,1.482,0,0,1,.753-1.288,1.16,1.16,0,0,0,.276-.227c2.884-.084,12.234-.626,18.379-4.138a1.167,1.167,0,0,0-1.158-2.026c-5.383,3.076-13.842,3.692-16.918,3.815v-.136a10.842,10.842,0,0,1,1.848-6.044,1.163,1.163,0,0,0,1.506.422l7.477-3.738,7.477,3.738a1.16,1.16,0,0,0,1.506-.422,10.842,10.842,0,0,1,1.848,6.044v1.7a1.166,1.166,0,0,0,.58,1.008,1.482,1.482,0,0,1,.753,1.288,1.5,1.5,0,0,1-1.5,1.5Zm9.332,6.665a9.511,9.511,0,0,1-7.972-4.333,3.823,3.823,0,0,0,2.473-6.723V63.913a13.119,13.119,0,0,0-.075-1.4,13.156,13.156,0,0,0,9.739.552v1.709A3.815,3.815,0,0,0,66.4,68.333l2.516,1.006A9.493,9.493,0,0,1,59.823,76.077Z" transform="translate(0 -21.42)" fill="#20849e"/>
      </g>
    </g>
    <g id="Grupo_1190991" data-name="Grupo 1190991" transform="translate(37.327 73.411)">
      <g id="Grupo_1190990" data-name="Grupo 1190990">
        <path id="Trazado_1092661" data-name="Trazado 1092661" d="M247.166,355.87a1.167,1.167,0,0,0-1.641.171,2.169,2.169,0,0,1-3.52,0,1.167,1.167,0,0,0-1.812,1.47,4.5,4.5,0,0,0,7.145,0A1.167,1.167,0,0,0,247.166,355.87Z" transform="translate(-239.932 -355.61)" fill="#20849e"/>
      </g>
    </g>
    <g id="Grupo_1190993" data-name="Grupo 1190993" transform="translate(36.015 68.083)">
      <g id="Grupo_1190992" data-name="Grupo 1190992">
        <circle id="Elipse_11492" data-name="Elipse 11492" cx="1.167" cy="1.167" r="1.167" fill="#20849e"/>
      </g>
    </g>
    <g id="Grupo_1190995" data-name="Grupo 1190995" transform="translate(43.949 68.083)">
      <g id="Grupo_1190994" data-name="Grupo 1190994">
        <circle id="Elipse_11493" data-name="Elipse 11493" cx="1.167" cy="1.167" r="1.167" fill="#20849e"/>
      </g>
    </g>
  </g>
</svg>
