<svg id="organizar" xmlns="http://www.w3.org/2000/svg" width="57.652" height="57.652" viewBox="0 0 57.652 57.652">
  <path id="Trazado_1092662" data-name="Trazado 1092662" d="M292,207.126A1.126,1.126,0,1,0,293.126,206,1.126,1.126,0,0,0,292,207.126Z" transform="translate(-259.12 -182.804)" fill="#20849e"/>
  <path id="Trazado_1092663" data-name="Trazado 1092663" d="M3.378,57.652H40.762a3.382,3.382,0,0,0,3.378-3.378V10.134a3.382,3.382,0,0,0-3.378-3.378h-5.63V5.63A1.126,1.126,0,0,0,34.006,4.5H28.441A6.758,6.758,0,0,0,15.7,4.5H10.134A1.126,1.126,0,0,0,9.008,5.63V6.756H3.378A3.382,3.382,0,0,0,0,10.134v44.14A3.382,3.382,0,0,0,3.378,57.652Zm7.882-50.9h5.292a1.126,1.126,0,0,0,1.1-.9,4.505,4.505,0,0,1,8.828,0,1.126,1.126,0,0,0,1.1.9H32.88V9.008H11.26ZM2.252,10.134A1.127,1.127,0,0,1,3.378,9.008h5.63v1.126a1.126,1.126,0,0,0,1.126,1.126H34.006a1.126,1.126,0,0,0,1.126-1.126V9.008h5.63a1.127,1.127,0,0,1,1.126,1.126v44.14A1.127,1.127,0,0,1,40.762,55.4H3.378a1.127,1.127,0,0,1-1.126-1.126Z" fill="#20849e"/>
  <path id="Trazado_1092664" data-name="Trazado 1092664" d="M62.581,172.426a1.126,1.126,0,0,0,1.592,0l4.5-4.5a1.126,1.126,0,0,0-1.593-1.593l-3.708,3.708-1.456-1.456a1.126,1.126,0,0,0-1.593,1.593Z" transform="translate(-53.243 -147.308)" fill="#20849e"/>
  <path id="Trazado_1092665" data-name="Trazado 1092665" d="M62.581,272.426a1.126,1.126,0,0,0,1.592,0l4.5-4.5a1.126,1.126,0,0,0-1.593-1.592l-3.708,3.708-1.456-1.456a1.126,1.126,0,1,0-1.593,1.592Z" transform="translate(-53.243 -236.048)" fill="#20849e"/>
  <path id="Trazado_1092666" data-name="Trazado 1092666" d="M63.378,366a3.378,3.378,0,1,0,3.378,3.378A3.382,3.382,0,0,0,63.378,366Zm0,4.5a1.126,1.126,0,1,1,1.126-1.126A1.127,1.127,0,0,1,63.378,370.5Z" transform="translate(-53.244 -324.788)" fill="#20849e"/>
  <path id="Trazado_1092667" data-name="Trazado 1092667" d="M187.126,168.252h14.188a1.126,1.126,0,0,0,0-2.252H187.126a1.126,1.126,0,0,0,0,2.252Z" transform="translate(-165.056 -147.308)" fill="#20849e"/>
  <path id="Trazado_1092668" data-name="Trazado 1092668" d="M187.126,208.252h7.432a1.126,1.126,0,0,0,0-2.252h-7.432a1.126,1.126,0,0,0,0,2.252Z" transform="translate(-165.056 -182.804)" fill="#20849e"/>
  <path id="Trazado_1092669" data-name="Trazado 1092669" d="M187.126,268.252h14.188a1.126,1.126,0,0,0,0-2.252H187.126a1.126,1.126,0,0,0,0,2.252Z" transform="translate(-165.056 -236.048)" fill="#20849e"/>
  <path id="Trazado_1092670" data-name="Trazado 1092670" d="M187.126,308.252h9.684a1.126,1.126,0,0,0,0-2.252h-9.684a1.126,1.126,0,0,0,0,2.252Z" transform="translate(-165.056 -271.544)" fill="#20849e"/>
  <path id="Trazado_1092671" data-name="Trazado 1092671" d="M187.126,368.252h14.188a1.126,1.126,0,0,0,0-2.252H187.126a1.126,1.126,0,0,0,0,2.252Z" transform="translate(-165.056 -324.788)" fill="#20849e"/>
  <path id="Trazado_1092672" data-name="Trazado 1092672" d="M187.126,408.252h9.684a1.126,1.126,0,1,0,0-2.252h-9.684a1.126,1.126,0,1,0,0,2.252Z" transform="translate(-165.056 -360.284)" fill="#20849e"/>
  <path id="Trazado_1092673" data-name="Trazado 1092673" d="M439.778,66.649l-2.22-5.918A1.126,1.126,0,0,0,436.5,60h0a1.126,1.126,0,0,0-1.054.731l-2.222,5.924A19.344,19.344,0,0,0,432,73.429v34.089a3.382,3.382,0,0,0,3.378,3.378h2.252a3.382,3.382,0,0,0,3.378-3.378V73.429A19.357,19.357,0,0,0,439.778,66.649Zm-5.526,6.78a17.1,17.1,0,0,1,.139-2.169h4.225a17.053,17.053,0,0,1,.14,2.169v27.783h-4.5V73.429Zm2.252-9.1,1.167,3.11c.192.513.358,1.036.5,1.565h-3.334c.142-.529.308-1.052.5-1.564Zm1.126,44.311h-2.252a1.127,1.127,0,0,1-1.126-1.126v-4.054h4.5v4.054A1.127,1.127,0,0,1,437.63,108.644Z" transform="translate(-383.356 -53.244)" fill="#20849e"/>
</svg>
