<svg xmlns="http://www.w3.org/2000/svg" width="105.006" height="105.006" viewBox="0 0 105.006 105.006">
  <g id="Grupo_1190997" data-name="Grupo 1190997" transform="translate(4080.851 10379.673)">
    <circle id="Elipse_11480" data-name="Elipse 11480" cx="52.503" cy="52.503" r="52.503" transform="translate(-4080.851 -10379.673)" fill="#e9f8fc"/>
    <g id="factura" transform="translate(-4061.013 -10361.602)">
      <path id="Trazado_1092709" data-name="Trazado 1092709" d="M350.634,44.04c.031,0,.063,0,.095,0a1.173,1.173,0,0,0,.162-.012,2.619,2.619,0,0,1,2.566,2.615,1.172,1.172,0,0,0,2.344,0,4.969,4.969,0,0,0-3.9-4.846V40.676a1.172,1.172,0,1,0-2.344,0v1.179a4.961,4.961,0,0,0,1.282,9.754,2.618,2.618,0,1,1-2.618,2.618,1.172,1.172,0,1,0-2.344,0,4.97,4.97,0,0,0,3.68,4.793V60.3a1.172,1.172,0,1,0,2.344,0v-1.23a4.961,4.961,0,0,0-1.062-9.808,2.617,2.617,0,0,1-.2-5.226Zm0,0" transform="translate(-295.212 -33.774)" fill="#20849e"/>
      <path id="Trazado_1092710" data-name="Trazado 1092710" d="M55.694.39a16.814,16.814,0,0,0-15.666,11H10.942A1.225,1.225,0,0,0,9.77,12.618l-.277,41.11H1.2A1.153,1.153,0,0,0,0,54.844v5.217a9.205,9.205,0,0,0,8.789,9.168v.026H44.97V69.22c.293.011.414.034.6.034h.025a9.2,9.2,0,0,0,9.19-9.2V33.674c.293.016.6.025.906.025a16.654,16.654,0,0,0,0-33.308ZM9.235,66.911H9.227a6.893,6.893,0,0,1-6.884-6.862V56.071H36.328v3.961a9.193,9.193,0,0,0,2.713,6.514c.123.123.276.218.4.364Zm43.206-6.862a6.861,6.861,0,0,1-6.848,6.862h-.022a6.912,6.912,0,0,1-6.9-6.877V54.844a1.082,1.082,0,0,0-1.119-1.117H11.837l.269-39.99H39.377a17.609,17.609,0,0,0-.321,3.255A16.525,16.525,0,0,0,40.47,23.7H29.4a1.172,1.172,0,0,0,0,2.344h12.34a16.538,16.538,0,0,0,10.7,7.339Zm3.253-28.694A14.294,14.294,0,1,1,69.988,17.061,14.293,14.293,0,0,1,55.694,31.355Zm0,0" transform="translate(0 -0.39)" fill="#20849e"/>
      <path id="Trazado_1092711" data-name="Trazado 1092711" d="M127.512,212.746a3.634,3.634,0,1,0,3.751,3.632A3.7,3.7,0,0,0,127.512,212.746Zm0,4.92a1.293,1.293,0,1,1,1.408-1.288A1.353,1.353,0,0,1,127.512,217.666Zm0,0" transform="translate(-105.632 -181.639)" fill="#20849e"/>
      <path id="Trazado_1092712" data-name="Trazado 1092712" d="M192.719,230.676a1.172,1.172,0,0,0,1.172,1.172h15.623a1.172,1.172,0,0,0,0-2.344H193.891A1.172,1.172,0,0,0,192.719,230.676Zm0,0" transform="translate(-164.489 -195.942)" fill="#20849e"/>
      <path id="Trazado_1092713" data-name="Trazado 1092713" d="M127.512,143.2a3.634,3.634,0,1,0,3.751,3.632A3.7,3.7,0,0,0,127.512,143.2Zm0,4.92a1.293,1.293,0,1,1,1.408-1.288,1.353,1.353,0,0,1-1.408,1.288Zm0,0" transform="translate(-105.632 -122.283)" fill="#20849e"/>
      <path id="Trazado_1092714" data-name="Trazado 1092714" d="M127.512,282.281a3.634,3.634,0,1,0,3.751,3.632A3.7,3.7,0,0,0,127.512,282.281Zm0,4.92a1.293,1.293,0,1,1,1.408-1.288A1.352,1.352,0,0,1,127.512,287.2Zm0,0" transform="translate(-105.632 -240.988)" fill="#20849e"/>
      <path id="Trazado_1092715" data-name="Trazado 1092715" d="M209.514,299.5H193.891a1.172,1.172,0,0,0,0,2.344h15.623a1.172,1.172,0,0,0,0-2.344Zm0,0" transform="translate(-164.489 -255.689)" fill="#20849e"/>
    </g>
  </g>
</svg>
