<svg xmlns="http://www.w3.org/2000/svg" width="124" height="124" viewBox="0 0 124 124">
  <g id="Grupo_1191004" data-name="Grupo 1191004" transform="translate(-1205 -3992.34)">
    <circle id="Elipse_11477" data-name="Elipse 11477" cx="62" cy="62" r="62" transform="translate(1205 3992.34)" fill="#fff"/>
    <g id="zapatillas" transform="translate(1232.023 4018.964)">
      <g id="Grupo_1190749" data-name="Grupo 1190749" transform="translate(0 0)">
        <g id="Grupo_1190742" data-name="Grupo 1190742" transform="translate(1.361)">
          <path id="Trazado_1092103" data-name="Trazado 1092103" d="M87.2,60.152a.83.83,0,0,1-.829-.829V55.517A12.374,12.374,0,0,0,73.989,42.658H71.3A12.374,12.374,0,0,0,58.914,55.517v3.807a.829.829,0,0,1-1.658,0V55.567A14.049,14.049,0,0,1,71.3,41h2.69A14.049,14.049,0,0,1,88.032,55.567v3.756A.83.83,0,0,1,87.2,60.152Z" transform="translate(-57.247 -41)" fill="#20849e"/>
        </g>
        <g id="Grupo_1190745" data-name="Grupo 1190745" transform="translate(5.798 4.416)">
          <g id="Grupo_1190743" data-name="Grupo 1190743">
            <path id="Trazado_1092104" data-name="Trazado 1092104" d="M104.555,81.836a.83.83,0,0,1-.829-.829V77.031a8,8,0,0,0-2.233-5.854,7.891,7.891,0,0,0-5.719-2.419h-2.69a7.947,7.947,0,0,0-5.719,2.419,8.033,8.033,0,0,0-2.233,5.837V80.99a.829.829,0,1,1-1.658,0V77.065a9.6,9.6,0,0,1,9.61-9.965h2.69a9.6,9.6,0,0,1,9.61,9.965v3.925A.834.834,0,0,1,104.555,81.836Z" transform="translate(-83.469 -67.1)" fill="#20849e"/>
          </g>
          <g id="Grupo_1190744" data-name="Grupo 1190744" transform="translate(0.377 22.958)">
            <path id="Trazado_1092105" data-name="Trazado 1092105" d="M96.272,243.741a9.593,9.593,0,0,1-9.61-9.221L85.7,203.643a.821.821,0,1,1,1.641-.051l.964,30.877a7.959,7.959,0,0,0,15.9,0l.981-30.86a.827.827,0,0,1,.846-.8.816.816,0,0,1,.8.846l-.947,30.843A9.573,9.573,0,0,1,96.272,243.741Z" transform="translate(-85.697 -202.797)" fill="#20849e"/>
          </g>
        </g>
        <g id="Grupo_1190746" data-name="Grupo 1190746" transform="translate(1.742 27.341)">
          <path id="Trazado_1092106" data-name="Trazado 1092106" d="M74.521,248.008a14,14,0,0,1-14.043-13.518L59.5,203.46a.821.821,0,1,1,1.641-.051l.981,31.013a12.394,12.394,0,0,0,24.769-.017l1-31.013a.827.827,0,0,1,.846-.8.816.816,0,0,1,.8.846l-1,31.013a13.978,13.978,0,0,1-14.009,13.552Z" transform="translate(-59.497 -202.597)" fill="#20849e"/>
        </g>
        <g id="Grupo_1190747" data-name="Grupo 1190747" transform="translate(0.017 17.511)">
          <path id="Trazado_1092107" data-name="Trazado 1092107" d="M80.955,156H51.161a1.867,1.867,0,0,1-1.861-1.861v-7.783a1.867,1.867,0,0,1,1.861-1.861H80.955a1.867,1.867,0,0,1,1.861,1.861v7.8A1.874,1.874,0,0,1,80.955,156Zm-29.794-9.864a.213.213,0,0,0-.22.22v7.783a.213.213,0,0,0,.22.22H80.955a.253.253,0,0,0,.22-.237v-7.766a.213.213,0,0,0-.22-.22Z" transform="translate(-49.3 -144.5)" fill="#20849e"/>
        </g>
        <g id="Grupo_1190748" data-name="Grupo 1190748" transform="translate(0 22.418)">
          <path id="Trazado_1092108" data-name="Trazado 1092108" d="M81.887,175.158H50.029a.829.829,0,1,1,0-1.658H81.887a.829.829,0,1,1,0,1.658Z" transform="translate(-49.2 -173.5)" fill="#20849e"/>
        </g>
      </g>
      <g id="Grupo_1190757" data-name="Grupo 1190757" transform="translate(36.444 0)">
        <g id="Grupo_1190750" data-name="Grupo 1190750" transform="translate(1.378)">
          <path id="Trazado_1092109" data-name="Trazado 1092109" d="M302.7,60.152a.83.83,0,0,1-.829-.829V55.517a12.374,12.374,0,0,0-12.385-12.858H286.8a12.374,12.374,0,0,0-12.385,12.858v3.807a.829.829,0,0,1-1.658,0V55.567A14.049,14.049,0,0,1,286.8,41h2.69a14.049,14.049,0,0,1,14.043,14.567v3.756A.83.83,0,0,1,302.7,60.152Z" transform="translate(-272.747 -41)" fill="#20849e"/>
        </g>
        <g id="Grupo_1190753" data-name="Grupo 1190753" transform="translate(5.815 4.416)">
          <g id="Grupo_1190751" data-name="Grupo 1190751">
            <path id="Trazado_1092110" data-name="Trazado 1092110" d="M320.056,81.836a.83.83,0,0,1-.829-.829V77.031a8,8,0,0,0-2.233-5.854,7.891,7.891,0,0,0-5.719-2.419h-2.69a7.947,7.947,0,0,0-5.719,2.419,8.033,8.033,0,0,0-2.233,5.837V80.99a.829.829,0,1,1-1.658,0V77.065a9.6,9.6,0,0,1,9.61-9.965h2.69a9.6,9.6,0,0,1,9.61,9.965v3.925A.834.834,0,0,1,320.056,81.836Z" transform="translate(-298.969 -67.1)" fill="#20849e"/>
          </g>
          <g id="Grupo_1190752" data-name="Grupo 1190752" transform="translate(0.377 22.958)">
            <path id="Trazado_1092111" data-name="Trazado 1092111" d="M311.772,243.741a9.593,9.593,0,0,1-9.61-9.221l-.964-30.877a.821.821,0,1,1,1.641-.051l.964,30.877a7.959,7.959,0,0,0,15.9,0l.981-30.86a.827.827,0,0,1,.846-.8.816.816,0,0,1,.8.846l-.981,30.877A9.515,9.515,0,0,1,311.772,243.741Z" transform="translate(-301.197 -202.797)" fill="#20849e"/>
          </g>
        </g>
        <g id="Grupo_1190754" data-name="Grupo 1190754" transform="translate(1.759 27.341)">
          <path id="Trazado_1092112" data-name="Trazado 1092112" d="M290.021,248.008a14,14,0,0,1-14.043-13.518L275,203.46a.821.821,0,0,1,1.641-.051l.981,31.013a12.394,12.394,0,0,0,24.769-.017l1-31.013a.821.821,0,0,1,1.641.051l-1,31.013a13.989,13.989,0,0,1-14.009,13.552Z" transform="translate(-274.997 -202.597)" fill="#20849e"/>
        </g>
        <g id="Grupo_1190755" data-name="Grupo 1190755" transform="translate(0 17.511)">
          <path id="Trazado_1092113" data-name="Trazado 1092113" d="M296.255,156H266.461a1.867,1.867,0,0,1-1.861-1.861v-7.783a1.867,1.867,0,0,1,1.861-1.861h29.794a1.867,1.867,0,0,1,1.861,1.861v7.783A1.845,1.845,0,0,1,296.255,156Zm-29.794-9.864a.213.213,0,0,0-.22.22v7.783a.213.213,0,0,0,.22.22h29.794a.236.236,0,0,0,.22-.22v-7.783a.213.213,0,0,0-.22-.22Z" transform="translate(-264.6 -144.5)" fill="#20849e"/>
        </g>
        <g id="Grupo_1190756" data-name="Grupo 1190756" transform="translate(0.017 22.418)">
          <path id="Trazado_1092114" data-name="Trazado 1092114" d="M297.387,175.158H265.529a.829.829,0,0,1,0-1.658h31.858a.829.829,0,1,1,0,1.658Z" transform="translate(-264.7 -173.5)" fill="#20849e"/>
        </g>
      </g>
    </g>
  </g>
</svg>
