<svg xmlns="http://www.w3.org/2000/svg" width="105.006" height="105.006" viewBox="0 0 105.006 105.006">
  <g id="Grupo_1191484" data-name="Grupo 1191484" transform="translate(-730.205 -2534.487)">
    <g id="Grupo_1191426" data-name="Grupo 1191426" transform="translate(-16.944 14.501)">
      <g id="Grupo_1191408" data-name="Grupo 1191408" transform="translate(4620 12899.659)">
        <circle id="Elipse_11480" data-name="Elipse 11480" cx="52.503" cy="52.503" r="52.503" transform="translate(-3872.851 -10379.673)" fill="#e9f8fc"/>
      </g>
      <g id="atraccion" transform="translate(767.433 2549.205)">
        <path id="Trazado_1093441" data-name="Trazado 1093441" d="M419.131,44.427A4.131,4.131,0,1,0,415,40.3,4.135,4.135,0,0,0,419.131,44.427Zm0-6.673a2.542,2.542,0,1,1-2.542,2.542A2.545,2.545,0,0,1,419.131,37.755Z" transform="translate(-371.045 -36.166)" fill="#20849e"/>
        <path id="Trazado_1093442" data-name="Trazado 1093442" d="M402.364,124.5h-.05a6.072,6.072,0,0,0-6.065,6.065v.474a2.714,2.714,0,0,0,2.711,2.711h6.758a2.818,2.818,0,0,0,2.79-2.772v-.424A6.107,6.107,0,0,0,402.364,124.5Zm4.556,6.479a1.24,1.24,0,0,1-1.2,1.183H398.96a1.123,1.123,0,0,1-1.122-1.122v-.474a4.481,4.481,0,0,1,4.476-4.476h.05a4.517,4.517,0,0,1,4.556,4.466Z" transform="translate(-354.28 -115.143)" fill="#20849e"/>
        <path id="Trazado_1093443" data-name="Trazado 1093443" d="M423.261,304.3a4.131,4.131,0,1,0-4.131,4.131A4.135,4.135,0,0,0,423.261,304.3Zm-6.673,0a2.542,2.542,0,1,1,2.542,2.542A2.545,2.545,0,0,1,416.589,304.3Z" transform="translate(-371.045 -272.204)" fill="#20849e"/>
        <path id="Trazado_1093444" data-name="Trazado 1093444" d="M402.364,388.5h-.05a6.072,6.072,0,0,0-6.065,6.065v.474a2.714,2.714,0,0,0,2.711,2.711h6.758a2.818,2.818,0,0,0,2.79-2.772v-.424A6.107,6.107,0,0,0,402.364,388.5Zm4.556,6.479a1.24,1.24,0,0,1-1.2,1.183H398.96a1.124,1.124,0,0,1-1.122-1.122v-.474a4.481,4.481,0,0,1,4.476-4.476h.05a4.517,4.517,0,0,1,4.556,4.466Z" transform="translate(-354.28 -351.181)" fill="#20849e"/>
        <path id="Trazado_1093445" data-name="Trazado 1093445" d="M30.663,66.5H20.071A20.093,20.093,0,0,0,0,86.568s0,0,0,0v0s0,.005,0,.008a19.983,19.983,0,0,0,7.169,15.253.794.794,0,0,0,1.025-1.214A18.424,18.424,0,0,1,1.608,87.365h9.017a9.492,9.492,0,0,0,9.446,8.685h3.336v9h-3.17a18.616,18.616,0,0,1-9.1-2.389.794.794,0,0,0-.778,1.385,20.207,20.207,0,0,0,9.877,2.592H30.663a.794.794,0,0,0,.794-.794V95.256a.794.794,0,0,0-.794-.794H20.071a7.891,7.891,0,0,1-5.835-13.2.794.794,0,0,0-1.174-1.07,9.45,9.45,0,0,0-2.436,5.588H1.606A18.5,18.5,0,0,1,20.071,68.089h3.336v9H20.071a9.42,9.42,0,0,0-3.69.745A.794.794,0,0,0,17,79.3a7.841,7.841,0,0,1,3.071-.62H30.663a.794.794,0,0,0,.794-.794V67.294A.794.794,0,0,0,30.663,66.5Zm-.794,38.553H25v-9h4.872Zm0-27.962H25v-9h4.872Z" transform="translate(0 -63.287)" fill="#20849e"/>
        <path id="Trazado_1093446" data-name="Trazado 1093446" d="M311.794,68.089h5.719a.794.794,0,1,0,0-1.589h-5.719a.794.794,0,1,0,0,1.589Z" transform="translate(-278.06 -63.287)" fill="#20849e"/>
        <path id="Trazado_1093447" data-name="Trazado 1093447" d="M313,167.294a.794.794,0,0,0,.794.794h4.448a.794.794,0,1,0,0-1.589h-4.448A.794.794,0,0,0,313,167.294Z" transform="translate(-279.848 -152.696)" fill="#20849e"/>
        <path id="Trazado_1093448" data-name="Trazado 1093448" d="M368.5,117.294a.794.794,0,0,0,.794.794h2.277a.794.794,0,1,0,0-1.589h-2.277A.794.794,0,0,0,368.5,117.294Z" transform="translate(-329.47 -107.991)" fill="#20849e"/>
        <path id="Trazado_1093449" data-name="Trazado 1093449" d="M319.86,118.089a.794.794,0,1,0,0-1.589h-2.065a.794.794,0,1,0,0,1.589Z" transform="translate(-283.425 -107.991)" fill="#20849e"/>
        <path id="Trazado_1093450" data-name="Trazado 1093450" d="M317.514,430.5h-5.719a.794.794,0,0,0,0,1.589h5.719a.794.794,0,0,0,0-1.589Z" transform="translate(-278.06 -388.734)" fill="#20849e"/>
        <path id="Trazado_1093451" data-name="Trazado 1093451" d="M319.037,331.294a.794.794,0,0,0-.794-.794h-4.448a.794.794,0,0,0,0,1.589h4.448A.794.794,0,0,0,319.037,331.294Z" transform="translate(-279.848 -299.326)" fill="#20849e"/>
        <path id="Trazado_1093452" data-name="Trazado 1093452" d="M359.294,382.089h3.336a.794.794,0,1,0,0-1.589h-3.336a.794.794,0,1,0,0,1.589Z" transform="translate(-320.529 -344.03)" fill="#20849e"/>
        <path id="Trazado_1093453" data-name="Trazado 1093453" d="M317.794,380.5a.794.794,0,1,0,0,1.589H318.8a.794.794,0,1,0,0-1.589Z" transform="translate(-283.425 -344.03)" fill="#20849e"/>
      </g>
    </g>
  </g>
</svg>
