<svg id="folleto" xmlns="http://www.w3.org/2000/svg" width="83.652" height="83.652" viewBox="0 0 83.652 83.652">
  <g id="Grupo_1191437" data-name="Grupo 1191437">
    <g id="Grupo_1191436" data-name="Grupo 1191436">
      <path id="Trazado_1093705" data-name="Trazado 1093705" d="M82.258,0H32.067a1.394,1.394,0,0,0-1.394,1.394V13.942H1.394A1.394,1.394,0,0,0,0,15.336V82.258a1.394,1.394,0,0,0,1.394,1.394H51.586a1.394,1.394,0,0,0,1.394-1.394V69.71H82.258a1.394,1.394,0,0,0,1.394-1.394V1.394A1.394,1.394,0,0,0,82.258,0Zm-48.8,4.1,13.773,9.839H33.461Zm16.73,76.761H2.788V16.73h47.4ZM80.864,66.922H52.98V15.336a1.368,1.368,0,0,0-.6-1.115L52.4,14.2,36.418,2.788H80.864Z" fill="#fec190"/>
    </g>
  </g>
  <g id="Grupo_1191439" data-name="Grupo 1191439" transform="translate(57.162 6.971)">
    <g id="Grupo_1191438" data-name="Grupo 1191438">
      <path id="Trazado_1093706" data-name="Trazado 1093706" d="M346.125,40H329.394A1.394,1.394,0,0,0,328,41.394v8.365a1.394,1.394,0,0,0,1.394,1.394h16.731a1.394,1.394,0,0,0,1.394-1.394V41.394A1.394,1.394,0,0,0,346.125,40Zm-1.394,8.365H330.788V42.788H344.73Z" transform="translate(-328 -40)" fill="#fec190"/>
    </g>
  </g>
  <g id="Grupo_1191441" data-name="Grupo 1191441" transform="translate(56.98 20.61)">
    <g id="Grupo_1191440" data-name="Grupo 1191440" transform="translate(0 0)">
      <rect id="Rectángulo_460050" data-name="Rectángulo 460050" width="2" height="3" transform="translate(0.02 0.39)" fill="#fec190"/>
    </g>
  </g>
  <g id="Grupo_1191443" data-name="Grupo 1191443" transform="translate(63.042 20.61)">
    <g id="Grupo_1191442" data-name="Grupo 1191442" transform="translate(0 0)">
      <rect id="Rectángulo_460051" data-name="Rectángulo 460051" width="13" height="3" transform="translate(-0.042 0.39)" fill="#fec190"/>
    </g>
  </g>
  <g id="Grupo_1191445" data-name="Grupo 1191445" transform="translate(56.98 26.672)">
    <g id="Grupo_1191444" data-name="Grupo 1191444" transform="translate(0 0)">
      <rect id="Rectángulo_460052" data-name="Rectángulo 460052" width="19" height="2" transform="translate(0.02 0.328)" fill="#fec190"/>
    </g>
  </g>
  <g id="Grupo_1191447" data-name="Grupo 1191447" transform="translate(56.98 31.521)">
    <g id="Grupo_1191446" data-name="Grupo 1191446" transform="translate(0 0)">
      <rect id="Rectángulo_460053" data-name="Rectángulo 460053" width="19" height="3" transform="translate(0.02 0.479)" fill="#fec190"/>
    </g>
  </g>
  <g id="Grupo_1191449" data-name="Grupo 1191449" transform="translate(57.162 40.432)">
    <g id="Grupo_1191448" data-name="Grupo 1191448">
      <path id="Trazado_1093707" data-name="Trazado 1093707" d="M346.125,232H329.394A1.394,1.394,0,0,0,328,233.394v8.365a1.394,1.394,0,0,0,1.394,1.394h16.731a1.394,1.394,0,0,0,1.394-1.394v-8.365A1.394,1.394,0,0,0,346.125,232Zm-1.394,8.365H330.788v-5.577H344.73Z" transform="translate(-328 -232)" fill="#fec190"/>
    </g>
  </g>
  <g id="Grupo_1191451" data-name="Grupo 1191451" transform="translate(56.98 54.556)">
    <g id="Grupo_1191450" data-name="Grupo 1191450" transform="translate(0 0)">
      <rect id="Rectángulo_460054" data-name="Rectángulo 460054" width="2" height="2" transform="translate(0.02 0.443)" fill="#fec190"/>
    </g>
  </g>
  <g id="Grupo_1191453" data-name="Grupo 1191453" transform="translate(63.042 54.556)">
    <g id="Grupo_1191452" data-name="Grupo 1191452" transform="translate(0 0)">
      <rect id="Rectángulo_460055" data-name="Rectángulo 460055" width="13" height="2" transform="translate(-0.042 0.443)" fill="#fec190"/>
    </g>
  </g>
  <g id="Grupo_1191455" data-name="Grupo 1191455" transform="translate(56.98 59.405)">
    <g id="Grupo_1191454" data-name="Grupo 1191454" transform="translate(0 0)">
      <rect id="Rectángulo_460056" data-name="Rectángulo 460056" width="19" height="4" transform="translate(0.02 -0.405)" fill="#fec190"/>
    </g>
  </g>
  <g id="Grupo_1191457" data-name="Grupo 1191457" transform="translate(6.971 62.739)">
    <g id="Grupo_1191456" data-name="Grupo 1191456">
      <path id="Trazado_1093708" data-name="Trazado 1093708" d="M52.548,360H41.394A1.394,1.394,0,0,0,40,361.394v11.154a1.394,1.394,0,0,0,1.394,1.394H52.548a1.394,1.394,0,0,0,1.394-1.394V361.394A1.394,1.394,0,0,0,52.548,360Zm-1.394,11.154H42.788v-8.365h8.365Z" transform="translate(-40 -360)" fill="#fec190"/>
    </g>
  </g>
  <g id="Grupo_1191459" data-name="Grupo 1191459" transform="translate(24.247 63.042)">
    <g id="Grupo_1191458" data-name="Grupo 1191458" transform="translate(0 0)">
      <rect id="Rectángulo_460057" data-name="Rectángulo 460057" width="3" height="2" transform="translate(-0.247 -0.042)" fill="#fec190"/>
    </g>
  </g>
  <g id="Grupo_1191461" data-name="Grupo 1191461" transform="translate(29.097 63.042)">
    <g id="Grupo_1191460" data-name="Grupo 1191460" transform="translate(0 0)">
      <rect id="Rectángulo_460058" data-name="Rectángulo 460058" width="17" height="2" transform="translate(-0.097 -0.042)" fill="#fec190"/>
    </g>
  </g>
  <g id="Grupo_1191463" data-name="Grupo 1191463" transform="translate(24.247 67.892)">
    <g id="Grupo_1191462" data-name="Grupo 1191462" transform="translate(0 0)">
      <rect id="Rectángulo_460059" data-name="Rectángulo 460059" width="22" height="4" transform="translate(-0.247 0.107)" fill="#fec190"/>
    </g>
  </g>
  <g id="Grupo_1191465" data-name="Grupo 1191465" transform="translate(24.247 73.953)">
    <g id="Grupo_1191464" data-name="Grupo 1191464" transform="translate(0 0)">
      <rect id="Rectángulo_460060" data-name="Rectángulo 460060" width="22" height="2" transform="translate(-0.247 0.047)" fill="#fec190"/>
    </g>
  </g>
  <g id="Grupo_1191467" data-name="Grupo 1191467" transform="translate(8.365 22.307)">
    <g id="Grupo_1191466" data-name="Grupo 1191466">
      <path id="Trazado_1093709" data-name="Trazado 1093709" d="M82.855,128H49.394A1.394,1.394,0,0,0,48,129.394v27.884a1.394,1.394,0,0,0,1.394,1.394H82.855a1.394,1.394,0,0,0,1.394-1.394V129.394A1.394,1.394,0,0,0,82.855,128Zm-1.394,27.884H50.788v-4.935l8.291-7.11,10.242,10.24,1.971-1.971-1.8-1.8,5-5,6.971,6.971Zm0-7.548-5.985-5.985a1.394,1.394,0,0,0-1.971,0l-5.985,5.985-7.38-7.38a1.394,1.394,0,0,0-1.892-.073l-7.459,6.392V130.788H81.461Z" transform="translate(-48 -128)" fill="#fec190"/>
    </g>
  </g>
  <g id="Grupo_1191469" data-name="Grupo 1191469" transform="translate(23.701 27.884)">
    <g id="Grupo_1191468" data-name="Grupo 1191468">
      <path id="Trazado_1093710" data-name="Trazado 1093710" d="M140.183,160a4.183,4.183,0,1,0,4.183,4.183A4.183,4.183,0,0,0,140.183,160Zm0,5.577a1.394,1.394,0,1,1,1.394-1.394A1.394,1.394,0,0,1,140.183,165.577Z" transform="translate(-136 -160)" fill="#fec190"/>
    </g>
  </g>
  <g id="Grupo_1191471" data-name="Grupo 1191471" transform="translate(15.761 27.884)">
    <g id="Grupo_1191470" data-name="Grupo 1191470" transform="translate(0)">
      <rect id="Rectángulo_460061" data-name="Rectángulo 460061" width="2" height="2" transform="translate(0.239 0.116)" fill="#fec190"/>
    </g>
  </g>
  <g id="Grupo_1191473" data-name="Grupo 1191473" transform="translate(36.371 30.309)">
    <g id="Grupo_1191472" data-name="Grupo 1191472" transform="translate(0 0)">
      <rect id="Rectángulo_460062" data-name="Rectángulo 460062" width="3" height="4" transform="translate(-0.371 -0.31)" fill="#fec190"/>
    </g>
  </g>
</svg>
