<svg xmlns="http://www.w3.org/2000/svg" width="105.006" height="105.006" viewBox="0 0 105.006 105.006">
  <g id="Grupo_1191425" data-name="Grupo 1191425" transform="translate(-954.149 -2519.985)">
    <circle id="Elipse_13738" data-name="Elipse 13738" cx="52.503" cy="52.503" r="52.503" transform="translate(954.149 2519.985)" fill="#e9f8fc"/>
    <g id="apoyo" transform="translate(979.652 2545.374)">
      <g id="Grupo_1191419" data-name="Grupo 1191419" transform="translate(34.952 41.943)">
        <g id="Grupo_1191418" data-name="Grupo 1191418">
          <path id="Trazado_1093438" data-name="Trazado 1093438" d="M357.059,396a1.059,1.059,0,1,0,1.059,1.059A1.06,1.06,0,0,0,357.059,396Z" transform="translate(-356 -396)" fill="#20849e"/>
        </g>
      </g>
      <g id="Grupo_1191421" data-name="Grupo 1191421" transform="translate(0)">
        <g id="Grupo_1191420" data-name="Grupo 1191420">
          <path id="Trazado_1093439" data-name="Trazado 1093439" d="M64.619,38.518,59.585,36.84l-1.807-3.615a11.6,11.6,0,0,0,3.14-6.137l.225-1.351H63.07a3.181,3.181,0,0,0,3.177-3.177V15.887a15.887,15.887,0,1,0-31.775,0V22.56a3.183,3.183,0,0,0,2.118,3V26.8a3.181,3.181,0,0,0,3.177,3.177h.93a11.49,11.49,0,0,0,1.777,2.751c.15.172.306.34.467.5L41.136,36.84,36.1,38.518C30.248,40.469,26,46.631,26,53.17a1.059,1.059,0,0,0,1.059,1.059h46.6a1.059,1.059,0,0,0,1.059-1.059C74.721,46.631,70.473,40.469,64.619,38.518ZM64.13,22.56a1.06,1.06,0,0,1-1.059,1.059H61.454c.269-2.085.449-4.3.521-6.49,0-.062,0-.122.006-.182H64.13ZM37.651,23.619a1.06,1.06,0,0,1-1.059-1.059V16.946h2.15q.005.166.011.333s0,.008,0,.011h0c.074,2.126.251,4.288.514,6.327H37.651Zm2.118,4.237A1.06,1.06,0,0,1,38.71,26.8V25.737h.868l.225,1.351c.043.257.1.513.157.767ZM38.712,14.828h-2.08a13.77,13.77,0,0,1,27.457,0H62.01a10.727,10.727,0,0,0-10.7-10.592h-1.9A10.728,10.728,0,0,0,38.712,14.828Zm10.7-8.473h1.9a8.612,8.612,0,0,1,8.584,8.623c0,.333,0,.624-.008.888,0,0,0,.007,0,.01l-1.325-.189A17.019,17.019,0,0,1,48.991,10.9a1.059,1.059,0,0,0-.749-.31,9.582,9.582,0,0,0-7.367,3.485A8.61,8.61,0,0,1,49.413,6.355Zm-7.256,21.5a60.54,60.54,0,0,1-1.271-10.279l1.426-1.9a7.455,7.455,0,0,1,5.513-2.954A19.158,19.158,0,0,0,58.26,17.783l1.559.223c-.1,2.212-.317,4.432-.622,6.473v0c-.1.656-.173,1.079-.369,2.259a9,9,0,0,1-6.385,7.235,8.333,8.333,0,0,1-9.355-4h2.159a3.182,3.182,0,0,0,3,2.118h2.118a3.177,3.177,0,1,0,0-6.355H48.242a3.179,3.179,0,0,0-3,2.118Zm6,8.263a10.624,10.624,0,0,0,3.939.089l-1.872,1.979Zm.612,3.608-3.359,3.553a40.355,40.355,0,0,1-2.371-5.5L44.3,35.257ZM56.246,34.9l1.441,2.882a40.344,40.344,0,0,1-2.372,5.5l-3.6-3.6Zm-9.063-5.984a1.059,1.059,0,0,1,1.059-1.059h2.118a1.059,1.059,0,0,1,0,2.118H48.242A1.06,1.06,0,0,1,47.183,28.915ZM28.161,52.11c.42-5.247,3.912-10.016,8.611-11.583l4.458-1.486a42.459,42.459,0,0,0,3.015,6.539l.006.011h0a42.469,42.469,0,0,0,2.9,4.427l1.3,2.092Zm22.2-.944L48.924,48.86q-.024-.039-.051-.075a40.383,40.383,0,0,1-2.386-3.565l3.777-3.994,3.98,3.98a40.34,40.34,0,0,1-2.395,3.58C51.8,48.854,51.87,48.745,50.361,51.166Zm1.908.944,1.3-2.092a42.455,42.455,0,0,0,2.919-4.462l.016-.028,0,0a42.424,42.424,0,0,0,2.983-6.483l4.458,1.486c4.7,1.567,8.191,6.336,8.611,11.583H52.268Z" transform="translate(-26)" fill="#20849e"/>
        </g>
      </g>
      <g id="Grupo_1191423" data-name="Grupo 1191423" transform="translate(38.674 43.964)">
        <g id="Grupo_1191422" data-name="Grupo 1191422">
          <path id="Trazado_1093440" data-name="Trazado 1093440" d="M395.843,418.948a10.589,10.589,0,0,0-3-3.64,1.059,1.059,0,0,0-1.292,1.679,8.458,8.458,0,0,1,2.395,2.908,1.059,1.059,0,0,0,1.9-.947Z" transform="translate(-391.139 -415.089)" fill="#20849e"/>
        </g>
      </g>
    </g>
  </g>
</svg>
