<svg xmlns="http://www.w3.org/2000/svg" width="67.722" height="74.897" viewBox="0 0 67.722 74.897">
  <g id="ventas" transform="translate(-0.499 0)">
    <path id="Trazado_1093423" data-name="Trazado 1093423" d="M69.21,86.846c-3.442-3.426-7.421-.219-7.421-.219V68.589a1.1,1.1,0,1,0-2.194,0V88.17s-5.231,4.124-7.48,5.132V60.825a2.741,2.741,0,0,1,2.738-2.738h2A2.741,2.741,0,0,1,59.6,60.825V64.1a1.1,1.1,0,1,0,2.194,0V60.825a4.937,4.937,0,0,0-4.931-4.931h-2a4.937,4.937,0,0,0-4.932,4.931V94.171a11.529,11.529,0,0,1-2.008.374V71.416a4.962,4.962,0,0,0-4.956-4.957H41a4.962,4.962,0,0,0-4.956,4.957V82.594L34.037,83.66V79.94a4.467,4.467,0,0,0-4.462-4.462H26.631A4.467,4.467,0,0,0,22.17,79.94V89.96l-3.582,1.9L8.528,94.736a6.933,6.933,0,0,0-4.805,8.411l1.125,4.329a1.1,1.1,0,1,0,2.123-.553l-1.125-4.329a4.711,4.711,0,0,1,3.285-5.749l9.2-2.629,6.913,18.449a4.914,4.914,0,0,1-3.267,6.059l-6.95,1.579A4.549,4.549,0,0,1,9.59,117l-1.411-5.429a1.1,1.1,0,1,0-2.124.552l1.411,5.43a6.729,6.729,0,0,0,6.519,5.066c2.217,0,8.475-1.751,8.475-1.751a6.76,6.76,0,0,0,5.118-7.99l24.046-5.887a13.836,13.836,0,0,0,5.458-2.732l11.7-9.615a5.2,5.2,0,0,0,.426-7.794ZM41,68.653h1.956a2.765,2.765,0,0,1,2.762,2.762V94.6l-6.923,0c-.636-.006-.2-.426-.161-.454l1.994-1.615a10.428,10.428,0,0,0,3.61-6.227,4.35,4.35,0,0,0-6-4.857V71.416A2.765,2.765,0,0,1,41,68.653ZM24.364,79.94a2.27,2.27,0,0,1,2.267-2.268h2.944a2.271,2.271,0,0,1,2.268,2.268v4.885l-7.48,3.97V79.94ZM67.392,92.945l-11.7,9.615a11.616,11.616,0,0,1-4.587,2.3L26.88,110.786,20.366,93.4l18.6-9.873a2.156,2.156,0,0,1,3.124,2.334,8.3,8.3,0,0,1-2.842,4.961l-1.994,1.615A2.45,2.45,0,0,0,38.8,96.792l7.994,0h.006a13.679,13.679,0,0,0,7.909-2.5l8.934-6.282a3.09,3.09,0,0,1,4,.369,3.044,3.044,0,0,1-.249,4.566Zm0,0" transform="translate(-2.56 -47.718)" fill="#c5a07a"/>
    <path id="Trazado_1093424" data-name="Trazado 1093424" d="M72.965,423.561a4.322,4.322,0,1,0-4.322,4.322A4.328,4.328,0,0,0,72.965,423.561Zm-6.45,0a2.128,2.128,0,1,1,2.128,2.128A2.13,2.13,0,0,1,66.514,423.561Zm0,0" transform="translate(-54.486 -357.91)" fill="#c5a07a"/>
    <path id="Trazado_1093425" data-name="Trazado 1093425" d="M6.267,34.447,22.216,18.376,25.8,20.231a3.374,3.374,0,0,0,3.891-.566l8.681-8.356S38.137,15.6,41.751,15.6a3.379,3.379,0,0,0,3.375-3.375V3.375c0-.01,0-.021,0-.032A3.194,3.194,0,0,0,41.751,0H32.978A3.379,3.379,0,0,0,29.6,3.375c0,3.71,3.775,3.375,3.775,3.375l-6.623,6.375-3.639-1.882a3.362,3.362,0,0,0-3.946.62L1.476,29.692a3.379,3.379,0,0,0,.018,4.773,3.327,3.327,0,0,0,4.773-.018ZM3.034,31.238l17.694-17.83a1,1,0,0,1,1.381-.217l4.338,2.243a1.1,1.1,0,0,0,1.265-.184l9.15-8.807A1.1,1.1,0,0,0,36.1,4.556H32.978a1.181,1.181,0,0,1,0-2.362h8.773a1.031,1.031,0,0,1,1.18,1.174c0,.01,0,.019,0,.03v8.827a1.181,1.181,0,0,1-2.362,0v-3.5a1.1,1.1,0,0,0-1.858-.79L28.173,18.084a1.18,1.18,0,0,1-1.361.2l-4.3-2.226a1.1,1.1,0,0,0-1.283.2L4.71,32.9a1.132,1.132,0,0,1-1.67.006,1.183,1.183,0,0,1-.006-1.67Zm0,0" transform="translate(0)" fill="#c5a07a"/>
  </g>
</svg>
