<svg xmlns="http://www.w3.org/2000/svg" width="105.006" height="105.006" viewBox="0 0 105.006 105.006">
  <g id="Grupo_1191485" data-name="Grupo 1191485" transform="translate(-8961.802 9211.345)">
    <g id="Grupo_1191409" data-name="Grupo 1191409" transform="translate(7799.305 -10522.672)">
      <circle id="Elipse_11480" data-name="Elipse 11480" cx="52.503" cy="52.503" r="52.503" transform="translate(1162.497 1311.327)" fill="#e9f8fc"/>
    </g>
    <g id="revision-positiva" transform="translate(8986.438 -9181.655)">
      <path id="Trazado_1093454" data-name="Trazado 1093454" d="M236.414,1.391A16.418,16.418,0,0,0,222.276,26.15a.9.9,0,0,0,1.548-.916,14.588,14.588,0,1,1,9,6.742.9.9,0,0,0-.44,1.744,16.416,16.416,0,1,0,4.033-32.329Z" transform="translate(-195.266 -1.391)" fill="#20849e"/>
      <path id="Trazado_1093455" data-name="Trazado 1093455" d="M273.186,145.86a1.332,1.332,0,0,0-.313,1.064,10.442,10.442,0,0,0,1.677,4.35.9.9,0,1,0,1.494-1,8.651,8.651,0,0,1-1.3-3.081h17.17a8.782,8.782,0,0,1-10.474,6.767.9.9,0,1,0-.386,1.757,10.573,10.573,0,0,0,12.733-8.79,1.332,1.332,0,0,0-.313-1.063,1.354,1.354,0,0,0-1.025-.468H274.21A1.353,1.353,0,0,0,273.186,145.86Z" transform="translate(-242.183 -129.202)" fill="#20849e"/>
      <path id="Trazado_1093456" data-name="Trazado 1093456" d="M294.3,72.539a3.148,3.148,0,1,0-3.148,3.148A3.151,3.151,0,0,0,294.3,72.539Zm-4.5,0a1.349,1.349,0,1,1,1.349,1.349A1.351,1.351,0,0,1,289.8,72.539Z" transform="translate(-255.621 -61.746)" fill="#20849e"/>
      <path id="Trazado_1093457" data-name="Trazado 1093457" d="M395.846,72.314a2.923,2.923,0,1,0-2.923,2.923A2.926,2.926,0,0,0,395.846,72.314Zm-4.047,0a1.124,1.124,0,1,1,1.124,1.124A1.126,1.126,0,0,1,391.8,72.314Z" transform="translate(-346.154 -61.746)" fill="#20849e"/>
      <path id="Trazado_1093458" data-name="Trazado 1093458" d="M116.144,90.992a.9.9,0,0,0-.564-1.14,8.77,8.77,0,1,0,1.455,15.972.9.9,0,0,0-.876-1.571A6.969,6.969,0,1,1,115,91.556.9.9,0,0,0,116.144,90.992Z" transform="translate(-92.308 -79.497)" fill="#20849e"/>
      <path id="Trazado_1093459" data-name="Trazado 1093459" d="M148.9,183.19h4.947a.9.9,0,1,0,0-1.8H148.9a.9.9,0,1,0,0,1.8Z" transform="translate(-131.361 -161.154)" fill="#20849e"/>
      <path id="Trazado_1093460" data-name="Trazado 1093460" d="M149.349,140.089A1.349,1.349,0,1,0,148,138.74,1.351,1.351,0,0,0,149.349,140.089Zm0-1.8a.45.45,0,1,1-.45.45A.45.45,0,0,1,149.349,138.29Z" transform="translate(-131.361 -122.101)" fill="#20849e"/>
      <path id="Trazado_1093461" data-name="Trazado 1093461" d="M12.275,106.2a.9.9,0,1,0-.72-1.649,6.971,6.971,0,1,1,.222-12.683.9.9,0,1,0,.777-1.622,8.69,8.69,0,0,0-3.784-.857,8.769,8.769,0,1,0,3.5,16.81Z" transform="translate(-0.001 -79.497)" fill="#20849e"/>
      <path id="Trazado_1093462" data-name="Trazado 1093462" d="M46.7,138.74a1.349,1.349,0,1,0-1.349,1.349A1.351,1.351,0,0,0,46.7,138.74Zm-1.8,0a.45.45,0,1,1,.45.45A.45.45,0,0,1,44.9,138.74Z" transform="translate(-39.053 -122.101)" fill="#20849e"/>
      <path id="Trazado_1093463" data-name="Trazado 1093463" d="M40.068,176.422a.9.9,0,0,0,1.271.051,4.091,4.091,0,0,1,2.782-1.087,4.152,4.152,0,0,1,.573.04.9.9,0,0,0,.248-1.782,5.963,5.963,0,0,0-.82-.057,5.885,5.885,0,0,0-4,1.564A.9.9,0,0,0,40.068,176.422Z" transform="translate(-35.352 -154.228)" fill="#20849e"/>
      <path id="Trazado_1093464" data-name="Trazado 1093464" d="M102.1,221.94a3.223,3.223,0,0,0-4.553,0l-5.1,5.1a12.5,12.5,0,0,0,17.676,17.676l5.833-5.833a3.218,3.218,0,0,0-1.5-5.4,3.215,3.215,0,0,0-3.028-4.468c0-.022,0-.043,0-.065a3.217,3.217,0,0,0-2.182-3.047l5.248-5.249a3.219,3.219,0,1,0-4.553-4.553l-7.07,7.07A3.206,3.206,0,0,0,102.1,221.94Zm9.113-4.561a1.42,1.42,0,1,1,2.009,2.009l-8.7,8.7a.9.9,0,1,0,1.272,1.272l1.408-1.408a1.42,1.42,0,1,1,2.009,2.009L108,231.17a.9.9,0,0,0,1.272,1.272l1.211-1.211a1.421,1.421,0,1,1,2.009,2.009l-1.637,1.637a.9.9,0,0,0,1.272,1.272l.546-.545a1.42,1.42,0,0,1,2.007,2.011l-5.833,5.832a10.7,10.7,0,1,1-15.132-15.132l5.1-5.1a1.42,1.42,0,1,1,2.009,2.009l-4.557,4.557a.9.9,0,0,0,1.272,1.272Z" transform="translate(-78.801 -191.13)" fill="#20849e"/>
    </g>
  </g>
</svg>
