<svg xmlns="http://www.w3.org/2000/svg" width="84" height="83.962" viewBox="0 0 84 83.962">
  <g id="viajar" transform="translate(0.005 -0.001)">
    <path id="Trazado_1093382" data-name="Trazado 1093382" d="M21.567,52.125a6.561,6.561,0,0,1,0-13.123,1.312,1.312,0,0,1,0,2.625,3.937,3.937,0,0,0,0,7.874,1.312,1.312,0,1,1,0,2.625Z" transform="translate(4.687 12.178)" fill="#20849e"/>
    <path id="Trazado_1093383" data-name="Trazado 1093383" d="M42.32,50.876a1.312,1.312,0,0,1,0-2.625,1.312,1.312,0,0,0,0-2.625,1.312,1.312,0,0,1,0-2.625,3.937,3.937,0,1,1,0,7.874Z" transform="translate(12.807 13.427)" fill="#20849e"/>
    <path id="Trazado_1093384" data-name="Trazado 1093384" d="M42.31,57.373a1.312,1.312,0,0,1,0-2.625,6.56,6.56,0,1,0,0-13.12,1.312,1.312,0,0,1,0-2.625,9.184,9.184,0,0,1,0,18.369Z" transform="translate(12.804 12.179)" fill="#20849e"/>
    <path id="Trazado_1093385" data-name="Trazado 1093385" d="M50.184,21.495a1.312,1.312,0,0,1-1.312-1.312,6.568,6.568,0,0,0-6.561-6.56,1.312,1.312,0,1,1,0-2.625A9.2,9.2,0,0,1,51.5,20.183a1.312,1.312,0,0,1-1.312,1.312Z" transform="translate(12.804 3.434)" fill="#20849e"/>
    <path id="Trazado_1093386" data-name="Trazado 1093386" d="M49.19,45.627H20.318a1.312,1.312,0,1,1,0-2.625H49.19a1.312,1.312,0,1,1,0,2.625Z" transform="translate(5.936 13.427)" fill="#20849e"/>
    <path id="Trazado_1093387" data-name="Trazado 1093387" d="M49.18,41.627H20.318a1.312,1.312,0,0,1,0-2.625H49.18a1.312,1.312,0,0,1,0,2.625Z" transform="translate(5.936 12.178)" fill="#20849e"/>
    <path id="Trazado_1093388" data-name="Trazado 1093388" d="M48.557,13.623H22.314a1.312,1.312,0,1,1,0-2.625H48.557a1.312,1.312,0,1,1,0,2.625Z" transform="translate(6.56 3.434)" fill="#20849e"/>
    <path id="Trazado_1093389" data-name="Trazado 1093389" d="M49.19,49.627H20.318a1.312,1.312,0,1,1,0-2.625H49.19a1.312,1.312,0,1,1,0,2.625Z" transform="translate(5.936 14.676)" fill="#20849e"/>
    <path id="Trazado_1093390" data-name="Trazado 1093390" d="M49.19,53.627H20.318a1.312,1.312,0,0,1,0-2.625H49.19a1.312,1.312,0,0,1,0,2.625Z" transform="translate(5.936 15.925)" fill="#20849e"/>
    <path id="Trazado_1093391" data-name="Trazado 1093391" d="M20.318,54.876a1.312,1.312,0,0,1-1.312-1.312V48.314a1.312,1.312,0,0,1,2.625,0v5.249a1.312,1.312,0,0,1-1.312,1.312Z" transform="translate(5.936 14.676)" fill="#20849e"/>
    <path id="Trazado_1093392" data-name="Trazado 1093392" d="M48.31,56.371A1.312,1.312,0,0,1,47,55.059V18.309a1.312,1.312,0,1,1,2.625,0v36.75a1.312,1.312,0,0,1-1.312,1.312Z" transform="translate(14.677 5.307)" fill="#20849e"/>
    <path id="Trazado_1093393" data-name="Trazado 1093393" d="M16.314,21.495A1.312,1.312,0,0,1,15,20.183,9.2,9.2,0,0,1,24.188,11a1.312,1.312,0,1,1,0,2.625,6.568,6.568,0,0,0-6.561,6.56,1.311,1.311,0,0,1-1.312,1.312Z" transform="translate(4.686 3.434)" fill="#20849e"/>
    <path id="Trazado_1093394" data-name="Trazado 1093394" d="M16.314,53.747A1.312,1.312,0,0,1,15,52.434V18.309a1.312,1.312,0,0,1,2.625,0V52.434a1.312,1.312,0,0,1-1.312,1.312Z" transform="translate(4.686 5.307)" fill="#20849e"/>
    <path id="Trazado_1093395" data-name="Trazado 1093395" d="M8.2,65.961a1.312,1.312,0,0,1-1.091-.581A42,42,0,0,1,71.685,12.3a1.312,1.312,0,0,1-1.856,1.856A39.371,39.371,0,0,0,9.287,63.917,1.312,1.312,0,0,1,8.2,65.961Z" transform="translate(0 0)" fill="#20849e"/>
    <path id="Trazado_1093396" data-name="Trazado 1093396" d="M39.156,79.676A41.85,41.85,0,0,1,9.464,67.4a1.312,1.312,0,0,1,1.856-1.856A39.372,39.372,0,0,0,71.861,15.776a1.312,1.312,0,1,1,2.179-1.463A41.976,41.976,0,0,1,39.156,79.676Z" transform="translate(2.837 4.288)" fill="#20849e"/>
    <path id="Trazado_1093397" data-name="Trazado 1093397" d="M55.373,11.7h-4.8a1.312,1.312,0,1,1,0-2.625h4.8a1.312,1.312,0,1,1,0,2.625Z" transform="translate(15.384 2.835)" fill="#20849e"/>
    <path id="Trazado_1093398" data-name="Trazado 1093398" d="M54.231,12.846a1.312,1.312,0,0,1-1.312-1.312v-4.8a1.312,1.312,0,0,1,2.625,0v4.8a1.312,1.312,0,0,1-1.312,1.312Z" transform="translate(16.526 1.693)" fill="#20849e"/>
    <path id="Trazado_1093399" data-name="Trazado 1093399" d="M15.188,55.546h-4.8a1.312,1.312,0,1,1,0-2.625h4.8a1.312,1.312,0,1,1,0,2.625Z" transform="translate(2.837 16.524)" fill="#20849e"/>
    <path id="Trazado_1093400" data-name="Trazado 1093400" d="M10.391,60.342A1.311,1.311,0,0,1,9.079,59.03v-4.8a1.312,1.312,0,1,1,2.625,0v4.8a1.311,1.311,0,0,1-1.312,1.312Z" transform="translate(2.837 16.524)" fill="#20849e"/>
  </g>
</svg>
