<svg xmlns="http://www.w3.org/2000/svg" width="73" height="73" viewBox="0 0 73 73">
  <g id="calendario" transform="translate(-2 -2)">
    <path id="Trazado_1093712" data-name="Trazado 1093712" d="M66.623,47.6V13.967a5.991,5.991,0,0,0-5.984-5.984H58.246V5.59a3.59,3.59,0,0,0-7.18,0V7.984H45.082V5.59a3.59,3.59,0,0,0-7.18,0V7.984h-7.18V5.59a3.59,3.59,0,0,0-7.18,0V7.984H17.557V5.59a3.59,3.59,0,0,0-7.18,0V7.984H7.984A5.991,5.991,0,0,0,2,13.967V61.836A5.991,5.991,0,0,0,7.984,67.82H48.222A14.349,14.349,0,1,0,66.623,47.6ZM53.459,5.59a1.2,1.2,0,0,1,2.393,0v7.18a1.2,1.2,0,0,1-2.393,0ZM40.3,5.59a1.2,1.2,0,1,1,2.393,0v7.18a1.2,1.2,0,0,1-2.393,0Zm-14.361,0a1.2,1.2,0,1,1,2.393,0v7.18a1.2,1.2,0,0,1-2.393,0Zm-13.164,0a1.2,1.2,0,1,1,2.393,0v7.18a1.2,1.2,0,0,1-2.393,0ZM7.984,10.377h2.393V12.77a3.59,3.59,0,0,0,7.18,0V10.377h5.984V12.77a3.59,3.59,0,0,0,7.18,0V10.377H37.9V12.77a3.59,3.59,0,1,0,7.18,0V10.377h5.984V12.77a3.59,3.59,0,0,0,7.18,0V10.377h2.393a3.594,3.594,0,0,1,3.59,3.59v5.984H4.393V13.967A3.594,3.594,0,0,1,7.984,10.377Zm0,55.049a3.594,3.594,0,0,1-3.59-3.59V22.344H64.23V46.751a13.666,13.666,0,0,0-5.984-.256V40.3a1.2,1.2,0,0,0-1.2-1.2h-7.18a1.2,1.2,0,0,0-1.2,1.2v7.18a1.2,1.2,0,0,0,1.2,1.2h2.849a14.28,14.28,0,0,0-5.6,16.754ZM55.852,46.279H51.066V41.492h4.787Zm4.787,26.328A11.967,11.967,0,1,1,72.607,60.639,11.981,11.981,0,0,1,60.639,72.607Z" fill="#20849e"/>
    <path id="Trazado_1093713" data-name="Trazado 1093713" d="M53.3,50.512V43H50.91v7.512a2.285,2.285,0,0,0-1.161,2.415l-4.374,3.5,1.5,1.87,4.37-3.5A2.385,2.385,0,0,0,53.3,50.512Z" transform="translate(8.533 8.066)" fill="#20849e"/>
    <path id="Trazado_1093714" data-name="Trazado 1093714" d="M16.377,22H9.2A1.2,1.2,0,0,0,8,23.2v7.18a1.2,1.2,0,0,0,1.2,1.2h7.18a1.2,1.2,0,0,0,1.2-1.2V23.2A1.2,1.2,0,0,0,16.377,22Zm-1.2,7.18H10.393V24.393H15.18Z" transform="translate(1.18 3.934)" fill="#20849e"/>
    <path id="Trazado_1093715" data-name="Trazado 1093715" d="M27.377,22H20.2A1.2,1.2,0,0,0,19,23.2v7.18a1.2,1.2,0,0,0,1.2,1.2h7.18a1.2,1.2,0,0,0,1.2-1.2V23.2A1.2,1.2,0,0,0,27.377,22Zm-1.2,7.18H21.393V24.393H26.18Z" transform="translate(3.344 3.934)" fill="#20849e"/>
    <path id="Trazado_1093716" data-name="Trazado 1093716" d="M38.377,22H31.2A1.2,1.2,0,0,0,30,23.2v7.18a1.2,1.2,0,0,0,1.2,1.2h7.18a1.2,1.2,0,0,0,1.2-1.2V23.2A1.2,1.2,0,0,0,38.377,22Zm-1.2,7.18H32.393V24.393H37.18Z" transform="translate(5.508 3.934)" fill="#20849e"/>
    <path id="Trazado_1093717" data-name="Trazado 1093717" d="M42.2,31.574h7.18a1.2,1.2,0,0,0,1.2-1.2V23.2a1.2,1.2,0,0,0-1.2-1.2H42.2A1.2,1.2,0,0,0,41,23.2v7.18A1.2,1.2,0,0,0,42.2,31.574Zm1.2-7.18H48.18V29.18H43.393Z" transform="translate(7.672 3.934)" fill="#20849e"/>
    <path id="Trazado_1093718" data-name="Trazado 1093718" d="M16.377,33H9.2A1.2,1.2,0,0,0,8,34.2v7.18a1.2,1.2,0,0,0,1.2,1.2h7.18a1.2,1.2,0,0,0,1.2-1.2V34.2A1.2,1.2,0,0,0,16.377,33Zm-1.2,7.18H10.393V35.393H15.18Z" transform="translate(1.18 6.098)" fill="#20849e"/>
    <path id="Trazado_1093719" data-name="Trazado 1093719" d="M27.377,33H20.2A1.2,1.2,0,0,0,19,34.2v7.18a1.2,1.2,0,0,0,1.2,1.2h7.18a1.2,1.2,0,0,0,1.2-1.2V34.2A1.2,1.2,0,0,0,27.377,33Zm-1.2,7.18H21.393V35.393H26.18Z" transform="translate(3.344 6.098)" fill="#20849e"/>
    <path id="Trazado_1093720" data-name="Trazado 1093720" d="M38.377,33H31.2A1.2,1.2,0,0,0,30,34.2v7.18a1.2,1.2,0,0,0,1.2,1.2h7.18a1.2,1.2,0,0,0,1.2-1.2V34.2A1.2,1.2,0,0,0,38.377,33Zm-1.2,7.18H32.393V35.393H37.18Z" transform="translate(5.508 6.098)" fill="#20849e"/>
    <path id="Trazado_1093721" data-name="Trazado 1093721" d="M16.377,44H9.2A1.2,1.2,0,0,0,8,45.2v7.18a1.2,1.2,0,0,0,1.2,1.2h7.18a1.2,1.2,0,0,0,1.2-1.2V45.2A1.2,1.2,0,0,0,16.377,44Zm-1.2,7.18H10.393V46.393H15.18Z" transform="translate(1.18 8.262)" fill="#20849e"/>
    <path id="Trazado_1093722" data-name="Trazado 1093722" d="M27.377,44H20.2A1.2,1.2,0,0,0,19,45.2v7.18a1.2,1.2,0,0,0,1.2,1.2h7.18a1.2,1.2,0,0,0,1.2-1.2V45.2A1.2,1.2,0,0,0,27.377,44Zm-1.2,7.18H21.393V46.393H26.18Z" transform="translate(3.344 8.262)" fill="#20849e"/>
    <path id="Trazado_1093723" data-name="Trazado 1093723" d="M38.377,44H31.2A1.2,1.2,0,0,0,30,45.2v7.18a1.2,1.2,0,0,0,1.2,1.2h7.18a1.2,1.2,0,0,0,1.2-1.2V45.2A1.2,1.2,0,0,0,38.377,44Zm-1.2,7.18H32.393V46.393H37.18Z" transform="translate(5.508 8.262)" fill="#20849e"/>
  </g>
</svg>
