<svg xmlns="http://www.w3.org/2000/svg" width="98.001" height="124.777" viewBox="0 0 98.001 124.777">
  <g id="telefono-inteligente" transform="translate(-7)">
    <g id="Grupo_1189051" data-name="Grupo 1189051" transform="translate(7 0)">
      <path id="Trazado_1085506" data-name="Trazado 1085506" d="M65.08,104.856H16.94A9.982,9.982,0,0,1,7,94.916V8.576A8.526,8.526,0,0,1,15.576,0h49.5a9.982,9.982,0,0,1,9.94,9.94V94.916A9.982,9.982,0,0,1,65.08,104.856Z" transform="translate(-7 0)" fill="#9494a0"/>
      <path id="Trazado_1085507" data-name="Trazado 1085507" d="M63.428,6.249v84.2A1.747,1.747,0,0,1,61.674,92.2H12.754A1.747,1.747,0,0,1,11,90.445V6.249A1.953,1.953,0,0,1,12.949,4.3H24.643l1.949,4.678A3.682,3.682,0,0,0,30.1,11.121H44.328a3.882,3.882,0,0,0,3.508-2.144L49.98,4.495H61.674c.974-.195,1.754.78,1.754,1.754Z" transform="translate(-3.204 4.081)" fill="#b9eded"/>
      <path id="Trazado_1085508" data-name="Trazado 1085508" d="M64.486,9.94V94.916a9.982,9.982,0,0,1-9.94,9.94H18.1C39.539,88.289,54.741,40.539,41.488,0H54.546a9.982,9.982,0,0,1,9.94,9.94Z" transform="translate(3.534 0)" opacity="0.1"/>
    </g>
    <g id="Grupo_1189053" data-name="Grupo 1189053" transform="translate(35.66 53.095)">
      <path id="Trazado_1085509" data-name="Trazado 1085509" d="M71.394,33.786a6.04,6.04,0,0,0-4.288,8.381,6.117,6.117,0,1,0-11.3,4.678,6.117,6.117,0,1,0-11.3,4.678L36.313,31.447A6.584,6.584,0,0,0,29.1,27.355a6.04,6.04,0,0,0-4.288,8.381L40.8,74.91,31.83,70.427c-2.729-1.364-6.432-.974-8.381,1.364a6.745,6.745,0,0,0,.974,9.94L38.846,92.646a29.486,29.486,0,0,0,28.845,3.7l8.77-3.508a23.4,23.4,0,0,0,12.863-30.4L79.19,37.489a7.777,7.777,0,0,0-7.8-3.7Z" transform="translate(-21.705 -27.243)" fill="#f0f0fc"/>
      <g id="Grupo_1189052" data-name="Grupo 1189052" transform="translate(22.249 8.493)">
        <path id="Trazado_1085510" data-name="Trazado 1085510" d="M39.122,52.382c-.195,0-.39.195-.585.195a1.482,1.482,0,0,1-1.559-1.169L33.47,42.832v-.195A6.473,6.473,0,0,1,34.639,36.4l5.652,13.838a1.86,1.86,0,0,1-1.169,2.144Z" transform="translate(-33.121 -27.045)" fill="#cbcbd7"/>
        <path id="Trazado_1085511" data-name="Trazado 1085511" d="M45.114,50.077a.716.716,0,0,1-.585.195A1.873,1.873,0,0,1,42.776,49.1l-3.508-8.576v-.195A6.432,6.432,0,0,1,40.632,33.9l5.652,13.838a1.893,1.893,0,0,1-1.169,2.339Z" transform="translate(-27.614 -29.417)" fill="#cbcbd7"/>
        <path id="Trazado_1085512" data-name="Trazado 1085512" d="M51.014,47.777c-.195,0-.39.195-.585.195A1.482,1.482,0,0,1,48.87,46.8l-3.7-8.77v-.195A6,6,0,0,1,46.532,31.6l5.652,13.838a2.093,2.093,0,0,1-1.169,2.339Z" transform="translate(-22.015 -31.6)" fill="#cbcbd7"/>
      </g>
      <path id="Trazado_1085513" data-name="Trazado 1085513" d="M72.186,84.92l-8.77,3.508a29.548,29.548,0,0,1-28.845-3.7L25.8,78.1c15.592,5.067,32.353.39,42.293-11.694,7.991-9.55,9.55-21.634,9.355-30.4l7.406,18.515A23.309,23.309,0,0,1,72.186,84.92Z" transform="translate(-17.819 -18.932)" opacity="0.1"/>
    </g>
  </g>
</svg>
