<svg xmlns="http://www.w3.org/2000/svg" width="74.334" height="74.334" viewBox="0 0 74.334 74.334">
  <g id="registrarse" transform="translate(-16 -16)">
    <path id="Trazado_1093711" data-name="Trazado 1093711" d="M89.095,49.45H87.189a4.924,4.924,0,0,0,.667-2.478,17.07,17.07,0,0,0-1.793-7.6l-.816-1.631a1.238,1.238,0,0,0-.554-.554l-2.858-1.429a4.246,4.246,0,0,0,3.094-6.086l-.79-1.58v-.945a8.681,8.681,0,0,0-8.709-8.674h-.187a8.45,8.45,0,0,0-8.45,8.455V28.1L66,29.677a4.245,4.245,0,0,0,3.753,6.143L67.4,37.238a1.239,1.239,0,0,0-.577.819l-1.1,5.489L58.97,45.8a1.239,1.239,0,0,0-.847,1.175V49.45H57.4l-6.708-6.708V35.4a6.154,6.154,0,0,0-1.814-4.38l-2.591-2.591a4.924,4.924,0,0,0,.688-2.515V20.092a4.092,4.092,0,0,0-6.362-3.4l-3,2a1.239,1.239,0,0,0-.552,1.031v6.194a4.924,4.924,0,0,0,.688,2.515l-3.215,3.215a6.225,6.225,0,0,0-1.5,2.421L29.691,44.1a1.239,1.239,0,0,0-.02.718l3.717,13.628a1.239,1.239,0,0,0,1.2.913h1.592l-.35,13.517-1.241,8.069V66.794a1.239,1.239,0,0,0-1.239-1.239H29.628V59.361a1.239,1.239,0,0,0-1.239-1.239H22.194a1.239,1.239,0,0,0-1.239,1.239v6.194H17.239A1.239,1.239,0,0,0,16,66.795V86.617a1.239,1.239,0,0,0,1.239,1.239h2.478v1.239a1.239,1.239,0,0,0,2.478,0V87.856h6.194v1.239a1.239,1.239,0,0,0,2.478,0V87.856h2.478a1.245,1.245,0,0,0,.178-.014l-.164,1.065a1.239,1.239,0,0,0,1.225,1.427H38.3a1.239,1.239,0,0,0,1.153-.787l4.185-10.678,3.393,10.6a1.239,1.239,0,0,0,1.18.861H89.095a1.239,1.239,0,0,0,1.239-1.239V50.689a1.239,1.239,0,0,0-1.239-1.239ZM23.433,60.6H27.15v4.956H23.433Zm8.672,24.778H18.478V68.033h2.478v2.478h2.478V68.033H27.15v2.478h2.478V68.033h2.478ZM83.847,40.485a14.58,14.58,0,0,1,1.531,6.487A2.481,2.481,0,0,1,82.9,49.45H79.184V46.7l4.017-1-.6-2.4-2.177.544v-6.01l2.793,1.4Zm-5.9-9.619a2.478,2.478,0,0,1-4.956,0v-3.2l1.239-1.239,1.6,1.6a1.239,1.239,0,0,0,.876.363h1.239Zm-3.374,4.956h1.842l1.531.766v7.868L72.989,45.7V36.771Zm-.343,12.117,2.478-.619v2.13H74.228ZM68.034,31.576a1.777,1.777,0,0,1,.187-.791l.921-1.843a1.238,1.238,0,0,0,.131-.555V26.931a5.972,5.972,0,0,1,5.972-5.976h.187a6.208,6.208,0,0,1,4.414,1.816,6.141,6.141,0,0,1,1.817,4.379v1.238a1.238,1.238,0,0,0,.131.554l.921,1.842a1.768,1.768,0,0,1-1.582,2.559H79.756a4.924,4.924,0,0,0,.667-2.478V27.15a1.239,1.239,0,0,0-1.239-1.239H77.219L75.1,23.8a1.239,1.239,0,0,0-1.752,0l-2.478,2.478a1.239,1.239,0,0,0-.363.876v3.717a4.924,4.924,0,0,0,.667,2.478H69.8a1.77,1.77,0,0,1-1.768-1.768ZM67.187,45.67a1.239,1.239,0,0,0,.823-.932l1.131-5.657,1.37-.822V49.45H65.556V46.213Zm-6.586,2.2,2.478-.826V49.45H60.6Zm-3.2,4.063H87.856v3.717H50.94l-.195-2.923,3.107,1.553a1.239,1.239,0,0,0,1.43-.232Zm-2.265-1.239-.97.97-3.472-1.736V46.246ZM39.539,25.911V23.433h4.956v2.478a2.478,2.478,0,1,1-4.956,0Zm0-5.531,2.446-1.631a1.614,1.614,0,0,1,2.509,1.343v.864H39.539Zm-4.15,14.466a3.736,3.736,0,0,1,.9-1.453L39.5,30.178a4.94,4.94,0,0,0,5.031,0l2.591,2.591A3.693,3.693,0,0,1,48.211,35.4V50.689H39.539V46.026l3.586-7.172-2.216-1.108-2,3.995-5.239-1.746ZM32.161,44.53l.729-2.186,4.9,1.634-.6,1.2a1.238,1.238,0,0,0-.131.554v11.15H35.53Zm5.294,43.325H36.027l2.258-14.678a1.229,1.229,0,0,0,.014-.156L38.559,63l3.883,12.133Zm12,0h-.335L39.539,57.929V53.167h8.752L50.6,87.856Zm3.637,0L51.1,58.122H87.856V87.856Z" fill="#20849e"/>
    <rect id="Rectángulo_460064" data-name="Rectángulo 460064" width="2" height="3" transform="translate(70 81)" fill="#20849e"/>
    <rect id="Rectángulo_460065" data-name="Rectángulo 460065" width="10" height="3" transform="translate(74 81)" fill="#20849e"/>
    <rect id="Rectángulo_460066" data-name="Rectángulo 460066" width="8" height="3" transform="translate(76 76)" fill="#20849e"/>
  </g>
</svg>
