<svg id="medios-de-comunicacion" xmlns="http://www.w3.org/2000/svg" width="89.766" height="83.026" viewBox="0 0 89.766 83.026">
  <path id="Trazado_1093311" data-name="Trazado 1093311" d="M51.7,41.621A9.612,9.612,0,0,0,41.488,25.515L35.42,15.927a4.658,4.658,0,0,0-8.138.493l-1.14,2.393L15.427,41.241,4.84,47.957a4.012,4.012,0,0,0-1.267,5.561l.113.183L3,54.138a4.054,4.054,0,0,0-1.253,5.59L3.8,62.952A4.027,4.027,0,0,0,6.332,64.74a3.808,3.808,0,0,0,.887.1A3.928,3.928,0,0,0,9.373,64.2l.69-.436.113.183A4.054,4.054,0,0,0,13.6,65.824a3.952,3.952,0,0,0,1.8-.436L22.96,77.313a5.365,5.365,0,0,0,3.407,2.393,5.761,5.761,0,0,0,1.2.127,5.523,5.523,0,0,0,2.914-.845,5.365,5.365,0,0,0,2.394-3.407,5.424,5.424,0,0,0-.718-4.111l-7.547-11.9,1.732-1.1,24.85-.127,2.647-.014a4.656,4.656,0,0,0,3.914-7.152ZM47.12,27.246A7.063,7.063,0,0,1,51.6,30.4a7.189,7.189,0,0,1-1.225,9.138l-3.055-4.815-4.505-7.1A6.957,6.957,0,0,1,47.12,27.246ZM8.754,61.7l-.69.436a1.623,1.623,0,0,1-1.2.211,1.57,1.57,0,0,1-.986-.7L3.826,58.418a1.611,1.611,0,0,1-.211-1.2,1.57,1.57,0,0,1,.7-.986l.69-.436,1.873,2.957Zm4.505,1.647a1.57,1.57,0,0,1-.986-.7L5.656,52.209a1.578,1.578,0,0,1,.493-2.182l9.842-6.237,1.352,2.14L14.554,47.7a1.232,1.232,0,0,0-.38,1.7,1.251,1.251,0,0,0,1.042.577,1.169,1.169,0,0,0,.662-.2l2.788-1.774.817,1.281-2.788,1.774a1.232,1.232,0,0,0-.38,1.7,1.251,1.251,0,0,0,1.042.577,1.169,1.169,0,0,0,.662-.2l2.788-1.774.817,1.3-2.788,1.774a1.232,1.232,0,0,0-.38,1.7,1.251,1.251,0,0,0,1.042.577,1.169,1.169,0,0,0,.662-.2l2.788-1.774L24.3,56.9l-9.152,5.8a6.033,6.033,0,0,1-1.887.648Zm9.292-2.422,7.547,11.9A2.986,2.986,0,0,1,25.044,76L17.5,64.106l1.858-1.169Zm4.125-4.886L17.779,42l9.616-20.119L48.979,55.926Zm29.088-1.281A2.171,2.171,0,0,1,53.85,55.9l-1.971.014L28.648,19.263l.845-1.774a2.194,2.194,0,0,1,3.83-.225L55.681,52.533A2.112,2.112,0,0,1,55.765,54.757Z" transform="translate(-1.113 0.673)" fill="#fec190"/>
  <path id="Trazado_1093312" data-name="Trazado 1093312" d="M69.85,25.04H47.492A3.566,3.566,0,0,0,43.93,28.6V43.864a3.566,3.566,0,0,0,3.562,3.562H69.85a3.566,3.566,0,0,0,3.562-3.562V28.616A3.56,3.56,0,0,0,69.85,25.04Zm1.112,18.838a1.1,1.1,0,0,1-1.1,1.1H47.492a1.1,1.1,0,0,1-1.1-1.1V28.616a1.1,1.1,0,0,1,1.1-1.1H69.85a1.1,1.1,0,0,1,1.1,1.1V43.878Z" transform="translate(16.353 5.273)" fill="#fec190"/>
  <path id="Trazado_1093313" data-name="Trazado 1093313" d="M65.382,29.02H48.909a1.239,1.239,0,1,0,0,2.478H65.368a1.239,1.239,0,0,0,.014-2.478Z" transform="translate(17.879 6.897)" fill="#fec190"/>
  <path id="Trazado_1093314" data-name="Trazado 1093314" d="M65.382,32.13H48.909a1.239,1.239,0,1,0,0,2.478H65.368a1.239,1.239,0,0,0,.014-2.478Z" transform="translate(17.879 8.165)" fill="#fec190"/>
  <path id="Trazado_1093315" data-name="Trazado 1093315" d="M60.112,35.23H51.819a1.239,1.239,0,1,0,0,2.478h8.293a1.239,1.239,0,1,0,0-2.478Z" transform="translate(19.066 9.43)" fill="#fec190"/>
  <path id="Trazado_1093316" data-name="Trazado 1093316" d="M69.85,3.51H47.492A3.566,3.566,0,0,0,43.93,7.072V22.334A3.566,3.566,0,0,0,47.492,25.9H69.85a3.566,3.566,0,0,0,3.562-3.562V7.086A3.56,3.56,0,0,0,69.85,3.51Zm1.112,18.838a1.1,1.1,0,0,1-1.1,1.1H47.492a1.1,1.1,0,0,1-1.1-1.1V7.086a1.1,1.1,0,0,1,1.1-1.1H69.85a1.1,1.1,0,0,1,1.1,1.1V22.348Z" transform="translate(16.353 -3.51)" fill="#fec190"/>
  <path id="Trazado_1093317" data-name="Trazado 1093317" d="M60.475,11.664,54.041,7.328a1.923,1.923,0,0,0-2.013-.1A1.985,1.985,0,0,0,51,8.961V17.62a1.952,1.952,0,0,0,1.957,1.957,1.975,1.975,0,0,0,1.1-.338L60.49,14.9a1.972,1.972,0,0,0,.859-1.633A1.938,1.938,0,0,0,60.475,11.664Zm-7.012,5.012V9.918L58.476,13.3Z" transform="translate(19.238 -2.09)" fill="#fec190"/>
  <path id="Trazado_1093318" data-name="Trazado 1093318" d="M65.382,48.8H48.909a1.239,1.239,0,1,0,0,2.478H65.368a1.239,1.239,0,0,0,.014-2.478Z" transform="translate(17.879 14.966)" fill="#fec190"/>
  <path id="Trazado_1093319" data-name="Trazado 1093319" d="M60.112,52.42H51.819a1.239,1.239,0,1,0,0,2.478h8.293a1.239,1.239,0,1,0,0-2.478Z" transform="translate(19.066 16.442)" fill="#fec190"/>
  <path id="Trazado_1093320" data-name="Trazado 1093320" d="M69.85,43.56H47.492a3.566,3.566,0,0,0-3.562,3.562V62.384a3.566,3.566,0,0,0,3.562,3.562H49.28v3.013a1.252,1.252,0,0,0,.69,1.112,1.206,1.206,0,0,0,1.3-.141l5.069-3.984H69.85a3.566,3.566,0,0,0,3.562-3.562V47.122A3.557,3.557,0,0,0,69.85,43.56ZM70.963,62.4a1.1,1.1,0,0,1-1.1,1.1H55.912a1.219,1.219,0,0,0-.76.268l-3.407,2.675V64.721a1.241,1.241,0,0,0-1.239-1.239H47.492a1.1,1.1,0,0,1-1.1-1.1V47.122a1.1,1.1,0,0,1,1.1-1.1H69.85a1.1,1.1,0,0,1,1.1,1.1V62.4Z" transform="translate(16.353 12.828)" fill="#fec190"/>
</svg>
