<svg xmlns="http://www.w3.org/2000/svg" width="105.006" height="105.006" viewBox="0 0 105.006 105.006">
  <g id="Grupo_1190996" data-name="Grupo 1190996" transform="translate(3872.851 10379.673)">
    <circle id="Elipse_11480" data-name="Elipse 11480" cx="52.503" cy="52.503" r="52.503" transform="translate(-3872.851 -10379.673)" fill="#e9f8fc"/>
    <g id="jugo" transform="translate(-3842.548 -10361.602)">
      <path id="Trazado_1092716" data-name="Trazado 1092716" d="M96.168,480h2.3v2.3h-2.3Zm0,0" transform="translate(-84.691 -424.909)" fill="#20849e"/>
      <path id="Trazado_1092717" data-name="Trazado 1092717" d="M136.168,500h2.3v2.3h-2.3Zm0,0" transform="translate(-120.1 -442.613)" fill="#20849e"/>
      <path id="Trazado_1092718" data-name="Trazado 1092718" d="M216.168,290h2.3v2.3h-2.3Zm0,0" transform="translate(-190.918 -256.716)" fill="#20849e"/>
      <path id="Trazado_1092719" data-name="Trazado 1092719" d="M256.168,310h2.3v2.3h-2.3Zm0,0" transform="translate(-226.327 -274.42)" fill="#20849e"/>
      <path id="Trazado_1092720" data-name="Trazado 1092720" d="M-3.833,1.148A1.148,1.148,0,0,0-2.685,2.3H3.968A5.768,5.768,0,0,1,9.649,7.223l1.428,9.993H1.906A1.148,1.148,0,0,0,.76,18.423l2.3,44.764a1.142,1.142,0,0,0,.7.995l.013.008a1.144,1.144,0,0,0,.432.085H5.349v3.443A1.148,1.148,0,0,0,6.5,68.865H29.452A1.148,1.148,0,0,0,30.6,67.717V64.274h1.148a1.147,1.147,0,0,0,1.146-1.087l1.64-31.074A16.06,16.06,0,1,0,17.974,16.069c0,.383.017.765.043,1.148H13.395L11.921,6.9A8.073,8.073,0,0,0,3.968,0H-2.685A1.148,1.148,0,0,0-3.833,1.148ZM11.4,19.512l1.076,7.53a6.043,6.043,0,0,1-4.263,1.652A6.5,6.5,0,0,1,3.506,26.67l-.026-.022-.366-7.136ZM28.3,66.569H7.645v-2.3H28.3ZM5.292,61.978,3.635,29.666a7.918,7.918,0,0,0,4.582,1.324,7.9,7.9,0,0,0,4.632-1.362L16.838,57.55a1.147,1.147,0,1,0,2.272-.325L14.933,27.986A5.985,5.985,0,0,1,19.116,26.4a6.5,6.5,0,0,1,4.714,2.025,8.874,8.874,0,0,0,8.43,2.292l-1.6,31.263ZM24.94,17.217a9.178,9.178,0,1,1,9.9,7.994l.348-6.788a1.147,1.147,0,0,0-1.146-1.206Zm-4.67-1.148A13.773,13.773,0,1,1,34.655,29.811l.068-2.3A11.471,11.471,0,1,0,22.565,16.069c0,.383.019.767.057,1.148h-2.3c-.032-.382-.05-.765-.05-1.148Zm12.565,3.443-.448,8.739a5.89,5.89,0,0,1-2.364.443,6.5,6.5,0,0,1-4.714-2.026A8.673,8.673,0,0,0,19.116,24.1a7.9,7.9,0,0,0-4.551,1.307l-.842-5.9Zm0,0" transform="translate(3.833 -0.001)" fill="#20849e"/>
      <path id="Trazado_1092721" data-name="Trazado 1092721" d="M288.312,90.578a1.148,1.148,0,0,0-1.91,1.273l2.3,3.443a1.148,1.148,0,1,0,1.91-1.273Zm0,0" transform="translate(-252.925 -79.738)" fill="#20849e"/>
      <path id="Trazado_1092722" data-name="Trazado 1092722" d="M337.315,114.6a1.145,1.145,0,0,0,.811-.336l2.3-2.3a1.148,1.148,0,0,0-1.623-1.623l-2.3,2.3a1.148,1.148,0,0,0,.811,1.959Zm0,0" transform="translate(-297.144 -97.384)" fill="#20849e"/>
    </g>
  </g>
</svg>
