<svg xmlns="http://www.w3.org/2000/svg" width="105.006" height="105.006" viewBox="0 0 105.006 105.006">
  <g id="Grupo_1191483" data-name="Grupo 1191483" transform="translate(-954.497 -1311.327)">
    <circle id="Elipse_11480" data-name="Elipse 11480" cx="52.503" cy="52.503" r="52.503" transform="translate(954.497 1311.327)" fill="#e9f8fc"/>
    <g id="cama-matrimonial" transform="translate(973.54 1332.93)">
      <path id="Trazado_1092674" data-name="Trazado 1092674" d="M62.651,49.889V28.856a9.289,9.289,0,0,0-9.278-9.279H13.281A9.289,9.289,0,0,0,4,28.856v21.3a14.37,14.37,0,0,0-4,9.961V76.07a5.309,5.309,0,1,0,10.619,0V74.423H56.3V76.07a5.309,5.309,0,1,0,10.619,0V60.121a14.376,14.376,0,0,0-4.269-10.232Zm-49.37-27.7H53.372a6.672,6.672,0,0,1,6.664,6.664V47.832a14.369,14.369,0,0,0-2.546-1.241V42.245A7,7,0,0,0,50.5,35.257H39.141a6.982,6.982,0,0,0-5.681,2.926,6.982,6.982,0,0,0-5.681-2.926H16.417A7,7,0,0,0,9.43,42.245v4.346A14.381,14.381,0,0,0,6.617,48V28.856a6.672,6.672,0,0,1,6.664-6.664ZM14.421,45.7a14.46,14.46,0,0,0-2.377.2V42.245a4.379,4.379,0,0,1,4.374-4.374H27.779a4.379,4.379,0,0,1,4.374,4.374V45.7H14.421Zm20.346-3.455a4.379,4.379,0,0,1,4.374-4.374H50.5a4.379,4.379,0,0,1,4.374,4.374V45.9a14.461,14.461,0,0,0-2.377-.2H34.767ZM14.421,48.314H52.5A11.82,11.82,0,0,1,64.306,60.121V64H51.2a1.307,1.307,0,0,0,0,2.614H64.306v5.2H2.614v-5.2H38.127a1.307,1.307,0,1,0,0-2.614H2.614V60.121A11.82,11.82,0,0,1,14.421,48.314ZM8,76.07a2.7,2.7,0,1,1-5.391,0V74.423H8Zm53.606,2.7a2.7,2.7,0,0,1-2.7-2.7V74.423h5.391V76.07A2.7,2.7,0,0,1,61.61,78.766Z" transform="translate(0 -19.577)" fill="#20849e"/>
      <ellipse id="Elipse_11494" data-name="Elipse 11494" cx="1.308" cy="1.308" rx="1.308" ry="1.308" transform="translate(43.353 44.421)" fill="#20849e"/>
    </g>
  </g>
</svg>
