<svg xmlns="http://www.w3.org/2000/svg" width="85" height="73.275" viewBox="0 0 85 73.275">
  <g id="charla" transform="translate(0 -32.003)">
    <g id="Grupo_1191319" data-name="Grupo 1191319" transform="translate(0 32.003)">
      <g id="Grupo_1191318" data-name="Grupo 1191318" transform="translate(0 0)">
        <path id="Trazado_1093283" data-name="Trazado 1093283" d="M84.846,103.157l-4.892-9.785A27.564,27.564,0,0,0,85,77.433,27.875,27.875,0,0,0,57.155,49.589H53.707A27.83,27.83,0,0,0,0,59.847,27.564,27.564,0,0,0,5.047,75.786L.155,85.571a1.467,1.467,0,0,0,1.967,1.967l9.785-4.892a27.564,27.564,0,0,0,15.939,5.046,28.093,28.093,0,0,0,3.369-.224,27.765,27.765,0,0,0,41.88,12.764l9.785,4.892a1.466,1.466,0,0,0,1.967-1.967Zm-57-18.4a24.687,24.687,0,0,1-14.919-5,1.47,1.47,0,0,0-1.536-.139L4.742,82.951,8.067,76.3a1.467,1.467,0,0,0-.139-1.536,24.687,24.687,0,0,1-5-14.919A24.913,24.913,0,1,1,27.845,84.761ZM73.61,97.212a1.469,1.469,0,0,0-1.536.139A24.844,24.844,0,0,1,34.151,86.945,27.7,27.7,0,0,0,54.679,52.52h2.477A24.941,24.941,0,0,1,82.069,77.433a24.687,24.687,0,0,1-5,14.919,1.467,1.467,0,0,0-.139,1.536l3.325,6.649Z" transform="translate(0 -32.003)" fill="#fec190"/>
      </g>
    </g>
    <g id="Grupo_1191321" data-name="Grupo 1191321" transform="translate(11.725 55.451)">
      <g id="Grupo_1191320" data-name="Grupo 1191320" transform="translate(0 0)">
        <path id="Trazado_1093284" data-name="Trazado 1093284" d="M68.4,160a4.4,4.4,0,1,0,4.4,4.4A4.4,4.4,0,0,0,68.4,160Zm0,5.862a1.465,1.465,0,1,1,1.465-1.465A1.466,1.466,0,0,1,68.4,165.865Z" transform="translate(-64.003 -160.003)" fill="#fec190"/>
      </g>
    </g>
    <g id="Grupo_1191323" data-name="Grupo 1191323" transform="translate(23.449 55.451)">
      <g id="Grupo_1191322" data-name="Grupo 1191322" transform="translate(0 0)">
        <path id="Trazado_1093285" data-name="Trazado 1093285" d="M132.4,160a4.4,4.4,0,1,0,4.4,4.4A4.4,4.4,0,0,0,132.4,160Zm0,5.862a1.465,1.465,0,1,1,1.465-1.465A1.466,1.466,0,0,1,132.4,165.865Z" transform="translate(-128.003 -160.003)" fill="#fec190"/>
      </g>
    </g>
    <g id="Grupo_1191325" data-name="Grupo 1191325" transform="translate(35.173 55.451)">
      <g id="Grupo_1191324" data-name="Grupo 1191324" transform="translate(0 0)">
        <path id="Trazado_1093286" data-name="Trazado 1093286" d="M196.4,160a4.4,4.4,0,1,0,4.4,4.4A4.4,4.4,0,0,0,196.4,160Zm0,5.862a1.465,1.465,0,1,1,1.465-1.465A1.466,1.466,0,0,1,196.4,165.865Z" transform="translate(-192.003 -160.003)" fill="#fec190"/>
      </g>
    </g>
    <g id="Grupo_1191327" data-name="Grupo 1191327" transform="translate(52.759 73.037)">
      <g id="Grupo_1191326" data-name="Grupo 1191326">
        <path id="Trazado_1093287" data-name="Trazado 1093287" d="M292.4,256a4.4,4.4,0,1,0,4.4,4.4A4.4,4.4,0,0,0,292.4,256Zm0,5.862a1.465,1.465,0,1,1,1.466-1.466A1.466,1.466,0,0,1,292.4,261.865Z" transform="translate(-288.003 -256.003)" fill="#fec190"/>
      </g>
    </g>
    <g id="Grupo_1191329" data-name="Grupo 1191329" transform="translate(64.483 73.037)">
      <g id="Grupo_1191328" data-name="Grupo 1191328">
        <path id="Trazado_1093288" data-name="Trazado 1093288" d="M356.4,256a4.4,4.4,0,1,0,4.4,4.4A4.4,4.4,0,0,0,356.4,256Zm0,5.862a1.465,1.465,0,1,1,1.466-1.466A1.466,1.466,0,0,1,356.4,261.865Z" transform="translate(-352.003 -256.003)" fill="#fec190"/>
      </g>
    </g>
  </g>
</svg>
