<svg xmlns="http://www.w3.org/2000/svg" width="124" height="124" viewBox="0 0 124 124">
  <g id="Grupo_1191485" data-name="Grupo 1191485" transform="translate(-6610.652 10271)">
    <g id="Grupo_1191377" data-name="Grupo 1191377" transform="translate(5508.43 -13457.452)">
      <circle id="Elipse_11474" data-name="Elipse 11474" cx="62" cy="62" r="62" transform="translate(1102.223 3186.452)" fill="#fff"/>
    </g>
    <g id="Outline" transform="translate(6642.719 -10238.934)">
      <path id="Trazado_1093498" data-name="Trazado 1093498" d="M18.661,66.659A4,4,0,0,1,16,62.9V24.98h2V62.9a2,2,0,0,0,1.33,1.882ZM47.929,16H19.991A4,4,0,0,0,16,19.991v2.993h2V19.991a2,2,0,0,1,2-2H47.929a2,2,0,0,1,1.882,1.33l1.881-.665A4,4,0,0,0,47.929,16Zm6.984,15.964V24.98a2,2,0,0,0-2-2H31.964v4.989a4,4,0,0,1-3.991,3.991H22.984v35.92a2,2,0,0,0,2,2H40.944v2H24.98a4,4,0,0,1-3.991-3.991V30.967a1,1,0,0,1,.292-.706l8.98-8.98a1,1,0,0,1,.706-.292H52.917a4,4,0,0,1,3.991,3.991v6.984ZM29.969,24.4,24.4,29.969h3.578a2,2,0,0,0,2-2Zm3.991,11.56v2.993H46.931v2H33.96v2.993h8.98v2H33.96v2.993h8.98v2H33.96v2.993h8.98v2H33.96V58.9h8.98v2H33.96v2.993h4.989v2H28.971A3,3,0,0,1,25.978,62.9V36.953a3,3,0,0,1,2.993-2.993H48.926v2Zm-2,24.944H27.973v2a1,1,0,0,0,1,1h2.993Zm0-4.989H27.973V58.9h3.991Zm0-4.989H27.973v2.993h3.991Zm0-4.989H27.973v2.993h3.991Zm0-4.989H27.973v2.993h3.991Zm0-4.989H28.971a1,1,0,0,0-1,1v2h3.991Zm2-5.987v2h8.98v-2Zm17.96-3.991H33.96v2H51.92Zm7.24,21.951H58.9v-1h-2v1h-.256a2.737,2.737,0,0,0-.866,5.334l3.608,1.2a.742.742,0,0,1-.234,1.445H56.652a.743.743,0,0,1-.742-.742v-.256h-2v.256a2.74,2.74,0,0,0,2.737,2.737h.256v1h2v-1h.256a2.737,2.737,0,0,0,.866-5.334l-3.608-1.2a.742.742,0,0,1,.234-1.445H59.16a.743.743,0,0,1,.742.742v.256h2v-.256a2.741,2.741,0,0,0-2.737-2.737ZM49.6,46.43l1.726,1a3.022,3.022,0,0,1,1.1-1.1l-1-1.726A5.02,5.02,0,0,0,49.6,46.43Zm-.67,7.485h2V48.926h-2Zm23.021-8.608,1.852-.744a12.146,12.146,0,0,0-5.449-6.3l-.931,1.765A10.153,10.153,0,0,1,71.947,45.307Zm3.919,18.585V74.868a1,1,0,0,1-1,1h-8.98v-2H69.88V64.427l-.833-.556a6.039,6.039,0,0,0-7.441.727,1,1,0,0,1-.706.292H52.419a1.518,1.518,0,0,0-1.5,1.5,1.472,1.472,0,0,0,.127.6,1.525,1.525,0,0,0,1.37.894H59.9v2H52.419a3.141,3.141,0,0,1-1.034-.157,3.471,3.471,0,0,1-2.046-1.694l-3.3-2.748a2.11,2.11,0,0,0-1.846-.348,1.7,1.7,0,0,0-.6,2.971c1.807,1.4,5.5,4.275,7.135,5.548a2,2,0,0,0,1.223.419H63.893v2H51.948a4,4,0,0,1-2.449-.84c-1.634-1.272-5.327-4.142-7.134-5.547a3.67,3.67,0,0,1-1.421-2.917v-.045a3.605,3.605,0,0,1,2.144-3.307,4.5,4.5,0,0,1,1.177-2.053,2.293,2.293,0,0,0,.671-1.618V48.926a8.994,8.994,0,0,1,7.629-8.878l-1.592-4.775a1,1,0,0,1,.947-1.313H63.893a1,1,0,0,1,.947,1.313l-1.591,4.774a8.98,8.98,0,0,1,7.629,8.879V59.539a2.3,2.3,0,0,0,.671,1.618,4.507,4.507,0,0,1,.981,1.467c.037.089.071.18.1.271h2.238A1,1,0,0,1,75.866,63.893ZM53.3,35.955l1.33,3.991h6.544l1.33-3.991Zm16.262,25.9a4.313,4.313,0,0,1-.685-2.318V48.926A6.982,6.982,0,0,0,61.9,41.942H53.915a6.992,6.992,0,0,0-6.984,6.984V59.539a4.29,4.29,0,0,1-1.255,3.029,2.522,2.522,0,0,0-.292.352,3.6,3.6,0,0,1,.363.061l.018,0a3.676,3.676,0,0,1,1.552.763l1.8,1.5a3.488,3.488,0,0,1,3.3-2.354H60.5a7.872,7.872,0,0,1,5.215-2h.1A7.783,7.783,0,0,1,69.566,61.857Zm4.3,3.034h-2v8.98h2Z" transform="translate(-16 -16)" fill="#20849e"/>
    </g>
  </g>
</svg>
