<svg xmlns="http://www.w3.org/2000/svg" width="105.006" height="105.006" viewBox="0 0 105.006 105.006">
  <g id="Grupo_1190998" data-name="Grupo 1190998" transform="translate(-1162.497 -1311.327)">
    <circle id="Elipse_11480" data-name="Elipse 11480" cx="52.503" cy="52.503" r="52.503" transform="translate(1162.497 1311.327)" fill="#e9f8fc"/>
    <g id="_07-healthy" data-name="07-healthy" transform="translate(1181.015 1330.036)">
      <path id="Trazado_1092707" data-name="Trazado 1092707" d="M349.231,111.031A5.88,5.88,0,0,0,354.3,108.1a1.172,1.172,0,0,0,0-1.174,5.858,5.858,0,0,0-10.146,0,1.172,1.172,0,0,0,0,1.174A5.88,5.88,0,0,0,349.231,111.031Zm0-4.688a3.529,3.529,0,0,1,2.618,1.172,3.511,3.511,0,0,1-5.236,0A3.528,3.528,0,0,1,349.231,106.344Z" transform="translate(-294.779 -89.937)" fill="#20849e"/>
      <path id="Trazado_1092708" data-name="Trazado 1092708" d="M70.048,67c-.77-.632-1.679-1.305-2.71-2.009,5.092-3.035,8.618-9.408,8.618-15.975,0-5.953-2.346-13.086-7.586-15.6-2.167-1.042-5.5-1.582-9.879.818a21.887,21.887,0,0,0-1.444-5.485c-1.131-3.1-2.024-5.554.035-9.673l-2.1-1.048c-2.511,5.021-1.306,8.327-.141,11.524a17.007,17.007,0,0,1,1.362,6.145c-.059.042-.115.082-.174.126-3.217-2.393-5.963-3.234-8.2-3.286V25.578a1.191,1.191,0,0,0-.234-.7l-6.8-9.062V9.172A1.172,1.172,0,0,0,39.628,8H18.535a1.172,1.172,0,0,0-1.172,1.172v6.641l-6.8,9.062a1.191,1.191,0,0,0-.234.7V50.941A4.764,4.764,0,0,0,8.2,53.78c-.495,1.708-.373,4.189,3.019,6.318a15.908,15.908,0,0,0,2.476,1.237c-3.474,1.888-3.889,4.2-3.877,5.254.026,2.146,1.7,4.014,4.271,4.759a4.2,4.2,0,0,0,1.174.161c2.112,0,4.718-1.428,7.771-4.263.918-.852,1.758-1.72,2.46-2.486a6.584,6.584,0,0,0,1.081,2.907c1.423,2.107,4.138,3.617,9.078,5.049,4.748,1.376,13.722,2.681,21.337,3.1,1.773.1,3.441.146,4.974.146a46.655,46.655,0,0,0,5.566-.286c3.6-.444,5.489-1.392,5.95-2.981S72.851,69.3,70.048,67ZM55.9,38.458a17.879,17.879,0,0,1-.646,2.265,3.532,3.532,0,0,1-2.268-1.669l-2.029,1.174a5.861,5.861,0,0,0,10.15,0L59.08,39.054A3.522,3.522,0,0,1,57.856,40.3a17.424,17.424,0,0,0,.647-3.346c3.3-2.142,6.334-2.64,8.852-1.43,3.685,1.771,6.257,7.319,6.257,13.493,0,6.115-3.624,12.232-8.515,14.515-1.189-.742-2.489-1.507-3.882-2.285-6.66-3.716-14.941-7.412-19.689-8.788-1.023-.3-1.966-.538-2.84-.728a16.506,16.506,0,0,1-.229-2.714c0-6.173,2.573-11.722,6.257-13.492,2.954-1.42,6.615-.49,10.589,2.689A1.164,1.164,0,0,0,55.9,38.458ZM12.675,26.75h18.75v7.031H12.675Zm21.094,0H45.488v6.025a8.937,8.937,0,0,0-1.789.635c-5.24,2.519-7.586,9.652-7.586,15.6a18.7,18.7,0,0,0,.146,2.306,13.488,13.488,0,0,0-2.489-.069Zm1.172-2.344,4.687-6.25,4.687,6.25ZM19.706,10.344h18.75v4.688H19.706Zm-.586,7.031H37.284l-5.273,7.031H13.847Zm-6.445,18.75h18.75V51.759c-.091.035-.182.072-.271.111a6.582,6.582,0,0,0-2.468,1.874c-.184-1.022-.429-2.2-.748-3.412-1.271-4.809-3.076-7.585-5.366-8.248-2.569-.745-4.985-.063-6.154,1.737-.571.88-1.459,3.06.466,6.513a15.939,15.939,0,0,0-2.754-.278h-.044a9.86,9.86,0,0,0-1.41.1ZM14.741,69.1c-1.554-.45-2.567-1.446-2.58-2.535-.015-1.242,1.348-3,5.217-4.226a1.172,1.172,0,0,0-.027-2.243c-5.3-1.537-7.559-3.388-6.9-5.66.392-1.353,1.577-2.027,3.591-2.027a19.8,19.8,0,0,1,5.267.934,1.172,1.172,0,0,0,1.222-1.881c-2.616-3.1-2.825-5.319-2.148-6.36.594-.914,1.982-1.213,3.536-.763,2.537.735,4.362,7.751,4.879,12.633L25.62,61.031c-3.048,3.848-8.341,8.8-10.878,8.065Zm56.49,2.951c-.164.565-3.108,2.041-14.11,1.432-1.847-.1-3.773-.257-5.7-.452l1.144-3.948-2.251-.652L49.06,72.768a88.338,88.338,0,0,1-12.754-2.3c-4.311-1.249-6.713-2.517-7.789-4.11-.981-1.453-1-3.459-.059-6.705s2.028-4.932,3.634-5.635a6.216,6.216,0,0,1,2.512-.45,23.631,23.631,0,0,1,6.267,1.142c.353.1.728.22,1.119.347l-2.93,10.109,2.251.652,2.892-9.98a127.409,127.409,0,0,1,15.867,7.455c1.252.7,2.368,1.353,3.365,1.966l-1.211,4.18,2.251.653L65.5,66.575C70.374,69.832,71.357,71.612,71.231,72.048Z" transform="translate(-7.986 -8)" fill="#20849e"/>
    </g>
  </g>
</svg>
