<svg xmlns="http://www.w3.org/2000/svg" width="60.001" height="63.422" viewBox="0 0 60.001 63.422">
  <g id="_09-group_chat" data-name="09-group chat" transform="translate(-2)">
    <path id="Trazado_1093304" data-name="Trazado 1093304" d="M61.98,59.8l-1.2-6.017a9.923,9.923,0,0,0-4.808-6.671A15.611,15.611,0,0,0,52.2,45.584a7,7,0,1,0-8.406,0,15.645,15.645,0,0,0-3.768,1.533l-.03.018c-.01,0-.019-.013-.03-.019A15.611,15.611,0,0,0,36.2,45.584a7,7,0,1,0-8.406,0,15.611,15.611,0,0,0-3.766,1.532c-.011.006-.02.014-.03.02l-.032-.02A15.611,15.611,0,0,0,20.2,45.584a7,7,0,1,0-8.406,0,15.611,15.611,0,0,0-3.766,1.532A9.923,9.923,0,0,0,3.22,53.787L2.02,59.8a1,1,0,0,0,.621,1.13,36.948,36.948,0,0,0,13.324,2.481q1.043,0,2.09-.058A37.276,37.276,0,0,0,24,62.539a36.815,36.815,0,0,0,16,0,36.994,36.994,0,0,0,21.358-1.6A1,1,0,0,0,61.98,59.8ZM43,40a5,5,0,1,1,5,5,5,5,0,0,1-5-5ZM27,40a5,5,0,1,1,5,5,5,5,0,0,1-5-5ZM11,40a5,5,0,1,1,5,5,5,5,0,0,1-5-5Zm6.945,21.36a35.011,35.011,0,0,1-13.8-2l1.039-5.18a7.921,7.921,0,0,1,3.839-5.327,14.322,14.322,0,0,1,13.2-.4,9.91,9.91,0,0,0-3,5.334L18.02,59.8a1,1,0,0,0,.621,1.129c.282.109.567.2.851.3Q18.72,61.316,17.945,61.36Zm2.2-2,1.036-5.179a7.921,7.921,0,0,1,3.839-5.327,14.3,14.3,0,0,1,13.954,0,7.921,7.921,0,0,1,3.839,5.327l1.036,5.179a35.145,35.145,0,0,1-23.7,0Zm24.387,1.87c.275-.1.551-.191.824-.3a1,1,0,0,0,.624-1.13l-1.2-6.017a9.91,9.91,0,0,0-3-5.334,14.322,14.322,0,0,1,13.2.4,7.921,7.921,0,0,1,3.839,5.327l1.036,5.179a35.043,35.043,0,0,1-15.32,1.874Z" fill="#fec190"/>
    <path id="Trazado_1093305" data-name="Trazado 1093305" d="M20.1,23.486l-1.07,4.271a1,1,0,0,0,1.595,1.024l6.06-4.848C35.438,23.332,42,18.242,42,12,42,5.383,34.374,0,25,0S8,5.383,8,12C8,17.363,12.921,21.98,20.1,23.486ZM25,2c8.271,0,15,4.486,15,10,0,5.153-6.039,9.527-13.749,9.956a1,1,0,0,0-.569.218l-3.994,3.194L22.3,22.94a1,1,0,0,0-.811-1.23C14.831,20.633,10,16.549,10,12,10,6.486,16.729,2,25,2Z" fill="#fec190"/>
    <path id="Trazado_1093306" data-name="Trazado 1093306" d="M42.9,7.1C49.228,7.743,54,11.571,54,16c0,3.782-3.477,7.185-8.652,8.468a1,1,0,0,0-.755,1.061l.226,2.507-4.476-2.917a1,1,0,0,0-.485-.161,17,17,0,0,1-5.476-1.227,1,1,0,1,0-.764,1.849,18.94,18.94,0,0,0,5.852,1.357l5.984,3.9A1,1,0,0,0,47,29.91l-.336-3.726C52.282,24.513,56,20.5,56,16c0-5.459-5.545-10.142-12.9-10.894A.989.989,0,0,0,42,6a1,1,0,0,0,.9,1.1Z" fill="#fec190"/>
  </g>
</svg>
