<svg xmlns="http://www.w3.org/2000/svg" xmlns:xlink="http://www.w3.org/1999/xlink" width="188" height="202.297" viewBox="0 0 188 202.297">
  <defs>
    <clipPath id="clip-path">
      <rect id="Rectángulo_459967" data-name="Rectángulo 459967" width="160.405" height="137.013" fill="none"/>
    </clipPath>
    <clipPath id="clip-path-3">
      <rect id="Rectángulo_459949" data-name="Rectángulo 459949" width="8.792" height="3.363" fill="none"/>
    </clipPath>
    <clipPath id="clip-path-4">
      <rect id="Rectángulo_459951" data-name="Rectángulo 459951" width="18.939" height="11.604" fill="none"/>
    </clipPath>
  </defs>
  <g id="Grupo_1191486" data-name="Grupo 1191486" transform="translate(-1225 -3009.703)">
    <g id="Grupo_1191234" data-name="Grupo 1191234" transform="translate(1038.826 -2494.67)">
      <g id="Grupo_1190588" data-name="Grupo 1190588" transform="translate(186.174 5504.373)">
        <rect id="Rectángulo_459619" data-name="Rectángulo 459619" width="188" height="202.297" rx="24" transform="translate(0 0)" fill="#f4ece4"/>
      </g>
    </g>
    <g id="Grupo_1191264" data-name="Grupo 1191264" transform="translate(1243.595 3039.247)">
      <g id="Grupo_1191263" data-name="Grupo 1191263" clip-path="url(#clip-path)">
        <g id="Grupo_1191262" data-name="Grupo 1191262">
          <g id="Grupo_1191261" data-name="Grupo 1191261" clip-path="url(#clip-path)">
            <path id="Trazado_1092950" data-name="Trazado 1092950" d="M152.683,75.665a24.961,24.961,0,0,0-2.782.19S146.328,73.4,147.065,73s2.978.161,4.452.054c.57-.042.9.879.9.879Z" transform="translate(-35.454 -17.574)" fill="#ed8c62"/>
            <path id="Trazado_1092951" data-name="Trazado 1092951" d="M154.333,73.515c.212.607,1.07-.214,1.284-.606s.482-1.212-.071-1.159-1.338,1.409-1.212,1.766" transform="translate(-37.229 -17.308)" fill="#ffa77b"/>
            <path id="Trazado_1092952" data-name="Trazado 1092952" d="M179.767,30.486c2.425-1.95,4.755-1.522,5.468,1.189s-2.14,8.418-.19,9.8,2.473.095,2.473.095c-.9,2.473-4.042,2.473-5.707,1.237s-2.282-5.184-1.807-7.847-.808-3.567-.808-3.567Z" transform="translate(-43.23 -7.064)" fill="#6d3724"/>
            <path id="Trazado_1092953" data-name="Trazado 1092953" d="M185.511,36.463c.36-1.759.756-3.574.436-4.788-.541-2.055-2.011-2.795-3.747-2.186a10,10,0,0,0-.058,1.045c0,3.184,1.493,5.776,3.368,5.929" transform="translate(-43.941 -7.064)" fill="#8e4a2f"/>
            <path id="Trazado_1092954" data-name="Trazado 1092954" d="M175.974,23.477c-1.065-.2-6.591-3.042-7.3-2.586s-1.977,3.8-1.724,6.9l9.329.709s.76-4.817-.3-5.019" transform="translate(-40.267 -5.028)" fill="#e53355"/>
            <path id="Trazado_1092955" data-name="Trazado 1092955" d="M176.53,23.477c-1.065-.2-6.591-3.042-7.3-2.586l-.01.008a4.444,4.444,0,0,1,3.909,4.661,5.117,5.117,0,0,1-.7,2.6l4.4.335s.76-4.817-.3-5.019" transform="translate(-40.823 -5.028)" fill="#bc2247"/>
            <g id="Grupo_1191257" data-name="Grupo 1191257" transform="translate(127.48 16.8)" style="mix-blend-mode: overlay;isolation: isolate">
              <g id="Grupo_1191256" data-name="Grupo 1191256">
                <g id="Grupo_1191255" data-name="Grupo 1191255" clip-path="url(#clip-path-3)">
                  <path id="Trazado_1092956" data-name="Trazado 1092956" d="M168.283,22.142c-.092.19-.184.4-.272.635a38.943,38.943,0,0,1,5.177,1.344c1.289.426,2.5.9,3.614,1.384a6.275,6.275,0,0,0-.055-.753c-1.048-.452-2.184-.887-3.385-1.284a39.076,39.076,0,0,0-5.078-1.326" transform="translate(-168.011 -22.142)" fill="#fff4c3"/>
                </g>
              </g>
            </g>
            <path id="Trazado_1092957" data-name="Trazado 1092957" d="M171.769,53.088c-1.5,3.781-3.745,14.3-4.173,15.373s1.284,6.349,2,6.491,3.388-7.169,3.744-9.381-1.569-12.484-1.569-12.484" transform="translate(-40.415 -12.807)" fill="#d8d2b2"/>
            <path id="Trazado_1092958" data-name="Trazado 1092958" d="M171.828,53.088c-.052.132-.105.274-.159.421a21.538,21.538,0,0,1,.131,7.717c-.682,4.952-2.433,8.86-4.024,9.135.408,1.922,1.382,4.492,1.878,4.59.713.143,3.388-7.169,3.744-9.381s-1.569-12.484-1.569-12.484" transform="translate(-40.475 -12.807)" fill="#d3ccab"/>
            <path id="Trazado_1092959" data-name="Trazado 1092959" d="M165.567,80.355c-2.82-1.175-.714-6.668.052-7.27s3,.453,4.238,3.133c.434.944,1.615,2.892.366,3.977-.986.857-2.059.3-2.557.362a6.081,6.081,0,0,1-2.1-.2" transform="translate(-39.598 -17.591)" fill="#efebd8"/>
            <path id="Trazado_1092960" data-name="Trazado 1092960" d="M169.857,76.538a7.079,7.079,0,0,0-1.64-2.289c.115.171.225.348.328.535.983,1.791.935,3.56-.109,3.949s-2.688-.747-3.671-2.54c-.093-.17-.175-.34-.25-.508-.55,1.856-.7,4.259,1.052,4.99a6.084,6.084,0,0,0,2.1.2c.5-.061,1.57.495,2.556-.362,1.249-1.084.069-3.033-.366-3.977" transform="translate(-39.598 -17.912)" fill="#e2debf"/>
            <rect id="Rectángulo_459950" data-name="Rectángulo 459950" width="1.07" height="123.054" transform="translate(32.339 13.744)" fill="#bfa67f"/>
            <path id="Trazado_1092961" data-name="Trazado 1092961" d="M43.691,49.822V18.113h-1.07V50.139Z" transform="translate(-10.282 -4.37)" fill="#9e7b5c"/>
            <path id="Trazado_1092962" data-name="Trazado 1092962" d="M52.23,30.456,21.687,31.71,23.957,4.983,49.845,6.176Z" transform="translate(-5.232 -1.202)" fill="#b5314d"/>
            <path id="Trazado_1092963" data-name="Trazado 1092963" d="M49.846,6.465l-6.2-.286c0,.158.008.313.008.471,0,11.819-5.834,21.4-13.031,21.4-3.108,0-5.96-1.79-8.2-4.772L21.687,32l30.544-1.253Z" transform="translate(-5.232 -1.491)" fill="#991f3f"/>
            <path id="Trazado_1092964" data-name="Trazado 1092964" d="M57.66,7.929c-2.373,3.059-4.007,9.49-4.007,16.93a47.368,47.368,0,0,0,.443,6.547l5.846-.24Z" transform="translate(-12.943 -1.913)" fill="#b5314d"/>
            <path id="Trazado_1092965" data-name="Trazado 1092965" d="M47.534,178.413H34.276l-.414,1.426H48.224Z" transform="translate(-8.169 -43.041)" fill="#bfa67f"/>
            <path id="Trazado_1092966" data-name="Trazado 1092966" d="M99.668,132.11l3.317,36.75h-.631l-3.887-36.75Z" transform="translate(-23.755 -31.871)" fill="#bfa67f"/>
            <path id="Trazado_1092967" data-name="Trazado 1092967" d="M111.451,132.11l3.317,36.75h-.631l-3.887-36.75Z" transform="translate(-26.597 -31.871)" fill="#bfa67f"/>
            <path id="Trazado_1092968" data-name="Trazado 1092968" d="M83.232,132.11l-3.317,36.75h.631l3.887-36.75Z" transform="translate(-19.279 -31.871)" fill="#bfa67f"/>
            <path id="Trazado_1092969" data-name="Trazado 1092969" d="M71.449,132.11l-3.317,36.75h.631l3.887-36.75Z" transform="translate(-16.436 -31.871)" fill="#bfa67f"/>
            <path id="Trazado_1092970" data-name="Trazado 1092970" d="M104.064,117.652c.541-10.372-8.594-40.709-8.594-40.709-11.23-3.534-22.917-4.136-32.881-.381-5.885,2.219-4.1,20.171.7,40.614.46,1.96,1.95,6.031,3.711,7.039,7.006,4.009,29.592,3.709,34.16,0,1.076-.874,2.817-4.782,2.91-6.563" transform="translate(-14.204 -17.854)" fill="#e0bc4b"/>
            <path id="Trazado_1092971" data-name="Trazado 1092971" d="M62.694,76.93c-1.8.678-2.88,2.829-3.379,6.07a11.6,11.6,0,0,0,6.07-4.186A13.27,13.27,0,0,0,67.3,75.528a37.8,37.8,0,0,0-4.609,1.4" transform="translate(-14.309 -18.221)" fill="#ffd86c"/>
            <path id="Trazado_1092972" data-name="Trazado 1092972" d="M122.974,115.108h1.617l.856,49.65H123.83Z" transform="translate(-29.667 -27.769)" fill="#bfa67f"/>
            <path id="Trazado_1092973" data-name="Trazado 1092973" d="M162.837,115.108h1.617l.856,49.65h-1.617Z" transform="translate(-39.283 -27.769)" fill="#bfa67f"/>
            <path id="Trazado_1092974" data-name="Trazado 1092974" d="M143.642,101.426A88.222,88.222,0,0,0,133.656,100c-.215.143-.215,6.135-.215,6.634l10.986.143c.214-.642.214-4.993-.785-5.35" transform="translate(-32.192 -24.121)" fill="#a8493d"/>
            <path id="Trazado_1092975" data-name="Trazado 1092975" d="M138.369,103.8c-2.345-.311-3.305-.932-4.878-.717-.014.537-.023,1.111-.029,1.659,2.093-.273,4.311.595,6.583.377a12.593,12.593,0,0,1,4.066.143l-.178-1.569a19.461,19.461,0,0,1-5.564.107" transform="translate(-32.197 -24.858)" fill="#e89b79"/>
            <path id="Trazado_1092976" data-name="Trazado 1092976" d="M143.683,101.426A88.222,88.222,0,0,0,133.7,100a1.13,1.13,0,0,0-.087.458c2.165.2,8.419,1.1,9.253,1.4.866.309.98,3.618.857,4.912l.748.01c.214-.642.214-4.993-.785-5.35" transform="translate(-32.232 -24.121)" fill="#82312b"/>
            <path id="Trazado_1092977" data-name="Trazado 1092977" d="M72.2,112.138c1.07-2.069.785-3.282-.143-3.424s-.5-3.71-.214-5.778,1.783-30.818,3.068-32.458,5.35-3.852,6.99-3.852,13.126-.071,14.981.856,5.564,3.282,6.135,4.28-1.926,31.745-1.854,32.03.285,6.92.285,6.92Z" transform="translate(-17.247 -16.073)" fill="#afa545"/>
            <path id="Trazado_1092978" data-name="Trazado 1092978" d="M103.017,72.512a5.167,5.167,0,0,0-1.184-1.156,21.916,21.916,0,0,1,.3,6.744c-1.318,12.657-7.76,24.016-14.457,24.016S75.552,91.8,75.552,79.075a41.264,41.264,0,0,1,1.043-9.345,8.277,8.277,0,0,0-1.684,1.5c-1.284,1.64-2.782,30.389-3.067,32.457s-.714,5.636.214,5.779,1.212,1.355.143,3.424l29.248-1.427s-.214-6.634-.285-6.919,2.425-31.032,1.854-32.03" transform="translate(-17.247 -16.822)" fill="#9b8e34"/>
            <path id="Trazado_1092979" data-name="Trazado 1092979" d="M71.349,70.857C66.284,74,54.014,94.826,54.371,98.178s5.493,6.492,5.493,6.492l9.631-9.63Z" transform="translate(-13.115 -17.094)" fill="#afa545"/>
            <path id="Trazado_1092980" data-name="Trazado 1092980" d="M62.457,99.973c-2.475-.973-1.539-9.252,2.091-18.492.17-.432.343-.857.518-1.277-5.238,7.4-10.941,17.929-10.7,20.229.357,3.353,5.493,6.492,5.493,6.492l9.63-9.631.348-4.536c-2.809,4.921-5.682,7.883-7.384,7.215" transform="translate(-13.115 -19.349)" fill="#9b8e34"/>
            <path id="Trazado_1092981" data-name="Trazado 1092981" d="M84.51,71.691c5.434-.772,9.94-2.59,11.769-4.536-3.562-.582-12.306-.53-13.722-.53-1.446,0-4.774,1.717-6.423,3.248l0-.038a10.834,10.834,0,0,0-1.926,1.653,28.161,28.161,0,0,0,10.3.2" transform="translate(-17.903 -16.073)" fill="#9b8e34"/>
            <path id="Trazado_1092982" data-name="Trazado 1092982" d="M84.365,66.509C89.073,72.93,94.28,73,94.28,73a10.84,10.84,0,0,0,5.707-5.779c-4.922-2.639-10.782-1.574-15.623-.713" transform="translate(-20.352 -15.813)" fill="#e2debf"/>
            <path id="Trazado_1092983" data-name="Trazado 1092983" d="M84.192,66.415a18.71,18.71,0,0,0,4.762,4.56c.306-.061.614-.127.923-.2A22.716,22.716,0,0,0,98.961,66.7c-4.705-2.026-10.822-1.464-14.769-.288" transform="translate(-20.311 -15.767)" fill="#d1caa1"/>
            <path id="Trazado_1092984" data-name="Trazado 1092984" d="M101.361,132.631H75.181c-3.71,0-3.924-7.966,0-10.249s15.479.119,17.691.476,11.32-1.285,13.268-1.285c2.426,0,3.638,11.057-4.779,11.057" transform="translate(-17.446 -29.289)" fill="#443d39"/>
            <path id="Trazado_1092985" data-name="Trazado 1092985" d="M86.322,126.063c-1-2-7.49-3.781-9.773-4.066s-8.132,3.5-6.991,7.99c1.81,7.13,15.195,22.352,24.54,31.768l.975-.951s-7.752-32.743-8.751-34.74" transform="translate(-16.745 -29.427)" fill="#594f4a"/>
            <path id="Trazado_1092986" data-name="Trazado 1092986" d="M75.508,135.517a45.819,45.819,0,0,1-4.131-10.107,5.752,5.752,0,0,0-1.819,5.4c1.81,7.13,15.195,22.352,24.54,31.768l.975-.951s-.861-3.638-2.046-8.561c-4.7-1.455-13.257-9.749-17.518-17.554" transform="translate(-16.745 -30.254)" fill="#443d39"/>
            <path id="Trazado_1092987" data-name="Trazado 1092987" d="M107.552,129.912c.618-2.118,3.452-7.534,5.635-8.132s9.082,1.307,8.775,5.921c-.487,7.319-9.916,22.043-16.316,34.91l-1.162-.883s2.45-29.7,3.068-31.816" transform="translate(-25.206 -29.353)" fill="#594f4a"/>
            <path id="Trazado_1092988" data-name="Trazado 1092988" d="M118.162,135.534c-4,10.1-9.462,17.626-12.9,18.068-.448,5.168-.778,9.169-.778,9.169l1.162.883c6.4-12.868,15.829-27.591,16.316-34.91a4.2,4.2,0,0,0-.786-2.749,67.8,67.8,0,0,1-3.014,9.539" transform="translate(-25.206 -30.395)" fill="#443d39"/>
            <path id="Trazado_1092989" data-name="Trazado 1092989" d="M88.767,47.541a81.737,81.737,0,0,1-.642,13.875s.838,2.835,5.065,3.1c2.706.171,4.637-2.854,4.637-2.854l-1.07-7.776Z" transform="translate(-21.26 -11.469)" fill="#dd704a"/>
            <path id="Trazado_1092990" data-name="Trazado 1092990" d="M96.718,41.836c.784-2.925.214-3.068-1.071-3.71a1.9,1.9,0,0,0-2.212.357s.143-1.284-1.354-1.284a3.054,3.054,0,0,0-2.355,1.569s.928-1.854-.784-1.5-3.353,3.068-3.211,4.351c0,0-1.926,2.14-1.569,3.924s1.212,2,1.212,2-.5,2.069.429,2.854,1.89,3.656,1.89,3.656l2.318-3.442Z" transform="translate(-20.293 -8.974)" fill="#5e3f31"/>
            <path id="Trazado_1092991" data-name="Trazado 1092991" d="M92.913,42.06c-2.994,0-5.421-1.235-5.421-2.758,0-.822.709-1.556,1.829-2.062a1.829,1.829,0,0,0-.379.04c-1.712.357-3.352,3.068-3.21,4.351,0,0-1.926,2.14-1.57,3.924s1.212,2,1.212,2-.5,2.069.429,2.854,1.89,3.656,1.89,3.656l1.98-2.939a10.393,10.393,0,0,1-1.185-2.173c-.829-2.017-.988-3.862-.356-4.122s1.815,1.165,2.644,3.181c.154.376.285.744.392,1.1l5.55-7.263c.065-.243.121-.465.167-.671a8.482,8.482,0,0,1-3.971.885" transform="translate(-20.293 -8.984)" fill="#4c3126"/>
            <path id="Trazado_1092992" data-name="Trazado 1092992" d="M88.527,44.8c1.609,1.807,3.26,4.993,2.3,6.937a.473.473,0,0,0-.037.337c1.1,3.99,1.389,7.718,1.841,8.17.713.713,6.468.784,7.7-1.071,1.426-2.14-1.136-16.671-2.854-17.691-2.282-1.355-11.2.79-8.953,3.317" transform="translate(-21.27 -9.907)" fill="#ffa77b"/>
            <path id="Trazado_1092993" data-name="Trazado 1092993" d="M89.451,53.646c-2.308.958-4.582-.524-4.279-2.247.325-1.845,2.176-1.684,3.093-.706a6.5,6.5,0,0,1,1.186,2.953" transform="translate(-20.54 -12.057)" fill="#ed8c62"/>
            <path id="Trazado_1092994" data-name="Trazado 1092994" d="M112.073,72.831c4.066,1.071,5.849,16.289,6.421,18.667s.475,10.272.475,10.272h-8.655Z" transform="translate(-26.612 -17.57)" fill="#afa545"/>
            <path id="Trazado_1092995" data-name="Trazado 1092995" d="M119.043,101.546c-.929-3.743-4.7-5.081-7.933-3.007a7.327,7.327,0,0,0-2.955,8.393,4.962,4.962,0,0,0,6.54,2.958,7.292,7.292,0,0,0,4.348-8.344" transform="translate(-25.999 -23.536)" fill="#e2debf"/>
            <path id="Trazado_1092996" data-name="Trazado 1092996" d="M72.654,104.531c.445-5.153-4.5-7.883-10.081-5.928-4.7,1.647-8.418,4.612-8.051,8.28a8.131,8.131,0,0,0,8.323,6.66c4.71-.47,9.408-4.36,9.809-9.011" transform="translate(-13.147 -23.634)" fill="#e2debf"/>
            <path id="Trazado_1092997" data-name="Trazado 1092997" d="M87.03,109.62c-4.351.713-18.048,5.207-23.9,3.924s-6.206-4.423-5.707-6.991,5.676-7.613,8.2-7.776c5.564-.357,22.114,7.276,22.114,7.276Z" transform="translate(-13.815 -23.826)" fill="#ffa77b"/>
            <path id="Trazado_1092998" data-name="Trazado 1092998" d="M76.4,109.727c-8.251,0-14.961-3.367-15.184-7.561-1.861,1.678-3.519,3.809-3.791,5.207-.5,2.568-.143,5.707,5.707,6.991s19.546-3.21,23.9-3.924l.656-3.283a23.516,23.516,0,0,1-11.286,2.57" transform="translate(-13.815 -24.647)" fill="#ed8c62"/>
            <path id="Trazado_1092999" data-name="Trazado 1092999" d="M103.183,104.386l-.285,3.246s1.391-.82,1.355-1.248a5.126,5.126,0,0,0-1.07-2" transform="translate(-24.823 -25.182)" fill="#ed8c62"/>
            <path id="Trazado_1093000" data-name="Trazado 1093000" d="M102.807,106.642l-.285,3.246s1.391-.82,1.355-1.249a5.13,5.13,0,0,0-1.07-2" transform="translate(-24.733 -25.727)" fill="#ffa77b"/>
            <path id="Trazado_1093001" data-name="Trazado 1093001" d="M100.246,104.159a6.37,6.37,0,0,0-3.212-2.5c-1.285-.44-5.835,2.145-7.44,2.879l3,4.389H99.6s.964-3.965.643-4.772" transform="translate(-21.614 -24.513)" fill="#ffa77b"/>
            <path id="Trazado_1093002" data-name="Trazado 1093002" d="M110.064,107.245c-3.084-6.339,3.567-12.7,9.06-13.554s7.086.19,7.086.19l.19,1.094c-4.138,7.419-5.136,11.628-5.136,12.341s-10.344,1.688-11.2-.071" transform="translate(-26.363 -22.521)" fill="#ffa77b"/>
            <path id="Trazado_1093003" data-name="Trazado 1093003" d="M123.828,92.331c.9-1.26.85-3.674,1.635-3.84a2.893,2.893,0,0,1,1.735.4l-.047,4.042a4.08,4.08,0,0,1-3.323-.606" transform="translate(-29.873 -21.341)" fill="#ed8c62"/>
            <path id="Trazado_1093004" data-name="Trazado 1093004" d="M126.21,93.881s-.843-.552-3.409-.525a23.817,23.817,0,0,1-1.251,3.331c-2.685,5.79-7.015,9.019-9.392,7.916-1.282-.594-1.8-2.495-1.582-5.028a7.789,7.789,0,0,0-.511,7.67c.856,1.76,11.2.785,11.2.071s1-4.923,5.136-12.341Z" transform="translate(-26.364 -22.521)" fill="#ed8c62"/>
            <path id="Trazado_1093005" data-name="Trazado 1093005" d="M130.7,95.151c1.426.071,1.9.262,2.5-.166a2.934,2.934,0,0,0,1.474-2.711c-.19-1.4-5.208-.832-5.208-.832l.333,3.115Z" transform="translate(-31.232 -22.032)" fill="#ed8c62"/>
            <path id="Trazado_1093006" data-name="Trazado 1093006" d="M127.966,92.844c-2.371-.791-1.569-5.041-1.284-5.421s6.325-.476,7.086-.1.618,4.376-.048,5.137-3.615,1.093-5.754.38" transform="translate(-30.474 -21.009)" fill="#774642"/>
            <path id="Trazado_1093007" data-name="Trazado 1093007" d="M128.266,87.194c.335,1.9,1.461,3.307,2.8,3.307s2.456-1.386,2.8-3.273a30.758,30.758,0,0,0-5.6-.034" transform="translate(-30.943 -21.009)" fill="#99504d"/>
            <path id="Trazado_1093008" data-name="Trazado 1093008" d="M147.956,108.762c0-.335-3.88-.392-8.667-.392s-8.667.058-8.667.392,3.88,2.533,8.667,2.533,8.667-2.2,8.667-2.533" transform="translate(-31.511 -26.144)" fill="#efeaca"/>
            <path id="Trazado_1093009" data-name="Trazado 1093009" d="M131.5,109.548a17.182,17.182,0,0,0,8,2,16.913,16.913,0,0,0,8.191-2.119c-2.511.165-14.1.211-16.189.117" transform="translate(-31.724 -26.399)" fill="#dbc6a1"/>
            <path id="Trazado_1093010" data-name="Trazado 1093010" d="M134.347,115.108h-1.617l-.856,49.65h1.617Z" transform="translate(-31.814 -27.769)" fill="#dbc6a1"/>
            <path id="Trazado_1093011" data-name="Trazado 1093011" d="M94.484,115.108H92.867l-.856,49.65h1.617Z" transform="translate(-22.197 -27.769)" fill="#dbc6a1"/>
            <path id="Trazado_1093012" data-name="Trazado 1093012" d="M148.094,110.47H91.8a1.289,1.289,0,0,0-1.289,1.289v1.7A1.289,1.289,0,0,0,91.8,114.75h56.3a1.289,1.289,0,0,0,1.289-1.289v-1.7a1.289,1.289,0,0,0-1.289-1.289" transform="translate(-21.834 -26.65)" fill="#efe3ca"/>
            <path id="Trazado_1093013" data-name="Trazado 1093013" d="M155.819,110.47h-33.29a1.289,1.289,0,0,1,1.289,1.289v1.7a1.289,1.289,0,0,1-1.289,1.289h33.29a1.289,1.289,0,0,0,1.289-1.289v-1.7a1.289,1.289,0,0,0-1.289-1.289" transform="translate(-29.559 -26.65)" fill="#dbc6a1"/>
            <path id="Trazado_1093014" data-name="Trazado 1093014" d="M140.862,124.762c-3.245-4.565-8.314-9.4-13.767-14.287a.147.147,0,0,1,.1-.256h24.239a.146.146,0,0,1,.115.237,104.255,104.255,0,0,0-9.591,14.237.643.643,0,0,1-1.092.07" transform="translate(-30.649 -26.59)" fill="#e53355"/>
            <path id="Trazado_1093015" data-name="Trazado 1093015" d="M109.554,178.392h-5.113l-1.022-3.995.951-2.378,1.713,1.426s.332,3.424.808,3.615,1.95-.095,2.663,1.332" transform="translate(-24.949 -41.498)" fill="#e0d6bd"/>
            <path id="Trazado_1093016" data-name="Trazado 1093016" d="M99.157,178.392h4.9L103.7,174.4l-1.615-2.378-1.172,1.426s.729,3.424.341,3.615-1.858-.095-2.093,1.332" transform="translate(-23.921 -41.498)" fill="#e0d6bd"/>
            <path id="Trazado_1093017" data-name="Trazado 1093017" d="M20.809,41.064l.38-2.378,31.1-1.237.571,2.378Z" transform="translate(-5.02 -9.034)" fill="#dbcca5"/>
            <path id="Trazado_1093018" data-name="Trazado 1093018" d="M28.563,40.9l21.26-.82a2.579,2.579,0,0,0,.041-1.4,2.5,2.5,0,0,0-.524-.977L32.4,38.376A15.912,15.912,0,0,0,28.563,40.9" transform="translate(-6.891 -9.095)" fill="#e2debf"/>
            <path id="Trazado_1093019" data-name="Trazado 1093019" d="M14.747,100.755H12.024a1.289,1.289,0,0,0-1.266,1.534l2.77,14.3h5.35L16.013,101.8a1.289,1.289,0,0,0-1.266-1.044" transform="translate(-2.589 -24.306)" fill="#49403c"/>
            <path id="Trazado_1093020" data-name="Trazado 1093020" d="M13.353,102.286l2.13,11.054a.192.192,0,0,0,.187.155h2.344a.191.191,0,0,0,.187-.228l-2.13-11.054a.192.192,0,0,0-.187-.155H13.54a.191.191,0,0,0-.187.228" transform="translate(-3.22 -24.621)" fill="#5c6f7a"/>
            <path id="Trazado_1093021" data-name="Trazado 1093021" d="M14.6,113.774l-2.555-13.019h-.019a1.289,1.289,0,0,0-1.266,1.534l2.77,14.3h5.35l-.488-2.521Z" transform="translate(-2.589 -24.306)" fill="#38312d"/>
            <path id="Trazado_1093022" data-name="Trazado 1093022" d="M26.243,120.016,12.91,118.723c-1.012-.1-1.91.489-1.91,1.25v3.257H27.716v-1.964a1.458,1.458,0,0,0-1.474-1.25" transform="translate(-2.654 -28.638)" fill="#594f4a"/>
            <path id="Trazado_1093023" data-name="Trazado 1093023" d="M24.34,121.827c-5.358,0-9.7-1-9.7-2.235a.872.872,0,0,1,.43-.659l-2.159-.209c-1.012-.1-1.91.489-1.91,1.25v3.257H27.716v-1.543c-1.052.09-2.189.14-3.376.14" transform="translate(-2.654 -28.638)" fill="#49403c"/>
            <path id="Trazado_1093024" data-name="Trazado 1093024" d="M28.249,123.632H.856L0,166.624H29.675Z" transform="translate(0 -29.825)" fill="#efe3ca"/>
            <path id="Trazado_1093025" data-name="Trazado 1093025" d="M30.446,129.223,9.312,143.656l-.788,19.751,22.546-15.4Z" transform="translate(-2.056 -31.174)" fill="#fcefd9"/>
            <path id="Trazado_1093026" data-name="Trazado 1093026" d="M188.786,116.93S190.5,135,193.732,157.924l.665-.19c4.505-16.261,9.8-38.046,9.987-52.028Z" transform="translate(-45.543 -25.501)" fill="#ffa77b"/>
            <path id="Trazado_1093027" data-name="Trazado 1093027" d="M191.165,137.052c2.289-.188,4.623,4.686,5.71,11.432,3.77-14.608,7.354-31.315,7.51-42.778l-15.6,11.224s.76,8.019,2.223,20.148a1.542,1.542,0,0,1,.156-.026" transform="translate(-45.543 -25.501)" fill="#ed8c62"/>
            <path id="Trazado_1093028" data-name="Trazado 1093028" d="M193.495,129.708c.085.574,1.718,31.579,1.718,31.579l.31.479.487-35.407Z" transform="translate(-46.679 -30.483)" fill="#ed8c62"/>
            <path id="Trazado_1093029" data-name="Trazado 1093029" d="M200.29,177.8H195.3a3.309,3.309,0,0,1,.649-2.782c.029-1.141-.466-5.374-.466-5.374l1.417-.571s.782,5.421,1.351,5.9a5.562,5.562,0,0,1,2.043,2.829" transform="translate(-47.089 -40.788)" fill="#e0d6bd"/>
            <path id="Trazado_1093030" data-name="Trazado 1093030" d="M194.508,177.793H188.9c-.575-1,.87-2.235,2.506-2.521s1.707-6.23,1.707-6.23l1.56.857Z" transform="translate(-45.539 -40.78)" fill="#e0d6bd"/>
            <path id="Trazado_1093031" data-name="Trazado 1093031" d="M184.461,122.745c6.277,3.71,15.5,5.232,15.884,5.041s.857-5.707.857-5.707a13.376,13.376,0,0,0,2-2.283c.285-.665,2.711-28.249-2.568-38.379-2.364-4.536-9.488-8.774-9.488-8.774l-7.918,6.634c-1.472,8-5.421,15.218,1.237,43.468" transform="translate(-43.596 -17.525)" fill="#594f4a"/>
            <path id="Trazado_1093032" data-name="Trazado 1093032" d="M200.7,81.418c-2.364-4.536-9.488-8.774-9.488-8.774l-7.918,6.635c-.659,3.583-1.815,7.01-2.293,12.237,2.246-6.228,5.333-10.153,8.446-9.969,5.292.313,8.657,12.368,7.518,26.927A58.711,58.711,0,0,1,193,126.259a32.745,32.745,0,0,0,7.415,1.527c.38-.19.856-5.707.856-5.707a13.343,13.343,0,0,0,2-2.283c.285-.665,2.71-28.249-2.568-38.379" transform="translate(-43.665 -17.525)" fill="#443b36"/>
            <path id="Trazado_1093033" data-name="Trazado 1093033" d="M191.549,79.114l-3.139-1.237c10.368,20.069,7.229,37.856,7.229,37.856s4.756-21.021-4.09-36.619" transform="translate(-45.453 -18.787)" fill="#443b36"/>
            <path id="Trazado_1093034" data-name="Trazado 1093034" d="M176.783,62.1c2.854,4.708,5.707,9.06,4.851,15.908,4.494.785,8.061-5.35,8.7-9.274-3.353-2.925-7.562-9.631-7.562-11.628s-5.992,4.993-5.992,4.993" transform="translate(-42.648 -13.691)" fill="#d8d2b2"/>
            <path id="Trazado_1093035" data-name="Trazado 1093035" d="M182.776,57.111c0-2-5.992,4.993-5.992,4.993a59.4,59.4,0,0,1,3.163,5.612,2.322,2.322,0,0,1,1.569-.69c2.232,0,4.043,3.95,4.043,8.822,0,.388-.013.77-.036,1.145,2.553-1.823,4.374-5.56,4.815-8.255-3.353-2.925-7.562-9.63-7.562-11.628" transform="translate(-42.648 -13.691)" fill="#ccba9f"/>
            <path id="Trazado_1093036" data-name="Trazado 1093036" d="M172.877,51.885c-.571,3.781.5,13.482,1.07,14.2s7.633-1,8.7-2.782,2.283-12.912,2-13.411-6.421-3-7.134-2.64a56.465,56.465,0,0,0-4.637,4.637" transform="translate(-41.666 -11.39)" fill="#e2debf"/>
            <path id="Trazado_1093037" data-name="Trazado 1093037" d="M184.821,50.284a11.693,11.693,0,0,0-2.867-1.427,14.2,14.2,0,0,1-.734,6.809c-1.635,4.741-5.028,7.925-7.786,7.434a12.784,12.784,0,0,0,.686,3.377c.571.713,7.633-1,8.7-2.782s2.282-12.912,2-13.411" transform="translate(-41.84 -11.786)" fill="#d3ccab"/>
            <path id="Trazado_1093038" data-name="Trazado 1093038" d="M181.377,71.15c2.854-2.925,5.35-11.7,5.635-13.126s.214-6.706-.785-7.348-2.282.428-2.5,1.713-3.353,10.058-4.28,11.342,1.926,7.419,1.926,7.419" transform="translate(-43.247 -12.179)" fill="#e2debf"/>
            <path id="Trazado_1093039" data-name="Trazado 1093039" d="M186.414,56.971c-1.365,4.882-3.908,8.438-5.678,7.943a1.641,1.641,0,0,1-.963-.864,4.469,4.469,0,0,1-.322.561c-.927,1.284,1.926,7.419,1.926,7.419,2.853-2.925,5.35-11.7,5.635-13.126a20.486,20.486,0,0,0,.018-4.773,24.277,24.277,0,0,1-.617,2.84" transform="translate(-43.247 -13.059)" fill="#d3ccab"/>
            <path id="Trazado_1093040" data-name="Trazado 1093040" d="M175.138,79.135c-2.865-2.455-1.355-10.8.071-10.629s2.093,12.483-.071,10.629" transform="translate(-41.859 -16.526)" fill="#ccbfa6"/>
            <path id="Trazado_1093041" data-name="Trazado 1093041" d="M173.132,75.258c-4.28-.856-17.62-5.421-18.4-5.421s1.165-1.95,3.091-2.021,12.388.737,13.459,1.165,1.854,6.277,1.854,6.277" transform="translate(-37.284 -16.359)" fill="#ffa77b"/>
            <path id="Trazado_1093042" data-name="Trazado 1093042" d="M172.009,70.085c-.116,1.357-4.581,2.087-10.015,1.65,4.436,1.4,10.343,3.277,12.934,3.8,0,0-.785-5.85-1.855-6.278a11.926,11.926,0,0,0-1.937-.316c.59.376.906.767.873,1.149" transform="translate(-39.08 -16.63)" fill="#ed8c62"/>
            <path id="Trazado_1093043" data-name="Trazado 1093043" d="M175.627,78.739c1-5.707-.571-10.343.071-10.629l1.284-.571s.357-.856,1.141-.642,3.464,4.379,2.711,9.274c-.143.928-2.711,2.782-3.21,3.21s-.571-.357-.571-.357-1.488.066-1.426-.285" transform="translate(-42.347 -16.13)" fill="#efebd8"/>
            <path id="Trazado_1093044" data-name="Trazado 1093044" d="M178.489,67.208a8.858,8.858,0,0,1,.707,1.266c1.007,2.2.98,4.376-.061,4.851-.934.427-2.366-.662-3.378-2.483a27.972,27.972,0,0,1-.1,7.981c-.061.351,1.426.285,1.426.285s.071.785.571.357,3.068-2.282,3.21-3.21c.666-4.332-1.355-8.091-2.373-9.046" transform="translate(-42.375 -16.213)" fill="#e2debf"/>
            <path id="Trazado_1093045" data-name="Trazado 1093045" d="M164.752,79.639c-5.918-.517-10.6-3.746-11.218-3.927s-1.375-1.742-.539-1.864c.862-.125,9.548.606,10.861.862,1.332.259,3.088,5.121.9,4.929" transform="translate(-36.82 -17.812)" fill="#ed8c62"/>
            <path id="Trazado_1093046" data-name="Trazado 1093046" d="M151.352,74.077a3.3,3.3,0,0,0,1.89.553l.3.785a3.879,3.879,0,0,1-2.194-1.338" transform="translate(-36.513 -17.871)" fill="#dd704a"/>
            <path id="Trazado_1093047" data-name="Trazado 1093047" d="M180.555,52.376a13.961,13.961,0,0,0,4.6-1.889,1.232,1.232,0,0,0-.4-.6c-.285-.5-6.421-3-7.134-2.64a49.589,49.589,0,0,0-4.467,4.452c1.1,1.118,4.1,1.438,7.4.675" transform="translate(-41.772 -11.39)" fill="#c6b99e"/>
            <path id="Trazado_1093048" data-name="Trazado 1093048" d="M180.061,47.3c-1.569,2.473-1.284,8.18-1.522,8.275s-3.043-2.426-3.186-2.473-1.9,3.8-2.14,3.852-.933-4.528,1.332-7.515c3.282-4.327,5.517-2.14,5.517-2.14" transform="translate(-41.717 -11.278)" fill="#efebd8"/>
            <path id="Trazado_1093049" data-name="Trazado 1093049" d="M174.7,49.443a7.416,7.416,0,0,0-1.125,2.213,9.873,9.873,0,0,0,4.323.9c.356,0,.7-.016,1.043-.046a12.644,12.644,0,0,1,1.275-5.209s-2.235-2.188-5.517,2.14" transform="translate(-41.874 -11.278)" fill="#e2debf"/>
            <path id="Trazado_1093050" data-name="Trazado 1093050" d="M175.268,48.74a44.727,44.727,0,0,0-1.712-8.18l2.188-3.424,2.568,7.419a8.259,8.259,0,0,1-3.044,4.185" transform="translate(-41.869 -8.959)" fill="#dd704a"/>
            <path id="Trazado_1093051" data-name="Trazado 1093051" d="M174.874,39.218A22.853,22.853,0,0,0,171.5,36.7l-5.2,1.823c-1.44.545-4.976-6.7.487-9.717,4.37-2.411,9.654.044,10.32,3,.761,3.376-2.235,7.419-2.235,7.419" transform="translate(-39.526 -6.713)" fill="#8e4a2f"/>
            <path id="Trazado_1093052" data-name="Trazado 1093052" d="M177.612,31.777c-.585-2.6-4.812-4.928-8.734-3.706,3.32.075,5.976,1.769,5.976,3.848,0,2.128-2.779,3.852-6.207,3.852a9.442,9.442,0,0,1-2.719-.388c.156.276.269.436.269.436l5.8.856a22.761,22.761,0,0,1,3.376,2.521s3-4.043,2.235-7.419" transform="translate(-40.029 -6.691)" fill="#6d3724"/>
            <path id="Trazado_1093053" data-name="Trazado 1093053" d="M170.91,46.219a1.077,1.077,0,0,1-.769-.344c-3.463-3.563-5.471-8.036-3.746-10.6,1.474-2.187,2.38,1.333,7.421,2.19,1.522,5.612-1.81,8.739-2.905,8.749" transform="translate(-39.99 -8.341)" fill="#ffa77b"/>
            <path id="Trazado_1093054" data-name="Trazado 1093054" d="M176.166,37.843c-.429-1.474-.477-4.423.9-3.8s.9,1.9.38,2.758a2.33,2.33,0,0,1-1.283,1.046" transform="translate(-42.435 -8.191)" fill="#ffa77b"/>
            <path id="Trazado_1093055" data-name="Trazado 1093055" d="M150.65,72.813c-.653-.045-.285-.571.071-.963s.464-1.766,1.105-2.015a14.184,14.184,0,0,1,1.891-.482l-1.124,2s-1.426,1.5-1.944,1.462" transform="translate(-36.256 -16.731)" fill="#ffa77b"/>
            <path id="Trazado_1093056" data-name="Trazado 1093056" d="M149.935,73.68l.429.65c2.022-2.655,3.9-1.57,4.039.788a2.9,2.9,0,0,1-1.54,3l.3.455a3.728,3.728,0,0,0,2.055-3.92c-.175-3.075-2.642-4.485-5.282-.973" transform="translate(-36.171 -17.277)" fill="#d1caa1"/>
            <path id="Trazado_1093057" data-name="Trazado 1093057" d="M143.436,80.428c-4.08.792-5.131-1.662-7.194-1.517l-.813.891c2.667-.395,5.877,4.218,8.686,3.844s-.68-3.218-.68-3.218" transform="translate(-32.672 -19.035)" fill="#b7ae80"/>
            <path id="Trazado_1093058" data-name="Trazado 1093058" d="M151.62,76.781a5.069,5.069,0,0,0-9.78,2.666c.723,2.652,3.258,3.323,5.959,2.587s4.544-2.6,3.821-5.254" transform="translate(-34.176 -17.642)" fill="#d1caa1"/>
            <path id="Trazado_1093059" data-name="Trazado 1093059" d="M146.175,72.48a.754.754,0,1,0-.523.947.765.765,0,0,0,.523-.947" transform="translate(-34.906 -17.346)" fill="#d1caa1"/>
            <path id="Trazado_1093060" data-name="Trazado 1093060" d="M146.269,79.443a4.631,4.631,0,0,0,4.833-3.955,5.1,5.1,0,0,0-9.237,1.474,4.923,4.923,0,0,0,4.4,2.48" transform="translate(-34.224 -17.642)" fill="#e5debd"/>
            <path id="Trazado_1093061" data-name="Trazado 1093061" d="M139.044,79.926c-1.047-.5-1.834-1.115-2.874-1.017-1.1.1-1.25.953-.812.891a4.438,4.438,0,0,1,2.826.914,3.148,3.148,0,0,0,.86-.788" transform="translate(-32.599 -19.034)" fill="#d1caa1"/>
            <path id="Trazado_1093062" data-name="Trazado 1093062" d="M136.476,79.188c-.039-.09-.281-.069-.542.048s-.439.285-.4.376.281.069.542-.048.439-.285.4-.376" transform="translate(-32.695 -19.09)" fill="#8e855b"/>
            <path id="Trazado_1093063" data-name="Trazado 1093063" d="M145.132,74.916a10.467,10.467,0,0,1-2.209.361c-.035.048-.074.093-.106.141a9.2,9.2,0,0,0,2.468-.343,6.541,6.541,0,0,0,3.2-1.683c-.046-.013-.094-.023-.141-.035a7.993,7.993,0,0,1-3.217,1.558" transform="translate(-34.454 -17.697)" fill="#8e855b"/>
            <path id="Trazado_1093064" data-name="Trazado 1093064" d="M145.25,71.929a.488.488,0,1,0,.8.278.748.748,0,0,0-.8-.278" transform="translate(-34.912 -17.346)" fill="#e5debd"/>
            <path id="Trazado_1093065" data-name="Trazado 1093065" d="M154.813,72.521c-.806-1.161-2.26-1.329-3.86.265a2.531,2.531,0,0,0,.8.408,1.613,1.613,0,0,1,2.107-.042,2.217,2.217,0,0,0,.95-.631" transform="translate(-36.416 -17.278)" fill="#e5debd"/>
            <path id="Trazado_1093066" data-name="Trazado 1093066" d="M9.559,123.632H.856L0,166.624H9.559Z" transform="translate(0 -29.825)" fill="#dbcdb4"/>
            <path id="Trazado_1093067" data-name="Trazado 1093067" d="M1.074,123.632l-.168,8.441c3.387,4.224,6.365,12.37,7.647,21.966a66.537,66.537,0,0,1,.534,12.585h.69V123.632Z" transform="translate(-0.219 -29.825)" fill="#c6b497"/>
            <path id="Trazado_1093068" data-name="Trazado 1093068" d="M126.029,92.038c-.369-.421-.761-3.115-.4-3.424a.948.948,0,0,1,1.285.024c.261.357.618,3.043.309,3.234s-1.023.357-1.189.166" transform="translate(-30.272 -21.32)" fill="#ffa77b"/>
            <path id="Trazado_1093069" data-name="Trazado 1093069" d="M137.3,90.046c-.1-.417-1.625-.606-1.92-.334a2.429,2.429,0,0,0-.129,1.2c.046.345,1.559.568,1.8.387a1.5,1.5,0,0,0,.249-1.258" transform="translate(-32.623 -21.612)" fill="#ffa77b"/>
            <path id="Trazado_1093070" data-name="Trazado 1093070" d="M136.463,92.545c-.119-.412-1.65-.535-1.933-.25a2.437,2.437,0,0,0-.076,1.21c.061.342,1.583.5,1.815.307a1.5,1.5,0,0,0,.193-1.268" transform="translate(-32.427 -22.228)" fill="#ffa77b"/>
            <path id="Trazado_1093071" data-name="Trazado 1093071" d="M134.554,95.177c.011-.429-1.876-1.157-2.345-1.007-.212.068-.514.747-.572,1.088s1.805,1.1,2.174,1.013a1.281,1.281,0,0,0,.744-1.094" transform="translate(-31.756 -22.713)" fill="#ffa77b"/>
            <g id="Grupo_1191260" data-name="Grupo 1191260" transform="translate(99.762 83.629)" style="mix-blend-mode: overlay;isolation: isolate">
              <g id="Grupo_1191259" data-name="Grupo 1191259">
                <g id="Grupo_1191258" data-name="Grupo 1191258" clip-path="url(#clip-path-4)">
                  <path id="Trazado_1093072" data-name="Trazado 1093072" d="M143.1,119.769a.643.643,0,0,1-1.092.07,70.539,70.539,0,0,0-8.7-9.62h-1.82A78.982,78.982,0,0,1,142,121.552a.643.643,0,0,0,1.092-.071,94.421,94.421,0,0,1,7.325-11.262h-1.252a89.1,89.1,0,0,0-6.073,9.55" transform="translate(-131.481 -110.219)" fill="#efe3ca"/>
                </g>
              </g>
            </g>
            <path id="Trazado_1093073" data-name="Trazado 1093073" d="M87.989,52.664a.674.674,0,0,1,.417-.611,2.09,2.09,0,0,0-.349-.539c-.551-.588-1.663-.684-1.858.424-.176,1,1.1,1.864,2.439,1.4a.7.7,0,0,1-.648-.671" transform="translate(-20.791 -12.324)" fill="#b74a2c"/>
            <path id="Trazado_1093074" data-name="Trazado 1093074" d="M78.571,70.763l-1.678.367a30.131,30.131,0,0,0,6.78,21.533,44.127,44.127,0,0,1-5.1-21.9" transform="translate(-18.519 -17.071)" fill="#9b8e34"/>
            <path id="Trazado_1093075" data-name="Trazado 1093075" d="M135.667,79.7a19.621,19.621,0,0,1-.69,5.855h.785s.31-5.921.5-6.159a.441.441,0,0,0-.595.3" transform="translate(-32.562 -19.145)" fill="#4c2a29"/>
            <path id="Trazado_1093076" data-name="Trazado 1093076" d="M114.105,12.388A12.389,12.389,0,1,0,126.494,0a12.389,12.389,0,0,0-12.389,12.389" transform="translate(-27.527 0)" fill="#594f4a"/>
            <path id="Trazado_1093077" data-name="Trazado 1093077" d="M126.873,10.933a23.146,23.146,0,0,1-8.1-6.8,12.434,12.434,0,0,0-2.518,3.1c.558.244,1.115.508,1.669.8,7.913,4.139,12.284,11.4,9.764,16.218a6.2,6.2,0,0,1-1.115,1.506c.145.005.29.011.436.011A12.386,12.386,0,0,0,139.4,13.567a21.548,21.548,0,0,1-12.524-2.634" transform="translate(-28.046 -0.998)" fill="#443d39"/>
            <path id="Trazado_1093078" data-name="Trazado 1093078" d="M130.132,2.355a10.731,10.731,0,0,0-13.145,7.57,10.519,10.519,0,1,0,20.185,5.867,10.731,10.731,0,0,0-7.04-13.437" transform="translate(-28.113 -0.471)" fill="#d3bda7"/>
            <path id="Trazado_1093079" data-name="Trazado 1093079" d="M130.157,4.41a9.826,9.826,0,0,0-12.038,6.933A9.632,9.632,0,1,0,136.6,16.715a9.826,9.826,0,0,0-6.447-12.3" transform="translate(-28.395 -0.975)" fill="#efebd8"/>
            <rect id="Rectángulo_459952" data-name="Rectángulo 459952" width="0.571" height="7.324" transform="translate(98.682 4.589)" fill="#e53355"/>
            <rect id="Rectángulo_459953" data-name="Rectángulo 459953" width="3.619" height="0.571" transform="matrix(0.958, -0.287, 0.287, 0.958, 99.099, 11.998)" fill="#e53355"/>
            <path id="Trazado_1093080" data-name="Trazado 1093080" d="M130.41,15.244a.849.849,0,1,0,.546,1.042.832.832,0,0,0-.546-1.042" transform="translate(-31.206 -3.67)" fill="#594f4a"/>
            <rect id="Rectángulo_459954" data-name="Rectángulo 459954" width="0.514" height="1.076" transform="translate(98.733 21.371)" fill="#594f4a"/>
            <rect id="Rectángulo_459955" data-name="Rectángulo 459955" width="0.514" height="1.076" transform="translate(98.733 2.473)" fill="#594f4a"/>
            <rect id="Rectángulo_459956" data-name="Rectángulo 459956" width="1.076" height="0.514" transform="translate(89.004 12.202)" fill="#594f4a"/>
            <rect id="Rectángulo_459957" data-name="Rectángulo 459957" width="1.076" height="0.514" transform="translate(107.902 12.202)" fill="#594f4a"/>
            <rect id="Rectángulo_459958" data-name="Rectángulo 459958" width="1.076" height="0.515" transform="matrix(0.707, -0.707, 0.707, 0.707, 91.747, 19.34)" fill="#594f4a"/>
            <rect id="Rectángulo_459959" data-name="Rectángulo 459959" width="1.076" height="0.515" transform="translate(105.11 5.977) rotate(-45.001)" fill="#594f4a"/>
            <rect id="Rectángulo_459960" data-name="Rectángulo 459960" width="0.515" height="1.076" transform="translate(91.747 5.58) rotate(-45)" fill="#594f4a"/>
            <path id="Trazado_1093081" data-name="Trazado 1093081" d="M139.29,25.611l.364-.363-.761-.761-.364.363Z" transform="translate(-33.419 -5.907)" fill="#594f4a"/>
            <path id="Trazado_1093082" data-name="Trazado 1093082" d="M97.412,56.8c.143.778-.285,2.623.321,2.738s3.781.086,3.959-.4a17.7,17.7,0,0,0,.214-2.738Z" transform="translate(-23.496 -13.605)" fill="#302521"/>
            <path id="Trazado_1093083" data-name="Trazado 1093083" d="M97.851,56.767c.122.665-.244,2.241.274,2.339s3.23.074,3.383-.344a15.2,15.2,0,0,0,.183-2.339Z" transform="translate(-23.603 -13.612)" fill="#f7f2e7"/>
            <path id="Trazado_1093084" data-name="Trazado 1093084" d="M95.47,56.436c2.03.391,4.53-.25,5.136-.25a26.14,26.14,0,0,0,4.1,0c.25-.214-3.959-1.641-4.494-1.641s-5.671,1.713-4.744,1.891" transform="translate(-23.005 -13.159)" fill="#5e3f31"/>
            <path id="Trazado_1093085" data-name="Trazado 1093085" d="M100.18,49.181c-.321-.178-.5-1.177-.285-1.319a5.118,5.118,0,0,1,2.568-.214c.357.285.571,1.391,0,1.533a11.773,11.773,0,0,1-2.282,0" transform="translate(-24.076 -11.469)" fill="#5e3f31"/>
            <path id="Trazado_1093086" data-name="Trazado 1093086" d="M96.4,51.775c.357-.856,1.5-1,1.819-.214a2.279,2.279,0,0,0-1.819.214" transform="translate(-23.256 -12.314)" fill="#5e3f31"/>
            <path id="Trazado_1093087" data-name="Trazado 1093087" d="M101.006,51.3c.322-.847,1.351-.96,1.64-.166a1.86,1.86,0,0,0-1.64.166" transform="translate(-24.367 -12.206)" fill="#5e3f31"/>
            <path id="Trazado_1093088" data-name="Trazado 1093088" d="M99.683,49.515a12.073,12.073,0,0,1,2.39,4.1c-.036.428-2.176.357-2.426.036s-.5-1.212-.25-1.248a2.355,2.355,0,0,1,.535,0l-.713-2.889Z" transform="translate(-23.936 -11.945)" fill="#ed8c62"/>
            <path id="Trazado_1093089" data-name="Trazado 1093089" d="M93.642,49.464a9.493,9.493,0,0,0,4.387-.214c.143-.285.143-1.106-.214-1.355s-3.817.25-4.173.392-.285,1.034,0,1.177" transform="translate(-22.532 -11.538)" fill="#5e3f31"/>
            <path id="Trazado_1093090" data-name="Trazado 1093090" d="M100.943,61.98a.83.83,0,0,1-.613-.833s1.238-.158,1.254.033c.028.345-.641.8-.641.8" transform="translate(-24.203 -14.736)" fill="#5e3f31"/>
            <path id="Trazado_1093091" data-name="Trazado 1093091" d="M155.836,70.2c-1.159.624-1.209,2.164-1.64,2.372s-1.392-.124-2-.2-.785-1.641-.357-2.354,3.626-1.986,4.411-2.021-.417,2.2-.417,2.2" transform="translate(-36.574 -16.406)" fill="#ffa77b"/>
            <path id="Trazado_1093092" data-name="Trazado 1093092" d="M207.688,101.695s-.568,21.643-1.661,33.1a1.289,1.289,0,0,0,.424,0c.381-.19.857-5.707.857-5.707a21.844,21.844,0,0,0,1.581-1.666c-1.2-13.18-1.2-25.727-1.2-25.727" transform="translate(-49.703 -24.533)" fill="#352e2a"/>
            <path id="Trazado_1093093" data-name="Trazado 1093093" d="M177.155,35.115c-.566-.253-.706.555-.649,1.335a.44.44,0,0,1,.5.189.43.43,0,0,1-.063.48,1.413,1.413,0,0,0,.424-.443c.3-.485.565-1.211-.215-1.561" transform="translate(-42.578 -8.46)" fill="#dd704a"/>
            <path id="Trazado_1093094" data-name="Trazado 1093094" d="M31.807,165.817H13.761l.511-40.628H30.955Zm-17.479-.558H31.236l-.829-39.511H14.824Z" transform="translate(-3.32 -30.201)" fill="#c6b497"/>
            <rect id="Rectángulo_459961" data-name="Rectángulo 459961" width="16.693" height="0.571" transform="translate(11.01 108.193)" fill="#c6b497"/>
            <rect id="Rectángulo_459962" data-name="Rectángulo 459962" width="16.978" height="0.571" transform="translate(10.938 122.103)" fill="#c6b497"/>
            <rect id="Rectángulo_459963" data-name="Rectángulo 459963" width="4.66" height="1.807" transform="translate(17.359 122.389)" fill="#c6b497"/>
            <rect id="Rectángulo_459964" data-name="Rectángulo 459964" width="4.66" height="1.807" transform="translate(17.359 108.359)" fill="#c6b497"/>
            <rect id="Rectángulo_459965" data-name="Rectángulo 459965" width="4.66" height="1.807" transform="translate(17.359 95.233)" fill="#c6b497"/>
            <path id="Trazado_1093095" data-name="Trazado 1093095" d="M15.813,102.558a.191.191,0,0,0-.187-.155H13.363l2.123,11.02a.191.191,0,0,0,.187.155h2.263Z" transform="translate(-3.224 -24.704)" fill="#6d8c9b"/>
            <path id="Trazado_1093096" data-name="Trazado 1093096" d="M172.849,44.419c-.091-.1-.272-.064-.377.08a2.428,2.428,0,0,1-1.7,1.073l.06.178a2.689,2.689,0,0,0,2-1.011.258.258,0,0,0,.021-.32" transform="translate(-41.197 -10.702)" fill="#dd704a"/>
            <path id="Trazado_1093097" data-name="Trazado 1093097" d="M172.177,46.686c-.662.259-.528-.313.1-.45s.8.1-.1.45" transform="translate(-41.431 -11.145)" fill="#dd704a"/>
            <path id="Trazado_1093098" data-name="Trazado 1093098" d="M170.072,42.693c-.391,1.193-.43,1.407.684,1.388-.475-.225-.623-.766-.684-1.388" transform="translate(-40.968 -10.299)" fill="#dd704a"/>
            <path id="Trazado_1093099" data-name="Trazado 1093099" d="M171.914,40.344a1.147,1.147,0,0,0-1-.876c-.413.009-.637.417-.5.91a1.148,1.148,0,0,0,.995.876c.414-.009.637-.417.5-.91" transform="translate(-41.103 -9.521)" fill="#443430"/>
            <path id="Trazado_1093100" data-name="Trazado 1093100" d="M168.274,41.946c-.178-.387-.518-.6-.758-.468s-.29.546-.111.933.518.6.758.467.289-.546.111-.933" transform="translate(-40.359 -9.997)" fill="#443430"/>
            <path id="Trazado_1093101" data-name="Trazado 1093101" d="M169.906,40.153c1.4-.863,2.193-.247,2.193-.247-.895-1.124-1.988-.344-2.417-.12-.169.089.061.467.225.366" transform="translate(-40.92 -9.484)" fill="#443430"/>
            <path id="Trazado_1093102" data-name="Trazado 1093102" d="M167.871,41.2c.186-.1.018-.445-.169-.352-.752.378-.967.923-.486,1.882a1.1,1.1,0,0,1,.656-1.53" transform="translate(-40.278 -9.851)" fill="#443430"/>
            <path id="Trazado_1093103" data-name="Trazado 1093103" d="M168.892,38.459h0a.313.313,0,0,0,.432.314,5.964,5.964,0,0,1,2.961-.361s-.834-1.294-3.162-.338a.4.4,0,0,0-.231.385" transform="translate(-40.744 -9.1)" fill="#8e4a2f"/>
            <path id="Trazado_1093104" data-name="Trazado 1093104" d="M167.191,39.3h0c.181.169.215.415.058.48A3.254,3.254,0,0,0,165.78,41.4a1.686,1.686,0,0,1,1.03-2.211.37.37,0,0,1,.381.112" transform="translate(-39.965 -9.449)" fill="#8e4a2f"/>
          </g>
        </g>
      </g>
    </g>
  </g>
</svg>
