<svg xmlns="http://www.w3.org/2000/svg" width="105.006" height="105.006" viewBox="0 0 105.006 105.006">
  <g id="Grupo_1191483" data-name="Grupo 1191483" transform="translate(3872.851 10379.673)">
    <circle id="Elipse_11480" data-name="Elipse 11480" cx="52.503" cy="52.503" r="52.503" transform="translate(-3872.851 -10379.673)" fill="#e9f8fc"/>
    <g id="camisa" transform="translate(-3854.535 -10362.834)">
      <path id="Trazado_1092675" data-name="Trazado 1092675" d="M193.377,226.344a1.172,1.172,0,0,1-.013-2.344h.013a1.172,1.172,0,0,1,0,2.344Zm0,0" transform="translate(-164.045 -191.188)" fill="#20849e"/>
      <path id="Trazado_1092676" data-name="Trazado 1092676" d="M193.377,298.344a1.172,1.172,0,0,1-.013-2.344h.013a1.172,1.172,0,0,1,0,2.344Zm0,0" transform="translate(-164.045 -252.641)" fill="#20849e"/>
      <path id="Trazado_1092677" data-name="Trazado 1092677" d="M193.377,370.344a1.172,1.172,0,0,1-.013-2.344h.013a1.172,1.172,0,0,1,0,2.344Zm0,0" transform="translate(-164.045 -314.094)" fill="#20849e"/>
      <path id="Trazado_1092678" data-name="Trazado 1092678" d="M204.993,160.151a1.162,1.162,0,0,1-.516-.121l-11.817-5.811a1.172,1.172,0,0,1,1.035-2.1l11.818,5.811a1.172,1.172,0,0,1-.52,2.224Zm0,0" transform="translate(-163.88 -129.73)" fill="#20849e"/>
      <path id="Trazado_1092679" data-name="Trazado 1092679" d="M273.841,91.874a1.175,1.175,0,0,1-1.1-1.583c.046-.12,4.515-12.142,4.515-17.119a1.172,1.172,0,0,1,2.344,0c0,5.4-4.472,17.43-4.663,17.94a1.173,1.173,0,0,1-1.1.762Zm0,0" transform="translate(-232.727 -61.453)" fill="#20849e"/>
      <path id="Trazado_1092680" data-name="Trazado 1092680" d="M112.506,160.152a1.172,1.172,0,0,1-.518-2.224l11.817-5.811a1.172,1.172,0,0,1,1.035,2.1l-11.817,5.811a1.172,1.172,0,0,1-.517.121Zm0,0" transform="translate(-95.025 -129.731)" fill="#20849e"/>
      <path id="Trazado_1092681" data-name="Trazado 1092681" d="M85.761,91.874a1.176,1.176,0,0,1-1.1-.762C84.472,90.6,80,78.57,80,73.172a1.172,1.172,0,1,1,2.344,0c0,4.977,4.469,17,4.515,17.12a1.171,1.171,0,0,1-1.1,1.582Zm0,0" transform="translate(-68.281 -61.453)" fill="#20849e"/>
      <path id="Trazado_1092682" data-name="Trazado 1092682" d="M1.172,77.864a1.172,1.172,0,0,1-.336-2.295l11.719-3.516a1.172,1.172,0,0,1,.672,2.245L1.508,77.815a1.207,1.207,0,0,1-.336.049Zm0,0" transform="translate(0 -61.458)" fill="#20849e"/>
      <path id="Trazado_1092683" data-name="Trazado 1092683" d="M1.172,145.219A1.171,1.171,0,0,1,0,144.047V97.172a1.172,1.172,0,1,1,2.344,0v46.875A1.17,1.17,0,0,1,1.172,145.219Zm0,0" transform="translate(0 -81.938)" fill="#20849e"/>
      <path id="Trazado_1092684" data-name="Trazado 1092684" d="M3.516,420.688A3.52,3.52,0,0,1,0,417.172a1.172,1.172,0,1,1,2.344,0,1.173,1.173,0,0,0,1.172,1.172,1.172,1.172,0,1,1,0,2.344Zm0,0" transform="translate(0 -355.063)" fill="#20849e"/>
      <path id="Trazado_1092685" data-name="Trazado 1092685" d="M316.89,77.855a1.2,1.2,0,0,1-.336-.049l-11.719-3.516a1.172,1.172,0,1,1,.672-2.245l11.719,3.516a1.172,1.172,0,0,1-.336,2.295Zm0,0" transform="translate(-259.469 -61.449)" fill="#20849e"/>
      <path id="Trazado_1092686" data-name="Trazado 1092686" d="M385.172,138.188A1.171,1.171,0,0,1,384,137.016V97.172a1.172,1.172,0,1,1,2.344,0v39.844A1.17,1.17,0,0,1,385.172,138.188Zm0,0" transform="translate(-327.75 -81.938)" fill="#20849e"/>
      <path id="Trazado_1092687" data-name="Trazado 1092687" d="M61.7,434.344H17.172a1.172,1.172,0,0,1,0-2.344H61.7a1.172,1.172,0,1,1,0,2.344Zm0,0" transform="translate(-13.656 -368.719)" fill="#20849e"/>
      <path id="Trazado_1092688" data-name="Trazado 1092688" d="M193.172,86.058a1.172,1.172,0,0,1-.336-2.295c11.141-3.342,15.681-11.1,15.725-11.177a1.172,1.172,0,1,1,2.034,1.163c-.2.351-5.058,8.651-17.087,12.26a1.206,1.206,0,0,1-.336.049Zm0,0" transform="translate(-163.875 -61.449)" fill="#20849e"/>
      <path id="Trazado_1092689" data-name="Trazado 1092689" d="M97.58,86.062a1.2,1.2,0,0,1-.336-.049C85.214,82.4,80.357,74.1,80.157,73.753a1.172,1.172,0,0,1,2.033-1.165c.045.078,4.637,7.853,15.726,11.18a1.172,1.172,0,0,1-.336,2.295Zm0,0" transform="translate(-68.283 -61.453)" fill="#20849e"/>
      <path id="Trazado_1092690" data-name="Trazado 1092690" d="M81.172,12.891A1.172,1.172,0,0,1,80,11.719,11.732,11.732,0,0,1,91.719,0a1.172,1.172,0,0,1,0,2.344,9.386,9.386,0,0,0-9.375,9.375A1.172,1.172,0,0,1,81.172,12.891Zm0,0" transform="translate(-68.281)" fill="#20849e"/>
      <path id="Trazado_1092691" data-name="Trazado 1092691" d="M243.719,12.891a1.172,1.172,0,0,1-1.172-1.172,9.386,9.386,0,0,0-9.375-9.375,1.172,1.172,0,0,1,0-2.344,11.732,11.732,0,0,1,11.719,11.719A1.172,1.172,0,0,1,243.719,12.891Zm0,0" transform="translate(-198.016)" fill="#20849e"/>
      <path id="Trazado_1092692" data-name="Trazado 1092692" d="M164.891,2.344H153.172a1.172,1.172,0,0,1,0-2.344h11.719a1.172,1.172,0,0,1,0,2.344Zm0,0" transform="translate(-129.734)" fill="#20849e"/>
      <path id="Trazado_1092693" data-name="Trazado 1092693" d="M85.7,41.2a1.2,1.2,0,0,1-.41-.074,1.172,1.172,0,0,1-.688-1.508A11.771,11.771,0,0,1,95.58,32a1.172,1.172,0,0,1,0,2.344,9.415,9.415,0,0,0-8.786,6.092,1.169,1.169,0,0,1-1.1.763Zm0,0" transform="translate(-72.143 -27.312)" fill="#20849e"/>
      <path id="Trazado_1092694" data-name="Trazado 1092694" d="M243.058,41.2a1.174,1.174,0,0,1-1.1-.763,9.415,9.415,0,0,0-8.788-6.1,1.172,1.172,0,0,1,0-2.344,11.767,11.767,0,0,1,10.983,7.621,1.171,1.171,0,0,1-.688,1.507,1.143,1.143,0,0,1-.409.075Zm0,0" transform="translate(-198.016 -27.312)" fill="#20849e"/>
      <path id="Trazado_1092695" data-name="Trazado 1092695" d="M164.891,34.344H153.172a1.172,1.172,0,0,1,0-2.344h11.719a1.172,1.172,0,0,1,0,2.344Zm0,0" transform="translate(-129.734 -27.313)" fill="#20849e"/>
      <path id="Trazado_1092696" data-name="Trazado 1092696" d="M169.172,37.859A1.172,1.172,0,0,1,168,36.688V33.172a1.172,1.172,0,1,1,2.344,0v3.516A1.172,1.172,0,0,1,169.172,37.859Zm0,0" transform="translate(-143.391 -27.313)" fill="#20849e"/>
      <path id="Trazado_1092697" data-name="Trazado 1092697" d="M176.2,58.344h-7.031a1.172,1.172,0,0,1,0-2.344H176.2a1.172,1.172,0,0,1,0,2.344Zm0,0" transform="translate(-143.391 -47.797)" fill="#20849e"/>
      <path id="Trazado_1092698" data-name="Trazado 1092698" d="M217.172,37.859A1.172,1.172,0,0,1,216,36.688V33.172a1.172,1.172,0,0,1,2.344,0v3.516A1.172,1.172,0,0,1,217.172,37.859Zm0,0" transform="translate(-184.359 -27.313)" fill="#20849e"/>
      <path id="Trazado_1092699" data-name="Trazado 1092699" d="M217.508,205.432a1.171,1.171,0,0,1-1.172-1.172V164.973a1.172,1.172,0,0,1,2.344,0V204.26A1.17,1.17,0,0,1,217.508,205.432Zm0,0" transform="translate(-184.646 -139.807)" fill="#20849e"/>
      <path id="Trazado_1092700" data-name="Trazado 1092700" d="M169.172,205.432A1.171,1.171,0,0,1,168,204.26V164.973a1.172,1.172,0,0,1,2.344,0V204.26A1.17,1.17,0,0,1,169.172,205.432Zm0,0" transform="translate(-143.391 -139.807)" fill="#20849e"/>
      <path id="Trazado_1092701" data-name="Trazado 1092701" d="M11.719,306.344H1.172a1.172,1.172,0,0,1,0-2.344H11.719a1.172,1.172,0,0,1,0,2.344Zm0,0" transform="translate(0 -259.469)" fill="#20849e"/>
      <path id="Trazado_1092702" data-name="Trazado 1092702" d="M11.719,330.344H1.172a1.172,1.172,0,0,1,0-2.344H11.719a1.172,1.172,0,0,1,0,2.344Zm0,0" transform="translate(0 -279.953)" fill="#20849e"/>
      <path id="Trazado_1092703" data-name="Trazado 1092703" d="M73.172,325.094A1.171,1.171,0,0,1,72,323.922v-18.75a1.172,1.172,0,1,1,2.344,0v18.75A1.17,1.17,0,0,1,73.172,325.094Zm0,0" transform="translate(-61.453 -259.469)" fill="#20849e"/>
      <path id="Trazado_1092704" data-name="Trazado 1092704" d="M330.547,389.094a10.547,10.547,0,1,1,10.547-10.547A10.558,10.558,0,0,1,330.547,389.094Zm0-18.75a8.2,8.2,0,1,0,8.2,8.2A8.214,8.214,0,0,0,330.547,370.344Zm0,0" transform="translate(-273.125 -314.094)" fill="#20849e"/>
      <path id="Trazado_1092705" data-name="Trazado 1092705" d="M363.516,444.685a1.17,1.17,0,0,1-.829-.343L360.343,442A1.172,1.172,0,0,1,362,440.341l2.344,2.344a1.172,1.172,0,0,1-.829,2Zm0,0" transform="translate(-307.266 -375.544)" fill="#20849e"/>
      <path id="Trazado_1092706" data-name="Trazado 1092706" d="M377.172,424.2a1.172,1.172,0,0,1-.829-2l5.859-5.859A1.172,1.172,0,0,1,383.86,418L378,423.857A1.169,1.169,0,0,1,377.172,424.2Zm0,0" transform="translate(-320.922 -355.06)" fill="#20849e"/>
    </g>
  </g>
</svg>
