<svg xmlns="http://www.w3.org/2000/svg" width="77.788" height="101.333" viewBox="0 0 77.788 101.333">
  <g id="_x35_0_Quality_Control" transform="translate(-59.484 0)">
    <g id="Grupo_1191000" data-name="Grupo 1191000" transform="translate(59.484 0)">
      <g id="Grupo_1190999" data-name="Grupo 1190999" transform="translate(0)">
        <path id="Trazado_1092723" data-name="Trazado 1092723" d="M120.986,65.306a7.878,7.878,0,0,1,1.658-.466,11.132,11.132,0,0,0,9.207-12.61,8.012,8.012,0,0,1,2.236-6.888,11.154,11.154,0,0,0-.039-15.647,8,8,0,0,1-2.2-6.826,11.15,11.15,0,0,0-9.219-12.642,7.975,7.975,0,0,1-5.78-4.205A11.136,11.136,0,0,0,101.955,1.19a7.97,7.97,0,0,1-7.166,0A11.139,11.139,0,0,0,79.9,6.021a7.986,7.986,0,0,1-5.811,4.211,11.154,11.154,0,0,0-9.182,12.68,7.99,7.99,0,0,1-2.236,6.813,11.161,11.161,0,0,0,.037,15.663,7.992,7.992,0,0,1,2.2,6.812,11.14,11.14,0,0,0,9.205,12.641,7.872,7.872,0,0,1,1.655.465L61.417,89.261A1.584,1.584,0,0,0,63.208,91.6l11.6-3.293,2.57,11.783a1.583,1.583,0,0,0,2.9.476L96.651,73.24a8,8,0,0,1,3.451,0l16.368,27.323a1.583,1.583,0,0,0,2.9-.476l2.57-11.783,11.6,3.293a1.584,1.584,0,0,0,1.791-2.336Zm-41.365,30.2-2.078-9.523A1.583,1.583,0,0,0,75.563,84.8l-9.376,2.661L78.417,67.044a7.889,7.889,0,0,1,1.49,2.009,11.133,11.133,0,0,0,12.086,5.8ZM93.366,71.068a7.958,7.958,0,0,1-10.642-3.462,11.152,11.152,0,0,0-8.107-5.893,7.972,7.972,0,0,1-6.575-9.07,11.186,11.186,0,0,0-3.121-9.526,7.976,7.976,0,0,1,.036-11.195,11.173,11.173,0,0,0,3.077-9.531,7.974,7.974,0,0,1,6.6-9.039,11.153,11.153,0,0,0,8.087-5.883,7.963,7.963,0,0,1,10.65-3.452,11.156,11.156,0,0,0,10.022,0,7.959,7.959,0,0,1,10.639,3.458,11.166,11.166,0,0,0,8.119,5.887,7.978,7.978,0,0,1,6.563,9.077,11.171,11.171,0,0,0,3.114,9.519,7.981,7.981,0,0,1-.04,11.209,11.228,11.228,0,0,0-3.071,9.516,7.966,7.966,0,0,1-6.58,9.036,11.147,11.147,0,0,0-8.107,5.893,7.959,7.959,0,0,1-10.647,3.46,11.155,11.155,0,0,0-10.016,0ZM121.19,84.8a1.583,1.583,0,0,0-1.979,1.186l-2.078,9.523L104.758,74.85a11.039,11.039,0,0,0,12.088-5.8,7.885,7.885,0,0,1,1.49-2.009l12.229,20.415Z" transform="translate(-59.484 0)" fill="#fec190"/>
        <path id="Trazado_1092724" data-name="Trazado 1092724" d="M184.854,95.2a23.305,23.305,0,1,0-23.305,23.322A23.331,23.331,0,0,0,184.854,95.2Zm-23.305,20.155A20.146,20.146,0,1,1,181.687,95.2,20.17,20.17,0,0,1,161.549,115.351Z" transform="translate(-122.656 -57.662)" fill="#fec190"/>
        <path id="Trazado_1092725" data-name="Trazado 1092725" d="M224.5,152.355l-10.675,10.675-2.782-2.783a1.583,1.583,0,0,0-2.239,2.239l3.9,3.9a1.583,1.583,0,0,0,2.239,0l11.794-11.794a1.583,1.583,0,0,0-2.239-2.239Z" transform="translate(-178.881 -121.829)" fill="#fec190"/>
      </g>
    </g>
  </g>
</svg>
