<svg xmlns="http://www.w3.org/2000/svg" width="124" height="124" viewBox="0 0 124 124">
  <g id="Grupo_1190770" data-name="Grupo 1190770" transform="translate(7283.125 8118.673)">
    <circle id="Elipse_11480" data-name="Elipse 11480" cx="62" cy="62" r="62" transform="translate(-7283.125 -8118.673)" fill="#fff"/>
    <g id="viajar" transform="translate(-7260.545 -8097.999)">
      <path id="Trazado_1092249" data-name="Trazado 1092249" d="M82.529,21.438a6.621,6.621,0,0,0-7.738-4.084L70.3,14.615a6.541,6.541,0,0,0-5.624-.553L48.239,20.042,34.743.971A1.31,1.31,0,0,0,33.231.5L25.882,3.174A1.3,1.3,0,0,0,25.1,4.846L32.683,25.7,16.341,31.647,7.563,21.829a1.3,1.3,0,0,0-1.419-.356L1.238,23.258A1.3,1.3,0,0,0,.458,24.93L7.6,44.553a1.3,1.3,0,0,0,1.226.859h.017L36.5,45.072a1.278,1.278,0,0,0,.431-.08l2.45-.894,7.144,19.626a1.3,1.3,0,0,0,1.672.781l7.36-2.68a1.3,1.3,0,0,0,.854-1.334L54.589,38.567l24.043-8.756a6.535,6.535,0,0,0,3.9-8.373ZM28,5.181l5.187-1.889L45.7,20.966,35.135,24.809ZM6.926,35.073l-3.57-9.808,2.851-1.036,7.493,8.38Zm41.6,26.533L39.6,37.075,51.488,32.75l2.24,26.966ZM77.74,27.362,54.366,35.873l-.419-5.042a1.3,1.3,0,0,0-.6-.992,1.317,1.317,0,0,0-1.15-.128L37.482,35.068a1.3,1.3,0,0,0-.779,1.673l1.786,4.905-2.242.818-26.511.326L7.822,37.527,65.563,16.516a3.933,3.933,0,0,1,3.381.329l1.25.762L66.362,19l.893,2.454,5.793-2.108.884.539A1.3,1.3,0,0,0,75.047,20a3.917,3.917,0,1,1,2.693,7.358Z" transform="translate(-0.378 -0.42)" fill="#20849e"/>
      <path id="Trazado_1092250" data-name="Trazado 1092250" d="M0,0H2.609v2.61H0Z" transform="translate(57.414 21.701) rotate(-19.993)" fill="#20849e"/>
      <path id="Trazado_1092251" data-name="Trazado 1092251" d="M0,0H2.609V2.61H0Z" transform="translate(52.507 23.487) rotate(-19.993)" fill="#20849e"/>
      <path id="Trazado_1092252" data-name="Trazado 1092252" d="M0,0H2.609v2.61H0Z" transform="translate(47.602 25.276) rotate(-19.993)" fill="#20849e"/>
      <path id="Trazado_1092253" data-name="Trazado 1092253" d="M0,0H2.609V2.61H0Z" transform="translate(42.694 27.062) rotate(-19.993)" fill="#20849e"/>
      <path id="Trazado_1092254" data-name="Trazado 1092254" d="M0,0H2.609v2.61H0Z" transform="translate(37.787 28.849) rotate(-19.993)" fill="#20849e"/>
      <path id="Trazado_1092255" data-name="Trazado 1092255" d="M0,0H2.609V2.61H0Z" transform="translate(32.88 30.637) rotate(-19.993)" fill="#20849e"/>
      <path id="Trazado_1092256" data-name="Trazado 1092256" d="M0,0H2.609V2.61H0Z" transform="translate(27.973 32.423) rotate(-19.993)" fill="#20849e"/>
      <path id="Trazado_1092257" data-name="Trazado 1092257" d="M0,0H2.611V2.611H0Z" transform="translate(23.055 34.226) rotate(-19.993)" fill="#20849e"/>
      <path id="Trazado_1092258" data-name="Trazado 1092258" d="M0,0h2.61V2.611H0Z" transform="translate(18.146 36.012) rotate(-19.993)" fill="#20849e"/>
      <path id="Trazado_1092259" data-name="Trazado 1092259" d="M20.832,45.221H28.9a3.916,3.916,0,1,0,0-2.61H20.832a7.831,7.831,0,1,0,0,15.663H43.021v-2.61H20.832a5.221,5.221,0,1,1,0-10.442Zm11.747-2.61a1.305,1.305,0,1,1-1.305,1.305A1.307,1.307,0,0,1,32.579,42.611Z" transform="translate(3.474 11.661)" fill="#20849e"/>
      <path id="Trazado_1092260" data-name="Trazado 1092260" d="M38,52h2.611v2.61H38Z" transform="translate(11.106 15.324)" fill="#20849e"/>
      <path id="Trazado_1092261" data-name="Trazado 1092261" d="M60.115,52H49.021v2.61H60.115a3.263,3.263,0,1,1,0,6.526H19v2.611H60.115a5.874,5.874,0,1,0,0-11.747Z" transform="translate(5.306 15.324)" fill="#20849e"/>
      <path id="Trazado_1092262" data-name="Trazado 1092262" d="M5.916,57a3.916,3.916,0,1,0,3.676,5.221H21.579V59.61H9.591A3.91,3.91,0,0,0,5.916,57Zm0,5.221a1.305,1.305,0,1,1,1.305-1.305A1.307,1.307,0,0,1,5.916,62.221Z" transform="translate(0.117 16.851)" fill="#20849e"/>
    </g>
  </g>
</svg>
