<svg xmlns="http://www.w3.org/2000/svg" width="124" height="124" viewBox="0 0 124 124">
  <g id="Grupo_1191002" data-name="Grupo 1191002" transform="translate(-581 -3992.34)">
    <circle id="Elipse_11477" data-name="Elipse 11477" cx="62" cy="62" r="62" transform="translate(581 3992.34)" fill="#fff"/>
    <g id="servicio-de-habitaciones" transform="translate(612.265 4024.545)">
      <g id="Grupo_1190691" data-name="Grupo 1190691" transform="translate(4.162 42.873)">
        <g id="Grupo_1190689" data-name="Grupo 1190689">
          <path id="Trazado_1092063" data-name="Trazado 1092063" d="M66.429,340.778a.83.83,0,0,1-.829-.829v-5.82a.829.829,0,1,1,1.658,0v5.82A.853.853,0,0,1,66.429,340.778Z" transform="translate(-65.6 -333.3)" fill="#20849e"/>
        </g>
        <g id="Grupo_1190690" data-name="Grupo 1190690" transform="translate(50.571)">
          <path id="Trazado_1092064" data-name="Trazado 1092064" d="M365.329,340.778a.83.83,0,0,1-.829-.829v-5.82a.829.829,0,1,1,1.658,0v5.82A.83.83,0,0,1,365.329,340.778Z" transform="translate(-364.5 -333.3)" fill="#20849e"/>
        </g>
      </g>
      <g id="Grupo_1190692" data-name="Grupo 1190692" transform="translate(0 48.71)">
        <path id="Trazado_1092065" data-name="Trazado 1092065" d="M100.132,374.263h-3.79a.829.829,0,1,1,0-1.658H99.9v-3.164H42.658v3.164H45.67a.829.829,0,1,1,0,1.658H42.421A1.419,1.419,0,0,1,41,372.842v-3.621a1.419,1.419,0,0,1,1.421-1.421h57.711a1.419,1.419,0,0,1,1.421,1.421v3.621a1.408,1.408,0,0,1-1.421,1.421Z" transform="translate(-41 -367.8)" fill="#20849e"/>
      </g>
      <g id="Grupo_1190693" data-name="Grupo 1190693" transform="translate(9.915 53.515)">
        <path id="Trazado_1092066" data-name="Trazado 1092066" d="M138.954,397.858H100.429a.829.829,0,1,1,0-1.658h38.525a.83.83,0,0,1,.829.829A.841.841,0,0,1,138.954,397.858Z" transform="translate(-99.6 -396.2)" fill="#20849e"/>
      </g>
      <g id="Grupo_1190694" data-name="Grupo 1190694" transform="translate(3.604 51.4)">
        <path id="Trazado_1092067" data-name="Trazado 1092067" d="M66.394,391.889a4.094,4.094,0,1,1,4.094-4.094A4.1,4.1,0,0,1,66.394,391.889Zm0-6.531a2.419,2.419,0,1,0,2.419,2.419A2.43,2.43,0,0,0,66.394,385.358Z" transform="translate(-62.3 -383.7)" fill="#20849e"/>
      </g>
      <g id="Grupo_1190695" data-name="Grupo 1190695" transform="translate(48.219 51.4)">
        <path id="Trazado_1092068" data-name="Trazado 1092068" d="M330.094,391.889a4.094,4.094,0,1,1,4.094-4.094A4.1,4.1,0,0,1,330.094,391.889Zm0-6.531a2.419,2.419,0,1,0,2.419,2.419A2.43,2.43,0,0,0,330.094,385.358Z" transform="translate(-326 -383.7)" fill="#20849e"/>
      </g>
      <g id="Grupo_1190696" data-name="Grupo 1190696" transform="translate(56.256 14.449)">
        <path id="Trazado_1092069" data-name="Trazado 1092069" d="M380.657,179.021h-6.294a.829.829,0,1,1,0-1.658h6.294a1.419,1.419,0,0,0,1.421-1.421v-6.5a1.043,1.043,0,0,1,1.049-1.049h4.467a.728.728,0,1,0,0-1.455h-5.5a1.491,1.491,0,0,0-1.489,1.489v6.006a1.516,1.516,0,0,1-1.523,1.523h-4.754a.829.829,0,1,1,0-1.658h4.619v-5.854a3.163,3.163,0,0,1,3.147-3.147h5.5a2.386,2.386,0,1,1,0,4.771h-3.858v5.9A3.073,3.073,0,0,1,380.657,179.021Z" transform="translate(-373.5 -165.3)" fill="#20849e"/>
      </g>
      <g id="Grupo_1190698" data-name="Grupo 1190698" transform="translate(2.521 14.466)">
        <g id="Grupo_1190697" data-name="Grupo 1190697">
          <path id="Trazado_1092070" data-name="Trazado 1092070" d="M101.97,195.753a2.047,2.047,0,0,1-.321-.017,3.943,3.943,0,0,1-2.267-1.032,4.226,4.226,0,0,1-3.012,1.032A3.943,3.943,0,0,1,94.1,194.7a4.226,4.226,0,0,1-3.012,1.032,3.943,3.943,0,0,1-2.267-1.032,4.226,4.226,0,0,1-3.012,1.032,3.943,3.943,0,0,1-2.267-1.032,4.226,4.226,0,0,1-3.012,1.032,3.943,3.943,0,0,1-2.267-1.032,4.226,4.226,0,0,1-3.012,1.032,3.943,3.943,0,0,1-2.267-1.032,4.226,4.226,0,0,1-3.012,1.032A3.943,3.943,0,0,1,67.71,194.7a4.226,4.226,0,0,1-3.012,1.032,3.943,3.943,0,0,1-2.267-1.032,4.5,4.5,0,0,1-2.978,1.049,5.132,5.132,0,0,1-3.367-1.658.874.874,0,0,1-.186-.541V166.517a1.1,1.1,0,0,1,1.117-1.117h53.092a1.1,1.1,0,0,1,1.117,1.117l.034,27.037a.758.758,0,0,1-.254.575,4.8,4.8,0,0,1-3.621,1.607,4.709,4.709,0,0,1-2.741-1.083,3.958,3.958,0,0,1-2.673,1.1Zm-44.4-2.555a2.862,2.862,0,0,0,4.348-.254.791.791,0,0,1,.643-.237.921.921,0,0,1,.609.338,2.649,2.649,0,0,0,1.709,1.015,3.131,3.131,0,0,0,2.318-1.117.791.791,0,0,1,.643-.237.921.921,0,0,1,.609.338,2.649,2.649,0,0,0,1.709,1.015,3.131,3.131,0,0,0,2.318-1.117.791.791,0,0,1,.643-.237.921.921,0,0,1,.609.338,2.649,2.649,0,0,0,1.709,1.015,3.131,3.131,0,0,0,2.318-1.117.791.791,0,0,1,.643-.237.921.921,0,0,1,.609.338,2.649,2.649,0,0,0,1.709,1.015,3.131,3.131,0,0,0,2.318-1.117.791.791,0,0,1,.643-.237.921.921,0,0,1,.609.338A2.649,2.649,0,0,0,86,194.061a3.131,3.131,0,0,0,2.318-1.117.791.791,0,0,1,.643-.237.921.921,0,0,1,.609.338,2.649,2.649,0,0,0,1.709,1.015,3.131,3.131,0,0,0,2.318-1.117.791.791,0,0,1,.643-.237.884.884,0,0,1,.609.338,2.649,2.649,0,0,0,1.709,1.015,3.131,3.131,0,0,0,2.318-1.117.791.791,0,0,1,.643-.237.921.921,0,0,1,.609.338,2.649,2.649,0,0,0,1.709,1.015,3.131,3.131,0,0,0,2.318-1.117.778.778,0,0,1,.609-.237.863.863,0,0,1,.592.288,3.426,3.426,0,0,0,2.183,1.083,3,3,0,0,0,2.132-.9l-.017-26.157H57.575Z" transform="translate(-55.9 -165.4)" fill="#20849e"/>
        </g>
      </g>
      <g id="Grupo_1190699" data-name="Grupo 1190699" transform="translate(8.646 24.769)">
        <path id="Trazado_1092071" data-name="Trazado 1092071" d="M92.929,237.111a.83.83,0,0,1-.829-.829v-9.153a.829.829,0,0,1,1.658,0v9.153A.83.83,0,0,1,92.929,237.111Z" transform="translate(-92.1 -226.3)" fill="#20849e"/>
      </g>
      <g id="Grupo_1190700" data-name="Grupo 1190700" transform="translate(15.565 22.384)">
        <path id="Trazado_1092072" data-name="Trazado 1092072" d="M133.829,227.765a.83.83,0,0,1-.829-.829V213.029a.829.829,0,1,1,1.658,0v13.924A.806.806,0,0,1,133.829,227.765Z" transform="translate(-133 -212.2)" fill="#20849e"/>
      </g>
      <g id="Grupo_1190701" data-name="Grupo 1190701" transform="translate(22.519 24.769)">
        <path id="Trazado_1092073" data-name="Trazado 1092073" d="M174.929,237.111a.83.83,0,0,1-.829-.829v-9.153a.829.829,0,0,1,1.658,0v9.153A.83.83,0,0,1,174.929,237.111Z" transform="translate(-174.1 -226.3)" fill="#20849e"/>
      </g>
      <g id="Grupo_1190702" data-name="Grupo 1190702" transform="translate(29.456 22.384)">
        <path id="Trazado_1092074" data-name="Trazado 1092074" d="M215.929,227.765a.83.83,0,0,1-.829-.829V213.029a.829.829,0,1,1,1.658,0v13.924A.838.838,0,0,1,215.929,227.765Z" transform="translate(-215.1 -212.2)" fill="#20849e"/>
      </g>
      <g id="Grupo_1190703" data-name="Grupo 1190703" transform="translate(36.376 24.769)">
        <path id="Trazado_1092075" data-name="Trazado 1092075" d="M256.829,237.111a.83.83,0,0,1-.829-.829v-9.153a.829.829,0,1,1,1.658,0v9.153A.841.841,0,0,1,256.829,237.111Z" transform="translate(-256 -226.3)" fill="#20849e"/>
      </g>
      <g id="Grupo_1190704" data-name="Grupo 1190704" transform="translate(43.313 22.384)">
        <path id="Trazado_1092076" data-name="Trazado 1092076" d="M297.829,227.765a.83.83,0,0,1-.829-.829V213.029a.829.829,0,1,1,1.658,0v13.924A.816.816,0,0,1,297.829,227.765Z" transform="translate(-297 -212.2)" fill="#20849e"/>
      </g>
      <g id="Grupo_1190705" data-name="Grupo 1190705" transform="translate(50.249 24.769)">
        <path id="Trazado_1092077" data-name="Trazado 1092077" d="M338.829,237.111a.83.83,0,0,1-.829-.829v-9.153a.829.829,0,0,1,1.658,0v9.153A.83.83,0,0,1,338.829,237.111Z" transform="translate(-338 -226.3)" fill="#20849e"/>
      </g>
      <g id="Grupo_1190706" data-name="Grupo 1190706" transform="translate(2.589 18.154)">
        <path id="Trazado_1092078" data-name="Trazado 1092078" d="M110.83,188.858h-53.7a.829.829,0,1,1,0-1.658h53.684a.83.83,0,0,1,.829.829A.8.8,0,0,1,110.83,188.858Z" transform="translate(-56.3 -187.2)" fill="#20849e"/>
      </g>
      <g id="Grupo_1190713" data-name="Grupo 1190713" transform="translate(8.646 3.215)">
        <g id="Grupo_1190709" data-name="Grupo 1190709">
          <g id="Grupo_1190707" data-name="Grupo 1190707" transform="translate(2.572 6.768)">
            <path id="Trazado_1092079" data-name="Trazado 1092079" d="M108.129,145.025a.83.83,0,0,1-.829-.829v-4.467a.829.829,0,0,1,1.658,0V144.2A.83.83,0,0,1,108.129,145.025Z" transform="translate(-107.3 -138.9)" fill="#20849e"/>
          </g>
          <g id="Grupo_1190708" data-name="Grupo 1190708">
            <path id="Trazado_1092080" data-name="Trazado 1092080" d="M95.5,107.292a3.4,3.4,0,0,1-3.4-3.4V99.729a.83.83,0,0,1,.829-.829h5.16a.83.83,0,0,1,.829.829v4.162A3.4,3.4,0,0,1,95.5,107.292Zm-1.743-6.734v3.333a1.76,1.76,0,0,0,3.519,0v-3.333Z" transform="translate(-92.1 -98.9)" fill="#20849e"/>
          </g>
        </g>
        <g id="Grupo_1190712" data-name="Grupo 1190712" transform="translate(36.444)">
          <g id="Grupo_1190710" data-name="Grupo 1190710" transform="translate(2.572 6.768)">
            <path id="Trazado_1092081" data-name="Trazado 1092081" d="M323.529,145.025a.83.83,0,0,1-.829-.829v-4.467a.829.829,0,1,1,1.658,0V144.2A.83.83,0,0,1,323.529,145.025Z" transform="translate(-322.7 -138.9)" fill="#20849e"/>
          </g>
          <g id="Grupo_1190711" data-name="Grupo 1190711">
            <path id="Trazado_1092082" data-name="Trazado 1092082" d="M310.9,107.292a3.4,3.4,0,0,1-3.4-3.4V99.729a.83.83,0,0,1,.829-.829h5.16a.83.83,0,0,1,.829.829v4.162A3.415,3.415,0,0,1,310.9,107.292Zm-1.76-6.734v3.333a1.76,1.76,0,1,0,3.519,0v-3.333Z" transform="translate(-307.5 -98.9)" fill="#20849e"/>
          </g>
        </g>
      </g>
      <g id="Grupo_1190718" data-name="Grupo 1190718" transform="translate(19.254 0)">
        <g id="Grupo_1190714" data-name="Grupo 1190714" transform="translate(0 11.42)">
          <path id="Trazado_1092083" data-name="Trazado 1092083" d="M173,152.087h-.034a.821.821,0,1,1,.017-1.641h.034a2.151,2.151,0,0,0,1.54-.643,2.112,2.112,0,0,0,.491-.744H156.627a2.223,2.223,0,0,0,2.03,1.37.829.829,0,1,1,0,1.658,3.867,3.867,0,0,1-3.858-3.858.83.83,0,0,1,.829-.829h20.387a.83.83,0,0,1,.829.829A3.87,3.87,0,0,1,173,152.087Z" transform="translate(-154.8 -147.4)" fill="#20849e"/>
        </g>
        <g id="Grupo_1190715" data-name="Grupo 1190715" transform="translate(1.421 2.639)">
          <path id="Trazado_1092084" data-name="Trazado 1092084" d="M181.557,105.922a.83.83,0,0,1-.829-.829,7.935,7.935,0,1,0-15.87,0,.829.829,0,1,1-1.658,0,9.593,9.593,0,1,1,19.186,0,.841.841,0,0,1-.829.829Z" transform="translate(-163.2 -95.5)" fill="#20849e"/>
        </g>
        <g id="Grupo_1190716" data-name="Grupo 1190716" transform="translate(10.202)">
          <path id="Trazado_1092085" data-name="Trazado 1092085" d="M215.929,84.2a.83.83,0,0,1-.829-.829V80.729a.829.829,0,1,1,1.658,0v2.639A.853.853,0,0,1,215.929,84.2Z" transform="translate(-215.1 -79.9)" fill="#20849e"/>
        </g>
        <g id="Grupo_1190717" data-name="Grupo 1190717" transform="translate(8.832 0.017)">
          <path id="Trazado_1092086" data-name="Trazado 1092086" d="M210.536,81.658h-2.707a.829.829,0,0,1,0-1.658h2.707a.829.829,0,0,1,0,1.658Z" transform="translate(-207 -80)" fill="#20849e"/>
        </g>
      </g>
      <g id="Grupo_1190719" data-name="Grupo 1190719" transform="translate(6.903 54.668)">
        <path id="Trazado_1092087" data-name="Trazado 1092087" d="M82.6,404.653a.758.758,0,0,1-.575-.254c-.034-.034-.068-.085-.1-.118a.506.506,0,0,1-.068-.135.494.494,0,0,1-.034-.152.854.854,0,0,1,0-.338.628.628,0,0,0,.034-.152c.034-.051.034-.1.068-.135s.068-.085.1-.118a.847.847,0,0,1,.744-.22.628.628,0,0,0,.152.034c.051.034.1.034.135.068a.782.782,0,0,1,.118.118.735.735,0,0,0,.1.118.507.507,0,0,1,.068.135.494.494,0,0,1,.034.152.854.854,0,0,1,0,.338.628.628,0,0,0-.034.152c-.034.051-.034.1-.068.135a.783.783,0,0,1-.118.118.632.632,0,0,1-.558.254Z" transform="translate(-81.8 -403.014)" fill="#20849e"/>
      </g>
      <g id="Grupo_1190720" data-name="Grupo 1190720" transform="translate(51.501 54.674)">
        <path id="Trazado_1092088" data-name="Trazado 1092088" d="M346.212,404.683a.576.576,0,0,1-.169-.017.628.628,0,0,0-.152-.034c-.051-.034-.1-.034-.135-.068a.781.781,0,0,1-.118-.118.782.782,0,0,0-.118-.118.507.507,0,0,1-.068-.135.494.494,0,0,1-.034-.152.855.855,0,0,1,0-.338.627.627,0,0,0,.034-.152c.034-.051.034-.1.068-.135s.068-.085.1-.118a.781.781,0,0,0,.118-.118.507.507,0,0,1,.135-.068.494.494,0,0,1,.152-.034.521.521,0,0,1,.321,0,.628.628,0,0,0,.152.034c.051.034.1.034.135.068a.782.782,0,0,1,.118.118.735.735,0,0,0,.1.118.507.507,0,0,1,.068.135.494.494,0,0,1,.034.152.855.855,0,0,1,0,.338.629.629,0,0,0-.034.152c-.034.051-.034.1-.068.135s-.068.085-.1.118A.631.631,0,0,1,346.212,404.683Z" transform="translate(-345.4 -403.05)" fill="#20849e"/>
      </g>
    </g>
  </g>
</svg>
