<svg xmlns="http://www.w3.org/2000/svg" width="124" height="124" viewBox="0 0 124 124">
  <g id="Grupo_1191333" data-name="Grupo 1191333" transform="translate(-394.571 -2728.245)">
    <g id="Grupo_1190808" data-name="Grupo 1190808" transform="translate(-707.652 -458.207)">
      <circle id="Elipse_11474" data-name="Elipse 11474" cx="62" cy="62" r="62" transform="translate(1102.223 3186.452)" fill="#fff"/>
    </g>
    <path id="problemas-de-comunicacion" d="M30.923,46.315A1.377,1.377,0,0,1,32.3,44.938H53.727a1.377,1.377,0,0,1,0,2.755H32.3A1.377,1.377,0,0,1,30.923,46.315ZM32.3,60.14H53.727a1.377,1.377,0,1,0,0-2.755H32.3a1.377,1.377,0,1,0,0,2.755ZM81,84.128a19.348,19.348,0,0,1-38.664,1.1H24.377A1.377,1.377,0,0,1,23,83.852V33.626a1.377,1.377,0,0,1,1.377-1.377H61.649a1.377,1.377,0,0,1,1.377,1.377v31.2A19.372,19.372,0,0,1,81,84.128ZM25.755,82.475H42.373a19.243,19.243,0,0,1,3.756-9.886H32.3a1.377,1.377,0,1,1,0-2.755H48.624a19.276,19.276,0,0,1,11.648-5V35H25.755Zm52.488,1.653A16.593,16.593,0,1,0,61.65,100.721,16.612,16.612,0,0,0,78.243,84.128ZM61.65,73.858a1.377,1.377,0,0,0-1.377,1.377v7.514l-6.83-.006h0a1.377,1.377,0,0,0,0,2.755l8.209.008h0a1.378,1.378,0,0,0,1.377-1.377V75.236a1.378,1.378,0,0,0-1.378-1.377Zm41.581-43.875v15.7a6.617,6.617,0,0,1-6.609,6.609H92.04l-10.778,7.82a3.691,3.691,0,0,1-2.175.72,3.739,3.739,0,0,1-1.7-.417A3.66,3.66,0,0,1,75.353,57.1V52.288H72.674a6.617,6.617,0,0,1-6.609-6.609v-15.7a6.617,6.617,0,0,1,6.609-6.61H96.621a6.617,6.617,0,0,1,6.61,6.61Zm-2.755,0a3.859,3.859,0,0,0-3.855-3.855H72.674a3.859,3.859,0,0,0-3.855,3.855v15.7a3.859,3.859,0,0,0,3.855,3.855H76.73a1.377,1.377,0,0,1,1.377,1.377V57.1a.968.968,0,0,0,1.536.783L90.784,49.8a1.378,1.378,0,0,1,.809-.263h5.029a3.859,3.859,0,0,0,3.855-3.855Zm-15.242,6.47H84.061a1.377,1.377,0,0,0,0,2.755h1.174a1.377,1.377,0,1,0,0-2.755Zm-8.656,0H75.4a1.377,1.377,0,0,0,0,2.755h1.174a1.377,1.377,0,0,0,0-2.755Zm17.313,0H92.717a1.377,1.377,0,0,0,0,2.755h1.174a1.377,1.377,0,1,0,0-2.755Z" transform="translate(393.769 2734.626)" fill="#20849e"/>
  </g>
</svg>
