<svg xmlns="http://www.w3.org/2000/svg" width="124" height="124" viewBox="0 0 124 124">
  <g id="Grupo_1191001" data-name="Grupo 1191001" transform="translate(-269 -3992.34)">
    <circle id="Elipse_11477" data-name="Elipse 11477" cx="62" cy="62" r="62" transform="translate(269 3992.34)" fill="#fff"/>
    <g id="alcachofa-de-la-ducha" transform="translate(301.317 4017.964)">
      <g id="Grupo_1190661" data-name="Grupo 1190661" transform="translate(0 43.363)">
        <path id="Trazado_1092038" data-name="Trazado 1092038" d="M121.745,303.78H78.94a1.545,1.545,0,0,1-1.54-1.54v-3.4a1.545,1.545,0,0,1,1.54-1.54h42.788a1.545,1.545,0,0,1,1.54,1.54v3.4A1.531,1.531,0,0,1,121.745,303.78Zm-42.687-1.658h42.568v-3.181H79.058Z" transform="translate(-77.4 -297.3)" fill="#20849e"/>
      </g>
      <g id="Grupo_1190662" data-name="Grupo 1190662" transform="translate(54.022 0)">
        <path id="Trazado_1092039" data-name="Trazado 1092039" d="M402.283,59.053H400.3a3.618,3.618,0,0,1-3.6-3.6V44.6a3.618,3.618,0,0,1,3.6-3.6h1.979a.83.83,0,0,1,.829.829V58.224A.841.841,0,0,1,402.283,59.053Zm-2-16.395a1.946,1.946,0,0,0-1.946,1.946V55.449a1.946,1.946,0,0,0,1.946,1.946h1.15V42.658Z" transform="translate(-396.7 -41)" fill="#20849e"/>
      </g>
      <g id="Grupo_1190669" data-name="Grupo 1190669" transform="translate(2.25 53.718)">
        <g id="Grupo_1190663" data-name="Grupo 1190663">
          <path id="Trazado_1092040" data-name="Trazado 1092040" d="M91.529,364.946a.83.83,0,0,1-.829-.829v-4.788a.829.829,0,0,1,1.658,0v4.788A.83.83,0,0,1,91.529,364.946Z" transform="translate(-90.7 -358.5)" fill="#20849e"/>
        </g>
        <g id="Grupo_1190664" data-name="Grupo 1190664" transform="translate(7.952)">
          <path id="Trazado_1092041" data-name="Trazado 1092041" d="M138.529,364.946a.83.83,0,0,1-.829-.829v-4.788a.829.829,0,0,1,1.658,0v4.788A.83.83,0,0,1,138.529,364.946Z" transform="translate(-137.7 -358.5)" fill="#20849e"/>
        </g>
        <g id="Grupo_1190665" data-name="Grupo 1190665" transform="translate(15.887)">
          <path id="Trazado_1092042" data-name="Trazado 1092042" d="M185.429,364.946a.83.83,0,0,1-.829-.829v-4.788a.829.829,0,0,1,1.658,0v4.788A.83.83,0,0,1,185.429,364.946Z" transform="translate(-184.6 -358.5)" fill="#20849e"/>
        </g>
        <g id="Grupo_1190666" data-name="Grupo 1190666" transform="translate(23.856)">
          <path id="Trazado_1092043" data-name="Trazado 1092043" d="M232.529,364.946a.83.83,0,0,1-.829-.829v-4.788a.829.829,0,0,1,1.658,0v4.788A.841.841,0,0,1,232.529,364.946Z" transform="translate(-231.7 -358.5)" fill="#20849e"/>
        </g>
        <g id="Grupo_1190667" data-name="Grupo 1190667" transform="translate(31.791)">
          <path id="Trazado_1092044" data-name="Trazado 1092044" d="M279.429,364.946a.83.83,0,0,1-.829-.829v-4.788a.829.829,0,0,1,1.658,0v4.788A.841.841,0,0,1,279.429,364.946Z" transform="translate(-278.6 -358.5)" fill="#20849e"/>
        </g>
        <g id="Grupo_1190668" data-name="Grupo 1190668" transform="translate(39.726)">
          <path id="Trazado_1092045" data-name="Trazado 1092045" d="M326.329,364.946a.83.83,0,0,1-.829-.829v-4.788a.829.829,0,0,1,1.658,0v4.788A.83.83,0,0,1,326.329,364.946Z" transform="translate(-325.5 -358.5)" fill="#20849e"/>
        </g>
      </g>
      <g id="Grupo_1190676" data-name="Grupo 1190676" transform="translate(2.25 62.803)">
        <g id="Grupo_1190670" data-name="Grupo 1190670">
          <path id="Trazado_1092046" data-name="Trazado 1092046" d="M91.529,415.871a.83.83,0,0,1-.829-.829v-2.013a.829.829,0,1,1,1.658,0v2.013A.83.83,0,0,1,91.529,415.871Z" transform="translate(-90.7 -412.2)" fill="#20849e"/>
        </g>
        <g id="Grupo_1190671" data-name="Grupo 1190671" transform="translate(7.952)">
          <path id="Trazado_1092047" data-name="Trazado 1092047" d="M138.529,415.871a.83.83,0,0,1-.829-.829v-2.013a.829.829,0,1,1,1.658,0v2.013A.83.83,0,0,1,138.529,415.871Z" transform="translate(-137.7 -412.2)" fill="#20849e"/>
        </g>
        <g id="Grupo_1190672" data-name="Grupo 1190672" transform="translate(15.887)">
          <path id="Trazado_1092048" data-name="Trazado 1092048" d="M185.429,415.871a.83.83,0,0,1-.829-.829v-2.013a.829.829,0,1,1,1.658,0v2.013A.83.83,0,0,1,185.429,415.871Z" transform="translate(-184.6 -412.2)" fill="#20849e"/>
        </g>
        <g id="Grupo_1190673" data-name="Grupo 1190673" transform="translate(23.856)">
          <path id="Trazado_1092049" data-name="Trazado 1092049" d="M232.529,415.871a.83.83,0,0,1-.829-.829v-2.013a.829.829,0,1,1,1.658,0v2.013A.841.841,0,0,1,232.529,415.871Z" transform="translate(-231.7 -412.2)" fill="#20849e"/>
        </g>
        <g id="Grupo_1190674" data-name="Grupo 1190674" transform="translate(31.791)">
          <path id="Trazado_1092050" data-name="Trazado 1092050" d="M279.429,415.871a.83.83,0,0,1-.829-.829v-2.013a.829.829,0,1,1,1.658,0v2.013A.841.841,0,0,1,279.429,415.871Z" transform="translate(-278.6 -412.2)" fill="#20849e"/>
        </g>
        <g id="Grupo_1190675" data-name="Grupo 1190675" transform="translate(39.726)">
          <path id="Trazado_1092051" data-name="Trazado 1092051" d="M326.329,415.871a.83.83,0,0,1-.829-.829v-2.013a.829.829,0,1,1,1.658,0v2.013A.83.83,0,0,1,326.329,415.871Z" transform="translate(-325.5 -412.2)" fill="#20849e"/>
        </g>
      </g>
      <g id="Grupo_1190683" data-name="Grupo 1190683" transform="translate(2.25 69.097)">
        <g id="Grupo_1190677" data-name="Grupo 1190677">
          <path id="Trazado_1092052" data-name="Trazado 1092052" d="M91.529,453.055a.83.83,0,0,1-.829-.829v-2a.829.829,0,1,1,1.658,0v2A.83.83,0,0,1,91.529,453.055Z" transform="translate(-90.7 -449.4)" fill="#20849e"/>
        </g>
        <g id="Grupo_1190678" data-name="Grupo 1190678" transform="translate(7.952)">
          <path id="Trazado_1092053" data-name="Trazado 1092053" d="M138.529,453.055a.83.83,0,0,1-.829-.829v-2a.829.829,0,1,1,1.658,0v2A.83.83,0,0,1,138.529,453.055Z" transform="translate(-137.7 -449.4)" fill="#20849e"/>
        </g>
        <g id="Grupo_1190679" data-name="Grupo 1190679" transform="translate(15.887)">
          <path id="Trazado_1092054" data-name="Trazado 1092054" d="M185.429,453.055a.83.83,0,0,1-.829-.829v-2a.829.829,0,1,1,1.658,0v2A.83.83,0,0,1,185.429,453.055Z" transform="translate(-184.6 -449.4)" fill="#20849e"/>
        </g>
        <g id="Grupo_1190680" data-name="Grupo 1190680" transform="translate(23.856)">
          <path id="Trazado_1092055" data-name="Trazado 1092055" d="M232.529,453.055a.83.83,0,0,1-.829-.829v-2a.829.829,0,1,1,1.658,0v2A.841.841,0,0,1,232.529,453.055Z" transform="translate(-231.7 -449.4)" fill="#20849e"/>
        </g>
        <g id="Grupo_1190681" data-name="Grupo 1190681" transform="translate(31.791)">
          <path id="Trazado_1092056" data-name="Trazado 1092056" d="M279.429,453.055a.83.83,0,0,1-.829-.829v-2a.829.829,0,1,1,1.658,0v2A.841.841,0,0,1,279.429,453.055Z" transform="translate(-278.6 -449.4)" fill="#20849e"/>
        </g>
        <g id="Grupo_1190682" data-name="Grupo 1190682" transform="translate(39.726)">
          <path id="Trazado_1092057" data-name="Trazado 1092057" d="M326.329,453.055a.83.83,0,0,1-.829-.829v-2a.829.829,0,1,1,1.658,0v2A.83.83,0,0,1,326.329,453.055Z" transform="translate(-325.5 -449.4)" fill="#20849e"/>
        </g>
      </g>
      <g id="Grupo_1190684" data-name="Grupo 1190684" transform="translate(14.872 23.568)">
        <path id="Trazado_1092058" data-name="Trazado 1092058" d="M180.612,188.658H166.129a.83.83,0,0,1-.829-.829V182.8a2.509,2.509,0,0,1,2.5-2.5h11.15a2.509,2.509,0,0,1,2.5,2.5v5.025A.856.856,0,0,1,180.612,188.658ZM166.958,187h12.825v-4.2a.838.838,0,0,0-.846-.846h-11.15a.838.838,0,0,0-.846.846V187Z" transform="translate(-165.3 -180.3)" fill="#20849e"/>
      </g>
      <g id="Grupo_1190685" data-name="Grupo 1190685" transform="translate(0.714 30.272)">
        <path id="Trazado_1092059" data-name="Trazado 1092059" d="M82.447,234.671a.812.812,0,0,1-.609-.271.828.828,0,0,1,.051-1.167l14.161-13.1a.826.826,0,0,1,1.117,1.218L83,234.451A.779.779,0,0,1,82.447,234.671Z" transform="translate(-81.621 -219.921)" fill="#20849e"/>
      </g>
      <g id="Grupo_1190686" data-name="Grupo 1190686" transform="translate(29.358 30.272)">
        <path id="Trazado_1092060" data-name="Trazado 1092060" d="M265.908,234.671a.779.779,0,0,1-.558-.22l-14.161-13.1a.826.826,0,0,1,1.117-1.218l14.161,13.1a.828.828,0,0,1,.051,1.167.812.812,0,0,1-.609.271Z" transform="translate(-250.921 -219.921)" fill="#20849e"/>
      </g>
      <g id="Grupo_1190687" data-name="Grupo 1190687" transform="translate(19.795 5.871)">
        <path id="Trazado_1092061" data-name="Trazado 1092061" d="M195.229,95.055a.83.83,0,0,1-.829-.829V83.3a7.607,7.607,0,0,1,7.6-7.6h27.426a.829.829,0,1,1,0,1.658H202a5.946,5.946,0,0,0-5.939,5.939v10.93A.83.83,0,0,1,195.229,95.055Z" transform="translate(-194.4 -75.7)" fill="#20849e"/>
      </g>
      <g id="Grupo_1190688" data-name="Grupo 1190688" transform="translate(24.431 10.524)">
        <path id="Trazado_1092062" data-name="Trazado 1092062" d="M222.629,117.9a.83.83,0,0,1-.829-.829V106.719a3.516,3.516,0,0,1,3.519-3.519h26.867a.829.829,0,1,1,0,1.658H225.319a1.867,1.867,0,0,0-1.861,1.861v10.371A.827.827,0,0,1,222.629,117.9Z" transform="translate(-221.8 -103.2)" fill="#20849e"/>
      </g>
    </g>
  </g>
</svg>
