<svg xmlns="http://www.w3.org/2000/svg" width="71.5" height="71.5" viewBox="0 0 71.5 71.5">
  <g id="informe-de-venta" transform="translate(-1 -1)">
    <path id="Trazado_1093426" data-name="Trazado 1093426" d="M71.347,35.6H65.581V34.444a6.926,6.926,0,0,0-5.766-6.816V2.153A1.153,1.153,0,0,0,58.661,1H2.153A1.153,1.153,0,0,0,1,2.153V71.347A1.153,1.153,0,0,0,2.153,72.5H58.661a1.153,1.153,0,0,0,1.153-1.153v-3.46H71.347A1.153,1.153,0,0,0,72.5,66.734V36.75A1.153,1.153,0,0,0,71.347,35.6Zm-8.073-1.153V35.6h-3.46v-5.6A4.613,4.613,0,0,1,63.274,34.444ZM57.508,35.6h-3.46V34.444a4.613,4.613,0,0,1,3.46-4.449ZM18.3,3.306H43.669V5.613H18.3Zm39.21,66.887H3.306V3.306H15.992v3.46a1.153,1.153,0,0,0,1.153,1.153H44.823a1.153,1.153,0,0,0,1.153-1.153V3.306H57.508V27.628a6.926,6.926,0,0,0-5.766,6.816V35.6H44.823a1.153,1.153,0,0,0-1.153,1.153V66.734a1.153,1.153,0,0,0,1.153,1.153H57.508Zm12.685-4.613H45.976V37.9H70.194Z" transform="translate(0 0)" fill="#7d8c48"/>
    <path id="Trazado_1093427" data-name="Trazado 1093427" d="M16.532,35.065A11.532,11.532,0,1,0,5,23.532,11.532,11.532,0,0,0,16.532,35.065Zm9.146-12.685H17.685V14.386a9.235,9.235,0,0,1,7.993,7.993Zm-10.3-7.993v9.146a1.153,1.153,0,0,0,1.153,1.153h9.146a9.226,9.226,0,1,1-10.3-10.3Z" transform="translate(0.613 1.685)" fill="#7d8c48"/>
    <path id="Trazado_1093428" data-name="Trazado 1093428" d="M10.766,50H6.153A1.153,1.153,0,0,0,5,51.153v8.073a1.153,1.153,0,0,0,1.153,1.153h4.613a1.153,1.153,0,0,0,1.153-1.153V51.153A1.153,1.153,0,0,0,10.766,50ZM9.613,58.073H7.306V52.306H9.613Z" transform="translate(0.613 7.508)" fill="#7d8c48"/>
    <path id="Trazado_1093429" data-name="Trazado 1093429" d="M18.766,45H14.153A1.153,1.153,0,0,0,13,46.153V59.992a1.153,1.153,0,0,0,1.153,1.153h4.613a1.153,1.153,0,0,0,1.153-1.153V46.153A1.153,1.153,0,0,0,18.766,45ZM17.613,58.839H15.306V47.306h2.306Z" transform="translate(1.839 6.742)" fill="#7d8c48"/>
    <path id="Trazado_1093430" data-name="Trazado 1093430" d="M26.766,41H22.153A1.153,1.153,0,0,0,21,42.153V60.6a1.153,1.153,0,0,0,1.153,1.153h4.613A1.153,1.153,0,0,0,27.919,60.6V42.153A1.153,1.153,0,0,0,26.766,41ZM25.613,59.452H23.306V43.306h2.306Z" transform="translate(3.065 6.129)" fill="#7d8c48"/>
    <path id="Trazado_1093431" data-name="Trazado 1093431" d="M34.766,37H30.153A1.153,1.153,0,0,0,29,38.153V61.218a1.153,1.153,0,0,0,1.153,1.153h4.613a1.153,1.153,0,0,0,1.153-1.153V38.153A1.153,1.153,0,0,0,34.766,37ZM33.613,60.065H31.306V39.306h2.306Z" transform="translate(4.29 5.516)" fill="#7d8c48"/>
    <path id="Trazado_1093432" data-name="Trazado 1093432" d="M17.456,44.609l7.257-7.257L27.358,40a1.153,1.153,0,0,0,1.631,0l8.073-8.073L35.43,30.293,28.173,37.55l-2.644-2.644a1.153,1.153,0,0,0-1.631,0l-7.257,7.257L14,39.519a1.153,1.153,0,0,0-1.631,0L4.293,47.591l1.631,1.631,7.257-7.257,2.644,2.644a1.153,1.153,0,0,0,1.631,0Z" transform="translate(0.505 4.488)" fill="#7d8c48"/>
    <path id="Trazado_1093433" data-name="Trazado 1093433" d="M48.307,51.145H46A5.776,5.776,0,0,0,50.614,56.8v1.269H52.92V56.8a5.766,5.766,0,0,0,0-11.3V38.672a3.46,3.46,0,0,1,2.306,3.247h2.306a5.777,5.777,0,0,0-4.613-5.651V35H50.614v1.269a5.766,5.766,0,0,0,0,11.3v6.824A3.46,3.46,0,0,1,48.307,51.145Zm6.919,0a3.46,3.46,0,0,1-2.306,3.247V47.9a3.46,3.46,0,0,1,2.306,3.247Zm-6.919-9.226a3.46,3.46,0,0,1,2.306-3.247v6.495A3.46,3.46,0,0,1,48.307,41.919Z" transform="translate(6.894 5.21)" fill="#7d8c48"/>
    <path id="Trazado_1093434" data-name="Trazado 1093434" d="M31,14H43.685v2.306H31Z" transform="translate(4.597 1.992)" fill="#7d8c48"/>
    <path id="Trazado_1093435" data-name="Trazado 1093435" d="M44,14h4.613v2.306H44Z" transform="translate(6.589 1.992)" fill="#7d8c48"/>
    <path id="Trazado_1093436" data-name="Trazado 1093436" d="M27,18H51.218v2.306H27Z" transform="translate(3.984 2.605)" fill="#7d8c48"/>
    <path id="Trazado_1093437" data-name="Trazado 1093437" d="M27,22H51.218v2.306H27Z" transform="translate(3.984 3.218)" fill="#7d8c48"/>
  </g>
</svg>
