<svg id="grupo" xmlns="http://www.w3.org/2000/svg" width="93.322" height="92.422" viewBox="0 0 93.322 92.422">
  <path id="Trazado_1093300" data-name="Trazado 1093300" d="M91.89,80.087a3.062,3.062,0,0,1-.649-2.553,15.666,15.666,0,0,0-9.188-17.462,37.955,37.955,0,0,0-.285-27.452,9.7,9.7,0,0,0,3.554-5.534,5.923,5.923,0,0,0,3.887-2.7,15.609,15.609,0,0,0-.728-17.5,1.367,1.367,0,0,0-2.2,1.625,12.875,12.875,0,0,1,.6,14.436,3.194,3.194,0,0,1-1.32,1.19v-6.78a4.976,4.976,0,0,0-4.881-4.969q.035-.209.064-.423a1.367,1.367,0,0,0-2.711-.358A7.009,7.009,0,0,1,73,17.791a15.74,15.74,0,0,1-6.262.626,1.367,1.367,0,0,0-.539,2.666v3.056a3.25,3.25,0,0,1-1.341-1.222A12.929,12.929,0,0,1,76.191,3.238a12.685,12.685,0,0,1,5.779,1.535,1.367,1.367,0,1,0,1.3-2.406,15.661,15.661,0,0,0-22.394,9.287,37.909,37.909,0,0,0-28.435,0A15.662,15.662,0,1,0,4.085,24.347,5.963,5.963,0,0,0,8,27.085a9.705,9.705,0,0,0,3.554,5.536,37.955,37.955,0,0,0-.286,27.448,15.552,15.552,0,0,0-3.419,2.01,1.367,1.367,0,1,0,1.676,2.159A12.934,12.934,0,0,1,30.12,77a5.79,5.79,0,0,0,1.219,4.825,3.516,3.516,0,0,1,.809,2.259,3.566,3.566,0,0,1-3.561,3.561H26.059a9.616,9.616,0,0,0,1.066-4.409V75.66a4.976,4.976,0,0,0-4.882-4.969c.023-.14.046-.281.065-.423A1.367,1.367,0,1,0,19.6,69.91a7.006,7.006,0,0,1-2.713,4.973c-3.454,2.594-8.976,1.787-9.029,1.779a1.367,1.367,0,0,0-.421,2.7c.031,0,.143.022.323.043v3.83a9.616,9.616,0,0,0,1.066,4.409H6.3a3.566,3.566,0,0,1-3.562-3.561,3.516,3.516,0,0,1,.809-2.259,5.9,5.9,0,0,0,1.205-4.9,13,13,0,0,1-.236-2.468,12.791,12.791,0,0,1,1.376-5.807,1.367,1.367,0,1,0-2.441-1.23A15.505,15.505,0,0,0,1.778,74.46a15.727,15.727,0,0,0,.286,2.99,3.179,3.179,0,0,1-.634,2.638A6.295,6.295,0,0,0,6.3,90.379h4.614a9.663,9.663,0,0,0,13.064,0h4.614A6.288,6.288,0,0,0,34.7,82.6a37.987,37.987,0,0,0,23.914,0,6.288,6.288,0,0,0,6.117,7.779h4.614a9.663,9.663,0,0,0,13.064,0h4.614A6.3,6.3,0,0,0,91.89,80.087Zm-81.4,3.149V79.515a14.192,14.192,0,0,0,8.023-2.436,9.19,9.19,0,0,0,2.923-3.657h.716a2.24,2.24,0,0,1,2.238,2.238v7.576a6.95,6.95,0,1,1-13.9,0Zm63.4-62.861a9.728,9.728,0,0,0,5.988-5.25h.718a2.24,2.24,0,0,1,2.238,2.237v7.576a6.95,6.95,0,1,1-13.9,0V21.217a16.924,16.924,0,0,0,4.958-.842ZM6.414,22.916a12.93,12.93,0,1,1,22.03.036,3.2,3.2,0,0,1-1.319,1.192V17.363a4.976,4.976,0,0,0-4.881-4.969q.034-.209.063-.423a1.367,1.367,0,0,0-2.711-.358,7.008,7.008,0,0,1-5.04,6.178,15.74,15.74,0,0,1-6.262.626,1.367,1.367,0,0,0-.539,2.666v3.057a3.258,3.258,0,0,1-1.342-1.223Zm4.076,2.023V21.217a16.928,16.928,0,0,0,4.958-.842,9.728,9.728,0,0,0,5.988-5.25h.718a2.239,2.239,0,0,1,2.237,2.237v7.576a6.95,6.95,0,1,1-13.9,0ZM32.869,78.981a3.032,3.032,0,0,1-.068-1.447,15.65,15.65,0,0,0-18.934-18.32,35.219,35.219,0,0,1,.09-25.242,9.675,9.675,0,0,0,12.925-6.887,5.914,5.914,0,0,0,3.887-2.695A15.608,15.608,0,0,0,33.1,15.816c-.01-.482-.044-.96-.1-1.433a35.18,35.18,0,0,1,27.317,0,15.864,15.864,0,0,0-.1,1.78,15.621,15.621,0,0,0,2.308,8.184,5.966,5.966,0,0,0,3.914,2.739,9.677,9.677,0,0,0,12.924,6.888,35.215,35.215,0,0,1,.093,25.238A15.661,15.661,0,0,0,60.216,74.459a15.735,15.735,0,0,0,.286,2.99,3.307,3.307,0,0,1-.063,1.536,35.183,35.183,0,0,1-27.57,0ZM75.88,90.187a6.958,6.958,0,0,1-6.95-6.95V79.515a14.192,14.192,0,0,0,8.023-2.436,9.191,9.191,0,0,0,2.924-3.657h.716A2.24,2.24,0,0,1,82.83,75.66v7.576a6.958,6.958,0,0,1-6.95,6.95Zm11.145-2.542H84.5a9.616,9.616,0,0,0,1.067-4.409V75.66a4.976,4.976,0,0,0-4.882-4.969c.023-.14.046-.281.065-.423a1.367,1.367,0,1,0-2.711-.358,7.006,7.006,0,0,1-2.713,4.973c-3.454,2.594-8.976,1.787-9.029,1.779a1.367,1.367,0,0,0-.421,2.7c.031,0,.143.022.323.043v3.83a9.616,9.616,0,0,0,1.066,4.409H64.734a3.566,3.566,0,0,1-3.561-3.561,3.515,3.515,0,0,1,.809-2.26,5.9,5.9,0,0,0,1.205-4.895,13.008,13.008,0,0,1-.236-2.469A12.931,12.931,0,0,1,76.56,61.547,12.939,12.939,0,0,1,88.559,77a5.789,5.789,0,0,0,1.219,4.824,3.518,3.518,0,0,1,.809,2.259,3.566,3.566,0,0,1-3.562,3.562Zm0,0" transform="translate(0.001 -0.499)" fill="#fec190"/>
  <path id="Trazado_1093301" data-name="Trazado 1093301" d="M191.5,187.181V174.833a3.281,3.281,0,0,0-3.278-3.278h-7.816v-8.746a3.281,3.281,0,0,0-3.278-3.277H157.778a3.281,3.281,0,0,0-3.278,3.277v10.629a3.281,3.281,0,0,0,3.278,3.278h4.376v10.466a3.281,3.281,0,0,0,3.278,3.278h2.6a1.367,1.367,0,0,0,0-2.734h-2.6a.544.544,0,0,1-.544-.544V176.716h.135l3.485,3.2a3.245,3.245,0,0,0,2.2.871,3.305,3.305,0,0,0,1.333-.284,3.235,3.235,0,0,0,1.959-3v-.79h3.125a3.28,3.28,0,0,0,3.162-2.426h7.932a.544.544,0,0,1,.544.544v12.348a.544.544,0,0,1-.544.544h-3.817a1.369,1.369,0,0,0-.921.357l-3.309,3.019a.544.544,0,0,1-.911-.4v-1.606a1.367,1.367,0,0,0-1.367-1.367h-3.573a1.367,1.367,0,1,0,0,2.734h2.206v.239a3.238,3.238,0,0,0,1.954,3,3.3,3.3,0,0,0,1.337.286,3.245,3.245,0,0,0,2.2-.862l2.918-2.661h3.287a3.281,3.281,0,0,0,3.278-3.278Zm-13.828-13.744a.544.544,0,0,1-.544.544h-4.492a1.367,1.367,0,0,0-1.367,1.367v2.157a.543.543,0,0,1-.911.4l-3.878-3.564a1.367,1.367,0,0,0-.926-.361h-7.778a.544.544,0,0,1-.544-.544V162.809a.544.544,0,0,1,.544-.543H177.13a.544.544,0,0,1,.544.543v10.629Zm0,0" transform="translate(-126.339 -130.545)" fill="#fec190"/>
  <path id="Trazado_1093302" data-name="Trazado 1093302" d="M200.351,199.172h-6.8a1.367,1.367,0,1,0,0,2.734h6.8a1.367,1.367,0,0,0,0-2.734Zm0,0" transform="translate(-157.154 -162.96)" fill="#fec190"/>
  <path id="Trazado_1093303" data-name="Trazado 1093303" d="M280.821,272.586a1.367,1.367,0,1,0,0-2.734H274.4a1.367,1.367,0,1,0,0,2.734Zm0,0" transform="translate(-223.265 -220.757)" fill="#fec190"/>
</svg>
