<svg id="_01_Good_Communication" data-name="01 Good Communication" xmlns="http://www.w3.org/2000/svg" width="75.866" height="75.864" viewBox="0 0 75.866 75.864">
  <path id="Trazado_1093295" data-name="Trazado 1093295" d="M62.993,41.271,57.936,30.18A27.518,27.518,0,0,0,48.793,10,27.14,27.14,0,0,0,30.468,3h0a29.092,29.092,0,0,0-3.114.17A27.468,27.468,0,0,0,8.868,47.431a9.221,9.221,0,0,1,1.98,5.673V76.248a2.616,2.616,0,0,0,2.616,2.616H37.078a1.4,1.4,0,0,0,.166-.01,2.616,2.616,0,0,0,2.381-2.606V65.784a1.308,1.308,0,0,1,1.308-1.308H48.78a5.232,5.232,0,0,0,5.232-5.232V56.628A2.616,2.616,0,0,0,51.4,54.012H50.088a3.932,3.932,0,0,1-3.7-2.616H52.7A2.616,2.616,0,0,0,55.32,48.78V44.856h5.191a2.655,2.655,0,0,0,2.544-3.418,1.223,1.223,0,0,0-.063-.167ZM30.468,43.548a13.08,13.08,0,1,1,13.08-13.08,13.08,13.08,0,0,1-13.08,13.08ZM10.924,45.813A24.852,24.852,0,0,1,27.635,5.773c.51-.056,1.019-.1,1.525-.122v9.187a15.683,15.683,0,0,0,0,31.261v3.449L24.312,54.4a1.308,1.308,0,0,0-.383.922V76.248H21.312V73.632a1.308,1.308,0,1,0-2.616,0v2.616H13.464V53.1a11.853,11.853,0,0,0-2.54-7.291Zm44.4-3.573A2.616,2.616,0,0,0,52.7,44.856V48.78H44.856a1.308,1.308,0,0,0-1.308,1.308,6.548,6.548,0,0,0,6.54,6.54H51.4v2.616A2.616,2.616,0,0,1,48.78,61.86H40.932a3.924,3.924,0,0,0-3.924,3.924V76.248H31.776V73.632a1.308,1.308,0,1,0-2.616,0v2.616H26.544V55.861l4.849-4.849a1.308,1.308,0,0,0,.383-.925V46.1a15.683,15.683,0,0,0,0-31.261V5.671a24.537,24.537,0,0,1,15.271,6.278A24.893,24.893,0,0,1,55.32,30.468a1.316,1.316,0,0,0,.118.543l5.114,11.216Z" transform="translate(-2.998 -3)" fill="#fec190"/>
  <path id="Trazado_1093296" data-name="Trazado 1093296" d="M63.08,40H51.308a1.308,1.308,0,1,0,0,2.616H63.08a1.308,1.308,0,0,0,0-2.616Z" transform="translate(11.478 8.396)" fill="#fec190"/>
  <path id="Trazado_1093297" data-name="Trazado 1093297" d="M59.3,47.945l-5.664-3.27a1.308,1.308,0,1,0-1.308,2.265l5.664,3.27A1.308,1.308,0,1,0,59.3,47.945Z" transform="translate(11.992 9.782)" fill="#fec190"/>
  <path id="Trazado_1093298" data-name="Trazado 1093298" d="M52.979,38.886a1.308,1.308,0,0,0,.654-.175l5.664-3.27a1.308,1.308,0,1,0-1.308-2.265l-5.664,3.27a1.308,1.308,0,0,0,.654,2.441Z" transform="translate(11.992 6.24)" fill="#fec190"/>
  <path id="Trazado_1093299" data-name="Trazado 1093299" d="M31.4,20.465l-6.932,8.083-4.233-4.233a1.308,1.308,0,1,0-1.85,1.85L23.613,31.4a1.308,1.308,0,0,0,.927.383h.051a1.308,1.308,0,0,0,.942-.455l7.848-9.156a1.308,1.308,0,1,0-1.986-1.7Z" transform="translate(1.621 2.228)" fill="#fec190"/>
</svg>
