<svg xmlns="http://www.w3.org/2000/svg" width="105.006" height="105.006" viewBox="0 0 105.006 105.006">
  <g id="Grupo_1191424" data-name="Grupo 1191424" transform="translate(-1162.149 -2519.985)">
    <g id="Grupo_1191407" data-name="Grupo 1191407" transform="translate(-0.348 1208.658)">
      <circle id="Elipse_11480" data-name="Elipse 11480" cx="52.503" cy="52.503" r="52.503" transform="translate(1162.497 1311.327)" fill="#e9f8fc"/>
    </g>
    <path id="personas" d="M49.035,28.764,41.76,25.732V23.556a8.11,8.11,0,0,0,3.913-5.432h.163a2.446,2.446,0,0,0,.067-4.891l.8-1.852a6.585,6.585,0,0,0-3.318-8.6L41.108,1.744a8.354,8.354,0,0,0-8.341.907L31.5,3.608a5.076,5.076,0,0,0-3.548,6.56,8.455,8.455,0,0,0-3.718.09A6.56,6.56,0,0,0,20.558,2.78L18.282,1.744a8.354,8.354,0,0,0-8.341.907l-1.268.957A5.079,5.079,0,0,0,5.387,10.8l1.218,2.433a2.446,2.446,0,0,0,.1,4.891H6.87a8.121,8.121,0,0,0,3.913,5.43v2.178L3.508,28.764A4.065,4.065,0,0,0,1,32.526V43.4a.815.815,0,0,0,.815.815H7.522v6.522a.815.815,0,0,0,.815.815H44.206a.815.815,0,0,0,.815-.815V44.211h5.706a.815.815,0,0,0,.815-.815V32.526a4.065,4.065,0,0,0-2.508-3.762ZM29.021,12.2,31.3,13.233a4.955,4.955,0,0,1,2.5,6.472l-.245.558-.836-1.688a.815.815,0,0,0-1.223-.288l-1.3.978a6.522,6.522,0,0,1-7.826,0l-1.3-.978a.806.806,0,0,0-.676-.141.815.815,0,0,0-.543.429l-.9,1.808-.673-1.346a3.448,3.448,0,0,1,3.081-4.989,3.808,3.808,0,0,1,3.174,1.7l.256.385,1.357-.9-.256-.384A5.43,5.43,0,0,0,22.8,12.621a6.7,6.7,0,0,1,6.222-.426Zm5.4,11.635h.815a.815.815,0,1,1,0,1.63h-.815Zm-10.6,9.407a8.146,8.146,0,0,0,4.891,0v1.669l-2.446,2.446-2.446-2.446Zm2.446-1.255a6.529,6.529,0,0,1-6.522-6.522V22.392l1.107-2.215.523.392a8.152,8.152,0,0,0,9.783,0l.523-.392,1.107,2.215v3.068a6.529,6.529,0,0,1-6.522,6.522Zm-8.152-6.522H17.3a.815.815,0,0,1,0-1.63h.815ZM7.522,41.8v.783H2.63V32.526a2.441,2.441,0,0,1,1.5-2.256l7.776-3.24a.815.815,0,0,0,.5-.755V23.067a.853.853,0,0,0-.472-.739,6.5,6.5,0,0,1-3.564-5.109.815.815,0,0,0-.81-.726h-.86a.815.815,0,1,1,0-1.63h.815a.815.815,0,0,0,.815-.821l-.006-.815a.815.815,0,0,0-.086-.359l-1.4-2.8A3.447,3.447,0,0,1,9.2,5.162a.836.836,0,0,0,.319-.146l1.4-1.06a6.7,6.7,0,0,1,6.685-.726l2.278,1.034a4.955,4.955,0,0,1,2.5,6.472l-.132.306a7.9,7.9,0,0,0-.891.575l-1.286.963h0A5.071,5.071,0,0,0,16.8,19.764l1.22,2.436H17.3a2.446,2.446,0,0,0,0,4.891h.978A8.172,8.172,0,0,0,22.2,32.51v2.114L10.507,37.871A4.087,4.087,0,0,0,7.522,41.8Zm35.869,8.119H38.5V43.4h-1.63v6.522h-21.2V43.4h-1.63v6.522H9.152V41.8a2.451,2.451,0,0,1,1.793-2.356l11.828-3.285L25.7,39.081a.815.815,0,0,0,1.153,0l2.924-2.924L41.6,39.442A2.451,2.451,0,0,1,43.391,41.8Zm6.522-7.337H45.021V41.8a4.087,4.087,0,0,0-2.985-3.927L30.348,34.624V32.51a8.172,8.172,0,0,0,3.913-5.419h.978a2.446,2.446,0,1,0,0-4.891H34.49l.8-1.851a6.585,6.585,0,0,0-3.318-8.6l-1.891-.862-.408-.815a3.447,3.447,0,0,1,2.354-4.908.836.836,0,0,0,.319-.146l1.4-1.06a6.7,6.7,0,0,1,6.685-.726l2.278,1.035a4.955,4.955,0,0,1,2.5,6.472l-.937,2.169a.815.815,0,0,0-.067.326l.006.815a.815.815,0,0,0,.815.815h.815a.815.815,0,0,1,0,1.63h-.86a.815.815,0,0,0-.81.726,6.492,6.492,0,0,1-3.587,5.119.815.815,0,0,0-.452.73v3.209a.815.815,0,0,0,.5.752l7.779,3.242a2.441,2.441,0,0,1,1.5,2.256Z" transform="translate(1185.472 2544.349)" fill="#20849e"/>
  </g>
</svg>
