<svg xmlns="http://www.w3.org/2000/svg" width="124" height="124" viewBox="0 0 124 124">
  <g id="Grupo_1191331" data-name="Grupo 1191331" transform="translate(495.546 8956.548)">
    <g id="Grupo_1190813" data-name="Grupo 1190813" transform="translate(-1597.769 -12143)">
      <circle id="Elipse_11474" data-name="Elipse 11474" cx="62" cy="62" r="62" transform="translate(1102.223 3186.452)" fill="#fff"/>
    </g>
    <g id="Artboard11" transform="translate(-472.849 -8934.267)">
      <path id="Trazado_1093359" data-name="Trazado 1093359" d="M34.558,86.436H16.734a5.07,5.07,0,0,1-3.162-1.042,8.466,8.466,0,0,1-2.4-2.415A8.623,8.623,0,0,1,9.79,79.316c-.4-2.082-.055-11.928-.024-12.778-.231-5.008,4.477-7.755,8.035-8.732a27.192,27.192,0,0,1,4.447-.8C19.771,55.439,18,52.136,18,47.6c0-3.326,1.006-5.239,2.432-6.362a8.565,8.565,0,0,1,5.385-1.456A8.04,8.04,0,0,1,31.1,41.259c1.34,1.118,2.269,3.025,2.269,6.339,0,4.5-1.744,7.792-4.191,9.368a21.731,21.731,0,0,1,4.434.853c3.751,1.17,7.852,3.959,7.859,8.7.008.4.205,10.792-.006,13.023A7.409,7.409,0,0,1,40.183,83.3,9.228,9.228,0,0,1,37.9,85.364,7.027,7.027,0,0,1,34.558,86.436ZM35.6,83.655a7.925,7.925,0,0,0,1.034-.518,5.992,5.992,0,0,0,1.481-1.353A5.092,5.092,0,0,0,38.91,79.3c.21-2.223-.005-12.743-.005-12.743s0-.017,0-.026c0-3.526-3.271-5.394-6.06-6.264a23.439,23.439,0,0,0-6.962-.879,28.439,28.439,0,0,0-7.4.891,11.32,11.32,0,0,0-4.3,2.159,4.837,4.837,0,0,0-1.855,4.024q0,.059,0,.119s-.422,10.175-.022,12.252a6.473,6.473,0,0,0,1,2.721,6.274,6.274,0,0,0,1.784,1.775,2.874,2.874,0,0,0,.675.376V68.112a1.281,1.281,0,0,1,2.562,0V83.873H33.041V68.112a1.281,1.281,0,1,1,2.562,0ZM25.683,55.447c2.969,0,5.12-3.174,5.12-7.85,0-2.251-.437-3.611-1.348-4.371a5.55,5.55,0,0,0-3.637-.884,6.048,6.048,0,0,0-3.8.907c-.96.755-1.454,2.109-1.454,4.348C20.563,52.274,22.714,55.447,25.683,55.447ZM81.2,86.437H63.377a5.07,5.07,0,0,1-3.162-1.043,8.462,8.462,0,0,1-2.4-2.415,8.621,8.621,0,0,1-1.385-3.663c-.4-2.082-.055-11.929-.024-12.778-.231-5.008,4.477-7.755,8.035-8.733A27.226,27.226,0,0,1,68.89,57c-2.476-1.562-4.247-4.865-4.247-9.4,0-3.326,1.006-5.239,2.432-6.362a8.565,8.565,0,0,1,5.385-1.456,8.04,8.04,0,0,1,5.279,1.479c1.34,1.118,2.269,3.025,2.269,6.339,0,4.5-1.744,7.792-4.191,9.368a21.732,21.732,0,0,1,4.434.852c3.751,1.17,7.852,3.959,7.86,8.7.008.4.205,10.793-.006,13.023A7.412,7.412,0,0,1,86.827,83.3a9.233,9.233,0,0,1-2.279,2.063A7.028,7.028,0,0,1,81.2,86.437Zm1.045-2.781a7.917,7.917,0,0,0,1.034-.518,6,6,0,0,0,1.481-1.353,5.09,5.09,0,0,0,.792-2.487c.21-2.223-.005-12.743-.005-12.743s0-.017,0-.026c0-3.526-3.271-5.394-6.06-6.264a23.435,23.435,0,0,0-6.962-.879,28.435,28.435,0,0,0-7.4.891,11.318,11.318,0,0,0-4.3,2.159,4.837,4.837,0,0,0-1.855,4.024q0,.059,0,.119s-.422,10.175-.022,12.252a6.473,6.473,0,0,0,1,2.721,6.273,6.273,0,0,0,1.784,1.775,2.875,2.875,0,0,0,.675.376V68.112a1.281,1.281,0,1,1,2.562,0V83.875H79.685V68.112a1.281,1.281,0,0,1,2.563,0ZM72.326,55.448c2.969,0,5.12-3.174,5.12-7.85,0-2.252-.438-3.612-1.348-4.371a5.549,5.549,0,0,0-3.637-.885,6.048,6.048,0,0,0-3.8.907c-.96.755-1.455,2.109-1.455,4.348C67.206,52.274,69.357,55.448,72.326,55.448ZM36.857,31.522h-2.8l-5.752,5.987a1.281,1.281,0,0,1-2.205-.888v-5.1H24.734a4.419,4.419,0,0,1-4.415-4.41v-15.7A4.424,4.424,0,0,1,24.734,7H47.67a4.424,4.424,0,0,1,4.415,4.415v5.1H64.208a4.424,4.424,0,0,1,4.415,4.415v15.7a4.419,4.419,0,0,1-4.415,4.41H62.839v5.1a1.281,1.281,0,0,1-2.205.888l-5.752-5.987H41.272a4.419,4.419,0,0,1-4.415-4.41ZM49.523,16.515v-5.1A1.856,1.856,0,0,0,47.67,9.562H24.734a1.856,1.856,0,0,0-1.853,1.852v15.7a1.853,1.853,0,0,0,1.853,1.848h2.65a1.281,1.281,0,0,1,1.281,1.281v3.2l3.925-4.085a1.281,1.281,0,0,1,.924-.394h3.343V25.567h-9.15a1.281,1.281,0,0,1,0-2.562h9.15V20.93q0-.167.012-.331H27.707a1.281,1.281,0,0,1,0-2.562H37.943a4.407,4.407,0,0,1,3.33-1.521ZM39.42,20.93v15.7a1.853,1.853,0,0,0,1.853,1.848H55.428a1.281,1.281,0,0,1,.924.394l3.925,4.085v-3.2a1.281,1.281,0,0,1,1.281-1.281h2.65a1.853,1.853,0,0,0,1.853-1.848V20.93a1.856,1.856,0,0,0-1.853-1.852H41.272a1.854,1.854,0,0,0-1.571.873l-.033.055A1.839,1.839,0,0,0,39.42,20.93Zm-11.713-5.3a1.281,1.281,0,0,1,0-2.562H44.423a1.281,1.281,0,1,1,0,2.562ZM61.236,27.552a1.281,1.281,0,0,1,0,2.563H44.52a1.281,1.281,0,0,1,0-2.562Zm0,4.968a1.281,1.281,0,0,1,0,2.562H44.52a1.281,1.281,0,1,1,0-2.562Zm0-9.942a1.281,1.281,0,0,1,0,2.562H44.52a1.281,1.281,0,1,1,0-2.562Z" transform="translate(-9.597 -7)" fill="#20849e" fill-rule="evenodd"/>
    </g>
  </g>
</svg>
