<svg xmlns="http://www.w3.org/2000/svg" width="124" height="124" viewBox="0 0 124 124">
  <g id="Grupo_1190765" data-name="Grupo 1190765" transform="translate(-1102.223 -3186.452)">
    <circle id="Elipse_11474" data-name="Elipse 11474" cx="62" cy="62" r="62" transform="translate(1102.223 3186.452)" fill="#fff"/>
    <g id="_x34_0" transform="translate(1132.234 3206.717)">
      <path id="Trazado_1092189" data-name="Trazado 1092189" d="M42.556,32.424l2.307,3.846a4.678,4.678,0,0,0,3.077,2.307c11.922,2.436,12.947,2.948,15.511,2.82l5.64,37.817a1.233,1.233,0,0,0,2.436-.385l-7.691-51.4a4.334,4.334,0,0,0-4.871-3.589A4.218,4.218,0,0,0,55.5,28.706l.513,3.2c-1.538-.385-3.2-.641-4.743-1.026-.128,0-.256-.128-.385-.256L44.223,19.22a5.983,5.983,0,0,0-5-2.82H34.1a7.7,7.7,0,0,0-7.307,5.256l-1.923-.641a8.241,8.241,0,0,0-10.512,6.922L13.2,38.577,11.918,48.832a1.288,1.288,0,1,0,2.564.256l.641-5.128A5.525,5.525,0,0,0,18.2,44.987h4.487c-.9,5.128-1.538,8.845-1.923,11.024a2.448,2.448,0,0,1-.385,1.026c-2.051,2.692-4.871,6.794-9.358,12.947a5.254,5.254,0,0,0,1.666,7.691,5.387,5.387,0,0,0,6.922-1.41c1.41-1.795,1.538-2.051,3.077-4.23A1.282,1.282,0,1,0,20.635,70.5c-1.538,2.051-1.666,2.179-3.077,4.1a2.708,2.708,0,0,1-3.718,1.154,2.784,2.784,0,0,1-.9-3.974C17.3,65.754,20.379,61.4,22.3,58.831a4.8,4.8,0,0,0,.9-2.051c4.23-25.126,3.2-23.2,6.025-33.843a4.981,4.981,0,0,1,5-3.846h5.128a3.125,3.125,0,0,1,2.692,1.538l6.666,11.409a3.184,3.184,0,0,0,2.051,1.538c5,1.026,10.127,2.179,11.794,2.564l.385,2.948c-2.179,0-3.461-.513-14.614-2.82a1.985,1.985,0,0,1-1.41-1.026c-1.41-2.436-3.718-6.41-3.846-6.538a1.362,1.362,0,0,0-1.666-.641,1.549,1.549,0,0,0-.9.9c0,.128.128-1.538-3.2,16.665a2.071,2.071,0,0,0,.9,2.307c2.436,1.666,4.871,3.333,7.563,4.871a5.3,5.3,0,0,1,2.564,3.333c1.795,5.769,3.718,11.281,5.769,17.562.769,2.564-.769,4.23-2.692,4.23a2.772,2.772,0,0,1-2.692-1.923c-1.026-2.948-4.359-13.076-5.256-16.024a6.161,6.161,0,0,0-2.179-2.948c-.513-.385-2.436-1.666-8.717-6.025a1.764,1.764,0,0,0-1.538-.256c-.641.256-.769,1.026-.9,1.282-.128.385-.769,5-.9,5.769a8.85,8.85,0,0,1-2.051,4.1c-.769.9-1.666,2.179-2.82,3.718A1.282,1.282,0,1,0,26.4,67.164c1.154-1.538,2.051-2.82,2.82-3.718a11.532,11.532,0,0,0,2.564-5.384c.128-.9.513-3.461.641-4.359,2.436,1.666,4.871,3.333,7.307,5.128A2.757,2.757,0,0,1,40.89,60.37c.9,2.948,4.23,13.2,5.256,16.024a5.277,5.277,0,0,0,5.128,3.589H51.4c3.461,0,6.41-3.2,5.128-7.563-1.795-5.384-3.846-11.665-5.769-17.562a7.357,7.357,0,0,0-3.718-4.743c-2.436-1.41-4.615-2.948-7.051-4.615.641-2.179.513-1.41,2.564-13.076ZM23.071,42.551H18.2a2.56,2.56,0,0,1-2.564-2.82l1.282-11.537A5.6,5.6,0,0,1,24.1,23.451l2.179.641a133.6,133.6,0,0,0-3.2,18.46Zm35.765-10-.641-4.23a1.686,1.686,0,1,1,3.333-.513l.769,5.384Z" transform="translate(-10.016 2.316)" fill="#20849e"/>
      <path id="Trazado_1092190" data-name="Trazado 1092190" d="M35.932,18.465a8.236,8.236,0,0,0,8.332-8.332,8.332,8.332,0,1,0-8.332,8.332ZM35.8,4.364h0a5.769,5.769,0,1,1-5.769,5.769A5.827,5.827,0,0,1,35.8,4.364Z" transform="translate(-5.059 -1.8)" fill="#20849e"/>
    </g>
  </g>
</svg>
