<svg xmlns="http://www.w3.org/2000/svg" width="124" height="124" viewBox="0 0 124 124">
  <g id="Grupo_1190764" data-name="Grupo 1190764" transform="translate(-790.223 -3186.452)">
    <circle id="Elipse_11475" data-name="Elipse 11475" cx="62" cy="62" r="62" transform="translate(790.223 3186.452)" fill="#fff"/>
    <g id="turismo" transform="translate(809 3206.716)">
      <g id="Grupo_1190762" data-name="Grupo 1190762" transform="translate(0.001 42.038)">
        <path id="Trazado_1092208" data-name="Trazado 1092208" d="M6.574,45.122q-1.132,0-2.382,0l-2.878,0a1.312,1.312,0,1,1,0-2.625l2.884,0c6.712.013,12.505.026,13.243-1.084a7.96,7.96,0,0,0,.566-1.272c.559-1.449,1.326-3.432,3.317-3.957a4.188,4.188,0,0,1,2.1.047c.484.108.617.123.8.034a1.746,1.746,0,0,0,.871-1.6c-.014-.049-.028-.1-.215-.224a1.312,1.312,0,1,1,1.436-2.2,2.938,2.938,0,0,1,1.31,1.722,4.276,4.276,0,0,1-2.267,4.663,3.545,3.545,0,0,1-2.509.16,1.8,1.8,0,0,0-.857-.07c-.692.182-1.139,1.34-1.534,2.362a9.3,9.3,0,0,1-.826,1.776c-1.389,2.089-5.142,2.264-13.054,2.264Z" transform="translate(-0.001 -32.029)" fill="#20849e"/>
        <path id="Trazado_1092209" data-name="Trazado 1092209" d="M70.75,49.047c-.042,0-.084,0-.126-.007-4.436-.053-8.126-2.912-10.827-5-1.1-.852-2.6-2.017-3.105-2.017h0a9.352,9.352,0,0,0-2.452.472,16.657,16.657,0,0,1-5.427.763c-2-.055-6.163-.171-8.737-2.868a6.631,6.631,0,0,1-1.13-7.654,1.313,1.313,0,1,1,2.326,1.221,4,4,0,0,0,.7,4.621c1.828,1.915,5.259,2.009,6.909,2.054a13.712,13.712,0,0,0,4.64-.663,11.892,11.892,0,0,1,3.118-.574c1.466-.058,2.826,1.063,4.768,2.567,2.561,1.986,5.75,4.457,9.344,4.457a1.315,1.315,0,0,1,0,2.63Z" transform="translate(11.935 -32.029)" fill="#20849e"/>
      </g>
      <path id="Trazado_1092210" data-name="Trazado 1092210" d="M53.312,38.625A1.311,1.311,0,0,1,52,37.312v-21a1.312,1.312,0,0,1,2.625,0v21A1.311,1.311,0,0,1,53.312,38.625Z" transform="translate(16.249 4.687)" fill="#20849e"/>
      <path id="Trazado_1092211" data-name="Trazado 1092211" d="M53.314,22.937a1.313,1.313,0,0,1-.589-2.487l2.625-1.312a1.313,1.313,0,0,1,1.175,2.348L53.9,22.8a1.32,1.32,0,0,1-.585.138Z" transform="translate(16.249 5.937)" fill="#20849e"/>
      <path id="Trazado_1092212" data-name="Trazado 1092212" d="M53.936,20.937a1.316,1.316,0,0,1-.585-.138l-2.625-1.312A1.313,1.313,0,0,1,51.9,17.139l2.625,1.312a1.313,1.313,0,0,1-.589,2.487Z" transform="translate(15.624 5.312)" fill="#20849e"/>
      <path id="Trazado_1092213" data-name="Trazado 1092213" d="M40.312,38.312A1.311,1.311,0,0,1,39,37V17.312a1.312,1.312,0,1,1,2.625,0V37A1.311,1.311,0,0,1,40.312,38.312Z" transform="translate(12.187 5)" fill="#20849e"/>
      <path id="Trazado_1092214" data-name="Trazado 1092214" d="M40.314,23.937a1.313,1.313,0,0,1-.589-2.487l2.625-1.312a1.313,1.313,0,0,1,1.175,2.348L40.9,23.8a1.32,1.32,0,0,1-.585.138Z" transform="translate(12.186 6.25)" fill="#20849e"/>
      <path id="Trazado_1092215" data-name="Trazado 1092215" d="M40.936,21.937a1.316,1.316,0,0,1-.585-.138l-2.625-1.312A1.313,1.313,0,0,1,38.9,18.139l2.625,1.312a1.313,1.313,0,0,1-.589,2.487Z" transform="translate(11.562 5.625)" fill="#20849e"/>
      <path id="Trazado_1092216" data-name="Trazado 1092216" d="M61.375,32.624a7.789,7.789,0,0,1-5.865-2.653q-.311-.03-.634-.087a6.5,6.5,0,0,1-5.313,2.74A6.57,6.57,0,0,1,43,26.063a6.471,6.471,0,0,1,1.763-4.456,5.139,5.139,0,0,1-.45-2.107,5.252,5.252,0,0,1,6.658-5.058,6.551,6.551,0,0,1,12.488-1.448,5.258,5.258,0,0,1,4.478,5.193,5.146,5.146,0,0,1-.319,1.772,7.868,7.868,0,0,1-6.243,12.665Zm-5.222-5.253a1.314,1.314,0,0,1,1.047.521,5.236,5.236,0,1,0,7.93-6.8,1.313,1.313,0,0,1-.192-1.583,2.577,2.577,0,0,0,.374-1.32,2.628,2.628,0,0,0-2.625-2.625c.017.007-.053.014-.123.017a1.266,1.266,0,0,1-1.328-.987,3.927,3.927,0,0,0-7.64,1.818,1.312,1.312,0,0,1-2.2,1.217,2.614,2.614,0,0,0-3.915,3.447,1.312,1.312,0,0,1-.261,1.844,3.9,3.9,0,0,0-1.6,3.145,3.924,3.924,0,0,0,7.45,1.736,1.317,1.317,0,0,1,1.553-.675,5.19,5.19,0,0,0,1.45.249l.075,0Z" transform="translate(13.437 2.813)" fill="#20849e"/>
      <path id="Trazado_1092217" data-name="Trazado 1092217" d="M38.562,32.068c-3.8,0-6.562-3-6.562-7.14a7.063,7.063,0,0,1,1.435-4.287,4.694,4.694,0,0,1-.266-1.554A4.825,4.825,0,0,1,37.2,14.336a5.971,5.971,0,0,1,11.315,1.239,4.751,4.751,0,0,1,1.127-.136A1.344,1.344,0,0,1,50.99,16.75a1.278,1.278,0,0,1-1.273,1.312h-.079a2.173,2.173,0,0,0-1.522.634A1.312,1.312,0,0,1,45.91,17.5,3.981,3.981,0,0,0,46,16.75a3.346,3.346,0,0,0-6.59-.819,1.31,1.31,0,0,1-1.521.965,2.2,2.2,0,0,0-2.1,2.191,2.121,2.121,0,0,0,.312,1.1,1.313,1.313,0,0,1-.192,1.595,4.452,4.452,0,0,0-1.288,3.146c0,2.175,1.231,4.515,3.937,4.515a5.745,5.745,0,0,0,4.179-1.816,1.307,1.307,0,0,1,1.046-.52,2.627,2.627,0,0,1,1.152.31,8.723,8.723,0,0,0,4.124.714,1.312,1.312,0,1,1,0,2.625,11.74,11.74,0,0,1-4.9-.81,8.622,8.622,0,0,1-5.6,2.122Z" transform="translate(9.999 3.369)" fill="#20849e"/>
      <path id="Trazado_1092218" data-name="Trazado 1092218" d="M40.562,37.6a1.305,1.305,0,0,1-.97-.428l-10.2-11.185a2.682,2.682,0,0,0-3.907-.007L15.283,37.17a1.313,1.313,0,1,1-1.94-1.769l10.2-11.185a5.251,5.251,0,0,1,7.8.007L41.535,35.4a1.312,1.312,0,0,1-.97,2.2Z" transform="translate(4.062 7.026)" fill="#20849e"/>
      <path id="Trazado_1092219" data-name="Trazado 1092219" d="M1.312,39.147A1.312,1.312,0,0,1,.325,36.97L15.786,19.343A5.244,5.244,0,0,1,19.7,17.528a5.163,5.163,0,0,1,3.941,1.738L29.522,25.8a1.312,1.312,0,0,1-1.95,1.756l-5.88-6.536a2.783,2.783,0,0,0-1.962-.866,2.624,2.624,0,0,0-1.96.911L2.3,38.7a1.309,1.309,0,0,1-.987.448Z" transform="translate(0 5.477)" fill="#20849e"/>
      <path id="Trazado_1092220" data-name="Trazado 1092220" d="M13.938,27.8c-.042,0-.085,0-.13-.007a1.309,1.309,0,0,1-.962-.577l-2.625-3.937A1.313,1.313,0,0,1,12.4,21.82l1.736,2.605,1.494-1.494a1.306,1.306,0,0,1,1.515-.247l1.588.794,1.76-2.645a1.312,1.312,0,0,1,2.184,1.454L20.28,25.9a1.315,1.315,0,0,1-1.679.448l-1.778-.89-1.956,1.956a1.314,1.314,0,0,1-.928.385Z" transform="translate(3.125 6.326)" fill="#20849e"/>
      <path id="Trazado_1092221" data-name="Trazado 1092221" d="M22.885,31.616c-.042,0-.085,0-.129-.007a1.31,1.31,0,0,1-.963-.576l-2.4-3.6a1.313,1.313,0,1,1,2.184-1.459l1.512,2.267,1.495-1.494A1.308,1.308,0,0,1,26.1,26.5l1.589.794,1.261-1.886a1.312,1.312,0,0,1,2.181,1.459l-1.9,2.848a1.312,1.312,0,0,1-1.677.445l-1.778-.89L23.814,31.23a1.314,1.314,0,0,1-.928.385Z" transform="translate(5.99 7.759)" fill="#20849e"/>
      <path id="Trazado_1092222" data-name="Trazado 1092222" d="M25.5,19.75a8.726,8.726,0,0,1-6.555-2.625h-.008a3.938,3.938,0,0,1-1.19-7.691,5.261,5.261,0,0,1,5.128-4.121,5.178,5.178,0,0,1,2.721.773A5.884,5.884,0,0,1,35.822,8.562a5.238,5.238,0,0,1-2.448,9.875,5.143,5.143,0,0,1-2.2-.492A9.323,9.323,0,0,1,25.5,19.75Zm-5.965-5.325a1.316,1.316,0,0,1,1.1.6,5.821,5.821,0,0,0,4.864,2.1,6.3,6.3,0,0,0,4.546-1.693,1.312,1.312,0,0,1,1.757-.159,2.6,2.6,0,0,0,1.571.539,2.615,2.615,0,0,0,.845-5.092,1.314,1.314,0,0,1-.883-1.12,3.263,3.263,0,0,0-6.243-1.012,1.312,1.312,0,0,1-2.21.308,2.609,2.609,0,0,0-4.632,1.664,1.311,1.311,0,0,1-1.312,1.312,1.312,1.312,0,1,0,0,2.625,1.37,1.37,0,0,0,.3-.039,1.293,1.293,0,0,1,.3-.034Z" transform="translate(4.687 1.25)" fill="#20849e"/>
      <g id="Grupo_1190763" data-name="Grupo 1190763">
        <path id="Trazado_1092223" data-name="Trazado 1092223" d="M7.937,11.875a3.937,3.937,0,1,1,3.937-3.937A3.942,3.942,0,0,1,7.937,11.875Zm0-5.25A1.312,1.312,0,1,0,9.25,7.937,1.313,1.313,0,0,0,7.937,6.625Z" transform="translate(1.25 1.25)" fill="#20849e"/>
        <path id="Trazado_1092224" data-name="Trazado 1092224" d="M7.312,14.937A1.311,1.311,0,0,1,6,13.625V12.312a1.312,1.312,0,0,1,2.625,0v1.312A1.311,1.311,0,0,1,7.312,14.937Z" transform="translate(1.875 3.437)" fill="#20849e"/>
        <path id="Trazado_1092225" data-name="Trazado 1092225" d="M7.312,3.937A1.311,1.311,0,0,1,6,2.625V1.312a1.312,1.312,0,0,1,2.625,0V2.625A1.311,1.311,0,0,1,7.312,3.937Z" transform="translate(1.875)" fill="#20849e"/>
        <path id="Trazado_1092226" data-name="Trazado 1092226" d="M2.625,8.625H1.312A1.312,1.312,0,1,1,1.312,6H2.625a1.312,1.312,0,1,1,0,2.625Z" transform="translate(0 1.875)" fill="#20849e"/>
        <path id="Trazado_1092227" data-name="Trazado 1092227" d="M13.625,8.625H12.312a1.312,1.312,0,0,1,0-2.625h1.312a1.312,1.312,0,0,1,0,2.625Z" transform="translate(3.437 1.875)" fill="#20849e"/>
        <path id="Trazado_1092228" data-name="Trazado 1092228" d="M11.775,13.088a1.309,1.309,0,0,1-.928-.385l-.928-.928A1.312,1.312,0,1,1,11.775,9.92l.928.928a1.312,1.312,0,0,1-.928,2.24Z" transform="translate(2.979 2.979)" fill="#20849e"/>
        <path id="Trazado_1092229" data-name="Trazado 1092229" d="M4,5.311a1.309,1.309,0,0,1-.928-.385L2.143,4A1.312,1.312,0,0,1,4,2.143l.928.928A1.312,1.312,0,0,1,4,5.311Z" transform="translate(0.549 0.549)" fill="#20849e"/>
        <path id="Trazado_1092230" data-name="Trazado 1092230" d="M3.071,13.088a1.312,1.312,0,0,1-.928-2.24l.928-.928a1.312,1.312,0,1,1,1.856,1.856L4,12.7a1.309,1.309,0,0,1-.928.385Z" transform="translate(0.549 2.979)" fill="#20849e"/>
        <path id="Trazado_1092231" data-name="Trazado 1092231" d="M10.848,5.311a1.312,1.312,0,0,1-.928-2.24l.928-.928A1.312,1.312,0,0,1,12.7,4l-.928.928A1.309,1.309,0,0,1,10.848,5.311Z" transform="translate(2.979 0.549)" fill="#20849e"/>
      </g>
      <path id="Trazado_1092232" data-name="Trazado 1092232" d="M82.686,34.625H1.312a1.312,1.312,0,1,1,0-2.625H82.686a1.312,1.312,0,1,1,0,2.625Z" transform="translate(0 9.999)" fill="#20849e"/>
      <path id="Trazado_1092233" data-name="Trazado 1092233" d="M15.311,74a1.313,1.313,0,0,1-1.141-1.96L36.483,32.665a1.312,1.312,0,0,1,2.284,1.294L16.454,73.334A1.315,1.315,0,0,1,15.311,74Z" transform="translate(4.375 10)" fill="#20849e"/>
      <path id="Trazado_1092234" data-name="Trazado 1092234" d="M47.125,74a1.312,1.312,0,0,1-1.257-.936L34.055,33.689a1.313,1.313,0,1,1,2.515-.753L48.382,72.31a1.314,1.314,0,0,1-.881,1.634A1.342,1.342,0,0,1,47.125,74Z" transform="translate(10.624 9.999)" fill="#20849e"/>
      <path id="Trazado_1092235" data-name="Trazado 1092235" d="M19.437,56.5H6.312A1.311,1.311,0,0,1,5,55.187V47.312A1.311,1.311,0,0,1,6.312,46H19.437a1.311,1.311,0,0,1,1.312,1.312v7.875A1.311,1.311,0,0,1,19.437,56.5ZM7.625,53.875h10.5v-5.25H7.625Z" transform="translate(1.562 14.374)" fill="#20849e"/>
      <path id="Trazado_1092236" data-name="Trazado 1092236" d="M11.312,67.75A1.311,1.311,0,0,1,10,66.437V53.312a1.312,1.312,0,0,1,2.625,0V66.437A1.311,1.311,0,0,1,11.312,67.75Z" transform="translate(3.125 16.249)" fill="#20849e"/>
      <path id="Trazado_1092237" data-name="Trazado 1092237" d="M55.792,58.812H53.167A1.311,1.311,0,0,1,51.855,57.5V54.875A7.883,7.883,0,0,1,59.73,47h2.625a1.311,1.311,0,0,1,1.312,1.312v2.625A7.883,7.883,0,0,1,55.792,58.812ZM54.48,56.187h1.312a5.255,5.255,0,0,0,5.25-5.25V49.625H59.73a5.255,5.255,0,0,0-5.25,5.25Z" transform="translate(16.204 14.687)" fill="#20849e"/>
      <path id="Trazado_1092238" data-name="Trazado 1092238" d="M55.355,63.812H52.73a7.883,7.883,0,0,1-7.875-7.875V53.312A1.311,1.311,0,0,1,46.167,52h2.625a7.883,7.883,0,0,1,7.875,7.875V62.5A1.311,1.311,0,0,1,55.355,63.812ZM47.48,54.625v1.312a5.255,5.255,0,0,0,5.25,5.25h1.312V59.875a5.255,5.255,0,0,0-5.25-5.25Z" transform="translate(14.016 16.249)" fill="#20849e"/>
      <path id="Trazado_1092239" data-name="Trazado 1092239" d="M53.167,67.75a1.311,1.311,0,0,1-1.312-1.312V53.312a1.312,1.312,0,0,1,2.625,0V66.437A1.311,1.311,0,0,1,53.167,67.75Z" transform="translate(16.204 16.249)" fill="#20849e"/>
      <path id="Trazado_1092240" data-name="Trazado 1092240" d="M32.314,49.5a1.217,1.217,0,0,1-.217-.018,1.312,1.312,0,0,1-1.079-1.509L32.331,40.1a1.312,1.312,0,0,1,2.588.43L33.607,48.4A1.312,1.312,0,0,1,32.314,49.5Z" transform="translate(9.687 12.186)" fill="#20849e"/>
      <path id="Trazado_1092241" data-name="Trazado 1092241" d="M30.314,63.125a1.4,1.4,0,0,1-.164-.01,1.311,1.311,0,0,1-1.139-1.465l1.312-10.5a1.312,1.312,0,1,1,2.6.325l-1.312,10.5A1.312,1.312,0,0,1,30.314,63.125Z" transform="translate(9.062 15.624)" fill="#20849e"/>
    </g>
  </g>
</svg>
