<svg xmlns="http://www.w3.org/2000/svg" width="124" height="124" viewBox="0 0 124 124">
  <g id="Grupo_1190767" data-name="Grupo 1190767" transform="translate(6971.125 8516.221)">
    <circle id="Elipse_11476" data-name="Elipse 11476" cx="62" cy="62" r="62" transform="translate(-6971.125 -8516.221)" fill="#fff"/>
    <g id="ecologico" transform="translate(-6932.066 -8500.09)">
      <path id="Trazado_1092191" data-name="Trazado 1092191" d="M192.655,63.361a7.187,7.187,0,0,1-12.173,7.615" transform="translate(-171.67 -56.643)" fill="none" stroke="#20849e" stroke-linecap="round" stroke-linejoin="round" stroke-miterlimit="10" stroke-width="2"/>
      <path id="Trazado_1092192" data-name="Trazado 1092192" d="M179.495,142.161v12.767a4.49,4.49,0,0,1-7.477,3.352L161.9,149.262a2.532,2.532,0,0,1,3.262-3.871l8.138,6.484V138.31l-6.45,6.812" transform="translate(-155.989 -117.118)" fill="none" stroke="#20849e" stroke-linecap="round" stroke-linejoin="round" stroke-miterlimit="10" stroke-width="2"/>
      <path id="Trazado_1092193" data-name="Trazado 1092193" d="M277,95.722s8.208,11.776,5.264,18.4-11.592,4.983-11.592,4.983c-1.1-16.36-9.2-24.658-9.2-24.658s4.9-9.17,13.412-5.021a4.017,4.017,0,0,1,.186,7.117c-3.2,1.782-6.975,3.683-8.446,3.652" transform="translate(-237.018 -76.805)" fill="none" stroke="#20849e" stroke-linecap="round" stroke-linejoin="round" stroke-miterlimit="10" stroke-width="2"/>
      <path id="Trazado_1092194" data-name="Trazado 1092194" d="M154.143,259.047l-10.178,10.812L135.073,292.8a3.231,3.231,0,0,0,6.012,2.368l8.609-21.509,13.161-8.19a4.253,4.253,0,0,0,1.706-3.406v-6.435" transform="translate(-134.854 -211.783)" fill="none" stroke="#20849e" stroke-linecap="round" stroke-linejoin="round" stroke-miterlimit="10" stroke-width="2"/>
      <path id="Trazado_1092195" data-name="Trazado 1092195" d="M256.035,333.258l1.05,2L270.219,353.9a3.061,3.061,0,0,0,5.047-3.466l-11.324-17.648-1.4-4.84" transform="translate(-232.632 -270.133)" fill="none" stroke="#20849e" stroke-linecap="round" stroke-linejoin="round" stroke-miterlimit="10" stroke-width="2"/>
      <path id="Trazado_1092196" data-name="Trazado 1092196" d="M143.4,40.121s3.775.538,5.889-1.294l-.8-4.792a3.11,3.11,0,0,1,1.822-3.365l5.85-1.832a3.11,3.11,0,0,1,3.64.866l2.672,5.162L149.29,38.827" transform="translate(-141.75 -28.577)" fill="none" stroke="#20849e" stroke-linecap="round" stroke-linejoin="round" stroke-miterlimit="10" stroke-width="2"/>
    </g>
  </g>
</svg>
