<svg xmlns="http://www.w3.org/2000/svg" width="90.041" height="67.596" viewBox="0 0 90.041 67.596">
  <path id="conflicto" d="M38.176,119.3a17.767,17.767,0,0,0-8.766-4.074,8.494,8.494,0,1,0-5.669,0A17.773,17.773,0,0,0,9.015,129.971a1.276,1.276,0,0,0,.361,1.105,24.4,24.4,0,0,0,34.4,0,1.276,1.276,0,0,0,.361-1.105A17.785,17.785,0,0,0,38.176,119.3ZM20.633,107.22a5.942,5.942,0,1,1,5.942,5.942,5.949,5.949,0,0,1-5.942-5.942Zm5.942,28.4a21.7,21.7,0,0,1-14.924-5.891,15.233,15.233,0,0,1,29.848,0A21.7,21.7,0,0,1,26.575,135.616Zm72.449-5.646A17.773,17.773,0,0,0,84.3,115.226a8.494,8.494,0,1,0-5.669,0A17.773,17.773,0,0,0,63.9,129.97a1.276,1.276,0,0,0,.361,1.105,24.4,24.4,0,0,0,34.4,0,1.275,1.275,0,0,0,.361-1.105Zm-23.5-22.751a5.942,5.942,0,1,1,5.943,5.942A5.949,5.949,0,0,1,75.522,107.22Zm5.942,28.4a21.7,21.7,0,0,1-14.924-5.891,15.233,15.233,0,0,1,29.848,0A21.7,21.7,0,0,1,81.465,135.616ZM25.222,96.1a1.276,1.276,0,0,0,1.384-.252l4.5-4.315H49.355a1.276,1.276,0,0,0,1.276-1.276V71.848a1.276,1.276,0,0,0-1.276-1.276h-23.6a1.276,1.276,0,0,0-1.276,1.274l-.031,23.082A1.276,1.276,0,0,0,25.222,96.1Zm1.807-22.979H48.079v15.86H30.6a1.276,1.276,0,0,0-.883.355L27,91.937ZM58.685,91.536H76.93l4.5,4.315a1.276,1.276,0,0,0,2.158-.923l-.031-23.082a1.276,1.276,0,0,0-1.276-1.274h-23.6a1.276,1.276,0,0,0-1.276,1.276V90.26A1.276,1.276,0,0,0,58.685,91.536Zm1.276-18.412H81.012l.025,18.813-2.712-2.6a1.276,1.276,0,0,0-.883-.355H59.961Zm-29.9,8.028a1.276,1.276,0,0,1,1.276-1.276h9.844l-1.213-1.033A1.276,1.276,0,0,1,41.617,76.9l3.544,3.017a1.276,1.276,0,0,1,.145,1.8l-3.017,3.544a1.276,1.276,0,0,1-1.943-1.654l1-1.178H31.332a1.276,1.276,0,0,1-1.276-1.276Zm46.651,1.276H66.692l1,1.178a1.276,1.276,0,1,1-1.943,1.654l-3.017-3.544a1.276,1.276,0,0,1,.145-1.8L66.423,76.9a1.276,1.276,0,0,1,1.654,1.943l-1.213,1.033h9.844a1.276,1.276,0,0,1,0,2.552ZM52.955,97.943l-1.509,5.631a1.276,1.276,0,0,1-2.465-.66l1.509-5.631a1.276,1.276,0,0,1,2.465.66Zm-4.6-3.7a1.275,1.275,0,0,1,0,1.8l-4.122,4.122a1.276,1.276,0,0,1-1.8-1.8l4.122-4.122a1.275,1.275,0,0,1,1.8,0Zm11.035,8.667a1.276,1.276,0,1,1-2.465.66l-1.509-5.631a1.276,1.276,0,0,1,2.465-.66Zm5.315-2.043a1.273,1.273,0,0,1-.929-.4l-4-4.245a1.276,1.276,0,0,1,1.858-1.749l4,4.245a1.276,1.276,0,0,1-.929,2.15Z" transform="translate(-8.999 -70.572)" fill="#fec190"/>
</svg>
