<svg xmlns="http://www.w3.org/2000/svg" width="124" height="124" viewBox="0 0 124 124">
  <g id="Grupo_1191332" data-name="Grupo 1191332" transform="translate(-1082.223 -2728.245)">
    <g id="Grupo_1190818" data-name="Grupo 1190818" transform="translate(-19.999 -458.207)">
      <circle id="Elipse_11474" data-name="Elipse 11474" cx="62" cy="62" r="62" transform="translate(1102.223 3186.452)" fill="#fff"/>
    </g>
    <g id="comentario-positivo" transform="translate(1111.723 2758)">
      <path id="Trazado_1093341" data-name="Trazado 1093341" d="M231.348,299.51a1.2,1.2,0,0,0-1.2,1.2v14.161a1.27,1.27,0,0,1-1.267,1.27H204.7a1.2,1.2,0,0,0,0,2.4H228.88a3.675,3.675,0,0,0,3.669-3.673V300.711A1.2,1.2,0,0,0,231.348,299.51Z" transform="translate(-170.908 -255.513)" fill="#20849e"/>
      <path id="Trazado_1093342" data-name="Trazado 1093342" d="M78.969,235.369H113.3a1.2,1.2,0,0,0,0-2.4H78.969a1.2,1.2,0,0,0,0,2.4Z" transform="translate(-65.313 -199.627)" fill="#20849e"/>
      <path id="Trazado_1093343" data-name="Trazado 1093343" d="M78.969,280.552H113.3a1.2,1.2,0,1,0,0-2.4H78.969a1.2,1.2,0,1,0,0,2.4Z" transform="translate(-65.313 -237.574)" fill="#20849e"/>
      <path id="Trazado_1093344" data-name="Trazado 1093344" d="M78.969,325.74h18.12a1.2,1.2,0,0,0,0-2.4H78.969a1.2,1.2,0,0,0,0,2.4Z" transform="translate(-65.313 -275.525)" fill="#20849e"/>
      <path id="Trazado_1093345" data-name="Trazado 1093345" d="M64.092,24.8A17.909,17.909,0,0,0,46.35,45.137H3.669A3.675,3.675,0,0,0,0,48.81V84.154a3.675,3.675,0,0,0,3.669,3.673h6.9v8.552a2.254,2.254,0,0,0,1.255,2.342,1.805,1.805,0,0,0,.685.132,2.626,2.626,0,0,0,1.856-.9L24.478,87.827h3.549a1.2,1.2,0,0,0,0-2.4H23.98a1.2,1.2,0,0,0-.85.353L12.973,95.947V86.626a1.2,1.2,0,0,0-1.2-1.2h-8.1A1.27,1.27,0,0,1,2.4,84.154V48.81a1.27,1.27,0,0,1,1.267-1.271H46.847a17.98,17.98,0,0,0,12.391,12.4v4.445a1.2,1.2,0,1,0,2.4,0V60.443A17.908,17.908,0,1,0,64.092,24.8Zm0,33.414A15.506,15.506,0,1,1,79.6,42.7,15.524,15.524,0,0,1,64.092,58.209Z" transform="translate(0 -24.795)" fill="#20849e"/>
      <path id="Trazado_1093346" data-name="Trazado 1093346" d="M369,162.212a6.867,6.867,0,0,1-9.639,0,1.2,1.2,0,1,0-1.691,1.706,9.275,9.275,0,0,0,13.02,0A1.2,1.2,0,1,0,369,162.212Z" transform="translate(-300.086 -139.911)" fill="#20849e"/>
      <path id="Trazado_1093347" data-name="Trazado 1093347" d="M421.806,102.717a4.052,4.052,0,0,0-4.067,4.028,1.2,1.2,0,1,0,2.4,0,1.665,1.665,0,0,1,3.33,0,1.2,1.2,0,1,0,2.4,0A4.053,4.053,0,0,0,421.806,102.717Z" transform="translate(-350.836 -90.237)" fill="#20849e"/>
      <path id="Trazado_1093348" data-name="Trazado 1093348" d="M337.567,106.745a1.2,1.2,0,0,0,2.4,0,4.068,4.068,0,0,0-8.135,0,1.2,1.2,0,1,0,2.4,0,1.666,1.666,0,0,1,3.33,0Z" transform="translate(-278.69 -90.237)" fill="#20849e"/>
      <path id="Trazado_1093349" data-name="Trazado 1093349" d="M2,52.207H23.543a1.2,1.2,0,0,0,0-2.4H2.4v-8.72H33.336V49.8H29.309a1.2,1.2,0,0,0,0,2.4h4.428a2,2,0,0,0,2-2V40.684a2,2,0,0,0-2-2H2a2,2,0,0,0-2,2v9.521A2,2,0,0,0,2,52.207Z" transform="translate(0 -36.458)" fill="#20849e"/>
      <path id="Trazado_1093350" data-name="Trazado 1093350" d="M58.5,74.605a1.2,1.2,0,0,0-1.2-1.2H36.2a1.2,1.2,0,1,0,0,2.4H57.3A1.2,1.2,0,0,0,58.5,74.605Z" transform="translate(-29.393 -65.619)" fill="#20849e"/>
    </g>
  </g>
</svg>
