<svg xmlns="http://www.w3.org/2000/svg" width="124" height="124" viewBox="0 0 124 124">
  <g id="Grupo_1191003" data-name="Grupo 1191003" transform="translate(-893 -3992.34)">
    <circle id="Elipse_11477" data-name="Elipse 11477" cx="62" cy="62" r="62" transform="translate(893 3992.34)" fill="#fff"/>
    <g id="toalla" transform="translate(917 4021.874)">
      <g id="Grupo_1190725" data-name="Grupo 1190725" transform="translate(10.524 9.931)">
        <g id="Grupo_1190721" data-name="Grupo 1190721">
          <path id="Trazado_1092089" data-name="Trazado 1092089" d="M149.186,168.21H116.312a5.249,5.249,0,0,1-5.245-5.245V113.054a3.1,3.1,0,0,0-6.209,0V116.2a.829.829,0,0,1-1.658,0v-3.147a4.748,4.748,0,0,1,4.754-4.754H151.1a3.293,3.293,0,0,1,3.3,3.3v51.366A5.2,5.2,0,0,1,149.186,168.21Zm-37.594-58.235a4.7,4.7,0,0,1,1.15,3.079v49.928a3.589,3.589,0,0,0,3.587,3.587h32.857a3.589,3.589,0,0,0,3.587-3.587V111.616a1.632,1.632,0,0,0-1.641-1.641Z" transform="translate(-103.2 -108.3)" fill="#20849e"/>
        </g>
        <g id="Grupo_1190722" data-name="Grupo 1190722" transform="translate(0 11.031)">
          <path id="Trazado_1092090" data-name="Trazado 1092090" d="M111.9,195h-4.3a4.4,4.4,0,0,1-4.4-4.4V174.329a.829.829,0,0,1,1.658,0v16.276a2.751,2.751,0,0,0,2.741,2.741h4.3a.83.83,0,0,1,.829.829A.841.841,0,0,1,111.9,195Z" transform="translate(-103.2 -173.5)" fill="#20849e"/>
        </g>
        <g id="Grupo_1190723" data-name="Grupo 1190723" transform="translate(7.918 49.319)">
          <path id="Trazado_1092091" data-name="Trazado 1092091" d="M192.45,402.592a14.058,14.058,0,0,1-4.382-.592,12.986,12.986,0,0,0-3.942-.541,12.387,12.387,0,0,0-3.942.541,14.591,14.591,0,0,1-4.382.592,14.058,14.058,0,0,1-4.382-.592,12.986,12.986,0,0,0-3.942-.541,12.387,12.387,0,0,0-3.942.541,14.591,14.591,0,0,1-4.382.592,14.058,14.058,0,0,1-4.382-.592,12.986,12.986,0,0,0-3.942-.541.829.829,0,0,1,0-1.658,14.059,14.059,0,0,1,4.382.592,12.985,12.985,0,0,0,3.942.541,12.386,12.386,0,0,0,3.942-.541,14.593,14.593,0,0,1,4.382-.592,14.059,14.059,0,0,1,4.382.592,12.985,12.985,0,0,0,3.942.541,12.386,12.386,0,0,0,3.942-.541,14.593,14.593,0,0,1,4.382-.592,14.144,14.144,0,0,1,4.382.592,12.985,12.985,0,0,0,3.942.541.829.829,0,0,1,0,1.658Z" transform="translate(-150 -399.8)" fill="#20849e"/>
        </g>
        <g id="Grupo_1190724" data-name="Grupo 1190724" transform="translate(7.918 40.995)">
          <path id="Trazado_1092092" data-name="Trazado 1092092" d="M192.45,353.392a14.059,14.059,0,0,1-4.382-.592,12.986,12.986,0,0,0-3.942-.541,12.386,12.386,0,0,0-3.942.541,14.592,14.592,0,0,1-4.382.592,14.059,14.059,0,0,1-4.382-.592,12.986,12.986,0,0,0-3.942-.541,12.386,12.386,0,0,0-3.942.541,14.592,14.592,0,0,1-4.382.592,14.059,14.059,0,0,1-4.382-.592,12.986,12.986,0,0,0-3.942-.541.829.829,0,1,1,0-1.658,14.059,14.059,0,0,1,4.382.592,12.986,12.986,0,0,0,3.942.541,12.386,12.386,0,0,0,3.942-.541,14.592,14.592,0,0,1,4.382-.592,14.059,14.059,0,0,1,4.382.592,12.986,12.986,0,0,0,3.942.541,12.386,12.386,0,0,0,3.942-.541,14.592,14.592,0,0,1,4.382-.592,14.144,14.144,0,0,1,4.382.592,12.986,12.986,0,0,0,3.942.541.83.83,0,0,1,.829.829A.841.841,0,0,1,192.45,353.392Z" transform="translate(-150 -350.6)" fill="#20849e"/>
        </g>
      </g>
      <g id="Grupo_1190726" data-name="Grupo 1190726" transform="translate(60.062 0)">
        <path id="Trazado_1092093" data-name="Trazado 1092093" d="M403.055,72.238h-6.226a.829.829,0,1,1,0-1.658h6.226a3.982,3.982,0,0,0,3.976-3.976V52.392a1.134,1.134,0,0,0-2.267,0v13.18a2.715,2.715,0,0,1-2.707,2.707h-5.211a.829.829,0,0,1,0-1.658h5.194a1.043,1.043,0,0,0,1.049-1.049V52.392a2.8,2.8,0,0,1,5.6,0v14.2A5.657,5.657,0,0,1,403.055,72.238Z" transform="translate(-396 -49.6)" fill="#20849e"/>
      </g>
      <g id="Grupo_1190727" data-name="Grupo 1190727" transform="translate(0 0)">
        <path id="Trazado_1092094" data-name="Trazado 1092094" d="M60.237,72.221h-13.6A5.654,5.654,0,0,1,41,66.587v-14.2a2.792,2.792,0,1,1,5.583,0v13.2a1.043,1.043,0,0,0,1.049,1.049H60.22a.829.829,0,1,1,0,1.658H47.649a2.715,2.715,0,0,1-2.707-2.707v-13.2a1.134,1.134,0,0,0-2.267,0V66.57a3.982,3.982,0,0,0,3.976,3.976h13.6a.83.83,0,0,1,.829.829.871.871,0,0,1-.846.846Z" transform="translate(-41 -49.6)" fill="#20849e"/>
      </g>
      <g id="Grupo_1190734" data-name="Grupo 1190734" transform="translate(30.251 28.881)">
        <g id="Grupo_1190730" data-name="Grupo 1190730" transform="translate(2.639)">
          <g id="Grupo_1190728" data-name="Grupo 1190728">
            <path id="Trazado_1092095" data-name="Trazado 1092095" d="M236.229,222.618a.83.83,0,0,1-.829-.829v-.66a.829.829,0,1,1,1.658,0v.66A.83.83,0,0,1,236.229,222.618Z" transform="translate(-235.4 -220.3)" fill="#20849e"/>
          </g>
          <g id="Grupo_1190729" data-name="Grupo 1190729" transform="translate(0 4.636)">
            <path id="Trazado_1092096" data-name="Trazado 1092096" d="M236.229,250.018a.83.83,0,0,1-.829-.829v-.66a.829.829,0,0,1,1.658,0v.66A.83.83,0,0,1,236.229,250.018Z" transform="translate(-235.4 -247.7)" fill="#20849e"/>
          </g>
        </g>
        <g id="Grupo_1190733" data-name="Grupo 1190733" transform="translate(0 2.656)">
          <g id="Grupo_1190731" data-name="Grupo 1190731">
            <path id="Trazado_1092097" data-name="Trazado 1092097" d="M221.289,237.658h-.66a.829.829,0,0,1,0-1.658h.66a.829.829,0,0,1,0,1.658Z" transform="translate(-219.8 -236)" fill="#20849e"/>
          </g>
          <g id="Grupo_1190732" data-name="Grupo 1190732" transform="translate(4.636)">
            <path id="Trazado_1092098" data-name="Trazado 1092098" d="M248.689,237.658h-.66a.829.829,0,0,1,0-1.658h.66a.829.829,0,0,1,0,1.658Z" transform="translate(-247.2 -236)" fill="#20849e"/>
          </g>
        </g>
      </g>
      <g id="Grupo_1190741" data-name="Grupo 1190741" transform="translate(41.773 19.372)">
        <g id="Grupo_1190737" data-name="Grupo 1190737" transform="translate(2.656)">
          <g id="Grupo_1190735" data-name="Grupo 1190735">
            <path id="Trazado_1092099" data-name="Trazado 1092099" d="M304.429,166.418a.83.83,0,0,1-.829-.829v-.66a.829.829,0,1,1,1.658,0v.66A.841.841,0,0,1,304.429,166.418Z" transform="translate(-303.6 -164.1)" fill="#20849e"/>
          </g>
          <g id="Grupo_1190736" data-name="Grupo 1190736" transform="translate(0 4.636)">
            <path id="Trazado_1092100" data-name="Trazado 1092100" d="M304.429,193.818a.83.83,0,0,1-.829-.829v-.66a.829.829,0,1,1,1.658,0v.66A.853.853,0,0,1,304.429,193.818Z" transform="translate(-303.6 -191.5)" fill="#20849e"/>
          </g>
        </g>
        <g id="Grupo_1190740" data-name="Grupo 1190740" transform="translate(0 2.639)">
          <g id="Grupo_1190738" data-name="Grupo 1190738">
            <path id="Trazado_1092101" data-name="Trazado 1092101" d="M289.389,181.358h-.66a.829.829,0,0,1,0-1.658h.66a.83.83,0,0,1,.829.829A.82.82,0,0,1,289.389,181.358Z" transform="translate(-287.9 -179.7)" fill="#20849e"/>
          </g>
          <g id="Grupo_1190739" data-name="Grupo 1190739" transform="translate(4.636)">
            <path id="Trazado_1092102" data-name="Trazado 1092102" d="M316.789,181.358h-.66a.829.829,0,1,1,0-1.658h.66a.829.829,0,1,1,0,1.658Z" transform="translate(-315.3 -179.7)" fill="#20849e"/>
          </g>
        </g>
      </g>
    </g>
  </g>
</svg>
