<svg xmlns="http://www.w3.org/2000/svg" width="65.329" height="65.329" viewBox="0 0 65.329 65.329">
  <path id="portero" d="M33.379,32.463H31.318a7.467,7.467,0,0,0,3.018-6v-.451A6.332,6.332,0,0,0,30.078,14.99H23.643a6.333,6.333,0,0,0-4.26,11.024v.451a7.475,7.475,0,0,0,3.018,6h-2.06A5.347,5.347,0,0,0,15,37.805V53.092a2.964,2.964,0,0,0,2.961,2.961h1.48V77.375a2.946,2.946,0,0,0,2.944,2.944h8.949a2.946,2.946,0,0,0,2.944-2.944V56.052h1.48a2.964,2.964,0,0,0,2.961-2.961V37.8A5.347,5.347,0,0,0,33.379,32.463ZM18.93,21.33a4.718,4.718,0,0,1,4.712-4.712h6.435a4.708,4.708,0,0,1,4.258,6.722v-1a.813.813,0,0,0-.55-.77l-6.663-2.278a.813.813,0,0,0-.526,0l-6.664,2.278a.813.813,0,0,0-.55.77v1A4.686,4.686,0,0,1,18.93,21.33Zm2.079,5.135V22.919l5.85-2,5.85,2v3.547a5.85,5.85,0,0,1-11.7,0ZM26.859,36.6,24.376,34.09h4.967Zm3.62-1.344V38.7L28.218,37.54Zm-7.239,0L25.5,37.54,23.24,38.7Zm-2.9-1.166h1.274v5.943a.814.814,0,0,0,1.185.724l3.247-1.668v8.689a.813.813,0,0,0,1.626,0V39.087l3.247,1.668a.813.813,0,0,0,1.185-.724V34.089h1.274A3.719,3.719,0,0,1,37.094,37.8v7.864H34.279v-2.54a.813.813,0,1,0-1.626,0v11.3H21.068v-11.3a.813.813,0,0,0-1.626,0v2.54H16.626V37.8a3.719,3.719,0,0,1,3.715-3.715Zm13.937,13.2h2.815v2.872H34.278ZM19.441,50.166H16.626V47.294h2.815Zm-1.48,4.26a1.337,1.337,0,0,1-1.335-1.335v-1.3h2.815v2.633ZM31.334,78.691H27.672V62.036a.813.813,0,1,0-1.626,0V78.691H22.385a1.319,1.319,0,0,1-1.317-1.317V56.052H32.652V77.374A1.319,1.319,0,0,1,31.334,78.691Zm4.424-24.266h-1.48V51.792h2.815v1.3A1.337,1.337,0,0,1,35.758,54.426Zm42.9,16.552H78.2V52.218A18.716,18.716,0,0,0,63.734,34.027v-.543A1.44,1.44,0,0,0,62.3,32.044H60.337V30.956a2.77,2.77,0,1,0-1.626,0v1.088H56.752a1.44,1.44,0,0,0-1.439,1.439v.543A18.716,18.716,0,0,0,40.85,52.218v18.76h-.458a1.781,1.781,0,0,0-1.671,1.869v1.392a1.781,1.781,0,0,0,1.671,1.869h2.96a3.624,3.624,0,0,0-.037.518,3.692,3.692,0,0,0,7.384,0,3.832,3.832,0,0,0-.037-.518H68.387a3.624,3.624,0,0,0-.037.518,3.692,3.692,0,1,0,7.384,0,3.832,3.832,0,0,0-.037-.518h2.96a1.781,1.781,0,0,0,1.671-1.869V72.847A1.785,1.785,0,0,0,78.655,70.978ZM59.523,27.163a1.144,1.144,0,1,1-1.144,1.144A1.146,1.146,0,0,1,59.523,27.163Zm-2.585,6.508h5.169v1.373H56.939ZM42.476,52.218A17.086,17.086,0,0,1,55.386,35.683a1.441,1.441,0,0,0,1.366.988H62.3a1.441,1.441,0,0,0,1.366-.988A17.087,17.087,0,0,1,76.571,52.218v18.76H72.62a2.333,2.333,0,0,0,.111-.712V54.052a2.342,2.342,0,0,0-2.339-2.339h-.535A2.336,2.336,0,0,0,69.967,51V41.656a2.342,2.342,0,0,0-2.339-2.339H51.416a2.341,2.341,0,0,0-2.338,2.339V51a2.342,2.342,0,0,0,.111.713h-.535a2.342,2.342,0,0,0-2.339,2.339V70.266a2.327,2.327,0,0,0,.111.712H42.475V52.218Zm17.86,18.76V53.339H70.393a.714.714,0,0,1,.713.713V70.266a.713.713,0,0,1-.713.712Zm-12.4-.712V54.052a.714.714,0,0,1,.713-.713H58.71V70.978H48.654A.713.713,0,0,1,47.941,70.266ZM50.7,51V41.657a.713.713,0,0,1,.712-.713H67.63a.714.714,0,0,1,.713.713V51a.714.714,0,0,1-.713.713H51.415A.715.715,0,0,1,50.7,51Zm-3.7,27.69a2.065,2.065,0,1,1,2.065-2.065A2.068,2.068,0,0,1,47.006,78.691Zm25.034,0a2.065,2.065,0,1,1,2.065-2.065A2.068,2.068,0,0,1,72.04,78.691Zm6.66-4.452a.365.365,0,0,1-.079.243H75.042a3.685,3.685,0,0,0-6,0H50.008a3.685,3.685,0,0,0-6,0H40.424a.365.365,0,0,1-.079-.243V72.847a.362.362,0,0,1,.079-.243h38.2a.365.365,0,0,1,.079.243ZM55.574,60.655v3.009a1.817,1.817,0,0,1-1.815,1.815H51.89a.813.813,0,0,1,0-1.626h1.869a.191.191,0,0,0,.188-.188V60.655a.191.191,0,0,0-.188-.188H51.89a.813.813,0,0,1,0-1.626h1.869A1.817,1.817,0,0,1,55.574,60.655Zm12.394,0v3.009a1.817,1.817,0,0,1-1.815,1.815H64.285a.813.813,0,1,1,0-1.626h1.869a.191.191,0,0,0,.188-.188V60.655a.191.191,0,0,0-.188-.188H64.285a.813.813,0,1,1,0-1.626h1.869A1.816,1.816,0,0,1,67.968,60.655ZM61.028,45.707H58.019a.191.191,0,0,0-.188.188v1.869a.813.813,0,1,1-1.626,0V45.9a1.817,1.817,0,0,1,1.815-1.815h3.009A1.817,1.817,0,0,1,62.843,45.9v1.869a.813.813,0,1,1-1.626,0V45.9A.192.192,0,0,0,61.028,45.707Z" transform="translate(-15 -14.99)" fill="#fec190"/>
</svg>
