<svg xmlns="http://www.w3.org/2000/svg" width="63.26" height="78" viewBox="0 0 63.26 78">
  <g id="excursion" transform="translate(-6.25 -0.25)">
    <path id="Trazado_1092263" data-name="Trazado 1092263" d="M20.541,41.25h-7.37a.921.921,0,1,0,0,1.843h7.37a.921.921,0,0,0,0-1.843Z" transform="translate(1.37 9.362)" fill="#20849e"/>
    <path id="Trazado_1092264" data-name="Trazado 1092264" d="M20.541,46.25h-7.37a.921.921,0,0,0,0,1.843h7.37a.921.921,0,0,0,0-1.843Z" transform="translate(1.37 10.504)" fill="#20849e"/>
    <path id="Trazado_1092265" data-name="Trazado 1092265" d="M45.171,26.093h7.37a.921.921,0,1,0,0-1.843h-7.37a.921.921,0,0,0,0,1.843Z" transform="translate(8.677 5.48)" fill="#20849e"/>
    <path id="Trazado_1092266" data-name="Trazado 1092266" d="M45.171,31.093h7.37a.921.921,0,1,0,0-1.843h-7.37a.921.921,0,1,0,0,1.843Z" transform="translate(8.677 6.622)" fill="#20849e"/>
    <path id="Trazado_1092267" data-name="Trazado 1092267" d="M22,9.25h-7.37a3.378,3.378,0,1,0,0,6.756H22A3.378,3.378,0,1,0,22,9.25Zm0,4.913h-7.37a1.535,1.535,0,0,1,0-3.071H22a1.535,1.535,0,0,1,0,3.071Z" transform="translate(1.142 2.055)" fill="#20849e"/>
    <path id="Trazado_1092268" data-name="Trazado 1092268" d="M37,9.25h-7.37a3.378,3.378,0,0,0,0,6.756H37A3.378,3.378,0,1,0,37,9.25Zm0,4.913h-7.37a1.535,1.535,0,1,1,0-3.071H37a1.535,1.535,0,1,1,0,3.071Z" transform="translate(4.567 2.055)" fill="#20849e"/>
    <path id="Trazado_1092269" data-name="Trazado 1092269" d="M52,9.25h-7.37a3.378,3.378,0,1,0,0,6.756H52A3.378,3.378,0,0,0,52,9.25Zm0,4.913h-7.37a1.535,1.535,0,1,1,0-3.071H52a1.535,1.535,0,0,1,0,3.071Z" transform="translate(7.992 2.055)" fill="#20849e"/>
    <path id="Trazado_1092270" data-name="Trazado 1092270" d="M28.171,6.093H38A.921.921,0,0,0,38,4.25H28.171a.921.921,0,0,0,0,1.843Z" transform="translate(4.795 0.913)" fill="#20849e"/>
    <circle id="Elipse_11481" data-name="Elipse 11481" cx="1.228" cy="1.228" r="1.228" transform="translate(46.478 4.856)" fill="#20849e"/>
    <path id="Trazado_1092271" data-name="Trazado 1092271" d="M63.675.25H12.085A5.842,5.842,0,0,0,6.25,6.085V72.415a5.842,5.842,0,0,0,5.835,5.835H63.675a5.842,5.842,0,0,0,5.835-5.835V6.085A5.842,5.842,0,0,0,63.675.25ZM8.093,24.2H45.557V43.242H42.486V34.337a.929.929,0,0,0-.2-.576l-4.913-6.142a.956.956,0,0,0-1.44,0l-4.913,6.142a.929.929,0,0,0-.2.576v1.535H26.825a.921.921,0,0,0-.921.921v1.535H22.833V36.793a.921.921,0,0,0-.921-.921H17a.921.921,0,0,0-.921.921v1.535H13.006V36.793a.921.921,0,0,0-.921-.921H8.093ZM40.644,35.258v7.984H32.659V35.258Zm-6.988-1.843,3-3.746,3,3.745Zm-25.563,4.3h3.071V39.25a.921.921,0,0,0,.921.921H17a.921.921,0,0,0,.921-.921V37.715H20.99V39.25a.921.921,0,0,0,.921.921h4.913a.921.921,0,0,0,.921-.921V37.715h3.071v5.528H8.093Zm0,7.37H28.36V64.124H8.093ZM67.667,72.415a4,4,0,0,1-3.992,3.992H12.085a4,4,0,0,1-3.992-3.992V65.967H67.667ZM51.883,64.124H37.389l7.247-8.7Zm-1.749-4.975,6.171-7.406L66.623,64.124H54.281ZM67.667,62.5,57.013,49.716a.92.92,0,0,0-1.415,0l-6.663,8L45.343,53.4a.92.92,0,0,0-1.415,0L34.991,64.124H30.2V45.085H67.665Zm0-19.258H47.4V24.2H67.667Zm0-20.882H8.093V6.085a4,4,0,0,1,3.992-3.992H63.675a4,4,0,0,1,3.992,3.992Z" fill="#20849e"/>
    <path id="Trazado_1092272" data-name="Trazado 1092272" d="M40.171,59.093h4.913a.921.921,0,1,0,0-1.843H40.171a.921.921,0,0,0,0,1.843Z" transform="translate(7.535 13.016)" fill="#20849e"/>
    <path id="Trazado_1092273" data-name="Trazado 1092273" d="M20.171,59.093h4.913a.921.921,0,1,0,0-1.843H20.171a.921.921,0,1,0,0,1.843Z" transform="translate(2.969 13.016)" fill="#20849e"/>
    <path id="Trazado_1092274" data-name="Trazado 1092274" d="M30.628,62.006h4.913a3.378,3.378,0,1,0,0-6.756H30.628a3.378,3.378,0,0,0,0,6.756Zm0-4.913h4.913a1.535,1.535,0,1,1,0,3.071H30.628a1.535,1.535,0,1,1,0-3.071Z" transform="translate(4.795 12.559)" fill="#20849e"/>
  </g>
</svg>
