<svg xmlns="http://www.w3.org/2000/svg" width="105.006" height="105.006" viewBox="0 0 105.006 105.006">
  <g id="Grupo_1191476" data-name="Grupo 1191476" transform="translate(-6768.997 8950.836)">
    <circle id="Elipse_13746" data-name="Elipse 13746" cx="52.503" cy="52.503" r="52.503" transform="translate(6768.997 -8950.836)" fill="#e9f8fc"/>
    <path id="objetivo" d="M55.356,8.335,52.706,6l2.65-2.333a1.308,1.308,0,0,0-.864-2.29H43.527V.909a.909.909,0,1,0-1.818,0V13.165l-7.464,4.053a2.875,2.875,0,0,0-.3-.955L32.9,14.21a2.875,2.875,0,0,0-3.865-1.247l-.813.416a2.871,2.871,0,0,0-1.247,3.865L28.025,19.3a2.854,2.854,0,0,0,1.035,1.124,7.961,7.961,0,0,0-1.1,2.636l-.2.694a.908.908,0,0,0,.627,1.122.9.9,0,0,0,.247.035.909.909,0,0,0,.874-.662l.2-.692c.4-1.4.643-2.157,1.422-2.58l1.4-.758.172-.088c.057-.029.111-.062.165-.1l9.95-5.4a3.846,3.846,0,0,1-1.835,3.088l-6.47,3.931-.022.013-2.014,1.223a.909.909,0,0,0,.869,1.594L31.818,29.1l-1.117.458L27.664,30.8l.875-3.094a.909.909,0,0,0-1.749-.495L25.407,32.1a.872.872,0,0,0-.033.2l-.362,6.648a3.042,3.042,0,0,1-.074.98l-4.019,8.456H18a3.106,3.106,0,0,0-3.1,3.1v2.623a3.078,3.078,0,0,0-1.285-.28H6.193a3.106,3.106,0,0,0-3.1,3.1v3.255H.909a.909.909,0,1,0,0,1.818H54.49a.909.909,0,0,0,0-1.818H52.127V36.764a3.106,3.106,0,0,0-3.1-3.1h-5.5V17.808a5.667,5.667,0,0,0,.913-4.857.909.909,0,0,0-.913-.667V10.625H54.491a1.308,1.308,0,0,0,.865-2.29Zm-26.83,7.277A1.047,1.047,0,0,1,29.049,15l.813-.416a1.054,1.054,0,0,1,1.419.457l1.052,2.054a1.056,1.056,0,0,1-.35,1.355l-.3.16-.625.32a1.055,1.055,0,0,1-1.419-.458l-1.052-2.053a1.048,1.048,0,0,1-.065-.8ZM26.7,48.665a3.085,3.085,0,0,0-1-.266l1-1.325Zm4.315-7.323a3.425,3.425,0,0,0,.655-1.628c.025-.117.473-2.567.473-2.567s.424.264.469.283a.1.1,0,0,1,.056.079l.494,5.025H30.116Zm5.374-5.016-.767,6.2h-.633l-.511-5.2A1.915,1.915,0,0,0,33.406,35.8l-.914-.58.609-3.374s2.565,3.047,2.625,3.125c.531.69.712.966.663,1.36Zm-9.816,4.4a4.927,4.927,0,0,0,.255-1.687l.33-6.063,4.2-1.722L30.6,35.484c0,.011,0,.023-.006.035l-.632,3.5a3.462,3.462,0,0,1-.38,1.211l-6.141,8.157h-.506ZM4.908,56.933a1.286,1.286,0,0,1,1.285-1.284H13.61A1.286,1.286,0,0,1,14.9,56.933v3.255H4.908Zm11.8,0V51.488A1.286,1.286,0,0,1,18,50.2h7.417A1.286,1.286,0,0,1,26.7,51.488v8.7H16.713V56.933Zm33.6-20.169V60.188H40.322V54.74a.909.909,0,0,0-1.818,0v5.449H28.517V45.637A1.286,1.286,0,0,1,29.8,44.353H37.22A1.286,1.286,0,0,1,38.5,45.637v4.556a.909.909,0,1,0,1.818,0V36.765a1.286,1.286,0,0,1,1.285-1.285h7.417a1.287,1.287,0,0,1,1.285,1.285Zm-8.7-3.1a3.106,3.106,0,0,0-3.1,3.1v6.051a3.076,3.076,0,0,0-1.054-.27l.741-5.995a3.51,3.51,0,0,0-1.027-2.692c-.061-.079-3.593-4.274-3.593-4.274l2.167-6.552,5.969-3.627V33.662ZM43.526,8.807V3.2h9.614L51.07,5.021a1.308,1.308,0,0,0,0,1.963l2.071,1.823H43.526Zm0,0" transform="translate(6788.6 -8934.673)" fill="#20849e"/>
  </g>
</svg>
