<svg id="escucha" xmlns="http://www.w3.org/2000/svg" width="83.11" height="99.074" viewBox="0 0 83.11 99.074">
  <path id="Trazado_1093374" data-name="Trazado 1093374" d="M93.223,100.732H91.772v1.451a8.975,8.975,0,1,0,17.951,0c0-5.148,4.108-8.715,8.865-12.846,5.567-4.834,11.877-10.313,11.877-19.548a19.346,19.346,0,0,0-38.693,0V87.367h1.451a6.683,6.683,0,1,1,0,13.366Zm1.451-16.159V80.29c.159-6.517,3.635-12.013,8.858-14,4.293-1.635,8.744-.446,12.21,3.262l2.121-1.982c-4.249-4.546-9.992-6.038-15.364-3.992a15.926,15.926,0,0,0-7.825,6.594v-.38a16.444,16.444,0,0,1,32.888,0c0,7.911-5.53,12.713-10.877,17.357-4.85,4.211-9.865,8.566-9.865,15.037A6.069,6.069,0,0,1,94.825,103.5a9.587,9.587,0,0,0-.151-18.927Z" transform="translate(-81.996 -40.682)" fill="#c5a07a"/>
  <path id="Trazado_1093375" data-name="Trazado 1093375" d="M274.75,332h23.608v2.9H274.75Z" transform="translate(-229.567 -267.757)" fill="#c5a07a"/>
  <path id="Trazado_1093376" data-name="Trazado 1093376" d="M343.25,369.5H353.6v2.9H343.25Z" transform="translate(-284.812 -297.999)" fill="#c5a07a"/>
  <path id="Trazado_1093377" data-name="Trazado 1093377" d="M274.75,369.5H285.1v2.9H274.75Z" transform="translate(-229.567 -297.999)" fill="#c5a07a"/>
  <path id="Trazado_1093378" data-name="Trazado 1093378" d="M274.75,407h23.608v2.9H274.75Z" transform="translate(-229.567 -328.243)" fill="#c5a07a"/>
  <path id="Trazado_1093379" data-name="Trazado 1093379" d="M98.236,46.828a26.293,26.293,0,0,0-3.155.191c2.307-4.046,4.4-9.627,4.4-17.912A29.072,29.072,0,0,0,56.581,3.5L57.965,6.05A26.276,26.276,0,0,1,96.577,29.107c0,9.24-2.679,14.652-5.4,18.689A26.123,26.123,0,0,0,74.367,83.564C71.743,89.772,66.288,93.6,60,93.6A15.86,15.86,0,0,1,44.152,77.77l.016-48.661A26.288,26.288,0,0,1,55.545,7.539L53.894,5.151A29.191,29.191,0,0,0,41.265,29.107L41.249,77.77A18.765,18.765,0,0,0,60,96.506,18.183,18.183,0,0,0,76.05,86.738a26.035,26.035,0,0,0,2.3,3.146L80.555,88a23.216,23.216,0,1,1,38.107-4l-.176.324V93.2h-8.874l-.324.176a23.233,23.233,0,0,1-26.777-3.342l-1.966,2.135a26.136,26.136,0,0,0,29.8,3.933H121.39V85.058a26.131,26.131,0,0,0-23.153-38.23Z" transform="translate(-41.249 0)" fill="#c5a07a"/>
  <path id="Trazado_1093380" data-name="Trazado 1093380" d="M351.751,276.727h2.9v2.9h-2.9Z" transform="translate(-291.668 -223.179)" fill="#c5a07a"/>
  <path id="Trazado_1093381" data-name="Trazado 1093381" d="M381.751,291.727h2.9v2.9h-2.9Z" transform="translate(-315.862 -235.277)" fill="#c5a07a"/>
</svg>
