<svg id="turista" xmlns="http://www.w3.org/2000/svg" width="87.375" height="119.819" viewBox="0 0 87.375 119.819">
  <path id="Trazado_1092632" data-name="Trazado 1092632" d="M94.782,84.488V74.846A9.652,9.652,0,0,0,85.14,65.2a1.872,1.872,0,0,0,0,3.744,5.9,5.9,0,0,1,5.9,5.9V81.38c-6.27-4.248-15.64-6.052-22.972-7.021V71.589a25,25,0,0,0,3.314-2.64H78.7a1.872,1.872,0,0,0,0-3.744H74.563A23.365,23.365,0,0,0,78.55,52.923,8.3,8.3,0,0,0,84.6,44.948a8.217,8.217,0,0,0-1.816-5.111,9.739,9.739,0,0,0,6.571-9.192,1.878,1.878,0,0,0-1.872-1.872H81.564V28.3a26.223,26.223,0,0,0-3.95-13.854,1.87,1.87,0,0,0-3.183,1.966A22.588,22.588,0,0,1,77.82,28.3v.468H32.7V28.3A22.559,22.559,0,0,1,71.324,12.465a1.867,1.867,0,1,0,2.658-2.621A26.292,26.292,0,0,0,28.956,28.3v.468H23.04a1.878,1.878,0,0,0-1.872,1.872,9.764,9.764,0,0,0,6.571,9.192,8.217,8.217,0,0,0-1.816,5.111,8.317,8.317,0,0,0,6.047,7.975A23.365,23.365,0,0,0,35.958,65.2H23.564a9.652,9.652,0,0,0-9.642,9.642v9.679a11.4,11.4,0,0,0-3.258,7.788v5.354a1.872,1.872,0,1,0,3.744,0V92.314c0-2.546,1.4-4.905,4.156-6.983V97.762a3.291,3.291,0,0,0-2.453,3.164v5.56a3.3,3.3,0,0,0,2.453,3.183v8.369a4.556,4.556,0,0,1-4.156-4.512v-5.991a1.872,1.872,0,0,0-3.744,0v5.991a8.314,8.314,0,0,0,8.312,8.294H89.746a8.31,8.31,0,0,0,8.294-8.294V92.314a11.505,11.505,0,0,0-3.257-7.826Zm-17.8-4.755a44.329,44.329,0,0,1,9.4,3.276V97.631h-9.4Zm1.61-30.854V41.016a4.544,4.544,0,0,1,0,7.863Zm-46.655,0a4.544,4.544,0,0,1,0-7.863Zm-.992-12.207a6.039,6.039,0,0,1-5.729-4.156h60.1a6.022,6.022,0,0,1-5.729,4.156Zm4.737,15.445v-11.7H74.843v11.7a19.583,19.583,0,0,1-39.166,0ZM17.667,81.4V74.846a5.909,5.909,0,0,1,5.9-5.9h15.6A21.908,21.908,0,0,0,42.324,71.5v2.658c-8.242.969-17.7,2.755-24.657,7.245Zm14.041,36.676h-9.4v-8.294h9.4Zm1.4-12.038H19.857v-4.662H33.113Zm40.121-8.088a3.3,3.3,0,0,0-1.928,2.977v5.56a3.323,3.323,0,0,0,1.928,3v8.593H35.453v-8.911a3.289,3.289,0,0,0,1.4-2.677v-5.56a3.289,3.289,0,0,0-1.4-2.677V91.9a1.872,1.872,0,1,0-3.744,0v5.729h-9.4V83.047a46.685,46.685,0,0,1,9.4-3.314v5.916a1.872,1.872,0,0,0,3.744,0V79.134l17.318,26.66a1.881,1.881,0,0,0,1.554.861h.019a1.9,1.9,0,0,0,1.554-.805l8.331-12.132A1.872,1.872,0,0,0,61.139,91.6l-6.74,9.81-15-23.1c1.722-.262,3.351-.449,4.943-.58a1.89,1.89,0,0,0,1.722-1.872V73.536a23.185,23.185,0,0,0,18.254.075v2.415A1.872,1.872,0,0,0,66.007,77.9c.824.072,3.308.423,4.175.562l-4.718,6.852a1.872,1.872,0,1,0,3.089,2.116l4.68-6.8V97.949Zm13.143,20.126h-9.4v-8.294h9.4ZM88.3,106.037H75.049v-4.662H88.3Zm5.991,7.489a4.544,4.544,0,0,1-4.175,4.512v-8.556a3.292,3.292,0,0,0,1.928-3v-5.56a3.265,3.265,0,0,0-1.928-2.977V85.331c2.752,2.078,4.175,4.418,4.175,6.983Z" transform="translate(-10.665 -2)" fill="#7d8c48"/>
  <path id="Trazado_1092633" data-name="Trazado 1092633" d="M30.73,26.555a3,3,0,1,0,3,3A3,3,0,0,0,30.73,26.555Z" transform="translate(4.222 19.416)" fill="#7d8c48"/>
  <path id="Trazado_1092634" data-name="Trazado 1092634" d="M41.035,26.555a3,3,0,1,0,3,3A3,3,0,0,0,41.035,26.555Z" transform="translate(13.21 19.416)" fill="#7d8c48"/>
  <path id="Trazado_1092635" data-name="Trazado 1092635" d="M35.359,34.965a1.871,1.871,0,0,0,1.872-1.872V30.155a1.872,1.872,0,0,0-3.744,0v2.938A1.871,1.871,0,0,0,35.359,34.965Z" transform="translate(9.24 20.923)" fill="#7d8c48"/>
  <path id="Trazado_1092636" data-name="Trazado 1092636" d="M31.145,34.331a1.868,1.868,0,0,0,.358,2.622,10.26,10.26,0,0,0,6.231,2.322,10.258,10.258,0,0,0,6.229-2.322,1.871,1.871,0,1,0-2.263-2.98c-2.742,2.082-5.191,2.079-7.933,0a1.866,1.866,0,0,0-2.622.358Z" transform="translate(6.864 25.552)" fill="#7d8c48"/>
  <path id="Trazado_1092637" data-name="Trazado 1092637" d="M35.28,27.305a1.872,1.872,0,1,0,0-3.744H28.358a1.872,1.872,0,1,0,0,3.744Z" transform="translate(3.134 16.805)" fill="#7d8c48"/>
  <path id="Trazado_1092638" data-name="Trazado 1092638" d="M38.663,27.305h6.922a1.872,1.872,0,1,0,0-3.744H38.663a1.872,1.872,0,0,0,0,3.744Z" transform="translate(12.121 16.805)" fill="#7d8c48"/>
</svg>
