<svg id="escucha-activa" xmlns="http://www.w3.org/2000/svg" width="96.601" height="99.074" viewBox="0 0 96.601 99.074">
  <path id="Trazado_1093366" data-name="Trazado 1093366" d="M181.793,232.346a1.451,1.451,0,0,0,1.451-1.451v-1.976a1.451,1.451,0,0,0-2.9,0V230.9A1.451,1.451,0,0,0,181.793,232.346Z" transform="translate(-146.682 -183.452)" fill="#7d8c48"/>
  <path id="Trazado_1093367" data-name="Trazado 1093367" d="M169.764,267.392a1.451,1.451,0,0,0-1.736-1.1,17.114,17.114,0,0,1-7.634.021,1.451,1.451,0,0,0-.8,2.789,17.53,17.53,0,0,0,4.506.529,20.769,20.769,0,0,0,4.572-.507A1.451,1.451,0,0,0,169.764,267.392Z" transform="translate(-129.101 -214.737)" fill="#7d8c48"/>
  <path id="Trazado_1093368" data-name="Trazado 1093368" d="M90.6,70.7l-21-25.908-2.5-9.159a4.9,4.9,0,0,0-1.736-2.582v-3.6h1.99a4.014,4.014,0,0,0,4.01-4.01V21.534a6.356,6.356,0,0,1,1.592-4.129,10.532,10.532,0,1,0-17.948-3.468c-.769-.186-9.869-.063-10.882-.1a23.474,23.474,0,0,1-11.966-3.28,3.906,3.906,0,0,0-1.982-.55,3.961,3.961,0,0,0-3.03,1.444,3.867,3.867,0,0,0-.795,3.224l.746,3.727H24.3a6.768,6.768,0,0,0-4.928,2.115A6.391,6.391,0,0,0,17.637,25.3v12.38a3.624,3.624,0,0,0-2.066,3.266v3.514a3.627,3.627,0,0,0,3.623,3.623h3.461v2.833a14.028,14.028,0,0,0,10.78,13.6v6.118a1.451,1.451,0,0,0,1.451,1.451H71.84l2.606,3.921a1.451,1.451,0,1,0,2.417-1.606L73.8,69.793,67.4,59.2l6.924-3.974L88.251,72.409a6.992,6.992,0,0,1-5.16,10l-20.91,3.157V83.029a1.451,1.451,0,0,0-2.9,0V94a2.168,2.168,0,0,1-2.165,2.165H23.727v-12.3a1.451,1.451,0,0,0-2.9,0v12.3H11.459A2.168,2.168,0,0,1,9.294,94V82.481A10.4,10.4,0,0,1,19.68,72.1h8.427a1.451,1.451,0,0,0,0-2.9H19.679A13.3,13.3,0,0,0,6.391,82.481V94a5.074,5.074,0,0,0,5.068,5.068H57.113A5.074,5.074,0,0,0,62.181,94v-5.5l21.344-3.223c6.62-.791,10.608-8.909,7.073-14.588ZM60.349,40.23h3.461a.721.721,0,0,1,.721.721v3.514a.721.721,0,0,1-.721.721H60.349Zm3.461-2.9H60.349c-.265-2.458,3.24-3.353,3.954-.933l.278,1.017a3.618,3.618,0,0,0-.77-.084Zm4.654-11.886a1.109,1.109,0,0,1-1.107,1.107H62.6A1.109,1.109,0,0,1,61.5,25.442V23.018h6.969v2.424ZM57.356,10.2A7.631,7.631,0,1,1,70.762,15.51a9.406,9.406,0,0,0-2.181,4.605h-7.2A9.414,9.414,0,0,0,59.2,15.509,7.607,7.607,0,0,1,57.356,10.2ZM21.49,22.507a3.856,3.856,0,0,1,2.81-1.2h4.574A1.451,1.451,0,0,0,30.3,19.573L29.2,14.11A.948.948,0,0,1,29.4,13.3a1,1,0,0,1,1.289-.236A26.376,26.376,0,0,0,44.13,16.744h9.377c3.312-.175,5.046,1.6,5.085,4.822v3.876a4.012,4.012,0,0,0,3.872,4v2.6a4.947,4.947,0,0,0-3.607,1.5,9.361,9.361,0,0,0-7.871-4.3H30.879a1.451,1.451,0,0,0-1.437,1.247,7.73,7.73,0,0,1-5.581,6.841H20.54V25.261c0-.031,0-.063,0-.094a3.519,3.519,0,0,1,.953-2.66Zm-2.3,22.678a.721.721,0,0,1-.721-.721V40.951a.721.721,0,0,1,.721-.721h3.461v4.955ZM36.339,69.193V63.36a1.451,1.451,0,0,0-1.193-1.428,11.244,11.244,0,0,1-9.587-11.011V39.8a10.373,10.373,0,0,0,6.526-7.653h18.9a6.467,6.467,0,0,1,6.459,6.441V50.921A11.244,11.244,0,0,1,47.86,61.932a1.451,1.451,0,0,0-1.193,1.428v5.833H36.339Zm13.23,0V64.526A14.1,14.1,0,0,0,60.149,53.3c2.521,3.678,7.576,11.987,9.893,15.894ZM72.475,52.945l-6.615,3.8-4.546-6.97-.03-.045a5.085,5.085,0,0,1-.763-1.639h3.29a3.625,3.625,0,0,0,3.2-1.927,1.453,1.453,0,0,0,.144.218Z" transform="translate(-6.391 0.002)" fill="#7d8c48"/>
  <path id="Trazado_1093369" data-name="Trazado 1093369" d="M404.945,87.295a1.451,1.451,0,0,0-2.052-2.052,27.419,27.419,0,0,0,0,38.733,1.451,1.451,0,0,0,2.052-2.052A24.513,24.513,0,0,1,404.945,87.295Z" transform="translate(-319.709 -68.404)" fill="#7d8c48"/>
  <path id="Trazado_1093370" data-name="Trazado 1093370" d="M439.321,198.175a1.451,1.451,0,1,0-2.853.533,19.527,19.527,0,0,0,5.412,10.264,1.451,1.451,0,0,0,2.052-2.052A16.637,16.637,0,0,1,439.321,198.175Z" transform="translate(-353.226 -158.871)" fill="#7d8c48"/>
  <path id="Trazado_1093371" data-name="Trazado 1093371" d="M437.674,125.414a1.468,1.468,0,0,0,.272.026,1.452,1.452,0,0,0,1.424-1.181,16.638,16.638,0,0,1,4.6-8.7,1.451,1.451,0,0,0-2.052-2.052,19.529,19.529,0,0,0-5.4,10.209,1.451,1.451,0,0,0,1.155,1.7Z" transform="translate(-353.267 -91.202)" fill="#7d8c48"/>
  <path id="Trazado_1093372" data-name="Trazado 1093372" d="M477.669,150.2a8.956,8.956,0,0,1,2.641-6.375,1.451,1.451,0,1,0-2.052-2.052,11.917,11.917,0,0,0,0,16.854,1.451,1.451,0,1,0,2.052-2.052A8.956,8.956,0,0,1,477.669,150.2Z" transform="translate(-384.134 -113.998)" fill="#7d8c48"/>
  <path id="Trazado_1093373" data-name="Trazado 1093373" d="M295.57,45.411a1.446,1.446,0,0,0,1.026-.425l2.922-2.922a1.451,1.451,0,1,0-2.052-2.052l-2.922,2.922a1.451,1.451,0,0,0,1.026,2.477Z" transform="translate(-238.443 -31.926)" fill="#7d8c48"/>
</svg>
