<svg id="turismo" xmlns="http://www.w3.org/2000/svg" width="99.416" height="99.414" viewBox="0 0 99.416 99.414">
  <g id="Grupo_1190969" data-name="Grupo 1190969" transform="translate(0.002 49.752)">
    <path id="Trazado_1092598" data-name="Trazado 1092598" d="M7.78,47.525q-1.34,0-2.819,0l-3.406,0a1.553,1.553,0,1,1,0-3.107l3.413,0c7.944.016,14.8.031,15.673-1.283a9.421,9.421,0,0,0,.669-1.505c.662-1.715,1.569-4.062,3.925-4.683A4.957,4.957,0,0,1,27.716,37c.573.127.73.146.949.04A2.066,2.066,0,0,0,29.7,35.148c-.017-.057-.033-.12-.255-.266a1.553,1.553,0,1,1,1.7-2.6,3.477,3.477,0,0,1,1.55,2.038,5.06,5.06,0,0,1-2.683,5.519,4.2,4.2,0,0,1-2.97.19,2.13,2.13,0,0,0-1.014-.082c-.819.216-1.348,1.586-1.816,2.8a11,11,0,0,1-.977,2.1c-1.643,2.473-6.086,2.679-15.449,2.679Z" transform="translate(-0.001 -32.029)" fill="#7d8c48"/>
    <path id="Trazado_1092599" data-name="Trazado 1092599" d="M76.723,52.17c-.05,0-.1,0-.149-.008-5.25-.062-9.617-3.447-12.813-5.923-1.3-1.008-3.08-2.387-3.675-2.387h0a11.068,11.068,0,0,0-2.9.559,19.714,19.714,0,0,1-6.423.9c-2.369-.065-7.294-.2-10.341-3.394a7.847,7.847,0,0,1-1.337-9.059,1.554,1.554,0,0,1,2.753,1.445,4.738,4.738,0,0,0,.834,5.469c2.164,2.266,6.224,2.378,8.177,2.431a16.228,16.228,0,0,0,5.491-.784,14.074,14.074,0,0,1,3.691-.679c1.735-.068,3.344,1.258,5.643,3.038,3.031,2.35,6.805,5.275,11.058,5.275a1.556,1.556,0,0,1,0,3.113Z" transform="translate(21.136 -32.028)" fill="#7d8c48"/>
  </g>
  <path id="Trazado_1092600" data-name="Trazado 1092600" d="M53.553,42.96A1.552,1.552,0,0,1,52,41.407V16.553a1.553,1.553,0,1,1,3.107,0V41.407A1.552,1.552,0,0,1,53.553,42.96Z" transform="translate(28.773 8.3)" fill="#7d8c48"/>
  <path id="Trazado_1092601" data-name="Trazado 1092601" d="M53.555,23.66a1.554,1.554,0,0,1-.7-2.944l3.107-1.553a1.554,1.554,0,0,1,1.39,2.779L54.248,23.5a1.562,1.562,0,0,1-.693.163Z" transform="translate(28.773 10.513)" fill="#7d8c48"/>
  <path id="Trazado_1092602" data-name="Trazado 1092602" d="M54.658,21.659a1.557,1.557,0,0,1-.693-.163l-3.107-1.553a1.554,1.554,0,0,1,1.39-2.779l3.107,1.553a1.554,1.554,0,0,1-.7,2.944Z" transform="translate(27.667 9.407)" fill="#7d8c48"/>
  <path id="Trazado_1092603" data-name="Trazado 1092603" d="M40.553,42.407A1.552,1.552,0,0,1,39,40.853v-23.3a1.553,1.553,0,1,1,3.107,0v23.3A1.552,1.552,0,0,1,40.553,42.407Z" transform="translate(21.58 8.853)" fill="#7d8c48"/>
  <path id="Trazado_1092604" data-name="Trazado 1092604" d="M40.555,24.66a1.554,1.554,0,0,1-.7-2.944l3.107-1.553a1.554,1.554,0,0,1,1.39,2.779L41.248,24.5a1.562,1.562,0,0,1-.693.163Z" transform="translate(21.58 11.067)" fill="#7d8c48"/>
  <path id="Trazado_1092605" data-name="Trazado 1092605" d="M41.658,22.659a1.557,1.557,0,0,1-.693-.163l-3.107-1.553a1.554,1.554,0,0,1,1.39-2.779l3.107,1.553a1.554,1.554,0,0,1-.7,2.944Z" transform="translate(20.473 9.961)" fill="#7d8c48"/>
  <path id="Trazado_1092606" data-name="Trazado 1092606" d="M64.747,36.959A9.219,9.219,0,0,1,57.8,33.82q-.368-.035-.75-.1a7.688,7.688,0,0,1-6.288,3.243A7.775,7.775,0,0,1,43,29.194a7.659,7.659,0,0,1,2.086-5.274,6.082,6.082,0,0,1-.533-2.493,6.216,6.216,0,0,1,7.88-5.987,7.754,7.754,0,0,1,14.78-1.713,6.223,6.223,0,0,1,5.3,6.147,6.091,6.091,0,0,1-.377,2.1,9.312,9.312,0,0,1-7.389,14.99Zm-6.181-6.216a1.555,1.555,0,0,1,1.24.617,6.2,6.2,0,1,0,9.385-8.052,1.554,1.554,0,0,1-.227-1.873,3.05,3.05,0,0,0,.443-1.563A3.11,3.11,0,0,0,66.3,16.765c.02.008-.062.017-.146.02a1.5,1.5,0,0,1-1.572-1.168,4.647,4.647,0,0,0-9.042,2.151,1.553,1.553,0,0,1-2.6,1.44A3.093,3.093,0,0,0,48.3,23.287a1.553,1.553,0,0,1-.309,2.182A4.619,4.619,0,0,0,46.1,29.191a4.644,4.644,0,0,0,8.817,2.055,1.558,1.558,0,0,1,1.838-.8,6.142,6.142,0,0,0,1.716.3c.031,0,.061,0,.089,0Z" transform="translate(23.793 4.981)" fill="#7d8c48"/>
  <path id="Trazado_1092607" data-name="Trazado 1092607" d="M39.767,35.975c-4.5,0-7.767-3.554-7.767-8.45a8.359,8.359,0,0,1,1.7-5.073,5.556,5.556,0,0,1-.315-1.839,5.711,5.711,0,0,1,4.769-5.625,7.067,7.067,0,0,1,13.391,1.466,5.623,5.623,0,0,1,1.334-.162,1.591,1.591,0,0,1,1.6,1.553A1.513,1.513,0,0,1,52.968,19.4h-.093a2.572,2.572,0,0,0-1.8.75,1.553,1.553,0,0,1-2.611-1.412,4.712,4.712,0,0,0,.109-.892,3.96,3.96,0,0,0-7.8-.969,1.55,1.55,0,0,1-1.8,1.142,2.6,2.6,0,0,0-2.487,2.593,2.51,2.51,0,0,0,.37,1.3,1.554,1.554,0,0,1-.227,1.887A5.269,5.269,0,0,0,35.1,27.522c0,2.574,1.457,5.343,4.66,5.343a6.8,6.8,0,0,0,4.946-2.15,1.546,1.546,0,0,1,1.238-.615,3.109,3.109,0,0,1,1.364.367,10.324,10.324,0,0,0,4.881.845,1.553,1.553,0,1,1,0,3.107,13.894,13.894,0,0,1-5.8-.958,10.2,10.2,0,0,1-6.628,2.512Z" transform="translate(17.707 5.965)" fill="#7d8c48"/>
  <path id="Trazado_1092608" data-name="Trazado 1092608" d="M45.62,40.372a1.545,1.545,0,0,1-1.148-.506L32.4,26.628a3.174,3.174,0,0,0-4.624-.008L15.7,39.865a1.554,1.554,0,1,1-2.3-2.094L25.477,24.534a6.214,6.214,0,0,1,9.23.008L46.771,37.773a1.553,1.553,0,0,1-1.148,2.6Z" transform="translate(7.193 12.442)" fill="#7d8c48"/>
  <path id="Trazado_1092609" data-name="Trazado 1092609" d="M1.553,43.115A1.553,1.553,0,0,1,.385,40.538l18.3-20.861a6.206,6.206,0,0,1,4.634-2.148,6.11,6.11,0,0,1,4.665,2.057l6.957,7.734A1.553,1.553,0,1,1,32.631,29.4l-6.959-7.736a3.294,3.294,0,0,0-2.322-1.025,3.106,3.106,0,0,0-2.319,1.078L2.721,42.585a1.549,1.549,0,0,1-1.168.53Z" transform="translate(0 9.699)" fill="#7d8c48"/>
  <path id="Trazado_1092610" data-name="Trazado 1092610" d="M14.66,29.184c-.05,0-.1,0-.154-.008a1.55,1.55,0,0,1-1.139-.683l-3.107-4.66a1.554,1.554,0,1,1,2.585-1.724L14.9,25.192l1.768-1.768a1.545,1.545,0,0,1,1.793-.292l1.88.94,2.083-3.13a1.553,1.553,0,0,1,2.585,1.721l-2.843,4.272a1.557,1.557,0,0,1-1.987.53l-2.1-1.053L15.76,28.726a1.555,1.555,0,0,1-1.1.455Z" transform="translate(5.533 11.203)" fill="#7d8c48"/>
  <path id="Trazado_1092611" data-name="Trazado 1092611" d="M23.566,32.861c-.05,0-.1,0-.152-.008a1.551,1.551,0,0,1-1.14-.682l-2.843-4.256a1.554,1.554,0,0,1,2.585-1.727l1.789,2.683L25.575,27.1a1.548,1.548,0,0,1,1.793-.292l1.881.94,1.493-2.232a1.553,1.553,0,0,1,2.582,1.727L31.07,30.617a1.553,1.553,0,0,1-1.985.527l-2.1-1.053L24.666,32.4a1.555,1.555,0,0,1-1.1.455Z" transform="translate(10.607 13.739)" fill="#7d8c48"/>
  <path id="Trazado_1092612" data-name="Trazado 1092612" d="M27.427,22.64a10.327,10.327,0,0,1-7.757-3.107H19.66a4.66,4.66,0,0,1-1.409-9.1A6.227,6.227,0,0,1,24.32,5.553a6.128,6.128,0,0,1,3.22.915A6.963,6.963,0,0,1,39.644,9.4a6.2,6.2,0,0,1-2.9,11.687,6.087,6.087,0,0,1-2.6-.583A11.034,11.034,0,0,1,27.427,22.64Zm-7.06-6.3a1.557,1.557,0,0,1,1.3.707c.982,1.511,3.242,2.488,5.757,2.488a7.459,7.459,0,0,0,5.381-2,1.553,1.553,0,0,1,2.08-.188,3.073,3.073,0,0,0,1.859.638,3.094,3.094,0,0,0,1-6.027A1.555,1.555,0,0,1,36.7,10.628a3.861,3.861,0,0,0-7.389-1.2A1.552,1.552,0,0,1,26.7,9.8a3.088,3.088,0,0,0-5.482,1.97,1.552,1.552,0,0,1-1.553,1.553,1.553,1.553,0,1,0,0,3.107,1.621,1.621,0,0,0,.354-.047,1.53,1.53,0,0,1,.354-.04Z" transform="translate(8.3 2.213)" fill="#7d8c48"/>
  <g id="Grupo_1190970" data-name="Grupo 1190970">
    <path id="Trazado_1092613" data-name="Trazado 1092613" d="M8.66,13.32a4.66,4.66,0,1,1,4.66-4.66A4.666,4.666,0,0,1,8.66,13.32Zm0-6.213A1.553,1.553,0,1,0,10.213,8.66,1.554,1.554,0,0,0,8.66,7.107Z" transform="translate(2.213 2.213)" fill="#7d8c48"/>
    <path id="Trazado_1092614" data-name="Trazado 1092614" d="M7.553,15.66A1.552,1.552,0,0,1,6,14.107V12.553a1.553,1.553,0,0,1,3.107,0v1.553A1.552,1.552,0,0,1,7.553,15.66Z" transform="translate(3.32 6.087)" fill="#7d8c48"/>
    <path id="Trazado_1092615" data-name="Trazado 1092615" d="M7.553,4.66A1.552,1.552,0,0,1,6,3.107V1.553a1.553,1.553,0,0,1,3.107,0V3.107A1.552,1.552,0,0,1,7.553,4.66Z" transform="translate(3.32)" fill="#7d8c48"/>
    <path id="Trazado_1092616" data-name="Trazado 1092616" d="M3.107,9.107H1.553A1.553,1.553,0,1,1,1.553,6H3.107a1.553,1.553,0,1,1,0,3.107Z" transform="translate(0 3.32)" fill="#7d8c48"/>
    <path id="Trazado_1092617" data-name="Trazado 1092617" d="M14.107,9.107H12.553a1.553,1.553,0,1,1,0-3.107h1.553a1.553,1.553,0,1,1,0,3.107Z" transform="translate(6.087 3.32)" fill="#7d8c48"/>
    <path id="Trazado_1092618" data-name="Trazado 1092618" d="M12.187,13.74a1.549,1.549,0,0,1-1.1-.455l-1.1-1.1a1.553,1.553,0,0,1,2.2-2.2l1.1,1.1a1.553,1.553,0,0,1-1.1,2.652Z" transform="translate(5.276 5.276)" fill="#7d8c48"/>
    <path id="Trazado_1092619" data-name="Trazado 1092619" d="M4.41,5.963a1.549,1.549,0,0,1-1.1-.455l-1.1-1.1a1.553,1.553,0,1,1,2.2-2.2l1.1,1.1a1.553,1.553,0,0,1-1.1,2.652Z" transform="translate(0.973 0.973)" fill="#7d8c48"/>
    <path id="Trazado_1092620" data-name="Trazado 1092620" d="M3.311,13.74a1.553,1.553,0,0,1-1.1-2.652l1.1-1.1a1.553,1.553,0,0,1,2.2,2.2l-1.1,1.1a1.549,1.549,0,0,1-1.1.455Z" transform="translate(0.973 5.276)" fill="#7d8c48"/>
    <path id="Trazado_1092621" data-name="Trazado 1092621" d="M11.088,5.963a1.553,1.553,0,0,1-1.1-2.652l1.1-1.1a1.553,1.553,0,0,1,2.2,2.2l-1.1,1.1A1.549,1.549,0,0,1,11.088,5.963Z" transform="translate(5.276 0.973)" fill="#7d8c48"/>
  </g>
  <path id="Trazado_1092622" data-name="Trazado 1092622" d="M97.86,35.107H1.553a1.553,1.553,0,0,1,0-3.107H97.86a1.553,1.553,0,0,1,0,3.107Z" transform="translate(0 17.707)" fill="#7d8c48"/>
  <path id="Trazado_1092623" data-name="Trazado 1092623" d="M15.552,81.706a1.553,1.553,0,0,1-1.35-2.319l26.407-46.6a1.553,1.553,0,0,1,2.7,1.532L16.9,80.919A1.556,1.556,0,0,1,15.552,81.706Z" transform="translate(7.747 17.707)" fill="#7d8c48"/>
  <path id="Trazado_1092624" data-name="Trazado 1092624" d="M49.533,81.707A1.552,1.552,0,0,1,48.045,80.6L34.065,34a1.553,1.553,0,0,1,2.976-.892l13.98,46.6a1.555,1.555,0,0,1-1.042,1.934A1.589,1.589,0,0,1,49.533,81.707Z" transform="translate(18.813 17.707)" fill="#7d8c48"/>
  <path id="Trazado_1092625" data-name="Trazado 1092625" d="M22.087,58.427H6.553A1.552,1.552,0,0,1,5,56.873v-9.32A1.552,1.552,0,0,1,6.553,46H22.087a1.552,1.552,0,0,1,1.553,1.553v9.32A1.552,1.552,0,0,1,22.087,58.427ZM8.107,55.32H20.533V49.107H8.107Z" transform="translate(2.767 25.453)" fill="#7d8c48"/>
  <path id="Trazado_1092626" data-name="Trazado 1092626" d="M11.553,70.64A1.552,1.552,0,0,1,10,69.087V53.553a1.553,1.553,0,1,1,3.107,0V69.087A1.552,1.552,0,0,1,11.553,70.64Z" transform="translate(5.533 28.773)" fill="#7d8c48"/>
  <path id="Trazado_1092627" data-name="Trazado 1092627" d="M56.515,60.98H53.408a1.552,1.552,0,0,1-1.553-1.553V56.32A9.329,9.329,0,0,1,61.175,47h3.107a1.552,1.552,0,0,1,1.553,1.553V51.66A9.329,9.329,0,0,1,56.515,60.98Zm-1.553-3.107h1.553a6.22,6.22,0,0,0,6.213-6.213V50.107H61.175a6.22,6.22,0,0,0-6.213,6.213Z" transform="translate(28.693 26.007)" fill="#7d8c48"/>
  <path id="Trazado_1092628" data-name="Trazado 1092628" d="M57.282,65.98H54.175a9.329,9.329,0,0,1-9.32-9.32V53.553A1.552,1.552,0,0,1,46.408,52h3.107a9.329,9.329,0,0,1,9.32,9.32v3.107A1.552,1.552,0,0,1,57.282,65.98Zm-9.32-10.873V56.66a6.22,6.22,0,0,0,6.213,6.213h1.553V61.32a6.22,6.22,0,0,0-6.213-6.213Z" transform="translate(24.82 28.773)" fill="#7d8c48"/>
  <path id="Trazado_1092629" data-name="Trazado 1092629" d="M53.408,70.64a1.552,1.552,0,0,1-1.553-1.553V53.553a1.553,1.553,0,1,1,3.107,0V69.087A1.552,1.552,0,0,1,53.408,70.64Z" transform="translate(28.693 28.773)" fill="#7d8c48"/>
  <path id="Trazado_1092630" data-name="Trazado 1092630" d="M32.555,51.428a1.44,1.44,0,0,1-.256-.022,1.552,1.552,0,0,1-1.277-1.786l1.553-9.32a1.553,1.553,0,0,1,3.063.509l-1.553,9.32A1.553,1.553,0,0,1,32.555,51.428Z" transform="translate(17.153 21.579)" fill="#7d8c48"/>
  <path id="Trazado_1092631" data-name="Trazado 1092631" d="M30.555,65.533a1.652,1.652,0,0,1-.194-.012,1.552,1.552,0,0,1-1.348-1.734L30.566,51.36a1.553,1.553,0,0,1,3.082.385L32.094,64.172A1.553,1.553,0,0,1,30.555,65.533Z" transform="translate(16.047 27.667)" fill="#7d8c48"/>
</svg>
