<svg xmlns="http://www.w3.org/2000/svg" width="124" height="124" viewBox="0 0 124 124">
  <g id="Grupo_1190973" data-name="Grupo 1190973" transform="translate(-1081 -7961.452)">
    <g id="Grupo_1190818" data-name="Grupo 1190818" transform="translate(-21.223 4775)">
      <circle id="Elipse_11474" data-name="Elipse 11474" cx="62" cy="62" r="62" transform="translate(1102.223 3186.452)" fill="#fff"/>
    </g>
    <g id="turista_1_" data-name="turista (1)" transform="translate(1109.049 7977.002)">
      <path id="Trazado_1092645" data-name="Trazado 1092645" d="M103.53,82a1.6,1.6,0,0,0,1.593-1.77l-1.7-16.038a17.652,17.652,0,0,0-12.55-15.2l-5.59-1.729h0l-5.336-1.65-.981-7.252a16.544,16.544,0,0,0,7.164-13.624v-4.51H91.14a1.6,1.6,0,0,0,1.2-2.668l-5.886-6.6V9.668A9.679,9.679,0,0,0,76.78,0a1.6,1.6,0,0,0,0,3.2,6.472,6.472,0,0,1,6.465,6.465v.3H56.163v-.3A6.472,6.472,0,0,1,62.628,3.2H62.7a1.6,1.6,0,0,0,0-3.2h-.069A9.679,9.679,0,0,0,52.96,9.668v1.3l-5.74,6.6a1.6,1.6,0,0,0,1.209,2.652h4.605v4.51a16.547,16.547,0,0,0,7.326,13.734L59.393,45.6l-11.08,3.39A17.672,17.672,0,0,0,35.742,64.181l-1.7,16.046A1.6,1.6,0,0,0,35.637,82ZM60.211,48.7a12.2,12.2,0,0,0,10.06,4.573,11.789,11.789,0,0,0,8.879-4.564l3.217.995a14.91,14.91,0,0,1-12.6,6.783,15.338,15.338,0,0,1-12.792-6.8Zm-4.92-35.535H84.13l3.436,3.851H51.943Zm.946,11.564v-4.51H82.929v4.51a13.346,13.346,0,1,1-26.692,0Zm8.091,15.694a16.607,16.607,0,0,0,11.631-.419l.873,6.453a8.517,8.517,0,0,1-6.967,3.624,9.007,9.007,0,0,1-7.353-3.644l.861-6.364Q63.845,40.266,64.328,40.426Zm-25.4,24.083,0-.018A14.444,14.444,0,0,1,49.216,52.068l.023-.007,4.548-1.392a18.588,18.588,0,0,0,15.978,9.026,18.114,18.114,0,0,0,15.766-9.008l4.418,1.366.037.011a14.388,14.388,0,0,1,10.251,12.411q0,.017,0,.035l1.51,14.285H94.1V65.034a1.6,1.6,0,0,0-3.2,0v13.76H67.078V71.44a1.6,1.6,0,0,0-1.6-1.6H53.615a1.6,1.6,0,0,0-1.6,1.6v7.354H48.268V65.034a1.6,1.6,0,0,0-3.2,0v13.76H37.417ZM55.216,78.795V73.042h8.658v5.753Z" transform="translate(-34.035 0)" fill="#20849e"/>
      <path id="Trazado_1092646" data-name="Trazado 1092646" d="M238.776,144.921h2.5a1.6,1.6,0,0,0,0-3.2h-1.316l1.034-3.051a1.6,1.6,0,0,0-3.034-1.028l-1.412,4.168a2.357,2.357,0,0,0,2.233,3.114Z" transform="translate(-204.007 -114.682)" fill="#20849e"/>
      <path id="Trazado_1092647" data-name="Trazado 1092647" d="M250.225.727A1.612,1.612,0,0,0,248,.284a1.6,1.6,0,1,0,2.221.444Z" transform="translate(-213.144 -0.015)" fill="#20849e"/>
    </g>
  </g>
</svg>
